<svg width="24" height="24" viewBox="0 0 24 24" fill="none" xmlns="http://www.w3.org/2000/svg">
<rect width="24" height="24" rx="12" fill="#E4EBF1"/>
<g clip-path="url(#clip0_5509_69368)">
<path d="M12.9629 10.6189C13.021 10.4806 13.0799 10.3422 13.0846 10.1992H11.2241L11.1799 10.2291L11.1264 10.4114C11.083 10.545 11.1799 10.5198 11.2288 10.545C11.3799 10.6086 11.4233 10.7179 11.3946 10.8507L10.8047 12.6975C10.7319 12.9002 10.5807 12.9246 10.352 12.9544C10.3133 13.0778 10.2985 13.1218 10.2598 13.2255L10.2985 13.2656H13.635L14.0396 11.9367C13.9512 11.9077 13.8396 11.9022 13.7133 11.932C13.6303 12.0656 13.6156 12.2731 13.5133 12.4554C13.4497 12.5694 13.3474 12.6778 13.1869 12.7619C12.8652 12.9002 12.6466 12.8405 12.1636 12.846C12.1249 12.846 12.0815 12.8405 12.0474 12.8358C11.9737 12.831 11.9737 12.8059 11.9838 12.7564L12.583 10.8216C12.6412 10.6637 12.8024 10.6338 12.9629 10.6189Z" fill="#0089CF"/>
<path fill-rule="evenodd" clip-rule="evenodd" d="M12.0024 18.0007C8.6853 18.0007 6.00391 15.3202 6.00391 12.0039C6.00391 8.68836 8.6853 6.00781 12.0024 6.00781C15.3194 6.00781 18.0008 8.68836 18.0008 12.0039C18.0008 15.3202 15.3194 18.0007 12.0024 18.0007ZM14.5814 12.0015C14.5814 10.5768 13.4287 9.42471 12.0024 9.42471C10.576 9.42471 9.42329 10.5768 9.42329 12.0015C9.42329 13.4271 10.576 14.5791 12.0024 14.5791C13.4287 14.5791 14.5814 13.4271 14.5814 12.0015ZM7.97135 8.84632L7.94732 8.95005C7.93724 10.2687 8.51243 11.4829 8.84809 11.8632C9.05274 8.87618 11.4303 7.22746 12.1512 6.86675C10.183 6.68915 8.2884 8.17048 7.97135 8.84632ZM8.87755 16.0502L8.98995 16.0746C10.29 16.0848 11.4838 15.5072 11.8636 15.1614C8.91631 14.9493 7.2853 12.5446 6.93414 11.8137C6.74887 13.809 8.21553 15.7296 8.87755 16.0502ZM16.0334 15.1614L16.0574 15.053C16.062 13.7398 15.4876 12.5296 15.1558 12.1398C14.9465 15.1222 12.5698 16.7709 11.8489 17.1363C13.8217 17.3194 15.7163 15.8334 16.0334 15.1614ZM15.1171 7.96302L15.0101 7.93316C13.7093 7.92373 12.5117 8.50133 12.1365 8.84632C15.083 9.05379 16.7101 11.4632 17.0706 12.1893C17.2458 10.1948 15.7845 8.27422 15.1171 7.96302Z" fill="#0089CF"/>
</g>
<defs>
<clipPath id="clip0_5509_69368">
<rect width="12" height="12" fill="white" transform="translate(6 6)"/>
</clipPath>
</defs>
</svg>
