<svg width="478" height="478" viewBox="0 0 478 478" fill="none" xmlns="http://www.w3.org/2000/svg">
<path d="M205.609 374.503H34.7383L56.8917 320.045L68.5969 313.628L87.0181 271.041L101.914 262.291L116.073 236.672H130.056L161.126 289.126L176.934 297.293L205.609 374.503Z" fill="#EBEBEB"/>
<path d="M34.7383 374.503H108.441V332.004L127.353 302.252L118.342 271.041L130.056 236.672H116.073L101.914 262.291L87.0181 271.041L68.5969 313.628L56.8917 320.045L34.7383 374.503Z" fill="#DBDBDB"/>
<path d="M130.057 374.502L137.196 352.13L148.748 340.753L153.902 327.336L157.499 330.253V343.087L148.748 353.296V374.586L130.057 374.502Z" fill="#DBDBDB"/>
<path d="M143.777 305.59L145.696 296.614L150.845 291.461L153.258 294.524L150.04 298.525L151.488 307.067L143.777 305.59Z" fill="#DBDBDB"/>
<path d="M193.316 374.461H443.263L396.098 275.967L373.413 266.241L349.336 219.188L333.454 202.108L319.458 170.953L303.069 173.609L275.05 238.885L259.405 250.556L233.994 317.791L208.961 342.108L193.316 374.461Z" fill="#EBEBEB"/>
<path d="M319.458 170.953L321.378 220.039L302.928 245.815L311.582 265.543L294.448 309.037L309.381 345.025L300.537 374.461H193.316L208.961 342.108L233.994 317.791L259.405 250.556L275.05 238.885L303.069 173.609L319.458 170.953Z" fill="#DBDBDB"/>
<path d="M314.85 296.39L327.718 274.019L326.709 264.535L331.503 257.727L337.307 277.059L319.896 296.39H314.85Z" fill="#DBDBDB"/>
<path d="M304.752 131.945L305.665 133.795L307.706 134.092L306.229 135.532L306.578 137.566L304.752 136.606L302.925 137.566L303.274 135.532L301.797 134.092L303.838 133.795L304.752 131.945Z" fill="#DBDBDB"/>
<path d="M133.142 224.469L134.055 226.32L136.097 226.616L134.62 228.056L134.968 230.09L133.142 229.129L131.316 230.09L131.665 228.056L130.188 226.616L132.229 226.32L133.142 224.469Z" fill="#DBDBDB"/>
<path d="M371.57 64.125L372.483 65.9749L374.525 66.2722L373.048 67.7119L373.397 69.7453L371.57 68.7855L369.744 69.7453L370.093 67.7119L368.615 66.2722L370.657 65.9749L371.57 64.125Z" fill="#DBDBDB"/>
<path d="M166.517 66.9375L167.43 68.7874L169.472 69.0837L167.995 70.5244L168.344 72.5578L166.517 71.598L164.692 72.5578L165.04 70.5244L163.562 69.0837L165.605 68.7874L166.517 66.9375Z" fill="#DBDBDB"/>
<path d="M426.523 218.852L427.436 220.701L429.478 220.999L428 222.438L428.349 224.472L426.523 223.512L424.696 224.472L425.045 222.438L423.568 220.999L425.61 220.701L426.523 218.852Z" fill="#DBDBDB"/>
<path d="M225.334 128.766L226.247 130.616L228.289 130.913L226.812 132.353L227.161 134.386L225.334 133.426L223.508 134.386L223.857 132.353L222.379 130.913L224.421 130.616L225.334 128.766Z" fill="#DBDBDB"/>
<path d="M43.4355 90.6641L44.3484 92.5139L46.3895 92.8103L44.9125 94.251L45.2614 96.2844L43.4355 95.3236L41.6085 96.2844L41.9575 94.251L40.4805 92.8103L42.5215 92.5139L43.4355 90.6641Z" fill="#DBDBDB"/>
<path d="M82.8339 201.133L83.7469 202.984L85.7889 203.28L84.3109 204.72L84.6599 206.753L82.8339 205.793L81.0079 206.753L81.3559 204.72L79.8789 203.28L81.9209 202.984L82.8339 201.133Z" fill="#DBDBDB"/>
<path d="M43.4363 232.625L44.0003 233.768L45.2623 233.951L44.3493 234.842L44.5644 236.098L43.4363 235.504L42.3073 236.098L42.5224 234.842L41.6094 233.951L42.8713 233.768L43.4363 232.625Z" fill="#DBDBDB"/>
<path d="M171.816 116.555L172.38 117.698L173.642 117.882L172.729 118.772L172.945 120.028L171.816 119.435L170.687 120.028L170.903 118.772L169.99 117.882L171.252 117.698L171.816 116.555Z" fill="#DBDBDB"/>
<path d="M266.668 218.188L267.233 219.331L268.494 219.514L267.581 220.404L267.797 221.662L266.668 221.068L265.54 221.662L265.755 220.404L264.842 219.514L266.104 219.331L266.668 218.188Z" fill="#DBDBDB"/>
<path d="M53.3494 100.578L53.9144 101.722L55.1754 101.905L54.2624 102.795L54.4784 104.052L53.3494 103.459L52.2204 104.052L52.4364 102.795L51.5234 101.905L52.7854 101.722L53.3494 100.578Z" fill="#DBDBDB"/>
<path d="M374.525 202.203L375.089 203.347L376.351 203.53L375.438 204.42L375.654 205.677L374.525 205.084L373.397 205.677L373.612 204.42L372.699 203.53L373.961 203.347L374.525 202.203Z" fill="#DBDBDB"/>
<path d="M90.4588 255.992L91.0238 257.137L92.2857 257.319L91.3718 258.209L91.5878 259.466L90.4588 258.873L89.3307 259.466L89.5458 258.209L88.6328 257.319L89.8947 257.137L90.4588 255.992Z" fill="#DBDBDB"/>
<path d="M68.5467 194.961L69.1107 196.104L70.3726 196.288L69.4596 197.178L69.6757 198.434L68.5467 197.841L67.4176 198.434L67.6337 197.178L66.7207 196.288L67.9826 196.104L68.5467 194.961Z" fill="#DBDBDB"/>
<path d="M253.793 107.695L254.358 108.839L255.62 109.021L254.706 109.911L254.922 111.168L253.793 110.575L252.665 111.168L252.88 109.911L251.967 109.021L253.229 108.839L253.793 107.695Z" fill="#DBDBDB"/>
<path d="M378.996 255.992L379.56 257.137L380.822 257.319L379.909 258.209L380.124 259.466L378.996 258.873L377.867 259.466L378.083 258.209L377.17 257.319L378.432 257.137L378.996 255.992Z" fill="#DBDBDB"/>
<path d="M435.693 146.859L436.257 148.003L437.519 148.186L436.606 149.076L436.822 150.333L435.693 149.74L434.565 150.333L434.78 149.076L433.867 148.186L435.129 148.003L435.693 146.859Z" fill="#DBDBDB"/>
<path d="M385.857 145.125L386.421 146.268L387.683 146.452L386.77 147.342L386.986 148.599L385.857 148.005L384.728 148.599L384.944 147.342L384.031 146.452L385.293 146.268L385.857 145.125Z" fill="#DBDBDB"/>
<path d="M349.272 95.0211C344.938 102.594 336.776 107.699 327.423 107.699C313.508 107.699 302.24 96.4216 302.24 82.507C302.24 70.5159 310.612 60.4865 321.841 57.9531C313.746 61.6767 308.136 69.8582 308.136 79.3446C308.136 92.3548 318.689 102.899 331.698 102.899C338.69 102.898 344.967 99.8594 349.272 95.0211Z" fill="#DBDBDB"/>
<path d="M34.5586 374.487C165.536 373.902 312.464 373.898 443.441 374.487C312.463 375.077 165.536 375.073 34.5586 374.487Z" fill="#263238"/>
<path d="M448.718 383.05H29.2809C26.9158 383.05 24.998 381.132 24.998 378.767C24.998 376.402 26.9158 374.484 29.2809 374.484H448.718C451.083 374.484 453.001 376.402 453.001 378.767C453.001 381.133 451.083 383.05 448.718 383.05Z" fill="#455A64"/>
<path d="M363.43 400.088H99.0251C96.6599 400.088 94.7422 398.171 94.7422 395.805C94.7422 393.44 96.6599 391.523 99.0251 391.523H363.43C365.795 391.523 367.713 393.44 367.713 395.805C367.713 398.171 365.795 400.088 363.43 400.088Z" fill="#455A64"/>
<path d="M339.678 417.035H147.05C144.685 417.035 142.768 415.117 142.768 412.752C142.768 410.386 144.685 408.469 147.05 408.469H339.678C342.043 408.469 343.961 410.386 343.961 412.752C343.96 415.117 342.043 417.035 339.678 417.035Z" fill="#455A64"/>
<path d="M81.1694 400.088H61.0466C58.6814 400.088 56.7637 398.171 56.7637 395.805C56.7637 393.44 58.6814 391.523 61.0466 391.523H81.1694C83.5345 391.523 85.4523 393.44 85.4523 395.805C85.4513 398.171 83.5345 400.088 81.1694 400.088Z" fill="#455A64"/>
<path d="M372.961 417.035H362.9C360.535 417.035 358.617 415.117 358.617 412.752C358.617 410.386 360.535 408.469 362.9 408.469H372.961C375.326 408.469 377.244 410.386 377.244 412.752C377.244 415.117 375.326 417.035 372.961 417.035Z" fill="#455A64"/>
<path d="M223.209 391.613H112.418C113.603 391.613 114.674 391.135 115.448 390.36C116.223 389.586 116.701 388.515 116.701 387.33C116.701 384.968 114.789 383.047 112.418 383.047H223.209C222.023 383.047 220.953 383.525 220.178 384.299C219.404 385.083 218.926 386.154 218.926 387.33C218.926 389.701 220.838 391.613 223.209 391.613Z" fill="#455A64"/>
<path d="M338.264 391.613H265.594C266.779 391.613 267.85 391.135 268.624 390.36C269.399 389.586 269.877 388.515 269.877 387.33C269.877 384.968 267.965 383.047 265.594 383.047H338.264C337.079 383.047 336.008 383.525 335.234 384.299C334.459 385.083 333.981 386.154 333.981 387.33C333.981 389.701 335.893 391.613 338.264 391.613Z" fill="#455A64"/>
<path d="M283.304 408.558H171.816C173.002 408.558 174.073 408.08 174.847 407.306C175.621 406.531 176.099 405.46 176.099 404.275C176.099 401.914 174.187 399.992 171.816 399.992H283.304C282.119 399.992 281.048 400.47 280.274 401.245C279.499 402.028 279.021 403.099 279.021 404.275C279.021 406.646 280.933 408.558 283.304 408.558Z" fill="#455A64"/>
<path d="M63.2227 374.412H329.956L281.262 254.378L257.842 242.525L232.983 185.182L216.586 164.367L202.136 126.398L185.216 129.635L156.288 209.186L140.136 223.41L105.22 305.349L79.3743 334.983L63.2227 374.412Z" fill="#455A64"/>
<path d="M202.136 126.398L204.119 186.219L185.07 217.631L194.005 241.674L176.316 294.68L191.733 338.54L182.602 374.412H63.2227L79.3743 334.983L105.22 305.349L140.136 223.41L156.288 209.186L185.216 129.635L202.136 126.398Z" fill="#37474F"/>
<path d="M197.379 279.267L210.665 252.004L209.623 240.447L214.573 232.148L220.565 255.708L202.589 279.267H197.379Z" fill="#37474F"/>
<path d="M414.777 374.432H217.281L243.364 310.354L261.797 295.56L280.817 240.382L296.195 229.044L310.813 195.852H325.25L357.328 263.814L373.647 274.396L414.777 374.432Z" fill="#37474F"/>
<path d="M217.281 374.432H302.934V319.369L322.459 280.82L313.157 240.382L325.25 195.852H310.813L296.195 229.044L280.817 240.382L261.797 295.56L243.364 310.354L217.281 374.432Z" fill="#263238"/>
<path d="M325.25 374.431L332.622 345.444L344.548 330.705L349.87 313.32L353.583 317.099V333.728L344.548 346.955V374.54L325.25 374.431Z" fill="#263238"/>
<path d="M339.416 285.14L341.397 273.512L346.712 266.836L349.205 270.803L345.882 275.988L347.377 287.054L339.416 285.14Z" fill="#263238"/>
<path d="M75.2238 374.198C74.1273 375.295 61.3532 375.782 56.708 375.782C52.0619 375.782 39.2887 375.295 38.1922 374.198C37.0957 373.102 52.5666 288.195 56.708 288.195C60.8494 288.196 76.3204 373.102 75.2238 374.198Z" fill="#263238"/>
<path d="M75.4809 352.562C72.3251 353.766 60.6333 358.526 58.1085 359.914C58.1066 359.382 58.1027 358.85 58.1018 358.318C60.922 356.658 63.7527 355.016 66.5805 353.37C69.6158 351.604 72.8758 350.028 75.7065 347.947C75.8442 347.846 75.7677 347.562 75.5774 347.641C72.4571 348.94 69.5594 350.867 66.6494 352.574C63.7756 354.26 60.9334 355.996 58.0999 357.746C58.0874 353.677 58.075 349.608 58.0482 345.539C62.6055 343.71 67.1819 341.271 71.373 338.767C71.5183 338.68 71.4217 338.412 71.2525 338.482C66.8071 340.318 62.1848 342.482 58.0444 344.992C58.0291 342.876 58.0215 340.761 57.9985 338.645C57.8819 327.751 57.8609 316.844 57.5827 305.948C60.3551 304.549 63.2106 303.316 65.9811 301.91C66.1628 301.817 66.0347 301.5 65.8406 301.576C63.029 302.673 60.3206 303.976 57.5616 305.188C57.4115 299.566 57.1974 293.947 56.8551 288.335C56.8437 288.15 56.5731 288.147 56.5655 288.335C56.1764 298.77 56.2089 309.218 56.3399 319.663C53.468 317.37 50.406 315.343 47.4835 313.119C47.3707 313.033 47.2607 313.224 47.3726 313.31C50.428 315.635 53.2864 318.212 56.3513 320.53C56.359 321.12 56.3657 321.71 56.3743 322.3C53.2606 320.876 50.101 319.552 46.9539 318.204C46.7072 318.098 46.4873 318.452 46.7388 318.572C49.9452 320.11 53.1392 321.676 56.3857 323.127C56.4594 328.301 56.5473 333.475 56.6142 338.646C56.7318 347.679 56.9307 356.712 57.1228 365.744C51.2453 362.771 45.3181 359.873 39.3594 357.069C39.1319 356.962 38.9349 357.282 39.1596 357.411C44.973 360.738 50.9977 363.759 57.1372 366.44C57.2968 373.945 57.4526 367.113 57.5482 374.619C57.554 375.074 58.2614 375.075 58.2566 374.619C58.1524 365.046 58.1362 369.81 58.1104 360.237C61.2107 359.472 72.9207 354.457 75.7017 353.084C75.9866 352.942 75.7849 352.445 75.4809 352.562Z" fill="#37474F"/>
<path d="M170.809 374.131C169.869 375.072 158.906 375.491 154.92 375.491C150.933 375.491 139.971 375.072 139.03 374.131C138.089 373.191 151.365 300.328 154.92 300.328C158.474 300.328 171.75 373.19 170.809 374.131Z" fill="#263238"/>
<path d="M171.029 355.566C168.321 356.599 158.287 360.684 156.121 361.876C156.12 361.419 156.116 360.963 156.115 360.506C158.536 359.081 160.964 357.672 163.391 356.26C165.997 354.744 168.794 353.391 171.222 351.605C171.341 351.518 171.275 351.275 171.111 351.342C168.433 352.458 165.948 354.111 163.45 355.576C160.983 357.022 158.545 358.511 156.113 360.014C156.102 356.522 156.091 353.031 156.068 349.538C159.979 347.97 163.906 345.876 167.502 343.727C167.628 343.652 167.544 343.422 167.399 343.482C163.584 345.058 159.617 346.915 156.065 349.069C156.052 347.254 156.045 345.437 156.026 343.622C155.926 334.273 155.907 324.913 155.669 315.562C158.048 314.362 160.499 313.303 162.876 312.098C163.032 312.018 162.922 311.746 162.756 311.811C160.343 312.752 158.019 313.87 155.651 314.91C155.523 310.086 155.338 305.264 155.044 300.448C155.034 300.289 154.802 300.287 154.795 300.448C154.461 309.403 154.489 318.368 154.601 327.333C152.137 325.365 149.509 323.625 147.001 321.717C146.903 321.643 146.809 321.808 146.905 321.88C149.528 323.876 151.981 326.087 154.61 328.076C154.616 328.582 154.622 329.089 154.629 329.594C151.957 328.374 149.246 327.236 146.545 326.079C146.334 325.988 146.144 326.291 146.36 326.395C149.112 327.714 151.854 329.058 154.639 330.304C154.702 334.743 154.778 339.183 154.836 343.621C154.938 351.373 155.108 359.123 155.273 366.875C150.229 364.323 145.143 361.836 140.03 359.43C139.835 359.338 139.665 359.614 139.859 359.724C144.847 362.58 150.017 365.172 155.287 367.472C155.424 373.913 155.557 369.048 155.639 375.489C155.644 375.88 156.251 375.881 156.246 375.489C156.156 367.274 156.143 370.365 156.121 362.15C158.782 361.493 168.83 357.189 171.217 356.011C171.464 355.892 171.29 355.467 171.029 355.566Z" fill="#37474F"/>
<path d="M67.2647 374.511C68.0572 375.303 77.2884 375.655 80.6459 375.655C84.0033 375.655 93.2345 375.303 94.027 374.511C94.8195 373.718 83.6391 312.359 80.6459 312.359C77.6526 312.359 66.4722 373.718 67.2647 374.511Z" fill="#263238"/>
<path d="M67.0787 358.876C69.3587 359.747 77.8088 363.187 79.6329 364.19C79.6338 363.805 79.6367 363.421 79.6376 363.036C77.5995 361.836 75.5546 360.65 73.5106 359.46C71.3166 358.184 68.961 357.044 66.9162 355.541C66.8167 355.467 66.8722 355.263 67.0098 355.319C69.265 356.258 71.3587 357.651 73.4619 358.884C75.5383 360.102 77.5928 361.356 79.6405 362.622C79.6491 359.681 79.6587 356.74 79.6778 353.8C76.3844 352.479 73.0776 350.716 70.049 348.906C69.9438 348.843 70.0136 348.65 70.136 348.7C73.3491 350.026 76.6884 351.59 79.6816 353.405C79.6921 351.876 79.6979 350.347 79.7141 348.818C79.7982 340.945 79.8135 333.063 80.0143 325.189C78.0105 324.178 75.9475 323.286 73.9447 322.271C73.8137 322.204 73.9064 321.975 74.046 322.029C76.0785 322.822 78.0354 323.763 80.0296 324.64C80.1376 320.577 80.2925 316.517 80.5401 312.46C80.5478 312.327 80.7437 312.325 80.7495 312.46C81.0305 320.001 81.0076 327.551 80.9129 335.1C82.9875 333.444 85.2006 331.978 87.3134 330.371C87.3956 330.309 87.4749 330.448 87.3937 330.509C85.1853 332.188 83.1194 334.051 80.9053 335.726C80.8996 336.152 80.8948 336.578 80.889 337.005C83.1395 335.976 85.4224 335.019 87.6967 334.045C87.8745 333.969 88.0342 334.224 87.8525 334.311C85.5352 335.422 83.2265 336.555 80.8804 337.603C80.8269 341.342 80.7638 345.081 80.7151 348.818C80.63 355.347 80.4866 361.873 80.347 368.401C84.5945 366.253 88.8783 364.158 93.1842 362.131C93.3486 362.054 93.491 362.285 93.3285 362.379C89.1279 364.784 84.7742 366.967 80.3365 368.905C80.2208 374.328 80.109 370.108 80.0392 375.533C80.0353 375.861 79.5239 375.862 79.5277 375.533C79.6032 368.615 79.6147 371.341 79.6338 364.423C77.393 363.87 68.9314 360.245 66.9209 359.253C66.7125 359.152 66.8588 358.792 67.0787 358.876Z" fill="#455A64"/>
<path d="M406.084 374.007C405.072 375.019 393.284 375.469 388.996 375.469C384.708 375.469 372.92 375.019 371.909 374.007C370.897 372.995 385.174 294.641 388.996 294.641C392.818 294.641 407.096 372.995 406.084 374.007Z" fill="#263238"/>
<path d="M406.321 354.041C403.409 355.153 392.618 359.545 390.288 360.826C390.287 360.335 390.284 359.845 390.282 359.353C392.884 357.821 395.496 356.306 398.107 354.787C400.908 353.157 403.916 351.702 406.528 349.782C406.655 349.688 406.584 349.426 406.408 349.499C403.529 350.699 400.855 352.476 398.17 354.051C395.518 355.607 392.894 357.209 390.28 358.825C390.268 355.069 390.257 351.314 390.232 347.559C394.437 345.872 398.661 343.621 402.528 341.31C402.663 341.229 402.573 340.982 402.417 341.047C398.314 342.742 394.049 344.738 390.228 347.055C390.215 345.103 390.207 343.15 390.186 341.198C390.079 331.144 390.059 321.079 389.803 311.024C392.362 309.733 394.997 308.594 397.553 307.297C397.72 307.212 397.603 306.919 397.423 306.989C394.828 308.002 392.329 309.203 389.783 310.323C389.644 305.135 389.446 299.949 389.131 294.77C389.12 294.599 388.871 294.597 388.864 294.77C388.505 304.399 388.535 314.041 388.656 323.681C386.006 321.565 383.18 319.695 380.483 317.642C380.379 317.563 380.277 317.739 380.379 317.818C383.2 319.963 385.837 322.341 388.665 324.48C388.672 325.024 388.678 325.569 388.686 326.113C385.812 324.8 382.897 323.577 379.992 322.333C379.765 322.236 379.562 322.562 379.793 322.672C382.752 324.091 385.701 325.538 388.697 326.876C388.765 331.651 388.846 336.425 388.908 341.197C389.017 349.533 389.2 357.869 389.378 366.204C383.954 363.46 378.484 360.786 372.985 358.198C372.775 358.1 372.593 358.395 372.8 358.514C378.165 361.585 383.725 364.373 389.392 366.847C389.539 373.774 389.682 368.541 389.771 375.468C389.776 375.888 390.429 375.89 390.424 375.468C390.329 366.635 390.313 369.958 390.289 361.124C393.15 360.417 403.956 355.789 406.524 354.522C406.788 354.392 406.602 353.934 406.321 354.041Z" fill="#455A64"/>
<path d="M357.322 374.007C356.311 375.019 344.522 375.469 340.234 375.469C335.947 375.469 324.158 375.019 323.147 374.007C322.135 372.995 336.412 294.641 340.234 294.641C344.057 294.641 358.333 372.995 357.322 374.007Z" fill="#263238"/>
<path d="M357.557 354.041C354.645 355.153 343.856 359.545 341.525 360.826C341.524 360.335 341.52 359.845 341.519 359.353C344.121 357.821 346.733 356.306 349.343 354.787C352.144 353.157 355.153 351.702 357.765 349.782C357.892 349.688 357.821 349.426 357.645 349.499C354.766 350.699 352.092 352.476 349.407 354.051C346.755 355.607 344.131 357.209 341.517 358.825C341.505 355.069 341.494 351.314 341.469 347.559C345.674 345.872 349.898 343.621 353.765 341.31C353.9 341.229 353.81 340.982 353.654 341.047C349.552 342.742 345.286 344.738 341.465 347.055C341.452 345.103 341.444 343.15 341.423 341.198C341.316 331.144 341.296 321.079 341.04 311.024C343.599 309.733 346.233 308.594 348.79 307.297C348.957 307.212 348.84 306.919 348.66 306.989C346.065 308.002 343.566 309.203 341.02 310.323C340.881 305.135 340.683 299.949 340.368 294.77C340.357 294.599 340.107 294.597 340.101 294.77C339.741 304.399 339.771 314.041 339.892 323.681C337.242 321.565 334.416 319.695 331.72 317.642C331.615 317.563 331.513 317.739 331.616 317.818C334.437 319.963 337.074 322.341 339.902 324.48C339.909 325.024 339.915 325.569 339.923 326.113C337.049 324.8 334.133 323.577 331.229 322.333C331.002 322.236 330.799 322.562 331.03 322.672C333.989 324.091 336.937 325.538 339.934 326.876C340.001 331.651 340.083 336.425 340.145 341.197C340.254 349.533 340.436 357.869 340.614 366.204C335.19 363.46 329.72 360.786 324.221 358.198C324.011 358.1 323.83 358.395 324.036 358.514C329.401 361.585 334.96 364.373 340.628 366.847C340.775 373.774 340.918 368.541 341.007 375.468C341.013 375.888 341.665 375.89 341.661 375.468C341.564 366.635 341.55 369.958 341.526 361.124C344.388 360.417 355.193 355.789 357.761 354.522C358.025 354.392 357.838 353.934 357.557 354.041Z" fill="#455A64"/>
<path d="M351.036 374.765C351.743 375.471 359.981 375.786 362.978 375.786C365.974 375.786 374.213 375.471 374.92 374.765C375.628 374.058 365.65 319.297 362.978 319.297C360.306 319.297 350.329 374.058 351.036 374.765Z" fill="#263238"/>
<path d="M350.87 360.808C352.906 361.586 360.447 364.655 362.076 365.551C362.077 365.208 362.079 364.865 362.08 364.522C360.261 363.451 358.435 362.393 356.611 361.33C354.653 360.191 352.551 359.175 350.726 357.832C350.637 357.767 350.686 357.584 350.809 357.635C352.822 358.474 354.691 359.716 356.567 360.817C358.421 361.904 360.254 363.023 362.081 364.153C362.089 361.529 362.098 358.904 362.115 356.28C359.175 355.101 356.224 353.528 353.521 351.912C353.428 351.855 353.49 351.683 353.599 351.728C356.467 352.913 359.447 354.309 362.118 355.928C362.127 354.564 362.132 353.199 362.146 351.834C362.221 344.808 362.235 337.774 362.415 330.746C360.626 329.844 358.785 329.048 356.998 328.142C356.881 328.083 356.964 327.877 357.089 327.927C358.903 328.634 360.649 329.475 362.429 330.257C362.526 326.63 362.665 323.006 362.885 319.387C362.893 319.267 363.067 319.266 363.072 319.387C363.323 326.117 363.302 332.855 363.218 339.592C365.07 338.113 367.045 336.806 368.93 335.371C369.003 335.316 369.075 335.439 369.002 335.495C367.032 336.994 365.188 338.656 363.211 340.15C363.207 340.531 363.202 340.911 363.197 341.292C365.206 340.374 367.243 339.519 369.273 338.65C369.431 338.582 369.574 338.81 369.411 338.887C367.343 339.88 365.283 340.889 363.189 341.825C363.142 345.163 363.085 348.499 363.041 351.834C362.965 357.66 362.838 363.486 362.712 369.311C366.504 367.393 370.326 365.524 374.17 363.716C374.316 363.647 374.444 363.853 374.299 363.936C370.55 366.084 366.664 368.031 362.704 369.76C362.601 374.601 362.5 370.724 362.439 375.565C362.435 375.859 361.979 375.86 361.982 375.565C362.049 369.391 362.059 371.934 362.077 365.76C360.077 365.266 352.524 362.032 350.731 361.147C350.544 361.054 350.674 360.734 350.87 360.808Z" fill="#37474F"/>
<path d="M121.915 374.648C122.622 375.355 130.86 375.669 133.857 375.669C136.853 375.669 145.092 375.354 145.799 374.648C146.507 373.94 136.529 319.18 133.857 319.18C131.185 319.18 121.207 373.941 121.915 374.648Z" fill="#263238"/>
<path d="M121.749 360.693C123.784 361.47 131.325 364.54 132.953 365.436C132.954 365.093 132.956 364.749 132.957 364.406C131.139 363.336 129.313 362.276 127.489 361.215C125.531 360.076 123.429 359.059 121.603 357.717C121.514 357.651 121.563 357.469 121.686 357.519C123.698 358.358 125.567 359.6 127.444 360.701C129.297 361.788 131.13 362.907 132.958 364.037C132.966 361.413 132.974 358.788 132.991 356.164C130.052 354.985 127.101 353.411 124.398 351.796C124.304 351.739 124.366 351.566 124.475 351.611C127.342 352.796 130.323 354.191 132.994 355.811C133.004 354.447 133.009 353.081 133.023 351.717C133.098 344.691 133.112 337.656 133.292 330.629C131.504 329.726 129.662 328.931 127.875 328.025C127.758 327.965 127.841 327.76 127.966 327.81C129.779 328.517 131.526 329.357 133.305 330.139C133.402 326.513 133.54 322.889 133.761 319.27C133.768 319.15 133.943 319.149 133.947 319.27C134.199 326 134.178 332.738 134.094 339.475C135.945 337.996 137.921 336.688 139.806 335.254C139.878 335.199 139.95 335.322 139.877 335.377C137.907 336.876 136.063 338.539 134.087 340.033C134.082 340.414 134.077 340.794 134.073 341.174C136.081 340.257 138.118 339.402 140.148 338.532C140.307 338.464 140.449 338.692 140.287 338.77C138.219 339.762 136.159 340.772 134.065 341.708C134.017 345.045 133.961 348.382 133.917 351.717C133.84 357.543 133.713 363.369 133.588 369.194C137.379 367.276 141.202 365.407 145.046 363.598C145.192 363.53 145.319 363.736 145.175 363.819C141.425 365.965 137.54 367.914 133.579 369.643C133.476 374.483 133.376 370.717 133.315 375.558C133.311 375.851 132.855 375.852 132.858 375.558C132.925 369.384 132.935 371.817 132.952 365.642C130.952 365.149 123.4 361.914 121.606 361.029C121.422 360.939 121.552 360.619 121.749 360.693Z" fill="#37474F"/>
<path d="M192.848 374.538C193.556 375.245 201.794 375.559 204.791 375.559C207.787 375.559 216.026 375.245 216.733 374.538C217.44 373.831 207.462 319.07 204.791 319.07C202.119 319.07 192.141 373.831 192.848 374.538Z" fill="#263238"/>
<path d="M192.683 360.582C194.718 361.359 202.259 364.429 203.887 365.325C203.888 364.981 203.891 364.638 203.892 364.295C202.073 363.224 200.248 362.165 198.424 361.104C196.466 359.964 194.363 358.948 192.537 357.606C192.449 357.541 192.498 357.357 192.621 357.409C194.633 358.247 196.502 359.489 198.379 360.59C200.232 361.677 202.065 362.797 203.893 363.927C203.9 361.303 203.909 358.678 203.926 356.053C200.987 354.875 198.035 353.301 195.333 351.685C195.239 351.629 195.301 351.457 195.41 351.502C198.277 352.686 201.258 354.082 203.929 355.702C203.939 354.337 203.944 352.972 203.959 351.608C204.033 344.581 204.048 337.547 204.226 330.52C202.439 329.617 200.597 328.822 198.81 327.915C198.693 327.856 198.775 327.651 198.901 327.7C200.714 328.408 202.461 329.248 204.24 330.03C204.336 326.404 204.475 322.78 204.696 319.16C204.703 319.041 204.877 319.04 204.882 319.16C205.134 325.891 205.113 332.628 205.029 339.365C206.88 337.886 208.855 336.58 210.741 335.145C210.813 335.089 210.885 335.212 210.812 335.268C208.841 336.767 206.998 338.428 205.021 339.924C205.016 340.304 205.011 340.685 205.007 341.065C207.015 340.147 209.052 339.293 211.082 338.424C211.241 338.356 211.382 338.583 211.221 338.662C209.153 339.653 207.093 340.664 204.998 341.6C204.95 344.937 204.894 348.273 204.851 351.609C204.775 357.435 204.647 363.261 204.523 369.086C208.313 367.168 212.136 365.299 215.98 363.49C216.126 363.421 216.253 363.628 216.109 363.711C212.359 365.857 208.473 367.805 204.513 369.535C204.41 374.375 204.31 370.718 204.247 375.56C204.244 375.853 203.788 375.854 203.791 375.56C203.858 369.386 203.868 371.708 203.885 365.534C201.886 365.04 194.333 361.806 192.539 360.92C192.356 360.828 192.486 360.507 192.683 360.582Z" fill="#37474F"/>
<path d="M415.946 374.538C416.653 375.245 424.891 375.559 427.888 375.559C430.884 375.559 439.123 375.245 439.831 374.538C440.538 373.831 430.559 319.07 427.888 319.07C425.216 319.07 415.239 373.831 415.946 374.538Z" fill="#263238"/>
<path d="M415.779 360.582C417.815 361.359 425.356 364.429 426.984 365.325C426.985 364.981 426.988 364.638 426.989 364.295C425.169 363.224 423.344 362.165 421.52 361.104C419.562 359.964 417.46 358.948 415.634 357.606C415.545 357.541 415.595 357.357 415.717 357.409C417.73 358.247 419.599 359.489 421.475 360.59C423.329 361.677 425.162 362.797 426.99 363.927C426.997 361.303 427.006 358.678 427.023 356.053C424.083 354.875 421.132 353.301 418.43 351.685C418.336 351.629 418.398 351.457 418.507 351.502C421.374 352.686 424.355 354.082 427.026 355.702C427.035 354.337 427.041 352.972 427.056 351.608C427.13 344.581 427.144 337.547 427.323 330.52C425.535 329.617 423.693 328.822 421.906 327.915C421.79 327.856 421.872 327.651 421.997 327.7C423.811 328.408 425.557 329.248 427.337 330.03C427.433 326.404 427.572 322.78 427.793 319.16C427.8 319.041 427.974 319.04 427.979 319.16C428.23 325.891 428.209 332.628 428.125 339.365C429.977 337.886 431.952 336.58 433.837 335.145C433.91 335.089 433.982 335.212 433.909 335.268C431.939 336.767 430.095 338.428 428.118 339.924C428.113 340.304 428.108 340.685 428.103 341.065C430.112 340.147 432.149 339.293 434.179 338.424C434.337 338.356 434.48 338.583 434.317 338.662C432.249 339.653 430.189 340.664 428.096 341.6C428.048 344.937 427.991 348.273 427.948 351.609C427.873 357.435 427.745 363.261 427.62 369.086C431.411 367.168 435.234 365.299 439.077 363.49C439.223 363.421 439.351 363.628 439.206 363.711C435.457 365.857 431.571 367.805 427.611 369.535C427.508 374.375 427.407 370.718 427.345 375.56C427.341 375.853 426.885 375.854 426.888 375.56C426.955 369.386 426.966 371.708 426.983 365.534C424.983 365.04 417.43 361.806 415.637 360.92C415.453 360.828 415.584 360.507 415.779 360.582Z" fill="#37474F"/>
<path d="M327.175 370.602H325.756V374.584H327.175V370.602Z" fill="#263238"/>
<path d="M258.718 370.602H257.299V374.584H258.718V370.602Z" fill="#263238"/>
<path d="M257.299 374.585L277.274 344.875L297.78 374.585H257.299Z" fill="#CF3425"/>
<path opacity="0.1" d="M257.299 374.585L277.274 344.875L297.78 374.585H257.299Z" fill="black"/>
<path d="M277.275 344.875H306.566L326.92 374.585H297.781L277.275 344.875Z" fill="#CF3425"/>
<path d="M289.76 350.281H303.148L307.22 356.225H293.862L289.76 350.281Z" fill="white"/>
<path opacity="0.3" d="M270.711 374.585H283.309L277.275 344.875L270.711 374.585Z" fill="black"/>
<path d="M298.489 370.602H297.07V374.584H298.489V370.602Z" fill="#263238"/>
<path d="M277.274 344.875C272.436 354.526 266.829 365.136 261.592 374.585C266.439 364.928 272.034 354.316 277.274 344.875Z" fill="white"/>
<path d="M277.275 344.875C282.466 354.263 288.008 364.82 292.806 374.422C287.615 365.025 282.065 354.476 277.275 344.875Z" fill="white"/>
<path d="M270.71 374.585C270.71 374.585 269.802 370.374 265.451 366.667L277.274 344.875L270.71 374.585Z" fill="#CF3425"/>
<path d="M283.31 374.585L277.275 344.875L289.59 367.802C289.59 367.802 284.141 368.503 283.31 374.585Z" fill="#CF3425"/>
<path d="M169.266 165.676C169.266 165.665 169.266 165.665 169.256 165.665C169.023 165.401 168.769 165.148 168.505 164.915C168.505 164.905 168.505 164.905 168.495 164.905C168.262 164.641 168.008 164.388 167.744 164.155C167.744 164.144 167.744 164.144 167.734 164.144C167.501 163.88 167.247 163.627 166.983 163.394C166.983 163.383 166.983 163.383 166.973 163.383C166.74 163.119 166.486 162.866 166.222 162.633C166.222 162.623 166.222 162.623 166.212 162.623C165.979 162.359 165.725 162.106 165.462 161.873C165.462 161.862 165.462 161.862 165.451 161.862C165.218 161.598 164.964 161.345 164.701 161.112C164.701 161.101 164.701 161.101 164.69 161.101C164.457 160.837 164.203 160.584 163.94 160.351C163.94 160.34 163.94 160.34 163.929 160.34C163.696 160.076 163.442 159.823 163.179 159.59C163.179 159.579 163.179 159.579 163.168 159.579C162.935 159.315 162.681 159.062 162.418 158.829C162.418 158.818 162.418 158.818 162.408 158.818C161.638 157.976 160.745 157.256 159.741 156.678V81.5428C159.741 81.147 159.548 80.9443 159.548 80.5485C159.548 79.9501 159.548 79.7474 159.345 79.3516C159.345 79.149 159.152 78.7532 159.152 78.5505C158.949 77.9521 158.949 77.7494 158.747 77.3536C158.544 77.1509 158.351 76.7551 158.351 76.5525C157.945 75.954 157.752 75.7513 157.55 75.5582C157.347 75.3556 157.154 74.9598 156.951 74.7571L156.15 73.956C156.15 73.8346 155.998 73.7122 155.826 73.6309C155.725 73.5296 155.593 73.3977 155.43 73.2351L155.39 73.195C155.39 73.0736 155.238 72.9512 155.065 72.8709C154.964 72.7696 154.832 72.6376 154.669 72.4751L154.629 72.434C154.629 72.3126 154.477 72.1902 154.304 72.109C154.203 72.0076 154.071 71.8757 153.908 71.7132L153.868 71.673C153.868 71.5516 153.716 71.4293 153.544 71.348C153.443 71.2467 153.311 71.1147 153.148 70.9522L153.108 70.9121C153.108 70.7907 152.956 70.6683 152.784 70.587C152.683 70.4857 152.551 70.3538 152.388 70.1912L152.348 70.1501C152.348 70.0287 152.196 69.9064 152.023 69.8251C151.922 69.7238 151.79 69.5918 151.627 69.4293L151.587 69.3882C151.587 69.2668 151.435 69.1444 151.263 69.0632C151.162 68.9618 151.03 68.8299 150.867 68.6674L150.827 68.6272C150.827 68.5058 150.675 68.3834 150.503 68.3031C150.402 68.2018 150.27 68.0699 150.107 67.9074L150.067 67.8672C150.067 67.7458 149.915 67.6234 149.742 67.5422C149.641 67.4408 149.509 67.3089 149.346 67.1464L149.306 67.1053C149.306 66.9839 149.154 66.8615 148.982 66.7802L148.546 66.3443C148.546 66.1512 148.15 65.9485 147.948 65.9485C147.948 65.7458 147.754 65.7458 147.754 65.7458C147.349 65.5527 147.146 65.3501 146.751 65.1474C146.548 64.9447 146.152 64.7516 145.756 64.3463C145.554 64.3463 145.158 64.1531 144.955 64.1531C144.56 63.9505 143.952 63.9505 143.758 63.7478C143.363 63.7478 143.16 63.7478 142.755 63.5547H141.558C141.365 63.5547 141.365 63.5547 141.162 63.5547C140.959 63.5547 140.766 63.5547 140.766 63.5547H139.367C139.164 63.7478 138.768 63.7478 138.565 63.7478C137.967 63.9505 137.571 63.9505 137.368 64.1531C136.973 64.1531 136.77 64.3463 136.567 64.7516C135.969 64.7516 135.776 64.9447 135.37 65.1474C135.177 65.3501 134.772 65.5527 134.569 65.7458C134.376 65.9485 134.174 66.1512 133.575 66.3443C133.383 66.7496 133.179 66.9428 132.977 67.1454C132.774 67.3481 132.774 67.5412 132.581 67.5412L58.7222 159.373C55.142 163.886 55.4766 170.185 59.7164 174.06C59.9497 174.333 60.203 174.587 60.4774 174.821C60.7107 175.094 60.964 175.348 61.2384 175.582C61.4717 175.855 61.725 176.109 61.9994 176.343C62.2326 176.616 62.486 176.87 62.7603 177.104C62.9936 177.377 63.247 177.631 63.5213 177.865C63.7546 178.138 64.0079 178.392 64.2823 178.626C64.5156 178.899 64.7689 179.153 65.0433 179.387C65.2765 179.66 65.5299 179.914 65.8043 180.147C66.0375 180.421 66.2909 180.675 66.5652 180.908C67.0212 181.426 67.549 181.912 68.1273 182.349C70.1254 184.145 72.5192 184.743 74.913 184.743H130.19V192.31C130.19 195.617 131.549 198.517 133.761 200.505L133.791 200.535C134.024 200.788 134.268 201.032 134.522 201.266C134.532 201.276 134.542 201.276 134.542 201.286C134.775 201.549 135.028 201.793 135.283 202.027L135.313 202.057C135.546 202.31 135.79 202.554 136.043 202.787C136.054 202.798 136.064 202.798 136.064 202.808C136.297 203.071 136.55 203.314 136.804 203.548L136.835 203.578C137.068 203.831 137.312 204.075 137.565 204.308C137.576 204.319 137.586 204.319 137.586 204.329C137.819 204.592 138.072 204.836 138.326 205.069L138.357 205.099C138.59 205.352 138.834 205.596 139.087 205.829C139.098 205.84 139.107 205.84 139.107 205.85C139.341 206.113 139.594 206.357 139.847 206.59L139.878 206.621C140.111 206.874 140.355 207.118 140.608 207.351C140.619 207.361 140.628 207.361 140.628 207.372C142.617 209.552 145.497 210.901 148.773 210.901C154.96 210.901 159.747 206.104 159.747 199.917V184.743H161.745C167.932 184.743 172.922 179.955 172.922 173.769C172.917 170.594 171.507 167.694 169.266 165.676ZM130.187 122.924V155.188H104.191L130.187 122.924Z" fill="#CF3425"/>
<path opacity="0.1" d="M169.266 165.676C169.266 165.665 169.266 165.665 169.256 165.665C169.023 165.401 168.769 165.148 168.505 164.915C168.505 164.905 168.505 164.905 168.495 164.905C168.262 164.641 168.008 164.388 167.744 164.155C167.744 164.144 167.744 164.144 167.734 164.144C167.501 163.88 167.247 163.627 166.983 163.394C166.983 163.383 166.983 163.383 166.973 163.383C166.74 163.119 166.486 162.866 166.222 162.633C166.222 162.623 166.222 162.623 166.212 162.623C165.979 162.359 165.725 162.106 165.462 161.873C165.462 161.862 165.462 161.862 165.451 161.862C165.218 161.598 164.964 161.345 164.701 161.112C164.701 161.101 164.701 161.101 164.69 161.101C164.457 160.837 164.203 160.584 163.94 160.351C163.94 160.34 163.94 160.34 163.929 160.34C163.696 160.076 163.442 159.823 163.179 159.59C163.179 159.579 163.179 159.579 163.168 159.579C162.935 159.315 162.681 159.062 162.418 158.829C162.418 158.818 162.418 158.818 162.408 158.818C161.638 157.976 160.745 157.256 159.741 156.678V81.5428C159.741 81.147 159.548 80.9443 159.548 80.5485C159.548 79.9501 159.548 79.7474 159.345 79.3516C159.345 79.149 159.152 78.7532 159.152 78.5505C158.949 77.9521 158.949 77.7494 158.747 77.3536C158.544 77.1509 158.351 76.7551 158.351 76.5525C157.945 75.954 157.752 75.7513 157.55 75.5582C157.347 75.3556 157.154 74.9598 156.951 74.7571L156.15 73.956C156.15 73.8346 155.998 73.7122 155.826 73.6309C155.725 73.5296 155.593 73.3977 155.43 73.2351L155.39 73.195C155.39 73.0736 155.238 72.9512 155.065 72.8709C154.964 72.7696 154.832 72.6376 154.669 72.4751L154.629 72.434C154.629 72.3126 154.477 72.1902 154.304 72.109C154.203 72.0076 154.071 71.8757 153.908 71.7132L153.868 71.673C153.868 71.5516 153.716 71.4293 153.544 71.348C153.443 71.2467 153.311 71.1147 153.148 70.9522L153.108 70.9121C153.108 70.7907 152.956 70.6683 152.784 70.587C152.683 70.4857 152.551 70.3538 152.388 70.1912L152.348 70.1501C152.348 70.0287 152.196 69.9064 152.023 69.8251C151.922 69.7238 151.79 69.5918 151.627 69.4293L151.587 69.3882C151.587 69.2668 151.435 69.1444 151.263 69.0632C151.162 68.9618 151.03 68.8299 150.867 68.6674L150.827 68.6272C150.827 68.5058 150.675 68.3834 150.503 68.3031C150.402 68.2018 150.27 68.0699 150.107 67.9074L150.067 67.8672C150.067 67.7458 149.915 67.6234 149.742 67.5422C149.641 67.4408 149.509 67.3089 149.346 67.1464L149.306 67.1053C149.306 66.9839 149.154 66.8615 148.982 66.7802L148.546 66.3443C148.546 66.1512 148.15 65.9485 147.948 65.9485C147.948 65.7458 147.754 65.7458 147.754 65.7458C147.349 65.5527 147.146 65.3501 146.751 65.1474C146.548 64.9447 146.152 64.7516 145.756 64.3463C145.554 64.3463 145.158 64.1531 144.955 64.1531C144.56 63.9505 143.952 63.9505 143.758 63.7478C143.363 63.7478 143.16 63.7478 142.755 63.5547H141.558C141.365 63.5547 141.365 63.5547 141.162 63.5547C140.959 63.5547 140.766 63.5547 140.766 63.5547H139.367C139.164 63.7478 138.768 63.7478 138.565 63.7478C137.967 63.9505 137.571 63.9505 137.368 64.1531C136.973 64.1531 136.77 64.3463 136.567 64.7516C135.969 64.7516 135.776 64.9447 135.37 65.1474C135.177 65.3501 134.772 65.5527 134.569 65.7458C134.376 65.9485 134.174 66.1512 133.575 66.3443C133.383 66.7496 133.179 66.9428 132.977 67.1454C132.774 67.3481 132.774 67.5412 132.581 67.5412L58.7222 159.373C55.142 163.886 55.4766 170.185 59.7164 174.06C59.9497 174.333 60.203 174.587 60.4774 174.821C60.7107 175.094 60.964 175.348 61.2384 175.582C61.4717 175.855 61.725 176.109 61.9994 176.343C62.2326 176.616 62.486 176.87 62.7603 177.104C62.9936 177.377 63.247 177.631 63.5213 177.865C63.7546 178.138 64.0079 178.392 64.2823 178.626C64.5156 178.899 64.7689 179.153 65.0433 179.387C65.2765 179.66 65.5299 179.914 65.8043 180.147C66.0375 180.421 66.2909 180.675 66.5652 180.908C67.0212 181.426 67.549 181.912 68.1273 182.349C70.1254 184.145 72.5192 184.743 74.913 184.743H130.19V192.31C130.19 195.617 131.549 198.517 133.761 200.505L133.791 200.535C134.024 200.788 134.268 201.032 134.522 201.266C134.532 201.276 134.542 201.276 134.542 201.286C134.775 201.549 135.028 201.793 135.283 202.027L135.313 202.057C135.546 202.31 135.79 202.554 136.043 202.787C136.054 202.798 136.064 202.798 136.064 202.808C136.297 203.071 136.55 203.314 136.804 203.548L136.835 203.578C137.068 203.831 137.312 204.075 137.565 204.308C137.576 204.319 137.586 204.319 137.586 204.329C137.819 204.592 138.072 204.836 138.326 205.069L138.357 205.099C138.59 205.352 138.834 205.596 139.087 205.829C139.098 205.84 139.107 205.84 139.107 205.85C139.341 206.113 139.594 206.357 139.847 206.59L139.878 206.621C140.111 206.874 140.355 207.118 140.608 207.351C140.619 207.361 140.628 207.361 140.628 207.372C142.617 209.552 145.497 210.901 148.773 210.901C154.96 210.901 159.747 206.104 159.747 199.917V184.743H161.745C167.932 184.743 172.922 179.955 172.922 173.769C172.917 170.594 171.507 167.694 169.266 165.676ZM130.187 122.924V155.188H104.191L130.187 122.924Z" fill="black"/>
<path d="M165.315 166.16C165.315 172.348 160.325 177.139 154.136 177.139H152.14V192.311C152.14 198.499 147.35 203.289 141.163 203.289C134.973 203.289 130.183 198.499 130.183 192.311V177.139H67.7017H67.5019H67.3021C64.9063 177.139 62.5115 176.54 60.5145 174.743C55.5241 170.951 54.9257 164.164 58.7191 159.373L132.579 67.5479C132.778 67.5479 132.778 67.3481 132.978 67.1492C133.178 66.9494 133.378 66.7496 133.578 66.35C134.174 66.1502 134.374 65.9514 134.574 65.7516C134.774 65.5518 135.173 65.352 135.373 65.1522C135.773 64.9524 135.972 64.7526 136.569 64.7526C136.769 64.3539 136.969 64.1541 137.368 64.1541C137.568 63.9543 137.968 63.9543 138.567 63.7545C138.767 63.7545 139.165 63.7545 139.363 63.5547C139.763 63.5547 140.362 63.5547 140.762 63.5547C140.762 63.5547 140.962 63.5547 141.162 63.5547C141.361 63.5547 141.361 63.5547 141.559 63.5547C141.959 63.5547 142.558 63.5547 142.758 63.5547C143.158 63.7545 143.358 63.7545 143.757 63.7545C143.955 63.9543 144.555 63.9543 144.954 64.1541C145.154 64.1541 145.554 64.3539 145.753 64.3539C146.153 64.7526 146.551 64.9524 146.75 65.1522C147.15 65.352 147.35 65.5518 147.749 65.7516C147.749 65.7516 147.949 65.7516 147.949 65.9514C148.149 65.9514 148.549 66.1502 148.549 66.35C148.948 66.7496 149.146 66.9494 149.346 67.1492C149.546 67.3481 149.746 67.7477 149.945 67.9475C150.145 68.1473 150.345 68.3471 150.745 68.9456C150.745 69.1454 150.944 69.545 151.144 69.7448C151.344 70.1434 151.344 70.3432 151.544 70.9427C151.544 71.1415 151.741 71.5411 151.741 71.7409C151.941 72.1405 151.941 72.3394 151.941 72.9388C151.941 73.3384 152.14 73.5382 152.14 73.9368C152.14 74.1367 152.14 74.3365 152.14 74.5363V155.183H154.136C160.326 155.182 165.315 160.172 165.315 166.16ZM130.183 105.875L90.4583 155.182H130.183V105.875Z" fill="#CF3425"/>
<path d="M282.088 93.314C279.817 89.8552 277.199 86.6507 274.279 83.8104C274.167 83.689 274.056 83.5772 273.934 83.4758C273.903 83.4452 273.872 83.4051 273.832 83.3745C273.741 83.2731 273.65 83.1718 273.548 83.08C273.295 82.8066 273.021 82.5523 272.757 82.2885C272.737 82.2684 272.706 82.2378 272.686 82.2273C272.595 82.1365 272.503 82.0447 272.413 81.9539C272.382 81.9233 272.351 81.8831 272.311 81.8525C272.219 81.7512 272.129 81.6499 272.027 81.5581C271.774 81.2847 271.5 81.0304 271.236 80.7675C271.216 80.7474 271.185 80.7168 271.165 80.7063C271.073 80.6155 270.982 80.5237 270.892 80.4329C270.861 80.4023 270.83 80.3621 270.79 80.3315C270.699 80.2302 270.608 80.1289 270.506 80.0371C270.253 79.7637 269.979 79.5094 269.716 79.2455C269.696 79.2254 269.665 79.1948 269.645 79.1843C269.553 79.0935 269.462 79.0017 269.371 78.9109C269.34 78.8803 269.309 78.8402 269.269 78.8096C269.178 78.7082 269.087 78.6069 268.985 78.5151C268.732 78.2417 268.458 77.9874 268.194 77.7236C268.174 77.7035 268.143 77.6729 268.123 77.6624C268.031 77.561 267.951 77.4702 267.85 77.389C267.819 77.3584 267.788 77.3182 267.748 77.2876C259.735 69.0211 249.278 63.5547 237.554 63.5547C221.782 63.5547 208.81 72.9369 200.422 85.7062C191.638 98.486 187.054 115.059 186.852 133.417C187.054 151.582 191.639 168.349 200.422 181.128C202.684 184.506 205.27 187.681 208.15 190.5C208.282 190.632 208.414 190.753 208.546 190.885C208.566 190.896 208.586 190.916 208.597 190.936C208.83 191.18 209.074 191.413 209.307 191.646C209.428 191.778 209.551 191.9 209.672 192.022C209.804 192.154 209.936 192.275 210.068 192.407C210.088 192.417 210.108 192.438 210.119 192.458C210.352 192.702 210.596 192.935 210.829 193.168C210.95 193.3 211.073 193.422 211.194 193.544C211.326 193.676 211.458 193.797 211.59 193.929C211.61 193.94 211.63 193.96 211.641 193.98C211.874 194.224 212.118 194.457 212.351 194.69C212.472 194.822 212.595 194.943 212.716 195.066C212.848 195.198 212.98 195.319 213.112 195.451C213.132 195.462 213.152 195.482 213.163 195.502C213.396 195.746 213.64 195.979 213.873 196.212C213.994 196.344 214.117 196.465 214.238 196.588C214.37 196.72 214.502 196.841 214.634 196.973C214.654 196.984 214.674 197.004 214.685 197.024C214.918 197.268 215.162 197.501 215.395 197.734C223.286 205.614 233.458 210.899 245.164 210.899C260.53 210.899 273.705 201.314 282.093 188.737C290.674 175.957 295.471 159.192 295.471 141.026C295.467 122.667 290.669 106.094 282.088 93.314ZM256.114 168.755C250.322 177.336 243.74 181.128 237.553 181.128C234.145 181.128 230.555 179.982 227.026 177.507C226.742 177.142 226.467 176.757 226.194 176.361C220.605 167.973 216.609 155.204 216.609 141.024C216.609 126.652 220.605 114.075 226.194 105.494C232.188 97.1065 238.974 93.1209 245.161 93.3131C248.447 93.2117 251.845 94.2872 255.182 96.5893C255.496 97.0156 255.811 97.4411 256.115 97.8875C261.703 106.469 265.7 119.045 265.7 133.417C265.699 147.597 261.703 160.367 256.114 168.755Z" fill="#CF3425"/>
<path opacity="0.1" d="M282.088 93.314C279.817 89.8552 277.199 86.6507 274.279 83.8104C274.167 83.689 274.056 83.5772 273.934 83.4758C273.903 83.4452 273.872 83.4051 273.832 83.3745C273.741 83.2731 273.65 83.1718 273.548 83.08C273.295 82.8066 273.021 82.5523 272.757 82.2885C272.737 82.2684 272.706 82.2378 272.686 82.2273C272.595 82.1365 272.503 82.0447 272.413 81.9539C272.382 81.9233 272.351 81.8831 272.311 81.8525C272.219 81.7512 272.129 81.6499 272.027 81.5581C271.774 81.2847 271.5 81.0304 271.236 80.7675C271.216 80.7474 271.185 80.7168 271.165 80.7063C271.073 80.6155 270.982 80.5237 270.892 80.4329C270.861 80.4023 270.83 80.3621 270.79 80.3315C270.699 80.2302 270.608 80.1289 270.506 80.0371C270.253 79.7637 269.979 79.5094 269.716 79.2455C269.696 79.2254 269.665 79.1948 269.645 79.1843C269.553 79.0935 269.462 79.0017 269.371 78.9109C269.34 78.8803 269.309 78.8402 269.269 78.8096C269.178 78.7082 269.087 78.6069 268.985 78.5151C268.732 78.2417 268.458 77.9874 268.194 77.7236C268.174 77.7035 268.143 77.6729 268.123 77.6624C268.031 77.561 267.951 77.4702 267.85 77.389C267.819 77.3584 267.788 77.3182 267.748 77.2876C259.735 69.0211 249.278 63.5547 237.554 63.5547C221.782 63.5547 208.81 72.9369 200.422 85.7062C191.638 98.486 187.054 115.059 186.852 133.417C187.054 151.582 191.639 168.349 200.422 181.128C202.684 184.506 205.27 187.681 208.15 190.5C208.282 190.632 208.414 190.753 208.546 190.885C208.566 190.896 208.586 190.916 208.597 190.936C208.83 191.18 209.074 191.413 209.307 191.646C209.428 191.778 209.551 191.9 209.672 192.022C209.804 192.154 209.936 192.275 210.068 192.407C210.088 192.417 210.108 192.438 210.119 192.458C210.352 192.702 210.596 192.935 210.829 193.168C210.95 193.3 211.073 193.422 211.194 193.544C211.326 193.676 211.458 193.797 211.59 193.929C211.61 193.94 211.63 193.96 211.641 193.98C211.874 194.224 212.118 194.457 212.351 194.69C212.472 194.822 212.595 194.943 212.716 195.066C212.848 195.198 212.98 195.319 213.112 195.451C213.132 195.462 213.152 195.482 213.163 195.502C213.396 195.746 213.64 195.979 213.873 196.212C213.994 196.344 214.117 196.465 214.238 196.588C214.37 196.72 214.502 196.841 214.634 196.973C214.654 196.984 214.674 197.004 214.685 197.024C214.918 197.268 215.162 197.501 215.395 197.734C223.286 205.614 233.458 210.899 245.164 210.899C260.53 210.899 273.705 201.314 282.093 188.737C290.674 175.957 295.471 159.192 295.471 141.026C295.467 122.667 290.669 106.094 282.088 93.314ZM256.114 168.755C250.322 177.336 243.74 181.128 237.553 181.128C234.145 181.128 230.555 179.982 227.026 177.507C226.742 177.142 226.467 176.757 226.194 176.361C220.605 167.973 216.609 155.204 216.609 141.024C216.609 126.652 220.605 114.075 226.194 105.494C232.188 97.1065 238.974 93.1209 245.161 93.3131C248.447 93.2117 251.845 94.2872 255.182 96.5893C255.496 97.0156 255.811 97.4411 256.115 97.8875C261.703 106.469 265.7 119.045 265.7 133.417C265.699 147.597 261.703 160.367 256.114 168.755Z" fill="black"/>
<path d="M186.848 133.422C187.047 115.056 191.638 98.4879 200.423 85.7129C208.805 72.9369 221.781 63.5547 237.551 63.5547C252.924 63.5547 266.096 72.9369 274.483 85.7129C283.065 98.4888 287.856 115.057 287.856 133.422C287.856 151.587 283.065 168.355 274.483 181.13C266.096 193.707 252.924 203.288 237.551 203.288C221.781 203.288 208.805 193.707 200.423 181.13C191.638 168.355 187.047 151.587 186.848 133.422ZM265.696 133.422C265.696 119.05 261.704 106.473 256.115 97.8885C250.325 89.5053 243.74 85.5121 237.55 85.7119C231.361 85.5121 224.574 89.5044 218.588 97.8885C212.998 106.473 209.004 119.049 209.004 133.422C209.004 147.596 212.998 160.371 218.588 168.755C224.574 177.338 231.361 181.131 237.55 181.131C243.739 181.131 250.325 177.339 256.115 168.755C261.704 160.371 265.696 147.596 265.696 133.422Z" fill="#CF3425"/>
<path d="M418.085 165.676C418.085 165.665 418.085 165.665 418.075 165.665C417.831 165.401 417.578 165.148 417.324 164.915C417.324 164.905 417.324 164.905 417.314 164.905C417.07 164.641 416.817 164.388 416.564 164.155C416.564 164.144 416.564 164.144 416.553 164.144C416.31 163.88 416.056 163.627 415.803 163.394C415.803 163.383 415.803 163.383 415.792 163.383C415.548 163.119 415.295 162.866 415.042 162.633C415.042 162.623 415.042 162.623 415.031 162.623C414.787 162.359 414.534 162.106 414.281 161.873C414.281 161.862 414.281 161.862 414.27 161.862C414.027 161.598 413.773 161.345 413.52 161.112C413.52 161.101 413.52 161.101 413.509 161.101C413.265 160.837 413.012 160.584 412.759 160.351C412.759 160.34 412.759 160.34 412.749 160.34C412.505 160.076 412.252 159.823 411.999 159.59C411.999 159.579 411.999 159.579 411.988 159.579C411.744 159.315 411.491 159.062 411.238 158.829C411.238 158.818 411.238 158.818 411.227 158.818C410.457 157.976 409.554 157.247 408.549 156.678V81.5428C408.549 81.147 408.356 80.9443 408.356 80.5485C408.356 79.9501 408.356 79.7474 408.154 79.3516C408.154 79.149 407.96 78.7532 407.96 78.5505C407.758 77.9521 407.758 77.7494 407.555 77.3536C407.362 77.1509 407.159 76.7551 407.159 76.5525C406.764 75.954 406.561 75.7513 406.358 75.5582C406.156 75.3555 405.962 74.9598 405.76 74.7571L404.959 73.956C404.959 73.8346 404.807 73.7122 404.634 73.6309C404.532 73.5296 404.4 73.3977 404.238 73.2351L404.198 73.195C404.198 73.0736 404.046 72.9512 403.873 72.8709C403.771 72.7696 403.639 72.6376 403.477 72.4751L403.437 72.434C403.437 72.3126 403.285 72.1902 403.113 72.109C403.011 72.0076 402.879 71.8757 402.717 71.7132L402.677 71.673C402.677 71.5516 402.525 71.4293 402.352 71.348C402.25 71.2467 402.118 71.1147 401.956 70.9522L401.916 70.9121C401.916 70.7906 401.764 70.6683 401.592 70.587C401.49 70.4857 401.358 70.3538 401.196 70.1912L401.156 70.1501C401.156 70.0287 401.004 69.9064 400.832 69.8251C400.73 69.7238 400.598 69.5918 400.436 69.4293L400.396 69.3882C400.396 69.2668 400.244 69.1444 400.072 69.0632C399.97 68.9618 399.838 68.8299 399.676 68.6674L399.635 68.6272C399.635 68.5058 399.483 68.3834 399.31 68.3031C399.208 68.2018 399.076 68.0699 398.914 67.9074L398.874 67.8672C398.874 67.7458 398.722 67.6234 398.55 67.5422C398.448 67.4408 398.316 67.3089 398.154 67.1464L398.114 67.1053C398.114 66.9839 397.962 66.8615 397.789 66.7802L397.353 66.3443C397.353 66.1512 396.957 65.9485 396.754 65.9485C396.754 65.7458 396.552 65.7458 396.552 65.7458C396.156 65.5527 395.953 65.3501 395.557 65.1474C395.355 64.9447 394.959 64.7516 394.563 64.3463C394.36 64.3463 393.965 64.1531 393.762 64.1531C393.366 63.9505 392.768 63.9505 392.565 63.7478C392.16 63.7478 391.967 63.7478 391.561 63.5547H390.364C390.171 63.5547 390.171 63.5547 389.969 63.5547C389.775 63.5547 389.573 63.5547 389.573 63.5547H388.173C387.971 63.7478 387.575 63.7478 387.372 63.7478C386.774 63.9505 386.378 63.9505 386.175 64.1531C385.779 64.1531 385.577 64.3463 385.374 64.7516C384.786 64.7516 384.582 64.9447 384.177 65.1474C383.984 65.3501 383.579 65.5527 383.386 65.7458C383.183 65.9485 382.98 66.1512 382.382 66.3443C382.179 66.7496 381.986 66.9428 381.783 67.1454C381.581 67.3481 381.581 67.5412 381.387 67.5412L307.529 159.373C303.949 163.886 304.283 170.185 308.523 174.06C308.756 174.333 309.01 174.587 309.284 174.821C309.517 175.094 309.771 175.348 310.045 175.582C310.278 175.855 310.532 176.109 310.806 176.343C311.039 176.616 311.293 176.87 311.567 177.104C311.8 177.377 312.054 177.631 312.328 177.865C312.561 178.138 312.815 178.392 313.089 178.626C313.322 178.899 313.576 179.153 313.85 179.387C314.083 179.66 314.337 179.914 314.611 180.147C314.844 180.421 315.098 180.675 315.372 180.908C315.828 181.426 316.356 181.912 316.934 182.349C318.932 184.145 321.326 184.743 323.72 184.743H378.997V192.31C378.997 195.606 380.356 198.517 382.567 200.505C382.578 200.515 382.587 200.515 382.587 200.525C382.821 200.788 383.074 201.032 383.327 201.266L383.358 201.296C383.591 201.549 383.835 201.793 384.088 202.026C384.099 202.037 384.108 202.037 384.108 202.047C384.342 202.31 384.595 202.553 384.849 202.787L384.88 202.817C385.113 203.07 385.357 203.314 385.61 203.548C385.621 203.558 385.63 203.558 385.63 203.568C385.863 203.831 386.117 204.075 386.37 204.308L386.401 204.339C386.634 204.592 386.878 204.836 387.131 205.069C387.142 205.079 387.151 205.079 387.151 205.09C387.384 205.353 387.638 205.596 387.892 205.829L387.923 205.86C388.156 206.113 388.4 206.357 388.653 206.59C388.664 206.601 388.673 206.601 388.673 206.611C388.906 206.874 389.16 207.118 389.413 207.35L389.444 207.381C391.431 209.562 394.302 210.9 397.578 210.9C403.766 210.9 408.552 206.103 408.552 199.916V184.742H410.55C416.747 184.742 421.737 179.954 421.737 173.768C421.736 170.594 420.326 167.694 418.085 165.676ZM378.996 122.924V155.188H353L378.996 122.924Z" fill="#CF3425"/>
<path opacity="0.1" d="M418.085 165.676C418.085 165.665 418.085 165.665 418.075 165.665C417.831 165.401 417.578 165.148 417.324 164.915C417.324 164.905 417.324 164.905 417.314 164.905C417.07 164.641 416.817 164.388 416.564 164.155C416.564 164.144 416.564 164.144 416.553 164.144C416.31 163.88 416.056 163.627 415.803 163.394C415.803 163.383 415.803 163.383 415.792 163.383C415.548 163.119 415.295 162.866 415.042 162.633C415.042 162.623 415.042 162.623 415.031 162.623C414.787 162.359 414.534 162.106 414.281 161.873C414.281 161.862 414.281 161.862 414.27 161.862C414.027 161.598 413.773 161.345 413.52 161.112C413.52 161.101 413.52 161.101 413.509 161.101C413.265 160.837 413.012 160.584 412.759 160.351C412.759 160.34 412.759 160.34 412.749 160.34C412.505 160.076 412.252 159.823 411.999 159.59C411.999 159.579 411.999 159.579 411.988 159.579C411.744 159.315 411.491 159.062 411.238 158.829C411.238 158.818 411.238 158.818 411.227 158.818C410.457 157.976 409.554 157.247 408.549 156.678V81.5428C408.549 81.147 408.356 80.9443 408.356 80.5485C408.356 79.9501 408.356 79.7474 408.154 79.3516C408.154 79.149 407.96 78.7532 407.96 78.5505C407.758 77.9521 407.758 77.7494 407.555 77.3536C407.362 77.1509 407.159 76.7551 407.159 76.5525C406.764 75.954 406.561 75.7513 406.358 75.5582C406.156 75.3555 405.962 74.9598 405.76 74.7571L404.959 73.956C404.959 73.8346 404.807 73.7122 404.634 73.6309C404.532 73.5296 404.4 73.3977 404.238 73.2351L404.198 73.195C404.198 73.0736 404.046 72.9512 403.873 72.8709C403.771 72.7696 403.639 72.6376 403.477 72.4751L403.437 72.434C403.437 72.3126 403.285 72.1902 403.113 72.109C403.011 72.0076 402.879 71.8757 402.717 71.7132L402.677 71.673C402.677 71.5516 402.525 71.4293 402.352 71.348C402.25 71.2467 402.118 71.1147 401.956 70.9522L401.916 70.9121C401.916 70.7906 401.764 70.6683 401.592 70.587C401.49 70.4857 401.358 70.3538 401.196 70.1912L401.156 70.1501C401.156 70.0287 401.004 69.9064 400.832 69.8251C400.73 69.7238 400.598 69.5918 400.436 69.4293L400.396 69.3882C400.396 69.2668 400.244 69.1444 400.072 69.0632C399.97 68.9618 399.838 68.8299 399.676 68.6674L399.635 68.6272C399.635 68.5058 399.483 68.3834 399.31 68.3031C399.208 68.2018 399.076 68.0699 398.914 67.9074L398.874 67.8672C398.874 67.7458 398.722 67.6234 398.55 67.5422C398.448 67.4408 398.316 67.3089 398.154 67.1464L398.114 67.1053C398.114 66.9839 397.962 66.8615 397.789 66.7802L397.353 66.3443C397.353 66.1512 396.957 65.9485 396.754 65.9485C396.754 65.7458 396.552 65.7458 396.552 65.7458C396.156 65.5527 395.953 65.3501 395.557 65.1474C395.355 64.9447 394.959 64.7516 394.563 64.3463C394.36 64.3463 393.965 64.1531 393.762 64.1531C393.366 63.9505 392.768 63.9505 392.565 63.7478C392.16 63.7478 391.967 63.7478 391.561 63.5547H390.364C390.171 63.5547 390.171 63.5547 389.969 63.5547C389.775 63.5547 389.573 63.5547 389.573 63.5547H388.173C387.971 63.7478 387.575 63.7478 387.372 63.7478C386.774 63.9505 386.378 63.9505 386.175 64.1531C385.779 64.1531 385.577 64.3463 385.374 64.7516C384.786 64.7516 384.582 64.9447 384.177 65.1474C383.984 65.3501 383.579 65.5527 383.386 65.7458C383.183 65.9485 382.98 66.1512 382.382 66.3443C382.179 66.7496 381.986 66.9428 381.783 67.1454C381.581 67.3481 381.581 67.5412 381.387 67.5412L307.529 159.373C303.949 163.886 304.283 170.185 308.523 174.06C308.756 174.333 309.01 174.587 309.284 174.821C309.517 175.094 309.771 175.348 310.045 175.582C310.278 175.855 310.532 176.109 310.806 176.343C311.039 176.616 311.293 176.87 311.567 177.104C311.8 177.377 312.054 177.631 312.328 177.865C312.561 178.138 312.815 178.392 313.089 178.626C313.322 178.899 313.576 179.153 313.85 179.387C314.083 179.66 314.337 179.914 314.611 180.147C314.844 180.421 315.098 180.675 315.372 180.908C315.828 181.426 316.356 181.912 316.934 182.349C318.932 184.145 321.326 184.743 323.72 184.743H378.997V192.31C378.997 195.606 380.356 198.517 382.567 200.505C382.578 200.515 382.587 200.515 382.587 200.525C382.821 200.788 383.074 201.032 383.327 201.266L383.358 201.296C383.591 201.549 383.835 201.793 384.088 202.026C384.099 202.037 384.108 202.037 384.108 202.047C384.342 202.31 384.595 202.553 384.849 202.787L384.88 202.817C385.113 203.07 385.357 203.314 385.61 203.548C385.621 203.558 385.63 203.558 385.63 203.568C385.863 203.831 386.117 204.075 386.37 204.308L386.401 204.339C386.634 204.592 386.878 204.836 387.131 205.069C387.142 205.079 387.151 205.079 387.151 205.09C387.384 205.353 387.638 205.596 387.892 205.829L387.923 205.86C388.156 206.113 388.4 206.357 388.653 206.59C388.664 206.601 388.673 206.601 388.673 206.611C388.906 206.874 389.16 207.118 389.413 207.35L389.444 207.381C391.431 209.562 394.302 210.9 397.578 210.9C403.766 210.9 408.552 206.103 408.552 199.916V184.742H410.55C416.747 184.742 421.737 179.954 421.737 173.768C421.736 170.594 420.326 167.694 418.085 165.676ZM378.996 122.924V155.188H353L378.996 122.924Z" fill="black"/>
<path d="M414.126 166.16C414.126 172.348 409.135 177.139 402.946 177.139H400.948V192.311C400.948 198.499 396.158 203.289 389.973 203.289C383.784 203.289 378.993 198.499 378.993 192.311V177.139H316.511H316.311H316.112C313.714 177.139 311.321 176.54 309.323 174.743C304.333 170.951 303.733 164.164 307.53 159.373L381.386 67.5479C381.586 67.5479 381.586 67.3481 381.786 67.1492C381.986 66.9494 382.186 66.7496 382.385 66.35C382.985 66.1502 383.185 65.9514 383.384 65.7516C383.584 65.5518 383.984 65.352 384.184 65.1522C384.583 64.9524 384.783 64.7526 385.378 64.7526C385.577 64.3539 385.777 64.1541 386.177 64.1541C386.377 63.9543 386.776 63.9543 387.376 63.7545C387.576 63.7545 387.975 63.7545 388.175 63.5547C388.575 63.5547 389.174 63.5547 389.574 63.5547C389.574 63.5547 389.773 63.5547 389.973 63.5547C390.173 63.5547 390.173 63.5547 390.368 63.5547C390.768 63.5547 391.367 63.5547 391.567 63.5547C391.966 63.7545 392.166 63.7545 392.566 63.7545C392.766 63.9543 393.365 63.9543 393.765 64.1541C393.964 64.1541 394.364 64.3539 394.564 64.3539C394.963 64.7526 395.358 64.9524 395.558 65.1522C395.958 65.352 396.158 65.5518 396.557 65.7516C396.557 65.7516 396.757 65.7516 396.757 65.9514C396.957 65.9514 397.356 66.1502 397.356 66.35C397.756 66.7496 397.956 66.9494 398.156 67.1492C398.355 67.3481 398.555 67.7477 398.755 67.9475C398.955 68.1473 399.155 68.3471 399.554 68.9456C399.554 69.1454 399.754 69.545 399.954 69.7448C400.154 70.1434 400.154 70.3432 400.353 70.9427C400.353 71.1415 400.548 71.5411 400.548 71.7409C400.748 72.1405 400.748 72.3394 400.748 72.9388C400.748 73.3384 400.948 73.5382 400.948 73.9368C400.948 74.1367 400.948 74.3365 400.948 74.5363V155.183H402.946C409.134 155.182 414.126 160.172 414.126 166.16ZM378.993 105.875L339.264 155.182H378.993V105.875Z" fill="#CF3425"/>
<path opacity="0.2" d="M245.338 372.957C250.951 372.957 255.5 368.408 255.5 362.795C255.5 357.183 250.951 352.633 245.338 352.633C239.726 352.633 235.176 357.183 235.176 362.795C235.176 368.408 239.726 372.957 245.338 372.957Z" fill="#CF3425"/>
<path opacity="0.2" d="M245.338 372.914C249.648 372.914 253.143 369.42 253.143 365.109C253.143 360.799 249.648 357.305 245.338 357.305C241.028 357.305 237.533 360.799 237.533 365.109C237.533 369.42 241.028 372.914 245.338 372.914Z" fill="#CF3425"/>
<path d="M246.037 372.887C246.037 372.887 239.838 371.981 239.466 372.22C239.094 372.459 238.757 374.267 239.506 374.706C240.254 375.146 245.937 374.346 245.937 374.346C245.937 374.346 246.552 373.803 246.037 372.887Z" fill="#CF3425"/>
<path opacity="0.49" d="M246.037 372.887C246.037 372.887 239.838 371.981 239.466 372.22C239.094 372.459 238.757 374.267 239.506 374.706C240.254 375.146 245.937 374.346 245.937 374.346C245.937 374.346 246.552 373.803 246.037 372.887Z" fill="black"/>
<path opacity="0.2" d="M239.496 372.291C239.684 372.249 239.987 372.869 239.917 373.561C239.851 374.218 239.604 374.657 239.502 374.643C239.4 374.629 239.053 374.246 239.11 373.398C239.151 372.782 239.339 372.326 239.496 372.291Z" fill="white"/>
<g opacity="0.2">
<path d="M240.145 372.461C240.501 372.436 240.858 372.43 241.215 372.448C241.394 372.456 241.573 372.472 241.752 372.494C241.841 372.505 241.93 372.522 242.022 372.545C242.118 372.57 242.187 372.589 242.275 372.603C242.617 372.662 242.972 372.686 243.324 372.718C243.678 372.745 244.032 372.775 244.387 372.809C244.032 372.842 243.675 372.856 243.318 372.852C242.961 372.848 242.605 372.832 242.245 372.772C242.159 372.758 242.057 372.728 241.98 372.707C241.899 372.685 241.813 372.67 241.728 372.655C241.556 372.624 241.381 372.604 241.205 372.581L240.145 372.461Z" fill="black"/>
<path d="M240.85 372.789C241.102 372.825 241.352 372.867 241.6 372.915C241.848 372.959 242.095 373.014 242.34 373.045C242.577 373.079 242.829 373.061 243.081 373.055C243.332 373.044 243.586 373.038 243.841 373.036C243.595 373.104 243.345 373.155 243.092 373.189C242.84 373.22 242.584 373.249 242.318 373.215C242.06 373.178 241.814 373.117 241.569 373.045C241.324 372.975 241.084 372.888 240.85 372.789Z" fill="black"/>
<path d="M243.895 373.374C244.217 373.146 244.599 372.986 245.01 372.963C245.215 372.953 245.423 372.98 245.62 373.063C245.718 373.106 245.811 373.164 245.889 373.247C245.927 373.289 245.963 373.333 245.987 373.401C245.993 373.417 245.999 373.439 245.998 373.466C245.996 373.481 245.993 373.497 245.988 373.513C245.983 373.523 245.98 373.53 245.975 373.539C245.957 373.572 245.938 373.593 245.918 373.614C245.763 373.772 245.573 373.873 245.358 373.913C245.251 373.931 245.135 373.926 245.029 373.888C244.931 373.855 244.839 373.814 244.748 373.76C244.662 373.702 244.565 373.652 244.516 373.521C244.505 373.489 244.508 373.441 244.532 373.409C244.554 373.377 244.586 373.357 244.612 373.347C244.665 373.325 244.715 373.316 244.766 373.308C244.869 373.298 244.97 373.298 245.069 373.311C245.168 373.324 245.271 373.35 245.348 373.415C245.17 373.328 244.963 373.351 244.781 373.39C244.735 373.402 244.689 373.414 244.653 373.433C244.615 373.455 244.61 373.467 244.619 373.491C244.642 373.548 244.732 373.605 244.811 373.645C244.895 373.685 244.985 373.717 245.074 373.745C245.155 373.77 245.243 373.77 245.329 373.753C245.5 373.719 245.674 373.623 245.791 373.497C245.806 373.483 245.819 373.466 245.825 373.455L245.829 373.449C245.827 373.452 245.826 373.455 245.828 373.459C245.828 373.461 245.829 373.459 245.826 373.452C245.818 373.426 245.793 373.388 245.765 373.359C245.71 373.296 245.633 373.248 245.552 373.209C245.39 373.129 245.199 373.101 245.01 373.092C244.821 373.084 244.63 373.118 244.442 373.168C244.256 373.217 244.072 373.289 243.895 373.374Z" fill="black"/>
<path d="M245.957 373.975C245.721 374.103 245.459 374.19 245.187 374.223C245.051 374.241 244.912 374.242 244.773 374.23C244.635 374.215 244.495 374.177 244.368 374.132C244.11 374.039 243.874 373.901 243.643 373.779C243.413 373.657 243.168 373.568 242.902 373.52C243.17 373.5 243.449 373.55 243.699 373.658C243.95 373.761 244.181 373.886 244.425 373.971C244.666 374.066 244.915 374.098 245.176 374.091C245.436 374.08 245.698 374.042 245.957 373.975Z" fill="black"/>
<path d="M239.916 374.506C240.236 374.506 240.555 374.509 240.871 374.515C241.186 374.515 241.509 374.526 241.806 374.481C242.123 374.414 242.455 374.416 242.773 374.43C243.093 374.443 243.411 374.48 243.727 374.534L242.772 374.564C242.453 374.577 242.143 374.581 241.836 374.65C241.502 374.696 241.185 374.675 240.864 374.649C240.545 374.62 240.229 374.573 239.916 374.506Z" fill="black"/>
<path d="M244.216 374.3C243.952 374.235 243.69 374.165 243.424 374.111C243.292 374.082 243.159 374.055 243.027 374.036C242.892 374.015 242.775 374.017 242.641 374.046C242.378 374.097 242.111 374.155 241.841 374.202C241.705 374.225 241.568 374.243 241.43 374.254C241.291 374.264 241.149 374.27 240.999 374.238C240.864 374.206 240.73 374.168 240.598 374.119C240.467 374.065 240.332 374.014 240.218 373.888C240.191 373.855 240.164 373.815 240.155 373.763C240.143 373.713 240.155 373.659 240.174 373.616C240.223 373.517 240.307 373.486 240.375 373.455C240.517 373.404 240.657 373.39 240.798 373.384C240.937 373.38 241.077 373.385 241.216 373.405C241.353 373.428 241.494 373.451 241.621 373.541C241.65 373.563 241.686 373.589 241.693 373.652C241.686 373.721 241.633 373.738 241.603 373.752C241.533 373.779 241.464 373.788 241.396 373.796C241.26 373.812 241.123 373.812 240.987 373.806C241.123 373.794 241.258 373.777 241.39 373.752C241.505 373.727 241.712 373.67 241.57 373.609C241.47 373.547 241.331 373.526 241.202 373.513C241.07 373.502 240.937 373.504 240.805 373.516C240.675 373.53 240.544 373.552 240.43 373.596C240.376 373.62 240.327 373.651 240.317 373.679C240.302 373.717 240.309 373.744 240.342 373.783C240.413 373.86 240.538 373.916 240.657 373.961C240.781 374.006 240.909 374.04 241.039 374.071C241.277 374.12 241.554 374.077 241.817 374.042C242.084 374.006 242.348 373.949 242.623 373.916C242.692 373.908 242.761 373.9 242.835 373.903C242.911 373.904 242.978 373.918 243.046 373.93C243.182 373.958 243.315 373.992 243.446 374.031C243.705 374.112 243.963 374.198 244.216 374.3Z" fill="black"/>
<path d="M242.466 373.531C242.101 373.47 241.752 373.374 241.403 373.279L240.882 373.138C240.707 373.097 240.536 373.048 240.352 373.045C240.527 372.976 240.724 372.988 240.907 373.006C241.092 373.027 241.272 373.067 241.45 373.114C241.801 373.215 242.146 373.343 242.466 373.531Z" fill="black"/>
</g>
<path d="M245.18 372.851C245.18 372.851 251.389 372.012 251.759 372.255C252.128 372.499 252.445 374.31 251.692 374.741C250.939 375.173 245.265 374.31 245.265 374.31C245.265 374.31 244.655 373.761 245.18 372.851Z" fill="#CF3425"/>
<path opacity="0.49" d="M245.18 372.851C245.18 372.851 251.389 372.012 251.759 372.255C252.128 372.499 252.445 374.31 251.692 374.741C250.939 375.173 245.265 374.31 245.265 374.31C245.265 374.31 244.655 373.761 245.18 372.851Z" fill="black"/>
<path opacity="0.2" d="M251.727 372.323C251.54 372.279 251.231 372.895 251.293 373.587C251.352 374.246 251.594 374.687 251.697 374.674C251.799 374.662 252.151 374.282 252.102 373.433C252.067 372.817 251.884 372.36 251.727 372.323Z" fill="white"/>
<g opacity="0.2">
<path d="M245.402 374.133L246.466 374.191C246.643 374.198 246.819 374.208 246.994 374.206C247.081 374.205 247.168 374.205 247.252 374.197C247.331 374.189 247.437 374.177 247.525 374.178C247.89 374.179 248.244 374.223 248.596 374.279C248.949 374.335 249.298 374.408 249.643 374.501C249.288 374.474 248.933 374.445 248.58 374.413C248.227 374.385 247.874 374.349 247.527 374.351C247.437 374.35 247.365 374.357 247.267 374.366C247.173 374.374 247.082 374.374 246.992 374.371C246.811 374.363 246.633 374.35 246.456 374.327C246.101 374.282 245.749 374.217 245.402 374.133Z" fill="black"/>
<path d="M246.049 374.116C246.291 374.035 246.536 373.969 246.786 373.918C247.035 373.865 247.286 373.823 247.545 373.807C247.813 373.794 248.066 373.842 248.316 373.894C248.565 373.946 248.81 374.018 249.05 374.105C248.795 374.083 248.543 374.056 248.294 374.027C248.044 374.002 247.794 373.963 247.555 373.979C247.309 373.991 247.057 374.026 246.807 374.05C246.556 374.078 246.303 374.1 246.049 374.116Z" fill="black"/>
<path d="M249.129 373.771C249.3 373.87 249.477 373.955 249.661 374.017C249.844 374.081 250.032 374.13 250.221 374.136C250.409 374.143 250.601 374.129 250.769 374.063C250.853 374.029 250.934 373.988 250.994 373.93C251.024 373.902 251.051 373.868 251.062 373.843C251.066 373.836 251.065 373.833 251.065 373.836C251.063 373.84 251.064 373.844 251.066 373.847L251.062 373.84C251.057 373.83 251.046 373.811 251.032 373.796C250.924 373.662 250.759 373.553 250.592 373.506C250.507 373.482 250.42 373.475 250.336 373.493C250.246 373.513 250.152 373.539 250.066 373.572C249.984 373.605 249.89 373.656 249.862 373.711C249.851 373.733 249.855 373.745 249.891 373.77C249.925 373.792 249.97 373.809 250.015 373.824C250.194 373.877 250.398 373.917 250.582 373.843C250.501 373.902 250.396 373.919 250.296 373.925C250.196 373.931 250.094 373.923 249.993 373.905C249.942 373.894 249.893 373.88 249.842 373.854C249.817 373.843 249.787 373.82 249.768 373.787C249.746 373.752 249.746 373.704 249.76 373.673C249.818 373.546 249.92 373.504 250.01 373.453C250.104 373.407 250.2 373.373 250.3 373.348C250.409 373.319 250.524 373.324 250.63 373.349C250.842 373.406 251.023 373.522 251.165 373.691C251.183 373.714 251.2 373.736 251.215 373.77C251.219 373.78 251.223 373.787 251.226 373.797C251.23 373.812 251.232 373.829 251.233 373.844C251.231 373.871 251.224 373.893 251.217 373.908C251.187 373.973 251.148 374.014 251.106 374.053C251.022 374.13 250.924 374.18 250.823 374.216C250.62 374.284 250.41 374.295 250.206 374.268C249.801 374.214 249.432 374.024 249.129 373.771Z" fill="black"/>
<path d="M251.232 373.331C250.978 373.245 250.72 373.186 250.463 373.156C250.203 373.128 249.953 373.141 249.705 373.217C249.454 373.282 249.215 373.389 248.955 373.472C248.697 373.56 248.415 373.588 248.15 373.547C248.419 373.52 248.669 373.45 248.908 373.346C249.147 373.242 249.393 373.123 249.658 373.05C249.788 373.016 249.93 372.988 250.07 372.984C250.21 372.983 250.348 372.996 250.482 373.024C250.752 373.079 251.006 373.185 251.232 373.331Z" fill="black"/>
<path d="M247.518 372.739C247.83 372.671 248.147 372.623 248.466 372.593C248.786 372.565 249.104 372.543 249.437 372.588C249.743 372.655 250.055 372.658 250.373 372.67L251.328 372.696C251.013 372.752 250.694 372.789 250.375 372.804C250.058 372.82 249.727 372.823 249.409 372.757C249.111 372.713 248.788 372.726 248.474 372.727C248.156 372.733 247.837 372.737 247.518 372.739Z" fill="black"/>
<path d="M249.523 372.87C249.263 372.953 248.999 373.018 248.732 373.08C248.598 373.107 248.463 373.132 248.326 373.149C248.256 373.156 248.188 373.164 248.113 373.16C248.039 373.157 247.97 373.143 247.902 373.129C247.632 373.075 247.373 372.998 247.109 372.941C246.85 372.887 246.576 372.821 246.335 372.851C246.203 372.871 246.072 372.896 245.947 372.931C245.825 372.966 245.695 373.014 245.619 373.084C245.583 373.121 245.574 373.146 245.586 373.186C245.593 373.214 245.639 373.25 245.692 373.278C245.802 373.33 245.932 373.363 246.061 373.386C246.191 373.409 246.324 373.42 246.456 373.419C246.586 373.417 246.725 373.407 246.83 373.352C246.975 373.302 246.774 373.23 246.66 373.196C246.531 373.161 246.397 373.133 246.264 373.11C246.399 373.115 246.536 373.127 246.671 373.152C246.739 373.166 246.806 373.18 246.874 373.212C246.902 373.228 246.954 373.25 246.955 373.319C246.943 373.381 246.905 373.404 246.875 373.424C246.741 373.503 246.598 373.515 246.46 373.527C246.32 373.537 246.18 373.532 246.042 373.516C245.902 373.499 245.764 373.474 245.626 373.412C245.561 373.377 245.48 373.339 245.438 373.237C245.422 373.193 245.415 373.139 245.431 373.089C245.443 373.039 245.474 373 245.503 372.969C245.627 372.852 245.766 372.813 245.9 372.769C246.036 372.73 246.173 372.703 246.31 372.681C246.462 372.661 246.603 372.677 246.741 372.698C246.878 372.72 247.013 372.749 247.146 372.782C247.412 372.85 247.673 372.929 247.932 373C248.063 373.04 248.18 373.051 248.316 373.04C248.449 373.032 248.583 373.014 248.718 372.996C248.987 372.964 249.254 372.915 249.523 372.87Z" fill="black"/>
<path d="M247.718 373.5C247.385 373.663 247.031 373.764 246.671 373.837C246.49 373.869 246.306 373.896 246.121 373.902C245.937 373.905 245.74 373.902 245.57 373.819C245.755 373.831 245.929 373.795 246.107 373.768L246.637 373.667C246.995 373.602 247.349 373.533 247.718 373.5Z" fill="black"/>
<path d="M249.373 374.172C249.655 374.263 249.922 374.354 250.196 374.417C250.332 374.452 250.471 374.473 250.609 374.493C250.75 374.513 250.89 374.517 251.04 374.528C250.905 374.588 250.754 374.623 250.604 374.627C250.454 374.634 250.302 374.618 250.157 374.583C250.012 374.547 249.869 374.497 249.737 374.428C249.604 374.36 249.478 374.278 249.373 374.172Z" fill="black"/>
</g>
<path d="M250.354 359.692C250.354 359.798 250.44 359.884 250.546 359.884C250.652 359.884 250.738 359.798 250.738 359.692C250.738 359.586 250.652 359.5 250.546 359.5C250.44 359.5 250.354 359.586 250.354 359.692Z" fill="#CF3425"/>
<path d="M248.291 351.427C248.291 351.533 248.377 351.619 248.483 351.619C248.589 351.619 248.675 351.533 248.675 351.427C248.675 351.32 248.589 351.234 248.483 351.234C248.377 351.234 248.291 351.32 248.291 351.427Z" fill="#CF3425"/>
<path d="M240.935 358.439C241.019 358.504 241.139 358.487 241.204 358.403C241.269 358.319 241.253 358.199 241.169 358.134C241.085 358.069 240.964 358.085 240.899 358.169C240.834 358.253 240.851 358.374 240.935 358.439Z" fill="#CF3425"/>
<path d="M239.211 370.184C239.211 370.29 239.297 370.377 239.403 370.377C239.509 370.377 239.595 370.29 239.595 370.184C239.595 370.078 239.509 369.992 239.403 369.992C239.297 369.992 239.211 370.078 239.211 370.184Z" fill="#CF3425"/>
<path d="M251.24 368.887C251.24 368.994 251.326 369.08 251.432 369.08C251.539 369.08 251.625 368.994 251.625 368.887C251.625 368.781 251.539 368.695 251.432 368.695C251.326 368.695 251.24 368.78 251.24 368.887Z" fill="#CF3425"/>
<path d="M250.094 360.948C250.094 361.091 250.21 361.208 250.354 361.208C250.497 361.208 250.614 361.091 250.614 360.948C250.614 360.804 250.497 360.688 250.354 360.688C250.21 360.688 250.094 360.804 250.094 360.948Z" fill="#CF3425"/>
<path d="M241.98 356.28C242.094 356.368 242.258 356.347 242.345 356.232C242.433 356.118 242.412 355.955 242.298 355.867C242.184 355.779 242.02 355.8 241.932 355.915C241.845 356.029 241.867 356.193 241.98 356.28Z" fill="#CF3425"/>
<path d="M239.703 365.916C239.703 366.06 239.82 366.176 239.963 366.176C240.107 366.176 240.223 366.06 240.223 365.916C240.223 365.773 240.107 365.656 239.963 365.656C239.82 365.656 239.703 365.773 239.703 365.916Z" fill="#CF3425"/>
<path d="M249.68 360.574C249.68 360.636 249.73 360.687 249.792 360.687C249.855 360.687 249.905 360.636 249.905 360.574C249.905 360.512 249.855 360.461 249.792 360.461C249.73 360.461 249.68 360.512 249.68 360.574Z" fill="#CF3425"/>
<path d="M250.753 364.343C250.816 364.343 250.866 364.292 250.866 364.23C250.866 364.168 250.816 364.117 250.753 364.117C250.691 364.117 250.641 364.168 250.641 364.23C250.641 364.292 250.691 364.343 250.753 364.343Z" fill="#CF3425"/>
<path d="M252.113 367.847C252.113 367.909 252.164 367.96 252.226 367.96C252.288 367.96 252.339 367.909 252.339 367.847C252.339 367.785 252.288 367.734 252.226 367.734C252.164 367.734 252.113 367.785 252.113 367.847Z" fill="#CF3425"/>
<path d="M239.326 365.105C239.326 365.167 239.377 365.218 239.439 365.218C239.501 365.218 239.552 365.167 239.552 365.105C239.552 365.043 239.501 364.992 239.439 364.992C239.377 364.992 239.326 365.043 239.326 365.105Z" fill="#CF3425"/>
<path d="M251.205 357.003C251.205 357.066 251.256 357.116 251.318 357.116C251.38 357.116 251.431 357.066 251.431 357.003C251.431 356.941 251.38 356.891 251.318 356.891C251.256 356.891 251.205 356.941 251.205 357.003Z" fill="#CF3425"/>
<path d="M246.125 356.069C246.187 356.069 246.237 356.019 246.237 355.957C246.237 355.894 246.187 355.844 246.125 355.844C246.062 355.844 246.012 355.894 246.012 355.957C246.012 356.019 246.062 356.069 246.125 356.069Z" fill="#CF3425"/>
<path d="M245.277 354.374C245.339 354.374 245.39 354.324 245.39 354.261C245.39 354.199 245.339 354.148 245.277 354.148C245.215 354.148 245.164 354.199 245.164 354.261C245.164 354.324 245.215 354.374 245.277 354.374Z" fill="#CF3425"/>
<path d="M241.388 373.154C242.191 373.662 245.084 374.036 245.084 374.036L245.841 374.048C245.841 374.048 247.732 373.596 248.004 373.504C248.276 373.413 248.928 373.704 249.227 373.504C249.526 373.305 250.963 372.002 251.061 371.621C251.158 371.24 250.574 369.861 250.558 369.59C250.542 369.319 250.939 367.67 250.977 367.126C251.013 366.582 249.399 363.885 249.254 363.448C249.109 363.011 249.721 361.416 249.721 361.416C249.721 361.416 248.388 362.812 248.432 363.138C248.474 363.464 249.082 364.225 249.113 364.461C249.145 364.697 248.288 366.382 248.318 366.617C248.349 366.852 248.734 367.633 248.696 367.977C248.696 367.977 248.499 367.179 248.088 366.926C247.678 366.672 247.262 366.473 247.08 366.31C246.899 366.147 246.416 364.769 246.458 364.607C246.5 364.443 246.88 364.011 246.826 363.448C246.771 362.884 245.567 360.945 245.567 360.945C245.567 360.945 245.777 362.015 245.567 362.268C245.357 362.521 244.596 362.92 244.524 363.12C244.452 363.32 245.213 364.19 245.122 364.408C245.031 364.625 243.317 364.969 243.141 365.205C242.964 365.44 242.494 367.236 242.621 367.58C242.747 367.924 243.164 369.229 242.929 369.483C242.694 369.738 242.185 369.847 242.168 369.738C242.15 369.629 242.477 368.813 242.349 368.307C242.223 367.799 241.679 366.693 241.642 366.42C241.605 366.149 241.974 364.778 242.125 364.457C242.276 364.136 241.074 366.149 241.008 366.68C240.942 367.211 241.352 368.934 241.303 368.97C241.255 369.006 241.058 368.801 241 368.692C240.942 368.583 241 367.696 241 367.696C241 367.696 240.313 368.499 240.233 368.849C240.155 369.199 240.553 370.058 240.494 370.348C240.433 370.637 240.126 371.308 240.089 371.695C240.052 372.078 241.099 372.971 241.388 373.154ZM249.592 370.562C249.565 370.914 249.182 371.686 249.146 371.717C249.146 371.717 249.231 371.149 249.237 370.925C249.243 370.701 249.111 370.502 248.983 370.055C248.856 369.609 249.267 369.034 249.267 369.034C249.267 369.034 249.629 370.103 249.592 370.562ZM247.992 373.215C247.992 373.215 248.457 372.817 248.686 372.606C248.917 372.394 249.598 372.092 249.721 371.886C249.845 371.681 250.04 370.696 250.04 370.696C250.04 370.696 250.214 371.693 250.131 372.014C250.046 372.333 249.261 373.041 249.006 373.174C248.753 373.305 247.992 373.215 247.992 373.215ZM242.933 370.203C242.907 370.251 242.553 370.908 242.536 371.239C242.518 371.583 242.717 372.013 242.862 372.236C243.007 372.459 243.164 373.039 243.164 373.039C243.164 373.039 242.361 372.664 242.223 372.072C242.087 371.499 242.887 370.273 242.933 370.203Z" fill="#CF3425"/>
<path d="M248.37 361.761C248.37 361.761 249.201 361.169 249.226 360.722C249.251 360.274 248.706 359.344 248.761 358.982C248.816 358.62 249 358.281 249 358.281C249 358.281 248.119 358.885 248.123 359.381C248.127 359.876 248.647 360.662 248.598 360.904C248.55 361.144 248.37 361.761 248.37 361.761Z" fill="#CF3425"/>
<path d="M243.4 364.479C243.4 364.479 243.593 363.891 243.566 363.658C243.538 363.426 243.261 363.117 243.261 363.117C243.261 363.117 243.04 363.349 243.149 363.727C243.258 364.105 243.4 364.479 243.4 364.479Z" fill="#CF3425"/>
<path d="M241.342 364.38C241.391 364.325 241.754 363.69 241.818 363.117C241.881 362.544 241.578 361.824 241.474 361.638C241.369 361.453 240.93 361.203 240.93 361.203C240.93 361.203 241.229 361.674 241.238 361.888C241.246 362.101 241.088 362.762 241.065 363.02C241.042 363.28 241.342 364.38 241.342 364.38Z" fill="#CF3425"/>
<path d="M246.743 360.947C246.743 360.947 247.368 360.095 247.25 359.543C247.133 358.99 246.648 358.269 246.461 358.084C246.275 357.897 245.818 357.459 245.628 357.159C245.438 356.86 245.428 355.773 245.628 355.501C245.827 355.229 246.172 355.063 246.172 355.063C246.172 355.063 245.32 355.021 244.776 355.782C244.232 356.543 243.534 359.498 243.861 360.168C244.187 360.839 245.103 361.501 245.103 361.501C245.103 361.501 244.858 360.331 244.94 360.042C245.021 359.752 245.891 360.041 246.109 360.218C246.326 360.395 246.743 360.947 246.743 360.947Z" fill="#CF3425"/>
<path d="M248.181 365.124C248.181 365.124 248.565 364.725 248.483 364.381C248.402 364.037 247.912 363.52 247.885 363.357C247.858 363.194 247.997 362.531 247.997 362.531C247.997 362.531 247.503 363.466 247.612 363.756C247.721 364.046 247.82 364.481 247.82 364.481C247.82 364.481 247.603 364.335 247.558 364.218C247.512 364.1 247.467 363.9 247.467 363.9C247.467 363.9 247.095 364.363 247.212 364.689C247.33 365.015 247.973 365.64 247.973 365.64C247.973 365.64 247.955 365.45 247.964 365.341C247.976 365.232 248.045 365.295 248.181 365.124Z" fill="#CF3425"/>
<g opacity="0.4">
<path d="M245.522 374.044C245.522 374.044 247.788 373.229 248.293 372.07C248.61 371.343 247.755 369.855 247.683 369.619C247.61 369.383 247.705 368.477 247.585 368.114C247.466 367.752 245.861 366.801 245.721 366.551C245.58 366.302 246.001 365.305 246.001 365.305C246.001 365.305 244.782 366.29 244.601 366.849C244.421 367.407 245.144 368.494 245.136 368.694C245.127 368.894 244.71 369.483 244.71 369.483C244.71 369.483 244.388 369.074 244.377 368.694C244.365 368.313 244.553 368.116 244.513 367.852C244.474 367.589 243.983 367.081 243.983 367.081C243.983 367.081 244.238 367.536 244.111 367.852C243.984 368.169 243.367 368.785 243.458 369.274C243.549 369.763 244.274 370.888 244.21 371.196C244.147 371.503 243.983 371.723 243.983 371.723C243.983 371.723 243.785 371.264 243.722 370.958C243.659 370.651 243.592 370.243 243.592 370.243C243.592 370.243 243.22 372.255 243.602 372.822C243.985 373.389 245.522 374.044 245.522 374.044Z" fill="white"/>
<path d="M246.125 360.023C246.144 359.987 246.387 359.439 246.397 359.14C246.406 358.841 245.863 358.442 245.618 358.216C245.373 357.989 244.847 357.255 244.893 356.874C244.938 356.494 244.994 356.203 244.994 356.203C244.994 356.203 244.24 358.36 244.285 359.04C244.33 359.719 244.73 360.154 244.73 360.154C244.73 360.154 244.874 359.499 245.191 359.52C245.617 359.548 246.125 360.023 246.125 360.023Z" fill="white"/>
<path d="M248.564 361.467C248.564 361.467 249.048 361.014 249.042 360.712C249.036 360.41 248.564 359.57 248.564 359.57C248.564 359.57 248.767 360.555 248.803 360.748C248.84 360.941 248.564 361.467 248.564 361.467Z" fill="white"/>
<path d="M242.968 373.33C242.968 373.33 241.984 372.717 241.805 372.557C241.627 372.396 241.354 371.53 241.372 371.358C241.391 371.186 241.708 370.418 241.708 370.206C241.708 369.995 241.065 369.242 241.065 369.242C241.065 369.242 241.273 369.955 241.237 370.129C241.2 370.302 240.362 371.299 240.414 371.671C240.467 372.043 241.264 372.715 241.494 372.865C241.723 373.016 242.968 373.33 242.968 373.33Z" fill="white"/>
<path d="M249.904 369.371C249.904 369.371 250.557 367.679 250.497 367.232C250.437 366.785 249.679 365.094 249.679 365.094C249.679 365.094 249.733 366.536 249.795 366.764C249.858 366.99 249.679 367.68 249.679 367.68C249.679 367.68 249.446 367.185 249.404 367.003C249.361 366.821 249.534 366.12 249.534 366.12C249.534 366.12 249.06 367.373 249.168 367.853C249.277 368.332 249.904 369.371 249.904 369.371Z" fill="white"/>
</g>
</svg>
