<svg width="46" height="46" viewBox="0 0 46 46" fill="none" xmlns="http://www.w3.org/2000/svg">
<rect x="0.666504" y="0.5" width="45" height="45" rx="22.5" fill="#E4EBF1"/>
<path d="M32.0092 23.9581C32.0253 24.3372 32.0237 24.7083 32.0052 25.0753C28.3331 25.2231 24.857 25.4424 24.857 25.6921C24.857 25.9419 28.2593 26.1556 31.8872 26.2993C31.8245 26.7186 31.7394 27.1282 31.6414 27.533C28.0657 27.6768 24.7446 27.892 24.7446 28.1362C24.7446 28.3804 27.8424 28.5795 31.2744 28.7289C31.1184 29.1605 30.9393 29.5833 30.7378 29.9955C27.791 30.1369 25.3566 30.3265 25.3566 30.5337C25.3566 30.7248 27.4842 30.9047 30.1644 31.0397C30.0166 31.2895 29.8575 31.5216 29.6945 31.7537C29.521 31.9995 29.3299 32.2476 29.1283 32.4878C27.4537 32.6147 26.3027 32.7601 26.3027 32.9151C26.3027 33.046 27.1268 33.1689 28.3974 33.2821C27.6546 34.0134 26.8217 34.6472 25.9188 35.168C25.174 34.5147 24.4809 33.8047 23.8458 33.0444C23.0073 32.026 21.2315 29.3377 20.813 28.737C20.3946 28.1362 20.1231 27.9603 19.6332 28.1338C19.1001 28.3211 18.5451 28.4386 17.9819 28.4832C17.7481 28.4832 17.6188 28.3924 18.0116 28.235C19.1555 27.7627 20.1068 26.9187 20.7118 25.8391C21.5664 24.1396 20.813 21.7943 20.813 21.7943C20.7054 22.4584 20.3745 23.0659 19.8749 23.5164C19.9888 23.0087 19.9948 22.4828 19.8925 21.9727C19.7903 21.4626 19.5821 20.9796 19.2814 20.5551L18.9601 22.0289C18.9601 22.0289 18.7585 22.0184 18.263 22.4305C17.9557 22.7035 17.7358 23.0611 17.6309 23.4585C18.0204 23.6192 18.4903 23.2248 18.4903 23.2248C18.0432 24.9967 17.3397 26.6938 16.402 28.2623C16.0116 28.9782 15.3881 29.539 14.635 29.8518C14.1041 30.0654 13.9314 29.8132 13.9314 29.8132C13.5048 29.4475 13.1119 29.0443 12.7572 28.6085C12.7572 28.6085 12.7291 28.5579 12.8279 28.5579C13.0841 28.5643 13.5459 28.1201 13.6447 27.937C13.762 27.7274 13.7499 27.57 13.6913 27.5579C13.6327 27.5459 13.5307 27.7185 13.0375 28.0294C12.5444 28.3402 12.3146 28.1217 12.15 27.9491C12.0231 27.8117 12.15 27.6382 12.2303 27.529C12.305 27.4366 14.9266 22.5493 21.862 17.4138C30.9467 10.6865 36.7504 8.8697 37.0829 8.73958C37.303 8.65445 37.662 8.53959 37.7431 8.62232C37.7849 8.65495 37.8179 8.69758 37.839 8.74628C37.86 8.79498 37.8685 8.84819 37.8636 8.90102C37.8539 9.00945 37.7953 9.06808 37.3736 9.25361C33.9537 10.8778 30.6546 12.7451 27.5018 14.8413C25.5386 15.8467 23.6474 16.987 21.8419 18.254C21.6218 18.3913 21.7849 18.5889 21.9142 18.5054C26.7204 15.3087 32.3554 13.1353 38.5776 11.3491C38.8739 11.264 39.037 11.264 39.0876 11.3314C39.1391 11.4042 39.1697 11.4898 39.176 11.5788C39.184 11.6945 39.0892 11.7523 38.833 11.8551C32.148 14.3374 27.2194 16.6449 24.0474 18.7776C24.0474 18.7776 23.7165 18.9752 23.7149 19.2049C23.7149 19.2925 23.8924 19.3021 23.8924 19.3021C25.4786 19.3302 27.5982 19.425 28.6062 19.4812C28.6062 19.4812 28.4657 19.9936 27.497 20.4049C26.818 20.6455 26.0953 20.7383 25.3774 20.6771C25.3394 20.6738 25.3012 20.6818 25.2678 20.7004C25.2344 20.7189 25.2074 20.747 25.1901 20.781C25.1728 20.8151 25.1661 20.8535 25.1709 20.8914C25.1756 20.9293 25.1917 20.9649 25.2168 20.9936C25.2771 21.0739 26.7308 23.4152 32.0173 23.9517" fill="#4D002E"/>
<path d="M31.806 22.1445C31.806 22.2858 29.8302 22.4143 27.0143 22.5276C26.6035 22.2983 26.2178 22.0267 25.8634 21.7172C29.2793 21.8377 31.806 21.9871 31.806 22.1445Z" fill="#62727D"/>
<path d="M29.7808 17.3887C28.4556 17.6248 27.1108 17.7324 25.7649 17.71C26.1015 17.5148 26.4541 17.3132 26.8171 17.1157C27.813 17.0938 28.8082 17.1859 29.7832 17.3903" fill="#62727D"/>
<path d="M12.1636 27.6198C11.0681 27.6311 10.1083 27.6375 9.35811 27.6375C8.27945 27.6375 7.404 27.3066 7.404 26.893C7.404 26.4793 8.27945 26.1484 9.35811 26.1484C10.3139 26.1484 11.607 26.1605 13.0929 26.1806C12.5202 27.0078 12.2439 27.5058 12.2199 27.5355C12.1958 27.5652 12.1837 27.5877 12.1636 27.6158" fill="#62727D"/>
<path d="M12.7499 28.6119C13.1046 29.0478 13.4975 29.451 13.9241 29.8167C13.9241 29.8167 14.0969 30.0689 14.6278 29.8552C15.2411 29.6104 15.7676 29.1885 16.1401 28.6432C17.6461 28.6649 19.242 28.7 20.813 28.737C20.9423 28.9249 21.2033 29.3171 21.5278 29.7974C17.1481 29.9098 12.3925 29.9781 9.95647 29.9781C8.94287 29.9781 8.11963 29.6617 8.11963 29.2801C8.11963 28.8986 8.94287 28.5766 9.95647 28.5766C10.6986 28.5766 11.6528 28.583 12.7459 28.5926C12.7449 28.5998 12.7449 28.6071 12.7459 28.6143" fill="#62727D"/>
<path d="M11.0571 32.2706C10.1559 32.2706 9.42744 31.9919 9.42744 31.6498C9.42744 31.3076 10.1559 31.0281 11.0571 31.0281C13.4385 31.0281 18.3226 31.1004 22.5047 31.2217C22.7063 31.5084 22.9063 31.7944 23.0982 32.0602C18.7924 32.1855 13.5541 32.2706 11.0571 32.2706Z" fill="#62727D"/>
<path d="M24.9456 34.2547C21.4325 34.4105 15.395 34.5133 12.8859 34.5133C12.1783 34.5133 11.6009 34.2909 11.6009 34.025C11.6009 33.7592 12.1751 33.5375 12.8859 33.5375C15.2858 33.5375 20.9177 33.6323 24.4797 33.7784C24.6404 33.9511 24.7962 34.1094 24.9456 34.2603" fill="#62727D"/>
<path d="M15.7826 35.575C17.8515 35.575 24.1613 35.73 24.1613 35.9204C24.1613 36.1107 17.8515 36.2657 15.7826 36.2657C15.381 36.2657 15.0509 36.1123 15.0509 35.9204C15.0509 35.7284 15.3778 35.575 15.7826 35.575Z" fill="#62727D"/>
<path d="M15.8076 22.82C13.1997 22.8626 10.8608 22.8907 9.35811 22.8907C8.27945 22.8907 7.404 22.5558 7.404 22.1445C7.404 21.7333 8.27945 21.4 9.35811 21.4C11.1042 21.4 13.9764 21.4345 17.0862 21.4916C16.626 21.947 16.1988 22.3951 15.8076 22.82Z" fill="#62727D"/>
<path d="M28.5966 19.492C29.4347 19.4711 30.272 19.5613 31.0865 19.7603C30.1146 19.9778 29.1199 20.0765 28.1243 20.0542C28.3344 19.9185 28.4995 19.7225 28.5966 19.492Z" fill="#62727D"/>
<path d="M9.95809 20.4625C8.94448 20.4625 8.12119 20.1484 8.12119 19.7605C8.12119 19.3726 8.94448 19.0609 9.95809 19.0609C12.0415 19.0609 15.8164 19.1107 19.6058 19.1959C19.1415 19.587 18.7006 19.9741 18.2845 20.3532C14.9594 20.4215 11.799 20.4625 9.95809 20.4625Z" fill="#62727D"/>
<path d="M21.2807 17.8523C17.407 17.9487 13.2088 18.0073 11.0571 18.0073C10.1559 18.0073 9.42744 17.731 9.42744 17.3888C9.42744 17.0467 10.1559 16.7672 11.0571 16.7672C13.4321 16.7672 18.3041 16.8419 22.4806 16.9608C22.2726 17.1102 22.0638 17.2611 21.8517 17.421C21.6581 17.5639 21.4662 17.7069 21.2807 17.8523Z" fill="#62727D"/>
<path d="M12.8875 15.4992C12.1799 15.4992 11.6024 15.2808 11.6024 15.0125C11.6024 14.7443 12.1767 14.525 12.8875 14.525C15.5492 14.525 22.1947 14.6415 25.568 14.8109C25.3544 14.9483 25.1407 15.0977 24.9214 15.2446C21.4059 15.3964 15.3902 15.4992 12.8875 15.4992Z" fill="#62727D"/>
<path d="M9.15679 25.2773C8.05805 25.2773 7.1665 24.9344 7.1665 24.5191C7.1665 24.1039 8.05805 23.7609 9.15679 23.7609C10.5318 23.7609 12.5935 23.7818 14.9243 23.818C14.485 24.3336 14.1051 24.8099 13.779 25.2372C11.9253 25.2621 10.3021 25.2773 9.15679 25.2773Z" fill="#62727D"/>
<path d="M15.0541 13.118C15.0541 12.9284 15.381 12.775 15.7858 12.775C17.8547 12.775 24.1645 12.9284 24.1645 13.118C24.1645 13.3075 17.8556 13.4665 15.7826 13.4665C15.381 13.4665 15.0509 13.3115 15.0509 13.1204" fill="#62727D"/>
</svg>
