<svg width="1600" height="91" viewBox="0 0 1600 91" fill="none" xmlns="http://www.w3.org/2000/svg">
<path d="M-261.145 72.5147C-261.617 62.9663 -254.26 54.843 -244.711 54.3709L822.536 1.59336C832.025 1.12412 840.097 8.43597 840.567 17.9248C841.046 27.6109 833.427 35.7781 823.731 35.9731L437.215 43.7474L-242.708 88.9316C-252.362 89.5731 -260.667 82.1777 -261.145 72.5147Z" fill="#06AED4"/>
<path d="M776.601 56.0832C776.413 46.5396 783.997 38.6506 793.541 38.4626L1694.69 20.7134C1704.16 20.5268 1711.99 28.0553 1712.18 37.5287C1712.37 47.2342 1704.48 55.1651 1694.77 55.021L1369.52 50.1934L794.567 73.0127C784.894 73.3966 776.792 65.7618 776.601 56.0832Z" fill="#E04F16"/>
</svg>
