<svg width="30" height="70" viewBox="0 0 30 70" fill="none" xmlns="http://www.w3.org/2000/svg">
<path d="M0 19.4444C0 17.9103 1.11929 16.6667 2.5 16.6667H10.5C11.8807 16.6667 13 17.9103 13 19.4444V67.2222C13 68.7564 11.8807 70 10.5 70H2.5C1.11929 70 0 68.7564 0 67.2222V19.4444Z" fill="#FFCA18"/>
<path d="M17 2.77778C17 1.24365 18.1193 0 19.5 0H27.5C28.8807 0 30 1.24365 30 2.77778V50.5556C30 52.0897 28.8807 53.3333 27.5 53.3333H19.5C18.1193 53.3333 17 52.0897 17 50.5556V2.77778Z" fill="#FFCA18"/>
</svg>
