<svg width="38" height="81" viewBox="0 0 38 81" fill="none" xmlns="http://www.w3.org/2000/svg">
<path d="M0 22.5C0 20.7248 1.41776 19.2857 3.16667 19.2857H13.3C15.0489 19.2857 16.4667 20.7248 16.4667 22.5V77.7857C16.4667 79.5609 15.0489 81 13.3 81H3.16667C1.41777 81 0 79.5609 0 77.7857V22.5Z" fill="#98AA30"/>
<path d="M21.5333 3.21428C21.5333 1.43908 22.9511 0 24.7 0H34.8333C36.5822 0 38 1.43908 38 3.21429V58.5C38 60.2752 36.5822 61.7143 34.8333 61.7143H24.7C22.9511 61.7143 21.5333 60.2752 21.5333 58.5V3.21428Z" fill="#98AA30"/>
</svg>
