<svg width="111" height="32" viewBox="0 0 111 32" fill="none" xmlns="http://www.w3.org/2000/svg">
<rect width="110.049" height="32" rx="8" fill="white"/>
<path d="M26.6373 15.8823C26.6153 13.4763 28.6447 12.3058 28.7375 12.2513C27.5882 10.6067 25.8067 10.382 25.1806 10.3641C23.6844 10.2096 22.233 11.2428 21.4708 11.2428C20.6934 11.2428 19.5197 10.379 18.2547 10.4044C16.6268 10.4291 15.104 11.354 14.2688 12.7903C12.5451 15.7188 13.8306 20.0225 15.482 22.3897C16.3081 23.549 17.2734 24.8435 18.5369 24.7979C19.773 24.7479 20.2347 24.0245 21.7264 24.0245C23.2044 24.0245 23.638 24.7979 24.9266 24.7688C26.2532 24.7479 27.0884 23.6043 27.8856 22.4345C28.8402 21.1057 29.2236 19.797 29.2388 19.7299C29.2076 19.7194 26.6624 18.7661 26.6373 15.8823Z" fill="#212E47"/>
<path d="M24.2032 8.80689C24.868 7.99095 25.3229 6.88088 25.1966 5.75439C24.2343 5.7962 23.031 6.40759 22.338 7.20562C21.7249 7.90883 21.1772 9.06145 21.3187 10.1454C22.3996 10.2245 23.5094 9.61013 24.2032 8.80689Z" fill="#212E47"/>
<path d="M44.4837 24.6314H42.7562L41.8099 21.7133H38.5207L37.6193 24.6314H35.9375L39.1962 14.6968H41.209L44.4837 24.6314ZM41.5247 20.489L40.6689 17.8949C40.5784 17.6299 40.4087 17.0058 40.1585 16.0234H40.1281C40.0284 16.4459 39.8679 17.07 39.6473 17.8949L38.8068 20.489H41.5247Z" fill="#111827"/>
<path d="M52.864 20.9616C52.864 22.1799 52.5286 23.1429 51.8576 23.8498C51.2567 24.4792 50.5105 24.7934 49.6197 24.7934C48.6583 24.7934 47.9676 24.4545 47.5469 23.7767H47.5165V27.5503H45.8947V19.8261C45.8947 19.0602 45.8742 18.2741 45.8346 17.4679H47.2609L47.3514 18.6033H47.3818C47.9227 17.7478 48.7434 17.3208 49.8449 17.3208C50.706 17.3208 51.4248 17.6545 51.9999 18.3227C52.5765 18.9915 52.864 19.8709 52.864 20.9616ZM51.2118 21.0198C51.2118 20.3226 51.0521 19.7478 50.7311 19.2954C50.3804 18.8236 49.9096 18.5877 49.3193 18.5877C48.9192 18.5877 48.5556 18.7191 48.2308 18.9781C47.9052 19.2394 47.6922 19.5805 47.5925 20.0031C47.5423 20.2001 47.5172 20.3614 47.5172 20.4883V21.6827C47.5172 22.2038 47.68 22.6435 48.0056 23.0025C48.3312 23.3616 48.7541 23.5408 49.2744 23.5408C49.8852 23.5408 50.3606 23.3094 50.7007 22.848C51.0414 22.3859 51.2118 21.7768 51.2118 21.0198Z" fill="#111827"/>
<path d="M61.2596 20.9616C61.2596 22.1799 60.9241 23.1429 60.2525 23.8498C59.6523 24.4792 58.9061 24.7934 58.0153 24.7934C57.0538 24.7934 56.3631 24.4545 55.9432 23.7767H55.9128V27.5503H54.2911V19.8261C54.2911 19.0602 54.2705 18.2741 54.231 17.4679H55.6572L55.7477 18.6033H55.7782C56.3183 17.7478 57.139 17.3208 58.2412 17.3208C59.1016 17.3208 59.8204 17.6545 60.397 18.3227C60.9713 18.9915 61.2596 19.8709 61.2596 20.9616ZM59.6074 21.0198C59.6074 20.3226 59.4469 19.7478 59.1259 19.2954C58.7752 18.8236 58.3059 18.5877 57.7149 18.5877C57.314 18.5877 56.9511 18.7191 56.6256 18.9781C56.3 19.2394 56.0878 19.5805 55.9881 20.0031C55.9387 20.2001 55.9128 20.3614 55.9128 20.4883V21.6827C55.9128 22.2038 56.0756 22.6435 56.3996 23.0025C56.7252 23.3609 57.1482 23.5408 57.67 23.5408C58.2808 23.5408 58.7562 23.3094 59.0962 22.848C59.437 22.3859 59.6074 21.7768 59.6074 21.0198Z" fill="#111827"/>
<path d="M70.6463 21.8454C70.6463 22.6905 70.3474 23.378 69.7472 23.9088C69.0877 24.4889 68.1696 24.7785 66.9898 24.7785C65.9005 24.7785 65.0272 24.5725 64.3662 24.1596L64.742 22.8331C65.454 23.2556 66.2352 23.4676 67.0864 23.4676C67.6972 23.4676 68.1726 23.3318 68.5141 23.0615C68.8542 22.7913 69.0238 22.4285 69.0238 21.9761C69.0238 21.573 68.8838 21.2333 68.6031 20.9578C68.324 20.6824 67.8577 20.4263 67.2065 20.1897C65.4342 19.541 64.5487 18.5907 64.5487 17.341C64.5487 16.5243 64.8591 15.8547 65.4806 15.3336C66.0998 14.8118 66.9259 14.5513 67.9588 14.5513C68.88 14.5513 69.6453 14.7088 70.2561 15.0231L69.8506 16.3205C69.2801 16.0159 68.6351 15.8636 67.9132 15.8636C67.3427 15.8636 66.897 16.0017 66.5775 16.2765C66.3074 16.5221 66.172 16.8214 66.172 17.176C66.172 17.5687 66.3264 17.8934 66.6368 18.1487C66.9068 18.3846 67.3975 18.6399 68.1095 18.9154C68.9804 19.2595 69.6202 19.6619 70.0317 20.1232C70.4417 20.5831 70.6463 21.1587 70.6463 21.8454Z" fill="#111827"/>
<path d="M76.0083 18.6623H74.2207V22.1403C74.2207 23.0249 74.5356 23.4669 75.167 23.4669C75.4568 23.4669 75.6972 23.4422 75.8874 23.393L75.9322 24.6016C75.6128 24.7188 75.1921 24.7777 74.671 24.7777C74.0306 24.7777 73.53 24.5859 73.1687 24.2029C72.8089 23.8192 72.6279 23.1757 72.6279 22.2717V18.6608H71.5629V17.4664H72.6279V16.1548L74.2207 15.683V17.4664H76.0083V18.6623Z" fill="#111827"/>
<path d="M84.0737 20.9907C84.0737 22.0918 83.7527 22.9958 83.1122 23.7028C82.4406 24.4306 81.549 24.7934 80.4377 24.7934C79.3667 24.7934 78.514 24.4448 77.878 23.7476C77.2421 23.0503 76.9241 22.1702 76.9241 21.1094C76.9241 19.9993 77.2512 19.0901 77.9077 18.3831C78.5626 17.6754 79.4465 17.3216 80.5579 17.3216C81.6289 17.3216 82.4908 17.6702 83.1411 18.3682C83.7634 19.0453 84.0737 19.9194 84.0737 20.9907ZM82.3911 21.0422C82.3911 20.3815 82.2473 19.8149 81.956 19.3424C81.616 18.7706 81.1299 18.4854 80.5001 18.4854C79.8482 18.4854 79.353 18.7713 79.013 19.3424C78.7216 19.8157 78.5779 20.3912 78.5779 21.0721C78.5779 21.7327 78.7216 22.2993 79.013 22.7711C79.3636 23.3429 79.8535 23.6281 80.4856 23.6281C81.1048 23.6281 81.5909 23.337 81.9416 22.7562C82.2405 22.2747 82.3911 21.7021 82.3911 21.0422Z" fill="#111827"/>
<path d="M89.3452 18.8676C89.1847 18.8385 89.0136 18.8236 88.834 18.8236C88.2635 18.8236 87.8223 19.0348 87.512 19.4581C87.2419 19.8314 87.1065 20.3032 87.1065 20.8727V24.6314H85.4855L85.5008 19.7239C85.5008 18.8982 85.4802 18.1465 85.4399 17.4686H86.8525L86.9118 18.8392H86.9567C87.1278 18.3682 87.3979 17.989 87.7676 17.7045C88.1289 17.4485 88.5191 17.3208 88.9398 17.3208C89.0896 17.3208 89.225 17.3313 89.3452 17.35V18.8676Z" fill="#111827"/>
<path d="M96.5982 20.7107C96.5982 20.9959 96.5792 21.2363 96.5389 21.4326H91.6736C91.6926 22.1403 91.9277 22.6815 92.3795 23.0548C92.7895 23.3885 93.3197 23.5557 93.9709 23.5557C94.6912 23.5557 95.3484 23.443 95.9395 23.2168L96.1936 24.3216C95.5029 24.6172 94.6874 24.7643 93.7465 24.7643C92.6146 24.7643 91.7261 24.4373 91.0796 23.7841C90.4345 23.1309 90.1112 22.2538 90.1112 21.1534C90.1112 20.0732 90.4117 19.1737 91.0134 18.4563C91.6432 17.6904 92.4944 17.3074 93.5654 17.3074C94.6174 17.3074 95.4139 17.6904 95.9547 18.4563C96.383 19.0647 96.5982 19.8172 96.5982 20.7107ZM95.0518 20.2979C95.0624 19.8261 94.9567 19.4185 94.7369 19.0744C94.4562 18.6317 94.0249 18.4107 93.4445 18.4107C92.9143 18.4107 92.483 18.6265 92.1536 19.0595C91.8836 19.4036 91.7231 19.8164 91.6736 20.2972H95.0518V20.2979Z" fill="#111827"/>
<path d="M40.9883 8.58528C40.9883 9.46393 40.7197 10.1253 40.1835 10.5695C39.6867 10.9793 38.9808 11.1846 38.0665 11.1846C37.6131 11.1846 37.2252 11.1652 36.9004 11.1264V6.32559C37.3241 6.2584 37.7805 6.22406 38.2734 6.22406C39.1444 6.22406 39.8008 6.40994 40.2436 6.78171C40.7395 7.20199 40.9883 7.80294 40.9883 8.58528ZM40.1477 8.60693C40.1477 8.03734 39.9941 7.60063 39.6867 7.29605C39.3794 6.99222 38.9306 6.83993 38.3396 6.83993C38.0886 6.83993 37.8748 6.85636 37.6976 6.8907V10.5404C37.7957 10.5553 37.9752 10.562 38.2361 10.562C38.8462 10.562 39.3171 10.3956 39.6487 10.0626C39.9804 9.72969 40.1477 9.24445 40.1477 8.60693Z" fill="#111827"/>
<path d="M45.4451 9.35269C45.4451 9.89392 45.2876 10.3373 44.9727 10.6852C44.6425 11.0428 44.2052 11.2212 43.659 11.2212C43.1326 11.2212 42.7135 11.0503 42.4008 10.7069C42.089 10.3642 41.933 9.93199 41.933 9.41092C41.933 8.86597 42.0935 8.41881 42.416 8.07168C42.7386 7.72455 43.1722 7.55061 43.7183 7.55061C44.2447 7.55061 44.6676 7.72156 44.9879 8.06421C45.2922 8.39716 45.4451 8.82715 45.4451 9.35269ZM44.6182 9.37808C44.6182 9.05334 44.5467 8.77489 44.4044 8.54273C44.2371 8.26204 43.999 8.1217 43.6894 8.1217C43.3692 8.1217 43.1258 8.26204 42.9584 8.54273C42.8154 8.77489 42.7447 9.05782 42.7447 9.39226C42.7447 9.71699 42.8162 9.99544 42.9584 10.2276C43.1311 10.5083 43.3714 10.6486 43.6818 10.6486C43.9861 10.6486 44.2249 10.5061 44.3968 10.2201C44.5444 9.9835 44.6182 9.70281 44.6182 9.37808Z" fill="#111827"/>
<path d="M51.4209 7.62228L50.2989 11.1413H49.5687L49.1039 9.61323C48.986 9.23176 48.8901 8.85253 48.8156 8.47629H48.8011C48.7319 8.86298 48.6361 9.24146 48.5128 9.61323L48.0192 11.1413H47.2806L46.2255 7.62228H47.0447L47.4502 9.29521C47.5483 9.69086 47.6289 10.0679 47.6936 10.4247H47.7081C47.7674 10.1306 47.8655 9.75581 48.004 9.30268L48.5128 7.62302H49.1625L49.6501 9.26685C49.768 9.66772 49.8638 10.0537 49.9376 10.4254H49.9596C50.0137 10.0634 50.095 9.67743 50.2031 9.26685L50.6382 7.62302H51.4209V7.62228Z" fill="#111827"/>
<path d="M55.5536 11.1413H54.7565V9.12576C54.7565 8.50466 54.5161 8.19411 54.0338 8.19411C53.7972 8.19411 53.6063 8.27921 53.458 8.45017C53.3112 8.62112 53.2366 8.82268 53.2366 9.05335V11.1406H52.4394V8.62784C52.4394 8.31878 52.4296 7.9836 52.4105 7.62079H53.1111L53.1484 8.17097H53.1705C53.2633 8.00002 53.4017 7.85893 53.5835 7.7462C53.7995 7.61482 54.0414 7.54838 54.3061 7.54838C54.6408 7.54838 54.9192 7.65438 55.1406 7.86714C55.416 8.12767 55.5536 8.51661 55.5536 9.03319V11.1413Z" fill="#111827"/>
<path d="M57.752 11.1413H56.9556V6.00757H57.752V11.1413Z" fill="#111827"/>
<path d="M62.4454 9.35269C62.4454 9.89392 62.2879 10.3373 61.973 10.6852C61.6429 11.0428 61.2047 11.2212 60.6593 11.2212C60.1322 11.2212 59.713 11.0503 59.4011 10.7069C59.0893 10.3642 58.9333 9.93199 58.9333 9.41092C58.9333 8.86597 59.0938 8.41881 59.4164 8.07168C59.7389 7.72455 60.1725 7.55061 60.7179 7.55061C61.245 7.55061 61.6672 7.72156 61.9882 8.06421C62.2925 8.39716 62.4454 8.82715 62.4454 9.35269ZM61.6178 9.37808C61.6178 9.05334 61.5462 8.77489 61.404 8.54273C61.2374 8.26204 60.9986 8.1217 60.6897 8.1217C60.3687 8.1217 60.1253 8.26204 59.9587 8.54273C59.8157 8.77489 59.745 9.05782 59.745 9.39226C59.745 9.71699 59.8165 9.99544 59.9587 10.2276C60.1314 10.5083 60.3718 10.6486 60.6821 10.6486C60.9864 10.6486 61.2245 10.5061 61.3964 10.2201C61.5447 9.9835 61.6178 9.70281 61.6178 9.37808Z" fill="#111827"/>
<path d="M66.3035 11.1413H65.5877L65.5284 10.736H65.5063C65.2614 11.0592 64.9122 11.2212 64.4589 11.2212C64.1204 11.2212 63.8465 11.1145 63.6404 10.9025C63.4533 10.7099 63.3597 10.4702 63.3597 10.1858C63.3597 9.75581 63.5423 9.42809 63.9097 9.20115C64.2763 8.97421 64.792 8.86298 65.4561 8.86821V8.80252C65.4561 8.33893 65.2081 8.10751 64.7114 8.10751C64.3577 8.10751 64.0458 8.19485 63.7765 8.36804L63.6145 7.85444C63.9477 7.65214 64.3592 7.55061 64.8445 7.55061C65.7817 7.55061 66.2518 8.03585 66.2518 9.00631V10.3023C66.2518 10.6539 66.2693 10.9338 66.3035 11.1413ZM65.4759 9.93199V9.38927C64.5965 9.37434 64.1569 9.61099 64.1569 10.0985C64.1569 10.2821 64.2071 10.4195 64.3098 10.5113C64.4125 10.6031 64.5433 10.6486 64.6992 10.6486C64.8742 10.6486 65.0377 10.5941 65.1868 10.4859C65.3367 10.3769 65.4287 10.2388 65.463 10.0693C65.4713 10.0313 65.4759 9.98499 65.4759 9.93199Z" fill="#111827"/>
<path d="M70.8333 11.1413H70.1259L70.0886 10.5762H70.0666C69.8406 11.0062 69.4557 11.2212 68.9149 11.2212C68.4828 11.2212 68.123 11.0547 67.8378 10.7218C67.5525 10.3889 67.4103 9.95662 67.4103 9.42585C67.4103 8.85626 67.5647 8.39492 67.8751 8.04256C68.1755 7.7141 68.5437 7.54986 68.9818 7.54986C69.4633 7.54986 69.8003 7.70887 69.992 8.02763H70.0072V6.00757H70.8052V10.1933C70.8052 10.5359 70.8143 10.8517 70.8333 11.1413ZM70.0072 9.65727V9.07051C70.0072 8.96899 69.9996 8.88687 69.9852 8.82416C69.9403 8.63604 69.8437 8.47778 69.6969 8.35013C69.5485 8.22247 69.3698 8.15827 69.1636 8.15827C68.8662 8.15827 68.6334 8.27398 68.4623 8.50615C68.2927 8.73831 68.2067 9.03468 68.2067 9.39674C68.2067 9.74461 68.2881 10.0268 68.4516 10.244C68.6243 10.4754 68.8571 10.5912 69.1484 10.5912C69.4101 10.5912 69.6193 10.4949 69.7783 10.3015C69.9319 10.1231 70.0072 9.9081 70.0072 9.65727Z" fill="#111827"/>
<path d="M77.6512 9.35269C77.6512 9.89392 77.4938 10.3373 77.1789 10.6852C76.8487 11.0428 76.4121 11.2212 75.8652 11.2212C75.3396 11.2212 74.9204 11.0503 74.607 10.7069C74.2952 10.3642 74.1392 9.93199 74.1392 9.41092C74.1392 8.86597 74.2997 8.41881 74.6222 8.07168C74.9448 7.72455 75.3783 7.55061 75.9253 7.55061C76.4509 7.55061 76.8746 7.72156 77.1941 8.06421C77.4984 8.39716 77.6512 8.82715 77.6512 9.35269ZM76.8252 9.37808C76.8252 9.05334 76.7536 8.77489 76.6114 8.54273C76.4433 8.26204 76.206 8.1217 75.8956 8.1217C75.5761 8.1217 75.3327 8.26204 75.1646 8.54273C75.0216 8.77489 74.9509 9.05782 74.9509 9.39226C74.9509 9.71699 75.0224 9.99544 75.1646 10.2276C75.3373 10.5083 75.5777 10.6486 75.888 10.6486C76.1923 10.6486 76.4319 10.5061 76.6038 10.2201C76.7506 9.9835 76.8252 9.70281 76.8252 9.37808Z" fill="#111827"/>
<path d="M81.9376 11.1413H81.1412V9.12576C81.1412 8.50466 80.9008 8.19411 80.4178 8.19411C80.1813 8.19411 79.9903 8.27921 79.8427 8.45017C79.6952 8.62112 79.6214 8.82268 79.6214 9.05335V11.1406H78.8234V8.62784C78.8234 8.31878 78.8143 7.9836 78.7953 7.62079H79.4951L79.5324 8.17097H79.5545C79.648 8.00002 79.7865 7.85893 79.9675 7.7462C80.1843 7.61482 80.4254 7.54838 80.6909 7.54838C81.0248 7.54838 81.3032 7.65438 81.5246 7.86714C81.8007 8.12767 81.9376 8.51661 81.9376 9.03319V11.1413Z" fill="#111827"/>
<path d="M87.3027 8.20829H86.4249V9.91781C86.4249 10.3523 86.5808 10.5695 86.8896 10.5695C87.0326 10.5695 87.1513 10.5576 87.2449 10.5329L87.2654 11.1264C87.108 11.1846 86.901 11.2138 86.6462 11.2138C86.3313 11.2138 86.0864 11.1197 85.9091 10.9316C85.7311 10.7435 85.6429 10.4269 85.6429 9.98276V8.20829H85.1188V7.62228H85.6429V6.97729L86.4241 6.74588V7.62154H87.3019V8.20829H87.3027Z" fill="#111827"/>
<path d="M91.5229 11.1413H90.725V9.14068C90.725 8.50988 90.4846 8.1941 90.0031 8.1941C89.6334 8.1941 89.3808 8.377 89.2424 8.74279C89.2188 8.81968 89.2051 8.91374 89.2051 9.02423V11.1406H88.4087V6.00757H89.2051V8.12841H89.2203C89.4714 7.74246 89.8312 7.54986 90.2975 7.54986C90.6276 7.54986 90.9007 7.65587 91.1175 7.86862C91.3875 8.13364 91.5229 8.5278 91.5229 9.04886V11.1413Z" fill="#111827"/>
<path d="M95.8762 9.21533C95.8762 9.35568 95.8656 9.47363 95.8466 9.56993H93.4558C93.4664 9.9178 93.5805 10.1828 93.8019 10.3665C94.0042 10.5307 94.2651 10.6128 94.5846 10.6128C94.9383 10.6128 95.2608 10.5576 95.5514 10.4463L95.6762 10.9898C95.3361 11.1346 94.936 11.207 94.4728 11.207C93.9175 11.207 93.4801 11.0465 93.1637 10.7255C92.8457 10.4045 92.6882 9.97379 92.6882 9.43331C92.6882 8.90254 92.8351 8.46061 93.131 8.10825C93.4398 7.73201 93.8574 7.54389 94.3845 7.54389C94.9003 7.54389 95.292 7.73201 95.5567 8.10825C95.7705 8.40686 95.8762 8.77638 95.8762 9.21533ZM95.1156 9.01303C95.1216 8.78086 95.0691 8.5808 94.9611 8.41208C94.8227 8.19485 94.612 8.08586 94.3267 8.08586C94.0666 8.08586 93.8544 8.19186 93.6923 8.40462C93.56 8.57408 93.4816 8.77638 93.4558 9.01303H95.1156Z" fill="#111827"/>
</svg>
