<svg width="111" height="33" viewBox="0 0 111 33" fill="none" xmlns="http://www.w3.org/2000/svg">
<rect x="0.5" y="0.5" width="110.049" height="32" rx="8" fill="#111827"/>
<path d="M27.1378 16.3823C27.1157 13.9763 29.1452 12.8058 29.238 12.7513C28.0886 11.1067 26.3071 10.882 25.6811 10.8641C24.1849 10.7096 22.7335 11.7428 21.9713 11.7428C21.1939 11.7428 20.0202 10.879 18.7552 10.9044C17.1273 10.9291 15.6045 11.854 14.7692 13.2903C13.0456 16.2188 14.3311 20.5225 15.9825 22.8897C16.8086 24.049 17.7739 25.3435 19.0374 25.2979C20.2735 25.2479 20.7352 24.5245 22.2269 24.5245C23.7049 24.5245 24.1385 25.2979 25.427 25.2688C26.7537 25.2479 27.5889 24.1043 28.3861 22.9345C29.3407 21.6057 29.7241 20.297 29.7393 20.2299C29.7081 20.2194 27.1629 19.2661 27.1378 16.3823Z" fill="white"/>
<path d="M24.7036 9.30689C25.3685 8.49095 25.8234 7.38088 25.6971 6.25439C24.7348 6.2962 23.5314 6.90759 22.8385 7.70562C22.2254 8.40883 21.6777 9.56145 21.8192 10.6454C22.9001 10.7245 24.0099 10.1101 24.7036 9.30689Z" fill="white"/>
<path d="M44.9842 25.1314H43.2567L42.3104 22.2133H39.0212L38.1198 25.1314H36.438L39.6967 15.1968H41.7095L44.9842 25.1314ZM42.0251 20.989L41.1694 18.3949C41.0789 18.1299 40.9092 17.5058 40.659 16.5234H40.6285C40.5289 16.9459 40.3684 17.57 40.1478 18.3949L39.3073 20.989H42.0251Z" fill="white"/>
<path d="M53.3645 21.4616C53.3645 22.6799 53.0291 23.6429 52.3581 24.3498C51.7572 24.9792 51.011 25.2934 50.1202 25.2934C49.1587 25.2934 48.468 24.9545 48.0474 24.2767H48.017V28.0503H46.3952V20.3261C46.3952 19.5602 46.3747 18.7741 46.3351 17.9679H47.7614L47.8519 19.1033H47.8823C48.4232 18.2478 49.2439 17.8208 50.3454 17.8208C51.2065 17.8208 51.9253 18.1545 52.5004 18.8227C53.077 19.4915 53.3645 20.3709 53.3645 21.4616ZM51.7123 21.5198C51.7123 20.8226 51.5526 20.2478 51.2316 19.7954C50.8809 19.3236 50.41 19.0877 49.8198 19.0877C49.4197 19.0877 49.056 19.2191 48.7312 19.4781C48.4057 19.7394 48.1927 20.0805 48.093 20.5031C48.0428 20.7001 48.0177 20.8614 48.0177 20.9883V22.1827C48.0177 22.7038 48.1805 23.1435 48.5061 23.5025C48.8317 23.8616 49.2546 24.0408 49.7749 24.0408C50.3857 24.0408 50.8611 23.8094 51.2012 23.348C51.5419 22.8859 51.7123 22.2768 51.7123 21.5198Z" fill="white"/>
<path d="M61.7601 21.4616C61.7601 22.6799 61.4246 23.6429 60.7529 24.3498C60.1528 24.9792 59.4066 25.2934 58.5158 25.2934C57.5543 25.2934 56.8636 24.9545 56.4437 24.2767H56.4133V28.0503H54.7915V20.3261C54.7915 19.5602 54.771 18.7741 54.7314 17.9679H56.1577L56.2482 19.1033H56.2787C56.8187 18.2478 57.6395 17.8208 58.7417 17.8208C59.6021 17.8208 60.3209 18.1545 60.8975 18.8227C61.4718 19.4915 61.7601 20.3709 61.7601 21.4616ZM60.1079 21.5198C60.1079 20.8226 59.9474 20.2478 59.6264 19.7954C59.2757 19.3236 58.8064 19.0877 58.2153 19.0877C57.8145 19.0877 57.4516 19.2191 57.1261 19.4781C56.8005 19.7394 56.5883 20.0805 56.4886 20.5031C56.4392 20.7001 56.4133 20.8614 56.4133 20.9883V22.1827C56.4133 22.7038 56.5761 23.1435 56.9001 23.5025C57.2257 23.8609 57.6486 24.0408 58.1705 24.0408C58.7813 24.0408 59.2567 23.8094 59.5967 23.348C59.9375 22.8859 60.1079 22.2768 60.1079 21.5198Z" fill="white"/>
<path d="M71.1468 22.3454C71.1468 23.1905 70.8479 23.878 70.2477 24.4088C69.5882 24.9889 68.67 25.2785 67.4902 25.2785C66.401 25.2785 65.5277 25.0725 64.8667 24.6596L65.2424 23.3331C65.9544 23.7556 66.7357 23.9676 67.5868 23.9676C68.1977 23.9676 68.6731 23.8318 69.0146 23.5615C69.3547 23.2913 69.5243 22.9285 69.5243 22.4761C69.5243 22.073 69.3843 21.7333 69.1036 21.4578C68.8245 21.1824 68.3582 20.9263 67.707 20.6897C65.9347 20.041 65.0492 19.0907 65.0492 17.841C65.0492 17.0243 65.3596 16.3547 65.9811 15.8336C66.6003 15.3118 67.4263 15.0513 68.4593 15.0513C69.3805 15.0513 70.1458 15.2088 70.7566 15.5231L70.3511 16.8205C69.7806 16.5159 69.1356 16.3636 68.4137 16.3636C67.8432 16.3636 67.3974 16.5017 67.078 16.7765C66.8079 17.0221 66.6725 17.3214 66.6725 17.676C66.6725 18.0687 66.8269 18.3934 67.1373 18.6487C67.4073 18.8846 67.898 19.1399 68.61 19.4154C69.4809 19.7595 70.1207 20.1619 70.5322 20.6232C70.9422 21.0831 71.1468 21.6587 71.1468 22.3454Z" fill="white"/>
<path d="M76.5088 19.1623H74.7212V22.6403C74.7212 23.5249 75.0361 23.9669 75.6675 23.9669C75.9573 23.9669 76.1977 23.9422 76.3878 23.893L76.4327 25.1016C76.1132 25.2188 75.6926 25.2777 75.1715 25.2777C74.531 25.2777 74.0305 25.0859 73.6692 24.7029C73.3094 24.3192 73.1284 23.6757 73.1284 22.7717V19.1608H72.0634V17.9664H73.1284V16.6548L74.7212 16.183V17.9664H76.5088V19.1623Z" fill="white"/>
<path d="M84.5742 21.4907C84.5742 22.5918 84.2532 23.4958 83.6127 24.2028C82.941 24.9306 82.0495 25.2934 80.9382 25.2934C79.8672 25.2934 79.0144 24.9448 78.3785 24.2476C77.7426 23.5503 77.4246 22.6702 77.4246 21.6094C77.4246 20.4993 77.7517 19.5901 78.4082 18.8831C79.0631 18.1754 79.947 17.8216 81.0584 17.8216C82.1294 17.8216 82.9912 18.1702 83.6416 18.8682C84.2639 19.5453 84.5742 20.4194 84.5742 21.4907ZM82.8916 21.5422C82.8916 20.8815 82.7478 20.3149 82.4565 19.8424C82.1165 19.2706 81.6304 18.9854 81.0006 18.9854C80.3487 18.9854 79.8535 19.2713 79.5134 19.8424C79.2221 20.3157 79.0783 20.8912 79.0783 21.5721C79.0783 22.2327 79.2221 22.7993 79.5134 23.2711C79.8641 23.8429 80.354 24.1281 80.9861 24.1281C81.6053 24.1281 82.0914 23.837 82.442 23.2562C82.741 22.7747 82.8916 22.2021 82.8916 21.5422Z" fill="white"/>
<path d="M89.8457 19.3676C89.6852 19.3385 89.514 19.3236 89.3345 19.3236C88.764 19.3236 88.3228 19.5348 88.0125 19.9581C87.7424 20.3314 87.607 20.8032 87.607 21.3727V25.1314H85.986L86.0012 20.2239C86.0012 19.3982 85.9807 18.6465 85.9404 17.9686H87.353L87.4123 19.3392H87.4572C87.6283 18.8682 87.8984 18.489 88.2681 18.2045C88.6294 17.9485 89.0196 17.8208 89.4403 17.8208C89.5901 17.8208 89.7255 17.8313 89.8457 17.85V19.3676Z" fill="white"/>
<path d="M97.0987 21.2107C97.0987 21.4959 97.0797 21.7363 97.0394 21.9326H92.1741C92.1931 22.6403 92.4282 23.1815 92.88 23.5548C93.29 23.8885 93.8202 24.0557 94.4714 24.0557C95.1917 24.0557 95.8489 23.943 96.44 23.7168L96.694 24.8216C96.0034 25.1172 95.1879 25.2643 94.247 25.2643C93.1151 25.2643 92.2266 24.9373 91.58 24.2841C90.935 23.6309 90.6117 22.7538 90.6117 21.6534C90.6117 20.5732 90.9122 19.6737 91.5139 18.9563C92.1437 18.1904 92.9949 17.8074 94.0659 17.8074C95.1179 17.8074 95.9144 18.1904 96.4552 18.9563C96.8834 19.5647 97.0987 20.3172 97.0987 21.2107ZM95.5523 20.7979C95.5629 20.3261 95.4572 19.9185 95.2374 19.5744C94.9567 19.1317 94.5254 18.9107 93.945 18.9107C93.4148 18.9107 92.9835 19.1265 92.6541 19.5595C92.3841 19.9036 92.2236 20.3164 92.1741 20.7972H95.5523V20.7979Z" fill="white"/>
<path d="M41.4887 9.08553C41.4887 9.96417 41.2202 10.6256 40.684 11.0698C40.1872 11.4796 39.4813 11.6849 38.567 11.6849C38.1136 11.6849 37.7257 11.6655 37.4009 11.6267V6.82583C37.8246 6.75864 38.281 6.72431 38.7739 6.72431C39.6449 6.72431 40.3013 6.91019 40.744 7.28195C41.24 7.70224 41.4887 8.30318 41.4887 9.08553ZM40.6482 9.10717C40.6482 8.53759 40.4945 8.10087 40.1872 7.7963C39.8799 7.49247 39.4311 7.34018 38.8401 7.34018C38.5891 7.34018 38.3753 7.3566 38.1981 7.39094V11.0406C38.2962 11.0556 38.4757 11.0623 38.7366 11.0623C39.3467 11.0623 39.8175 10.8958 40.1492 10.5629C40.4809 10.2299 40.6482 9.7447 40.6482 9.10717Z" fill="white"/>
<path d="M45.9455 9.85294C45.9455 10.3942 45.7881 10.8376 45.4732 11.1855C45.143 11.543 44.7056 11.7215 44.1595 11.7215C43.6331 11.7215 43.214 11.5505 42.9013 11.2071C42.5894 10.8645 42.4335 10.4322 42.4335 9.91117C42.4335 9.36621 42.594 8.91905 42.9165 8.57192C43.2391 8.22479 43.6726 8.05086 44.2188 8.05086C44.7452 8.05086 45.1681 8.22181 45.4884 8.56446C45.7926 8.8974 45.9455 9.32739 45.9455 9.85294ZM45.1187 9.87832C45.1187 9.55359 45.0472 9.27514 44.9049 9.04297C44.7376 8.76228 44.4995 8.62194 44.1899 8.62194C43.8697 8.62194 43.6262 8.76228 43.4589 9.04297C43.3159 9.27514 43.2451 9.55807 43.2451 9.8925C43.2451 10.2172 43.3166 10.4957 43.4589 10.7279C43.6316 11.0085 43.8719 11.1489 44.1823 11.1489C44.4866 11.1489 44.7254 11.0063 44.8973 10.7204C45.0449 10.4837 45.1187 10.2031 45.1187 9.87832Z" fill="white"/>
<path d="M51.9214 8.12252L50.7994 11.6416H50.0692L49.6044 10.1135C49.4865 9.732 49.3906 9.35277 49.3161 8.97653H49.3016C49.2324 9.36323 49.1366 9.74171 49.0133 10.1135L48.5197 11.6416H47.781L46.726 8.12252H47.5452L47.9507 9.79546C48.0488 10.1911 48.1294 10.5681 48.1941 10.9249H48.2085C48.2679 10.6308 48.366 10.2561 48.5044 9.80292L49.0133 8.12327H49.663L50.1505 9.76709C50.2684 10.168 50.3643 10.5539 50.4381 10.9257H50.4601C50.5141 10.5636 50.5955 10.1777 50.7036 9.76709L51.1387 8.12327H51.9214V8.12252Z" fill="white"/>
<path d="M56.0541 11.6416H55.2569V9.626C55.2569 9.00491 55.0166 8.69436 54.5343 8.69436C54.2977 8.69436 54.1068 8.77946 53.9585 8.95041C53.8117 9.12136 53.7371 9.32292 53.7371 9.55359V11.6408H52.9399V9.12808C52.9399 8.81902 52.9301 8.48384 52.911 8.12103H53.6116L53.6489 8.67121H53.6709C53.7638 8.50026 53.9022 8.35917 54.084 8.24645C54.3 8.11506 54.5419 8.04862 54.8066 8.04862C55.1413 8.04862 55.4197 8.15463 55.6411 8.36738C55.9165 8.62792 56.0541 9.01685 56.0541 9.53344V11.6416Z" fill="white"/>
<path d="M58.2525 11.6416H57.4561V6.50781H58.2525V11.6416Z" fill="white"/>
<path d="M62.9459 9.85294C62.9459 10.3942 62.7884 10.8376 62.4735 11.1855C62.1433 11.543 61.7052 11.7215 61.1598 11.7215C60.6326 11.7215 60.2135 11.5505 59.9016 11.2071C59.5898 10.8645 59.4338 10.4322 59.4338 9.91117C59.4338 9.36621 59.5943 8.91905 59.9168 8.57192C60.2394 8.22479 60.673 8.05086 61.2184 8.05086C61.7455 8.05086 62.1677 8.22181 62.4887 8.56446C62.793 8.8974 62.9459 9.32739 62.9459 9.85294ZM62.1182 9.87832C62.1182 9.55359 62.0467 9.27514 61.9045 9.04297C61.7379 8.76228 61.499 8.62194 61.1902 8.62194C60.8692 8.62194 60.6258 8.76228 60.4592 9.04297C60.3162 9.27514 60.2455 9.55807 60.2455 9.8925C60.2455 10.2172 60.317 10.4957 60.4592 10.7279C60.6319 11.0085 60.8723 11.1489 61.1826 11.1489C61.4869 11.1489 61.725 11.0063 61.8969 10.7204C62.0452 10.4837 62.1182 10.2031 62.1182 9.87832Z" fill="white"/>
<path d="M66.804 11.6416H66.0882L66.0289 11.2362H66.0068C65.7619 11.5595 65.4127 11.7215 64.9594 11.7215C64.6209 11.7215 64.347 11.6147 64.1409 11.4027C63.9537 11.2101 63.8602 10.9705 63.8602 10.686C63.8602 10.2561 64.0427 9.92834 64.4101 9.7014C64.7768 9.47446 65.2925 9.36323 65.9566 9.36845V9.30276C65.9566 8.83917 65.7086 8.60776 65.2119 8.60776C64.8582 8.60776 64.5463 8.6951 64.277 8.86829L64.115 8.35469C64.4482 8.15238 64.8597 8.05086 65.345 8.05086C66.2822 8.05086 66.7523 8.53609 66.7523 9.50656V10.8025C66.7523 11.1541 66.7698 11.4341 66.804 11.6416ZM65.9764 10.4322V9.88952C65.097 9.87459 64.6574 10.1112 64.6574 10.5987C64.6574 10.7823 64.7076 10.9197 64.8103 11.0115C64.913 11.1033 65.0438 11.1489 65.1997 11.1489C65.3747 11.1489 65.5382 11.0944 65.6873 10.9861C65.8372 10.8772 65.9292 10.739 65.9634 10.5696C65.9718 10.5315 65.9764 10.4852 65.9764 10.4322Z" fill="white"/>
<path d="M71.3338 11.6416H70.6264L70.5891 11.0765H70.567C70.3411 11.5065 69.9562 11.7215 69.4154 11.7215C68.9833 11.7215 68.6235 11.555 68.3383 11.222C68.053 10.8891 67.9108 10.4569 67.9108 9.9261C67.9108 9.35651 68.0652 8.89516 68.3755 8.54281C68.676 8.21434 69.0442 8.05011 69.4823 8.05011C69.9638 8.05011 70.3008 8.20912 70.4925 8.52788H70.5077V6.50781H71.3057V10.6935C71.3057 11.0362 71.3148 11.3519 71.3338 11.6416ZM70.5077 10.1575V9.57076C70.5077 9.46923 70.5001 9.38711 70.4857 9.32441C70.4408 9.13629 70.3442 8.97802 70.1974 8.85037C70.049 8.72272 69.8703 8.65852 69.6641 8.65852C69.3667 8.65852 69.1339 8.77423 68.9628 9.00639C68.7932 9.23856 68.7072 9.53492 68.7072 9.89698C68.7072 10.2449 68.7886 10.527 68.9521 10.7443C69.1248 10.9757 69.3576 11.0914 69.6489 11.0914C69.9106 11.0914 70.1198 10.9951 70.2788 10.8018C70.4324 10.6233 70.5077 10.4083 70.5077 10.1575Z" fill="white"/>
<path d="M78.1517 9.85294C78.1517 10.3942 77.9943 10.8376 77.6794 11.1855C77.3492 11.543 76.9126 11.7215 76.3657 11.7215C75.84 11.7215 75.4209 11.5505 75.1075 11.2071C74.7956 10.8645 74.6397 10.4322 74.6397 9.91117C74.6397 9.36621 74.8002 8.91905 75.1227 8.57192C75.4453 8.22479 75.8788 8.05086 76.4258 8.05086C76.9514 8.05086 77.3751 8.22181 77.6946 8.56446C77.9988 8.8974 78.1517 9.32739 78.1517 9.85294ZM77.3256 9.87832C77.3256 9.55359 77.2541 9.27514 77.1119 9.04297C76.9438 8.76228 76.7065 8.62194 76.3961 8.62194C76.0766 8.62194 75.8332 8.76228 75.6651 9.04297C75.5221 9.27514 75.4513 9.55807 75.4513 9.8925C75.4513 10.2172 75.5228 10.4957 75.6651 10.7279C75.8378 11.0085 76.0781 11.1489 76.3885 11.1489C76.6928 11.1489 76.9324 11.0063 77.1043 10.7204C77.2511 10.4837 77.3256 10.2031 77.3256 9.87832Z" fill="white"/>
<path d="M82.4381 11.6416H81.6417V9.626C81.6417 9.00491 81.4013 8.69436 80.9183 8.69436C80.6817 8.69436 80.4908 8.77946 80.3432 8.95041C80.1957 9.12136 80.1219 9.32292 80.1219 9.55359V11.6408H79.3239V9.12808C79.3239 8.81902 79.3148 8.48384 79.2958 8.12103H79.9956L80.0329 8.67121H80.0549C80.1485 8.50026 80.2869 8.35917 80.468 8.24645C80.6848 8.11506 80.9259 8.04862 81.1914 8.04862C81.5253 8.04862 81.8037 8.15463 82.0251 8.36738C82.3012 8.62792 82.4381 9.01685 82.4381 9.53344V11.6416Z" fill="white"/>
<path d="M87.8032 8.70854H86.9254V10.4181C86.9254 10.8525 87.0813 11.0698 87.3901 11.0698C87.5331 11.0698 87.6518 11.0578 87.7454 11.0332L87.7659 11.6267C87.6084 11.6849 87.4015 11.714 87.1467 11.714C86.8318 11.714 86.5869 11.6199 86.4096 11.4318C86.2316 11.2437 86.1434 10.9272 86.1434 10.483V8.70854H85.6193V8.12253H86.1434V7.47754L86.9246 7.24612V8.12178H87.8024V8.70854H87.8032Z" fill="white"/>
<path d="M92.0234 11.6416H91.2254V9.64093C91.2254 9.01012 90.9851 8.69435 90.5036 8.69435C90.1339 8.69435 89.8813 8.87724 89.7429 9.24304C89.7193 9.31993 89.7056 9.41399 89.7056 9.52447V11.6408H88.9092V6.50781H89.7056V8.62866H89.7208C89.9718 8.24271 90.3316 8.05011 90.7979 8.05011C91.1281 8.05011 91.4012 8.15611 91.618 8.36887C91.888 8.63388 92.0234 9.02804 92.0234 9.54911V11.6416Z" fill="white"/>
<path d="M96.3767 9.71558C96.3767 9.85592 96.3661 9.97387 96.347 10.0702H93.9563C93.9669 10.418 94.081 10.6831 94.3024 10.8667C94.5047 11.0309 94.7656 11.113 95.0851 11.113C95.4388 11.113 95.7613 11.0578 96.0519 10.9466L96.1767 11.49C95.8366 11.6349 95.4365 11.7073 94.9733 11.7073C94.418 11.7073 93.9806 11.5468 93.6642 11.2258C93.3462 10.9048 93.1887 10.474 93.1887 9.93356C93.1887 9.40279 93.3355 8.96085 93.6314 8.6085C93.9403 8.23226 94.3579 8.04413 94.885 8.04413C95.4008 8.04413 95.7925 8.23226 96.0572 8.6085C96.271 8.9071 96.3767 9.27663 96.3767 9.71558ZM95.616 9.51327C95.6221 9.28111 95.5696 9.08104 95.4616 8.91233C95.3232 8.69509 95.1125 8.5861 94.8272 8.5861C94.5671 8.5861 94.3548 8.69211 94.1928 8.90486C94.0605 9.07432 93.9821 9.27663 93.9563 9.51327H95.616Z" fill="white"/>
</svg>
