<svg width="111" height="32" viewBox="0 0 111 32" fill="none" xmlns="http://www.w3.org/2000/svg">
<rect width="110.049" height="32" rx="8" fill="white"/>
<path d="M26.6373 15.8823C26.6153 13.4763 28.6447 12.3058 28.7375 12.2513C27.5882 10.6067 25.8067 10.382 25.1806 10.3641C23.6844 10.2096 22.233 11.2428 21.4708 11.2428C20.6934 11.2428 19.5197 10.379 18.2547 10.4044C16.6268 10.4291 15.104 11.354 14.2688 12.7903C12.5451 15.7188 13.8306 20.0225 15.482 22.3897C16.3081 23.549 17.2734 24.8435 18.5369 24.7979C19.773 24.7479 20.2347 24.0245 21.7264 24.0245C23.2044 24.0245 23.638 24.7979 24.9266 24.7688C26.2532 24.7479 27.0884 23.6043 27.8856 22.4345C28.8402 21.1057 29.2236 19.797 29.2388 19.7299C29.2076 19.7194 26.6624 18.7661 26.6373 15.8823Z" fill="#212E47"/>
<path d="M24.2032 8.80689C24.868 7.99095 25.3229 6.88088 25.1966 5.75439C24.2343 5.7962 23.031 6.40759 22.338 7.20562C21.7249 7.90883 21.1772 9.06145 21.3187 10.1454C22.3996 10.2245 23.5094 9.61013 24.2032 8.80689Z" fill="#212E47"/>
<path d="M44.4837 24.6314H42.7562L41.8099 21.7133H38.5207L37.6193 24.6314H35.9375L39.1962 14.6968H41.209L44.4837 24.6314ZM41.5247 20.489L40.6689 17.8949C40.5784 17.6299 40.4087 17.0058 40.1585 16.0234H40.1281C40.0284 16.4459 39.8679 17.07 39.6473 17.8949L38.8068 20.489H41.5247Z" fill="#111827"/>
<path d="M52.864 20.9616C52.864 22.1799 52.5286 23.1429 51.8576 23.8498C51.2567 24.4792 50.5105 24.7934 49.6197 24.7934C48.6583 24.7934 47.9676 24.4545 47.5469 23.7767H47.5165V27.5503H45.8947V19.8261C45.8947 19.0602 45.8742 18.2741 45.8346 17.4679H47.2609L47.3514 18.6033H47.3818C47.9227 17.7478 48.7434 17.3208 49.8449 17.3208C50.706 17.3208 51.4248 17.6545 51.9999 18.3227C52.5765 18.9915 52.864 19.8709 52.864 20.9616ZM51.2118 21.0198C51.2118 20.3226 51.0521 19.7478 50.7311 19.2954C50.3804 18.8236 49.9096 18.5877 49.3193 18.5877C48.9192 18.5877 48.5556 18.7191 48.2308 18.9781C47.9052 19.2394 47.6922 19.5805 47.5925 20.0031C47.5423 20.2001 47.5172 20.3614 47.5172 20.4883V21.6827C47.5172 22.2038 47.68 22.6435 48.0056 23.0025C48.3312 23.3616 48.7541 23.5408 49.2744 23.5408C49.8852 23.5408 50.3606 23.3094 50.7007 22.848C51.0414 22.3859 51.2118 21.7768 51.2118 21.0198Z" fill="#111827"/>
<path d="M61.2596 20.9616C61.2596 22.1799 60.9241 23.1429 60.2525 23.8498C59.6523 24.4792 58.9061 24.7934 58.0153 24.7934C57.0538 24.7934 56.3631 24.4545 55.9432 23.7767H55.9128V27.5503H54.2911V19.8261C54.2911 19.0602 54.2705 18.2741 54.231 17.4679H55.6572L55.7477 18.6033H55.7782C56.3183 17.7478 57.139 17.3208 58.2412 17.3208C59.1016 17.3208 59.8204 17.6545 60.397 18.3227C60.9713 18.9915 61.2596 19.8709 61.2596 20.9616ZM59.6074 21.0198C59.6074 20.3226 59.4469 19.7478 59.1259 19.2954C58.7752 18.8236 58.3059 18.5877 57.7149 18.5877C57.314 18.5877 56.9511 18.7191 56.6256 18.9781C56.3 19.2394 56.0878 19.5805 55.9881 20.0031C55.9387 20.2001 55.9128 20.3614 55.9128 20.4883V21.6827C55.9128 22.2038 56.0756 22.6435 56.3996 23.0025C56.7252 23.3609 57.1482 23.5408 57.67 23.5408C58.2808 23.5408 58.7562 23.3094 59.0962 22.848C59.437 22.3859 59.6074 21.7768 59.6074 21.0198Z" fill="#111827"/>
<path d="M70.6463 21.8454C70.6463 22.6905 70.3474 23.378 69.7472 23.9088C69.0877 24.4889 68.1696 24.7785 66.9898 24.7785C65.9005 24.7785 65.0272 24.5725 64.3662 24.1596L64.742 22.8331C65.454 23.2556 66.2352 23.4676 67.0864 23.4676C67.6972 23.4676 68.1726 23.3318 68.5141 23.0615C68.8542 22.7913 69.0238 22.4285 69.0238 21.9761C69.0238 21.573 68.8838 21.2333 68.6031 20.9578C68.324 20.6824 67.8577 20.4263 67.2065 20.1897C65.4342 19.541 64.5487 18.5907 64.5487 17.341C64.5487 16.5243 64.8591 15.8547 65.4806 15.3336C66.0998 14.8118 66.9259 14.5513 67.9588 14.5513C68.88 14.5513 69.6453 14.7088 70.2561 15.0231L69.8506 16.3205C69.2801 16.0159 68.6351 15.8636 67.9132 15.8636C67.3427 15.8636 66.897 16.0017 66.5775 16.2765C66.3074 16.5221 66.172 16.8214 66.172 17.176C66.172 17.5687 66.3264 17.8934 66.6368 18.1487C66.9068 18.3846 67.3975 18.6399 68.1095 18.9154C68.9804 19.2595 69.6202 19.6619 70.0317 20.1232C70.4417 20.5831 70.6463 21.1587 70.6463 21.8454Z" fill="#111827"/>
<path d="M76.0083 18.6623H74.2207V22.1403C74.2207 23.0249 74.5356 23.4669 75.167 23.4669C75.4568 23.4669 75.6972 23.4422 75.8874 23.393L75.9322 24.6016C75.6128 24.7188 75.1921 24.7777 74.671 24.7777C74.0306 24.7777 73.53 24.5859 73.1687 24.2029C72.8089 23.8192 72.6279 23.1757 72.6279 22.2717V18.6608H71.5629V17.4664H72.6279V16.1548L74.2207 15.683V17.4664H76.0083V18.6623Z" fill="#111827"/>
<path d="M84.0737 20.9907C84.0737 22.0918 83.7527 22.9958 83.1122 23.7028C82.4406 24.4306 81.549 24.7934 80.4377 24.7934C79.3667 24.7934 78.514 24.4448 77.878 23.7476C77.2421 23.0503 76.9241 22.1702 76.9241 21.1094C76.9241 19.9993 77.2512 19.0901 77.9077 18.3831C78.5626 17.6754 79.4465 17.3216 80.5579 17.3216C81.6289 17.3216 82.4908 17.6702 83.1411 18.3682C83.7634 19.0453 84.0737 19.9194 84.0737 20.9907ZM82.3911 21.0422C82.3911 20.3815 82.2473 19.8149 81.956 19.3424C81.616 18.7706 81.1299 18.4854 80.5001 18.4854C79.8482 18.4854 79.353 18.7713 79.013 19.3424C78.7216 19.8157 78.5779 20.3912 78.5779 21.0721C78.5779 21.7327 78.7216 22.2993 79.013 22.7711C79.3636 23.3429 79.8535 23.6281 80.4856 23.6281C81.1048 23.6281 81.5909 23.337 81.9416 22.7562C82.2405 22.2747 82.3911 21.7021 82.3911 21.0422Z" fill="#111827"/>
<path d="M89.3452 18.8676C89.1847 18.8385 89.0136 18.8236 88.834 18.8236C88.2635 18.8236 87.8223 19.0348 87.512 19.4581C87.2419 19.8314 87.1065 20.3032 87.1065 20.8727V24.6314H85.4855L85.5008 19.7239C85.5008 18.8982 85.4802 18.1465 85.4399 17.4686H86.8525L86.9118 18.8392H86.9567C87.1278 18.3682 87.3979 17.989 87.7676 17.7045C88.1289 17.4485 88.5191 17.3208 88.9398 17.3208C89.0896 17.3208 89.225 17.3313 89.3452 17.35V18.8676Z" fill="#111827"/>
<path d="M96.5982 20.7107C96.5982 20.9959 96.5792 21.2363 96.5389 21.4326H91.6736C91.6926 22.1403 91.9277 22.6815 92.3795 23.0548C92.7895 23.3885 93.3197 23.5557 93.9709 23.5557C94.6912 23.5557 95.3484 23.443 95.9395 23.2168L96.1936 24.3216C95.5029 24.6172 94.6874 24.7643 93.7465 24.7643C92.6146 24.7643 91.7261 24.4373 91.0796 23.7841C90.4345 23.1309 90.1112 22.2538 90.1112 21.1534C90.1112 20.0732 90.4117 19.1737 91.0134 18.4563C91.6432 17.6904 92.4944 17.3074 93.5654 17.3074C94.6174 17.3074 95.4139 17.6904 95.9547 18.4563C96.383 19.0647 96.5982 19.8172 96.5982 20.7107ZM95.0518 20.2979C95.0624 19.8261 94.9567 19.4185 94.7369 19.0744C94.4562 18.6317 94.0249 18.4107 93.4445 18.4107C92.9143 18.4107 92.483 18.6265 92.1536 19.0595C91.8836 19.4036 91.7231 19.8164 91.6736 20.2972H95.0518V20.2979Z" fill="#111827"/>
<path d="M40.9883 8.58553C40.9883 9.46417 40.7197 10.1256 40.1835 10.5698C39.6867 10.9796 38.9808 11.1849 38.0665 11.1849C37.6131 11.1849 37.2252 11.1655 36.9004 11.1267V6.32583C37.3241 6.25864 37.7805 6.22431 38.2734 6.22431C39.1444 6.22431 39.8008 6.41019 40.2436 6.78195C40.7395 7.20224 40.9883 7.80318 40.9883 8.58553ZM40.1477 8.60717C40.1477 8.03759 39.9941 7.60087 39.6867 7.2963C39.3794 6.99247 38.9306 6.84018 38.3396 6.84018C38.0886 6.84018 37.8748 6.8566 37.6976 6.89094V10.5406C37.7957 10.5556 37.9752 10.5623 38.2361 10.5623C38.8462 10.5623 39.3171 10.3958 39.6487 10.0629C39.9804 9.72993 40.1477 9.2447 40.1477 8.60717Z" fill="#111827"/>
<path d="M45.4451 9.35294C45.4451 9.89416 45.2876 10.3376 44.9727 10.6855C44.6425 11.043 44.2052 11.2215 43.659 11.2215C43.1326 11.2215 42.7135 11.0505 42.4008 10.7071C42.089 10.3645 41.933 9.93223 41.933 9.41117C41.933 8.86621 42.0935 8.41905 42.416 8.07192C42.7386 7.72479 43.1722 7.55086 43.7183 7.55086C44.2447 7.55086 44.6676 7.72181 44.9879 8.06446C45.2922 8.3974 45.4451 8.82739 45.4451 9.35294ZM44.6182 9.37832C44.6182 9.05359 44.5467 8.77514 44.4044 8.54297C44.2371 8.26228 43.999 8.12194 43.6894 8.12194C43.3692 8.12194 43.1258 8.26228 42.9584 8.54297C42.8154 8.77514 42.7447 9.05807 42.7447 9.3925C42.7447 9.71724 42.8162 9.99569 42.9584 10.2279C43.1311 10.5085 43.3714 10.6489 43.6818 10.6489C43.9861 10.6489 44.2249 10.5063 44.3968 10.2204C44.5444 9.98374 44.6182 9.70305 44.6182 9.37832Z" fill="#111827"/>
<path d="M51.4209 7.62252L50.2989 11.1416H49.5687L49.1039 9.61347C48.986 9.232 48.8901 8.85277 48.8156 8.47653H48.8011C48.7319 8.86323 48.6361 9.24171 48.5128 9.61347L48.0192 11.1416H47.2806L46.2255 7.62252H47.0447L47.4502 9.29546C47.5483 9.69111 47.6289 10.0681 47.6936 10.4249H47.7081C47.7674 10.1308 47.8655 9.75606 48.004 9.30292L48.5128 7.62327H49.1625L49.6501 9.26709C49.768 9.66797 49.8638 10.0539 49.9376 10.4257H49.9596C50.0137 10.0636 50.095 9.67767 50.2031 9.26709L50.6382 7.62327H51.4209V7.62252Z" fill="#111827"/>
<path d="M55.5536 11.1416H54.7565V9.126C54.7565 8.50491 54.5161 8.19436 54.0338 8.19436C53.7972 8.19436 53.6063 8.27946 53.458 8.45041C53.3112 8.62136 53.2366 8.82292 53.2366 9.05359V11.1408H52.4394V8.62808C52.4394 8.31902 52.4296 7.98384 52.4105 7.62103H53.1111L53.1484 8.17121H53.1705C53.2633 8.00026 53.4017 7.85917 53.5835 7.74645C53.7995 7.61506 54.0414 7.54862 54.3061 7.54862C54.6408 7.54862 54.9192 7.65463 55.1406 7.86738C55.416 8.12792 55.5536 8.51685 55.5536 9.03344V11.1416Z" fill="#111827"/>
<path d="M57.752 11.1416H56.9556V6.00781H57.752V11.1416Z" fill="#111827"/>
<path d="M62.4454 9.35294C62.4454 9.89416 62.2879 10.3376 61.973 10.6855C61.6429 11.043 61.2047 11.2215 60.6593 11.2215C60.1322 11.2215 59.713 11.0505 59.4011 10.7071C59.0893 10.3645 58.9333 9.93223 58.9333 9.41117C58.9333 8.86621 59.0938 8.41905 59.4164 8.07192C59.7389 7.72479 60.1725 7.55086 60.7179 7.55086C61.245 7.55086 61.6672 7.72181 61.9882 8.06446C62.2925 8.3974 62.4454 8.82739 62.4454 9.35294ZM61.6178 9.37832C61.6178 9.05359 61.5462 8.77514 61.404 8.54297C61.2374 8.26228 60.9986 8.12194 60.6897 8.12194C60.3687 8.12194 60.1253 8.26228 59.9587 8.54297C59.8157 8.77514 59.745 9.05807 59.745 9.3925C59.745 9.71724 59.8165 9.99569 59.9587 10.2279C60.1314 10.5085 60.3718 10.6489 60.6821 10.6489C60.9864 10.6489 61.2245 10.5063 61.3964 10.2204C61.5447 9.98374 61.6178 9.70305 61.6178 9.37832Z" fill="#111827"/>
<path d="M66.3035 11.1416H65.5877L65.5284 10.7362H65.5063C65.2614 11.0595 64.9122 11.2215 64.4589 11.2215C64.1204 11.2215 63.8465 11.1147 63.6404 10.9027C63.4533 10.7101 63.3597 10.4705 63.3597 10.186C63.3597 9.75606 63.5423 9.42834 63.9097 9.2014C64.2763 8.97446 64.792 8.86323 65.4561 8.86845V8.80276C65.4561 8.33917 65.2081 8.10776 64.7114 8.10776C64.3577 8.10776 64.0458 8.1951 63.7765 8.36829L63.6145 7.85469C63.9477 7.65238 64.3592 7.55086 64.8445 7.55086C65.7817 7.55086 66.2518 8.03609 66.2518 9.00656V10.3025C66.2518 10.6541 66.2693 10.9341 66.3035 11.1416ZM65.4759 9.93223V9.38952C64.5965 9.37459 64.1569 9.61123 64.1569 10.0987C64.1569 10.2823 64.2071 10.4197 64.3098 10.5115C64.4125 10.6033 64.5433 10.6489 64.6992 10.6489C64.8742 10.6489 65.0377 10.5944 65.1868 10.4861C65.3367 10.3772 65.4287 10.239 65.463 10.0696C65.4713 10.0315 65.4759 9.98523 65.4759 9.93223Z" fill="#111827"/>
<path d="M70.8333 11.1416H70.1259L70.0886 10.5765H70.0666C69.8406 11.0065 69.4557 11.2215 68.9149 11.2215C68.4828 11.2215 68.123 11.055 67.8378 10.722C67.5525 10.3891 67.4103 9.95687 67.4103 9.4261C67.4103 8.85651 67.5647 8.39516 67.8751 8.04281C68.1755 7.71434 68.5437 7.55011 68.9818 7.55011C69.4633 7.55011 69.8003 7.70912 69.992 8.02788H70.0072V6.00781H70.8052V10.1935C70.8052 10.5362 70.8143 10.8519 70.8333 11.1416ZM70.0072 9.65751V9.07076C70.0072 8.96923 69.9996 8.88711 69.9852 8.82441C69.9403 8.63629 69.8437 8.47802 69.6969 8.35037C69.5485 8.22272 69.3698 8.15852 69.1636 8.15852C68.8662 8.15852 68.6334 8.27423 68.4623 8.50639C68.2927 8.73856 68.2067 9.03492 68.2067 9.39698C68.2067 9.74486 68.2881 10.027 68.4516 10.2443C68.6243 10.4757 68.8571 10.5914 69.1484 10.5914C69.4101 10.5914 69.6193 10.4951 69.7783 10.3018C69.9319 10.1233 70.0072 9.90834 70.0072 9.65751Z" fill="#111827"/>
<path d="M77.6512 9.35294C77.6512 9.89416 77.4938 10.3376 77.1789 10.6855C76.8487 11.043 76.4121 11.2215 75.8652 11.2215C75.3396 11.2215 74.9204 11.0505 74.607 10.7071C74.2952 10.3645 74.1392 9.93223 74.1392 9.41117C74.1392 8.86621 74.2997 8.41905 74.6222 8.07192C74.9448 7.72479 75.3783 7.55086 75.9253 7.55086C76.4509 7.55086 76.8746 7.72181 77.1941 8.06446C77.4984 8.3974 77.6512 8.82739 77.6512 9.35294ZM76.8252 9.37832C76.8252 9.05359 76.7536 8.77514 76.6114 8.54297C76.4433 8.26228 76.206 8.12194 75.8956 8.12194C75.5761 8.12194 75.3327 8.26228 75.1646 8.54297C75.0216 8.77514 74.9509 9.05807 74.9509 9.3925C74.9509 9.71724 75.0224 9.99569 75.1646 10.2279C75.3373 10.5085 75.5777 10.6489 75.888 10.6489C76.1923 10.6489 76.4319 10.5063 76.6038 10.2204C76.7506 9.98374 76.8252 9.70305 76.8252 9.37832Z" fill="#111827"/>
<path d="M81.9376 11.1416H81.1412V9.126C81.1412 8.50491 80.9008 8.19436 80.4178 8.19436C80.1813 8.19436 79.9903 8.27946 79.8427 8.45041C79.6952 8.62136 79.6214 8.82292 79.6214 9.05359V11.1408H78.8234V8.62808C78.8234 8.31902 78.8143 7.98384 78.7953 7.62103H79.4951L79.5324 8.17121H79.5545C79.648 8.00026 79.7865 7.85917 79.9675 7.74645C80.1843 7.61506 80.4254 7.54862 80.6909 7.54862C81.0248 7.54862 81.3032 7.65463 81.5246 7.86738C81.8007 8.12792 81.9376 8.51685 81.9376 9.03344V11.1416Z" fill="#111827"/>
<path d="M87.3027 8.20854H86.4249V9.91805C86.4249 10.3525 86.5808 10.5698 86.8896 10.5698C87.0326 10.5698 87.1513 10.5578 87.2449 10.5332L87.2654 11.1267C87.108 11.1849 86.901 11.214 86.6462 11.214C86.3313 11.214 86.0864 11.1199 85.9091 10.9318C85.7311 10.7437 85.6429 10.4272 85.6429 9.983V8.20854H85.1188V7.62253H85.6429V6.97754L86.4241 6.74612V7.62178H87.3019V8.20854H87.3027Z" fill="#111827"/>
<path d="M91.5229 11.1416H90.725V9.14093C90.725 8.51012 90.4846 8.19435 90.0031 8.19435C89.6334 8.19435 89.3808 8.37724 89.2424 8.74304C89.2188 8.81993 89.2051 8.91399 89.2051 9.02447V11.1408H88.4087V6.00781H89.2051V8.12866H89.2203C89.4714 7.74271 89.8312 7.55011 90.2975 7.55011C90.6276 7.55011 90.9007 7.65611 91.1175 7.86887C91.3875 8.13388 91.5229 8.52804 91.5229 9.04911V11.1416Z" fill="#111827"/>
<path d="M95.8762 9.21558C95.8762 9.35592 95.8656 9.47387 95.8466 9.57017H93.4558C93.4664 9.91805 93.5805 10.1831 93.8019 10.3667C94.0042 10.5309 94.2651 10.613 94.5846 10.613C94.9383 10.613 95.2608 10.5578 95.5514 10.4466L95.6762 10.99C95.3361 11.1349 94.936 11.2073 94.4728 11.2073C93.9175 11.2073 93.4801 11.0468 93.1637 10.7258C92.8457 10.4048 92.6882 9.97403 92.6882 9.43356C92.6882 8.90279 92.8351 8.46085 93.131 8.1085C93.4398 7.73226 93.8574 7.54413 94.3845 7.54413C94.9003 7.54413 95.292 7.73226 95.5567 8.1085C95.7705 8.4071 95.8762 8.77663 95.8762 9.21558ZM95.1156 9.01327C95.1216 8.78111 95.0691 8.58104 94.9611 8.41233C94.8227 8.19509 94.612 8.0861 94.3267 8.0861C94.0666 8.0861 93.8544 8.19211 93.6923 8.40486C93.56 8.57432 93.4816 8.77663 93.4558 9.01327H95.1156Z" fill="#111827"/>
</svg>
