<svg width="86" height="22" viewBox="0 0 86 22" fill="none" xmlns="http://www.w3.org/2000/svg">
<path d="M54.4695 0.154305C54.375 0.254733 54.3241 0.409238 54.3241 0.61782C54.3241 0.826402 54.375 0.980907 54.4695 1.08133C54.6075 1.22811 54.7093 1.23584 56.0681 1.23584C57.427 1.23584 57.5287 1.22811 57.6668 1.08133C57.7613 0.980907 57.8121 0.826402 57.8121 0.61782C57.8121 0.409238 57.7613 0.254733 57.6668 0.154305C57.5287 0.00752485 57.427 -0.000200391 56.0681 -0.000200391C54.7093 -0.000200391 54.6075 0.00752485 54.4695 0.154305Z" fill="#CF3425"/>
<path d="M58.2481 0.154305C58.1536 0.254733 58.1028 0.409238 58.1028 0.61782C58.1028 0.826402 58.1536 0.980907 58.2481 1.08133C58.3862 1.22811 58.4879 1.23584 62.0995 1.23584C65.711 1.23584 65.8127 1.22811 65.9508 1.08133C66.0453 0.980907 66.0961 0.826402 66.0961 0.61782C66.0961 0.409238 66.0453 0.254733 65.9508 0.154305C65.8127 0.00752485 65.711 -0.000200391 62.0995 -0.000200391C58.4879 -0.000200391 58.3862 0.00752485 58.2481 0.154305Z" fill="#CF3425"/>
<path d="M55.9228 4.48044C55.7266 4.68902 55.7266 5.19889 55.9155 5.39975C56.0536 5.54653 56.2789 5.55425 63.6037 5.58515C71.5243 5.62378 71.6261 5.62378 72.9704 5.98687C74.2711 6.3345 75.2085 6.92162 76.9453 8.45122L77.8754 9.27782L78.6602 9.38598C81.9448 9.84949 84.023 10.9079 84.7061 12.4761C84.8151 12.731 84.8442 12.9782 84.8442 13.9284C84.8442 15.6512 84.7642 15.7593 83.4926 15.7593H82.8168L82.7005 15.3112C82.388 14.1602 81.5306 13.2177 80.4333 12.8314C79.8301 12.6151 78.8564 12.6074 78.2387 12.816C77.156 13.1713 76.2549 14.1525 75.9425 15.3112L75.8262 15.7593H70.6015H65.3767L65.2605 15.3112C64.948 14.1602 64.0905 13.2177 62.9933 12.8314C62.3901 12.6151 61.4164 12.6074 60.7987 12.816C59.716 13.1713 58.8149 14.1525 58.5025 15.3112L58.3862 15.7593H56.8602C55.4359 15.7593 55.3342 15.767 55.1961 15.9138C54.9999 16.1224 54.9999 16.6323 55.1961 16.8408C55.3342 16.9876 55.4359 16.9953 56.8602 16.9953H58.3862L58.5025 17.4357C58.9312 19.0425 60.2683 20.0854 61.8815 20.0854C63.4947 20.0854 64.8317 19.0425 65.2605 17.4357L65.3767 16.9953H70.6015H75.8262L75.9425 17.4357C76.3712 19.0425 77.7083 20.0854 79.3215 20.0854C80.9347 20.0854 82.2718 19.0425 82.7005 17.4357L82.8168 16.9953H83.776C84.8878 16.9953 85.1494 16.9026 85.5854 16.3928C85.985 15.9215 86.0214 15.7052 85.9923 13.828L85.9705 12.1671L85.7525 11.7036C85.6144 11.3945 85.331 11.016 84.9168 10.5834C84.3936 10.0194 84.1756 9.85722 83.4998 9.48641C82.25 8.81431 81.0219 8.42032 79.2488 8.14221L78.4204 8.01088L77.6501 7.33106C75.7027 5.62378 74.5182 4.95941 72.6579 4.54224L71.8731 4.36456L63.9743 4.34139C56.1117 4.31821 56.0754 4.31821 55.9228 4.48044ZM62.9569 14.2529C63.3857 14.5001 63.6909 14.8323 63.9307 15.319C64.0687 15.5894 64.0978 15.767 64.0978 16.3773C64.0978 17.0494 64.076 17.1499 63.8798 17.5284C63.6618 17.9456 63.2839 18.3241 62.8261 18.5868C62.4337 18.8108 61.3001 18.7953 60.8859 18.5558C60.1157 18.1232 59.7015 17.4589 59.6433 16.5782C59.607 15.9138 59.7015 15.5044 60.0139 15.01C60.2537 14.6237 60.7915 14.1911 61.1839 14.0598C61.3074 14.0211 61.6707 13.998 61.9905 14.0057C62.4701 14.0289 62.6372 14.0675 62.9569 14.2529ZM80.3969 14.2529C80.8257 14.5001 81.1309 14.8323 81.3707 15.319C81.5087 15.5894 81.5378 15.767 81.5378 16.3773C81.5378 17.0494 81.516 17.1499 81.3198 17.5284C81.1018 17.9456 80.724 18.3241 80.2661 18.5868C79.8737 18.8108 78.7401 18.7953 78.3259 18.5558C77.5557 18.1232 77.1415 17.4589 77.0833 16.5782C77.047 15.9138 77.1415 15.5044 77.4539 15.01C77.6937 14.6237 78.2315 14.1911 78.6239 14.0598C78.7474 14.0211 79.1107 13.998 79.4305 14.0057C79.9101 14.0289 80.0772 14.0675 80.3969 14.2529Z" fill="#CF3425"/>
<path d="M53.1614 7.57032C52.9652 7.7789 52.9652 8.28877 53.1614 8.49735C53.2995 8.64413 53.4012 8.65186 56.8675 8.65186C60.3337 8.65186 60.4354 8.64413 60.5735 8.49735C60.6679 8.39692 60.7188 8.24242 60.7188 8.03384C60.7188 7.82525 60.6679 7.67075 60.5735 7.57032C60.4354 7.42354 60.3337 7.41582 56.8675 7.41582C53.4012 7.41582 53.2995 7.42354 53.1614 7.57032Z" fill="#CF3425"/>
<path d="M75.5864 8.88397C75.0269 9.40928 75.2957 9.37838 69.8167 9.42473C65.0061 9.46336 64.8463 9.47108 64.7445 9.61014C64.5919 9.83417 64.6137 10.3209 64.7881 10.5063C64.9335 10.6608 65.0061 10.6608 70.0783 10.6453L75.2158 10.6221L75.6881 10.3827C75.9497 10.2513 76.284 10.0196 76.4366 9.8728C76.6619 9.64104 76.7055 9.54834 76.7055 9.27795C76.7055 8.86079 76.5165 8.65221 76.1241 8.65221C75.9134 8.65221 75.7753 8.70628 75.5864 8.88397Z" fill="#CF3425"/>
<rect y="20.0854" width="86" height="1" rx="0.5" fill="#CF3425"/>
</svg>
