<svg width="35" height="25" viewBox="0 0 35 25" fill="none" xmlns="http://www.w3.org/2000/svg">
<rect x="0.5" y="0.998535" width="34" height="23" rx="3.5" fill="white" stroke="#E4EBF1"/>
<path d="M15 23.4985L34 17.7485V20.4985C34 22.1554 32.6569 23.4985 31 23.4985H15Z" fill="#FD6020"/>
<path fill-rule="evenodd" clip-rule="evenodd" d="M30.3937 9.60938C31.439 9.60938 32.0139 10.0929 32.0139 11.0063C32.0662 11.7047 31.5958 12.2957 30.9686 12.4032L32.3797 14.3911H31.2822L30.0801 12.4569H29.9756V14.3911H29.0871V9.60938H30.3937ZM29.9756 11.8122H30.2369C30.8118 11.8122 31.0731 11.5436 31.0731 11.06C31.0731 10.6302 30.8118 10.3616 30.2369 10.3616H29.9756V11.8122ZM26.0034 14.3911H28.5122V13.5852H26.8919V12.2957H28.4599V11.4898H26.8919V10.4153H28.5122V9.60938H26.0034V14.3911ZM23.3902 12.833L22.1881 9.60938H21.2474L23.1812 14.4985H23.6515L25.5853 9.60938H24.6446L23.3902 12.833ZM12.7805 12.0271C12.7805 13.3703 13.8258 14.4985 15.1324 14.4985C15.5505 14.4985 15.9164 14.3911 16.2822 14.2299V13.1554C16.0209 13.4777 15.655 13.6926 15.2369 13.6926C14.4007 13.6926 13.7212 13.0479 13.7212 12.1883V12.0808C13.669 11.2212 14.3484 10.469 15.1847 10.4153C15.6028 10.4153 16.0209 10.6302 16.2822 10.9526V9.87802C15.9686 9.66311 15.5505 9.60938 15.1847 9.60938C13.8258 9.50193 12.7805 10.6302 12.7805 12.0271ZM11.1603 11.4361C10.6376 11.2212 10.4808 11.1137 10.4808 10.8451C10.5331 10.5227 10.7944 10.2541 11.108 10.3078C11.3693 10.3078 11.6306 10.469 11.8397 10.6839L12.3101 10.0392C11.9442 9.71684 11.4739 9.50193 11.0035 9.50193C10.2718 9.4482 9.64459 10.0392 9.59232 10.7914V10.8451C9.59232 11.4898 9.85365 11.8659 10.6899 12.1346C10.8989 12.1883 11.108 12.2957 11.3171 12.4032C11.4739 12.5106 11.5784 12.6718 11.5784 12.8867C11.5784 13.2628 11.2648 13.5852 10.9512 13.5852H10.8989C10.4808 13.5852 10.115 13.3165 9.95818 12.9405L9.38326 13.5315C9.69685 14.1224 10.324 14.4448 10.9512 14.4448C11.7874 14.4985 12.4669 13.8538 12.5191 12.9942V12.833C12.4669 12.1883 12.2056 11.8659 11.1603 11.4361ZM8.12892 14.3911H9.01742V9.60938H8.12892V14.3911ZM4 9.60939H5.30662H5.56794C6.8223 9.66312 7.81532 10.7377 7.76306 12.0271C7.76306 12.7256 7.44947 13.3703 6.92682 13.8538C6.45644 14.2299 5.88153 14.4448 5.30662 14.3911H4V9.60939ZM5.14983 13.5852C5.56794 13.6389 6.03833 13.4777 6.35191 13.2091C6.6655 12.8867 6.8223 12.4569 6.8223 11.9734C6.8223 11.5435 6.6655 11.1137 6.35191 10.7914C6.03833 10.5227 5.56794 10.3616 5.14983 10.4153H4.8885V13.5852H5.14983Z" fill="black"/>
<path fill-rule="evenodd" clip-rule="evenodd" d="M18.9476 9.49854C17.641 9.49854 16.5435 10.5731 16.5435 11.97C16.5435 13.3131 17.5888 14.4414 18.9476 14.4951C20.3065 14.5489 21.3518 13.4206 21.4041 12.0237C21.3518 10.6268 20.3065 9.49854 18.9476 9.49854V9.49854Z" fill="#FD6020"/>
</svg>
