<svg width="35" height="25" viewBox="0 0 35 25" fill="none" xmlns="http://www.w3.org/2000/svg">
<rect x="0.5" y="0.998535" width="34" height="23" rx="3.5" fill="white" stroke="#E4EBF1"/>
<path fill-rule="evenodd" clip-rule="evenodd" d="M9.90001 15.7397H8.34439C8.23794 15.7397 8.1474 15.8171 8.1308 15.9222L7.50163 19.9112C7.48913 19.99 7.55009 20.0609 7.62993 20.0609H8.37259C8.47905 20.0609 8.56958 19.9835 8.58618 19.8783L8.75588 18.8024C8.77225 18.697 8.863 18.6198 8.96924 18.6198H9.46169C10.4864 18.6198 11.0778 18.1239 11.2323 17.1412C11.3019 16.7113 11.2353 16.3735 11.0339 16.1369C10.8129 15.8772 10.4206 15.7397 9.90001 15.7397ZM10.0795 17.1967C9.99443 17.7549 9.56792 17.7549 9.15553 17.7549H8.92078L9.08547 16.7124C9.09525 16.6494 9.14984 16.603 9.21353 16.603H9.32112C9.60204 16.603 9.86706 16.603 10.004 16.7631C10.0856 16.8587 10.1106 17.0006 10.0795 17.1967ZM14.5501 17.1788H13.8052C13.7417 17.1788 13.6869 17.2252 13.6771 17.2883L13.6441 17.4966L13.592 17.4211C13.4308 17.187 13.0712 17.1088 12.7122 17.1088C11.889 17.1088 11.1859 17.7323 11.049 18.6069C10.9778 19.0431 11.079 19.4603 11.3264 19.7512C11.5535 20.0187 11.8783 20.1302 12.2647 20.1302C12.928 20.1302 13.2959 19.7036 13.2959 19.7036L13.2626 19.9107C13.2501 19.9899 13.3111 20.0608 13.3904 20.0608H14.0615C14.1682 20.0608 14.2582 19.9834 14.2751 19.8782L14.6777 17.3285C14.6904 17.2501 14.6297 17.1788 14.5501 17.1788ZM13.5117 18.6287C13.4398 19.0543 13.102 19.34 12.6713 19.34C12.455 19.34 12.282 19.2706 12.1711 19.1391C12.061 19.0086 12.0191 18.8227 12.0541 18.6158C12.1213 18.1938 12.4647 17.8988 12.889 17.8988C13.1004 17.8988 13.2724 17.969 13.3857 18.1016C13.4992 18.2356 13.5442 18.4226 13.5117 18.6287ZM17.769 17.1787H18.5176C18.6224 17.1787 18.6836 17.2963 18.624 17.3823L16.1342 20.9762C16.0939 21.0344 16.0275 21.069 15.9565 21.069H15.2089C15.1036 21.069 15.0421 20.9505 15.1031 20.8643L15.8783 19.77L15.0538 17.3502C15.0253 17.2661 15.0874 17.1787 15.1769 17.1787H15.9124C16.008 17.1787 16.0923 17.2414 16.1199 17.3329L16.5575 18.7944L17.59 17.2735C17.6304 17.2142 17.6976 17.1787 17.769 17.1787Z" fill="#253B80"/>
<path fill-rule="evenodd" clip-rule="evenodd" d="M25.8856 19.911L26.5241 15.8489C26.5338 15.7859 26.5885 15.7395 26.652 15.7393H27.3707C27.4501 15.7393 27.511 15.8104 27.4985 15.8892L26.8689 19.878C26.8525 19.9833 26.762 20.0606 26.6553 20.0606H26.0134C25.9341 20.0606 25.8731 19.9897 25.8856 19.911ZM20.9963 15.7395H19.4404C19.3341 15.7395 19.2436 15.8168 19.227 15.9219L18.5978 19.911C18.5853 19.9897 18.6463 20.0606 18.7257 20.0606H19.524C19.5983 20.0606 19.6617 20.0065 19.6733 19.9328L19.8518 18.8021C19.8683 18.6967 19.959 18.6195 20.0652 18.6195H20.5574C21.5824 18.6195 22.1736 18.1236 22.3283 17.1409C22.398 16.711 22.331 16.3733 22.1297 16.1366C21.9088 15.8769 21.5169 15.7395 20.9963 15.7395ZM21.1757 17.1964C21.0909 17.7546 20.6644 17.7546 20.2517 17.7546H20.0172L20.1821 16.7121C20.1919 16.6492 20.246 16.6027 20.3099 16.6027H20.4175C20.6983 16.6027 20.9635 16.6027 21.1004 16.7628C21.182 16.8584 21.2069 17.0003 21.1757 17.1964ZM25.646 17.1785H24.9015C24.8375 17.1785 24.7832 17.2249 24.7736 17.288L24.7407 17.4963L24.6884 17.4208C24.5271 17.1867 24.1677 17.1085 23.8088 17.1085C22.9855 17.1085 22.2827 17.732 22.1457 18.6066C22.0748 19.0428 22.1755 19.46 22.423 19.751C22.6505 20.0184 22.9749 20.1299 23.3613 20.1299C24.0246 20.1299 24.3924 19.7034 24.3924 19.7034L24.3592 19.9104C24.3467 19.9896 24.4076 20.0605 24.4875 20.0605H25.1583C25.2645 20.0605 25.355 19.9832 25.3716 19.8779L25.7745 17.3282C25.7868 17.2498 25.7258 17.1785 25.646 17.1785ZM24.6076 18.6284C24.5362 19.054 24.1979 19.3397 23.7671 19.3397C23.5512 19.3397 23.3779 19.2703 23.2669 19.1388C23.1568 19.0083 23.1154 18.8224 23.15 18.6155C23.2175 18.1935 23.5606 17.8985 23.9848 17.8985C24.1964 17.8985 24.3683 17.9687 24.4816 18.1014C24.5955 18.2354 24.6406 18.4223 24.6076 18.6284Z" fill="#179BD7"/>
<path d="M15.6571 14.3123L15.8484 13.0976L15.4224 13.0877H13.3882L14.8019 4.12388C14.8062 4.09682 14.8205 4.07158 14.8413 4.05367C14.8622 4.03575 14.8889 4.02588 14.9167 4.02588H18.3467C19.4855 4.02588 20.2713 4.26284 20.6816 4.73053C20.8739 4.94994 20.9964 5.17922 21.0557 5.43153C21.1178 5.69629 21.1189 6.0126 21.0582 6.39839L21.0538 6.42655V6.67374L21.2462 6.78272C21.4082 6.86864 21.5368 6.96701 21.6356 7.07964C21.8002 7.26723 21.9066 7.50566 21.9516 7.78832C21.998 8.07904 21.9826 8.42496 21.9066 8.81661C21.8188 9.26712 21.6769 9.65949 21.4854 9.98056C21.309 10.2764 21.0845 10.5217 20.818 10.7119C20.5635 10.8925 20.261 11.0297 19.9191 11.1175C19.5878 11.2037 19.2101 11.2473 18.7958 11.2473H18.5288C18.338 11.2473 18.1525 11.316 18.007 11.4393C17.8611 11.5651 17.7645 11.7369 17.7349 11.9249L17.7148 12.0342L17.3769 14.1752L17.3616 14.2538C17.3576 14.2788 17.3506 14.2912 17.3404 14.2996C17.3312 14.3072 17.3181 14.3123 17.3052 14.3123H15.6571Z" fill="#253B80"/>
<path d="M21.4284 6.45557C21.4182 6.52102 21.4065 6.58794 21.3933 6.65668C20.9409 8.9791 19.3934 9.78139 17.4169 9.78139H16.4106C16.1689 9.78139 15.9652 9.95691 15.9275 10.1953L15.4123 13.4631L15.2664 14.3893C15.2418 14.5458 15.3626 14.687 15.5205 14.687H17.3054C17.5168 14.687 17.6963 14.5334 17.7295 14.325L17.7471 14.2342L18.0832 12.1016L18.1048 11.9846C18.1376 11.7755 18.3175 11.6219 18.5289 11.6219H18.7958C20.5251 11.6219 21.8789 10.9198 22.2746 8.88805C22.4398 8.03931 22.3543 7.33063 21.9169 6.83221C21.7846 6.68191 21.6204 6.55722 21.4284 6.45557Z" fill="#179BD7"/>
<path d="M20.9549 6.26685C20.8859 6.24673 20.8145 6.22845 20.7414 6.212C20.6679 6.19591 20.5925 6.18165 20.515 6.16922C20.2437 6.12533 19.9464 6.10449 19.6279 6.10449H16.9395C16.8732 6.10449 16.8104 6.11948 16.7541 6.14654C16.6301 6.20614 16.538 6.32354 16.5157 6.46724L15.9437 10.0896L15.9272 10.1953C15.9649 9.95689 16.1686 9.78136 16.4103 9.78136H17.4166C19.3931 9.78136 20.9407 8.97871 21.393 6.65666C21.4065 6.58791 21.4179 6.521 21.4281 6.45555C21.3137 6.39484 21.1897 6.34291 21.0562 6.29866C21.0234 6.28769 20.9894 6.27709 20.9549 6.26685Z" fill="#222D65"/>
<path d="M16.5156 6.4672C16.5379 6.32348 16.6301 6.2061 16.754 6.14686C16.8107 6.1198 16.8733 6.10481 16.9394 6.10481H19.6279C19.9464 6.10481 20.2437 6.12565 20.5149 6.16954C20.5925 6.18197 20.6679 6.19623 20.7414 6.21231C20.8145 6.22878 20.8858 6.24706 20.9549 6.26717C20.9893 6.27741 21.0233 6.28801 21.0565 6.29862C21.19 6.34286 21.314 6.39516 21.4284 6.45549C21.5631 5.59725 21.4274 5.0129 20.9634 4.48376C20.4518 3.90125 19.5284 3.65186 18.3469 3.65186H14.9168C14.6755 3.65186 14.4697 3.82737 14.4323 4.06616L13.0037 13.1221C12.9755 13.3013 13.1137 13.463 13.2943 13.463H15.412L15.9437 10.0896L16.5156 6.4672Z" fill="#253B80"/>
</svg>
