<svg width="35" height="25" viewBox="0 0 35 25" fill="none" xmlns="http://www.w3.org/2000/svg">
<rect x="0.5" y="0.998535" width="34" height="23" rx="3.5" fill="white" stroke="#E4EBF1"/>
<path fill-rule="evenodd" clip-rule="evenodd" d="M18.8055 8.64046L17.0275 9.02202V7.58055L18.8055 7.20605V8.64046ZM11.5803 8.02571L9.852 8.39315L9.84491 14.053C9.84491 15.0988 10.6312 15.869 11.6795 15.869C12.2603 15.869 12.6853 15.763 12.9191 15.6358V14.2014C12.6924 14.2933 11.5733 14.6183 11.5733 13.5725V11.0641H12.9191V9.55904H11.5733L11.5803 8.02571ZM7.39418 10.9723C7.01876 10.9723 6.79209 11.0782 6.79209 11.3538C6.79209 11.6547 7.18219 11.7871 7.66615 11.9513C8.45512 12.219 9.49355 12.5713 9.49794 13.8764C9.49794 15.1412 8.48502 15.869 7.01168 15.869C6.40251 15.869 5.73667 15.7489 5.07792 15.4663V13.7845C5.67292 14.1096 6.42376 14.3498 7.01168 14.3498C7.40834 14.3498 7.69168 14.2438 7.69168 13.9188C7.69168 13.5855 7.26881 13.4332 6.75828 13.2493C5.98078 12.9692 5 12.6158 5 11.4386C5 10.1879 5.95625 9.43893 7.39418 9.43893C7.9821 9.43893 8.56293 9.53079 9.15085 9.76397V11.4245C8.61252 11.1348 7.93251 10.9723 7.39418 10.9723ZM27.9429 9.43893C29.6217 9.43893 30.5 10.8663 30.5 12.6752C30.5 12.7729 30.4953 12.9362 30.4913 13.0747V13.0747V13.0747V13.0748V13.0748C30.4884 13.1767 30.4858 13.2651 30.4858 13.304H27.0221C27.1 14.1378 27.7092 14.3781 28.3962 14.3781C29.0975 14.3781 29.65 14.2297 30.1317 13.9895V15.4027C29.65 15.6712 29.0125 15.862 28.1696 15.862C26.4412 15.862 25.2371 14.7879 25.2371 12.661C25.2371 10.8663 26.2571 9.43893 27.9429 9.43893ZM27.9358 10.8733C27.4895 10.8733 27.0008 11.2054 27.0008 12.0039H28.8283C28.8283 11.2054 28.3679 10.8733 27.9358 10.8733ZM15.1221 10.0819L15.0088 9.55906H13.4788V15.7418H15.2496V11.5517C15.6676 11.0076 16.3759 11.1065 16.5955 11.1842V9.55906C16.3688 9.47426 15.5401 9.31881 15.1221 10.0819ZM17.0274 9.55905H18.8053V15.7418H17.0274V9.55905ZM22.5028 9.43893C21.8086 9.43893 21.3624 9.76397 21.1145 9.99008L21.0224 9.55199H19.4641V17.791L21.2349 17.4165L21.242 15.4168C21.497 15.6005 21.8724 15.862 22.4957 15.862C23.7637 15.862 24.9182 14.8445 24.9182 12.6045C24.9112 10.5554 23.7424 9.43893 22.5028 9.43893ZM22.0778 14.3074C21.6599 14.3074 21.412 14.159 21.242 13.9753L21.2349 11.3538C21.419 11.1489 21.674 11.0076 22.0778 11.0076C22.7224 11.0076 23.1686 11.7283 23.1686 12.654C23.1686 13.6008 22.7295 14.3074 22.0778 14.3074Z" fill="#6461FC"/>
</svg>
