<svg width="18" height="18" viewBox="0 0 18 18" fill="none" xmlns="http://www.w3.org/2000/svg">
<path d="M5.154 12.846L10.962 10.962L12.846 5.154L7.039 7.039L5.154 12.846ZM8.996 10.116C8.68467 10.116 8.42133 10.007 8.206 9.789C7.992 9.571 7.885 9.30667 7.885 8.996C7.885 8.68467 7.99367 8.42133 8.211 8.206C8.429 7.992 8.69333 7.885 9.004 7.885C9.31533 7.885 9.57867 7.99367 9.794 8.211C10.0087 8.429 10.116 8.69333 10.116 9.004C10.116 9.31533 10.007 9.57867 9.789 9.794C9.571 10.0087 9.30667 10.116 8.996 10.116ZM9.003 18C7.75833 18 6.58833 17.764 5.493 17.292C4.39767 16.8193 3.44467 16.178 2.634 15.368C1.82333 14.558 1.18167 13.606 0.709 12.512C0.236333 11.418 0 10.2483 0 9.003C0 7.75767 0.236333 6.58767 0.709 5.493C1.181 4.39767 1.82133 3.44467 2.63 2.634C3.43867 1.82333 4.391 1.18167 5.487 0.709C6.583 0.236333 7.753 0 8.997 0C10.241 0 11.411 0.236333 12.507 0.709C13.6023 1.181 14.5553 1.82167 15.366 2.631C16.1767 3.44033 16.8183 4.39267 17.291 5.488C17.7637 6.58333 18 7.753 18 8.997C18 10.241 17.764 11.411 17.292 12.507C16.82 13.603 16.1787 14.556 15.368 15.366C14.5573 16.176 13.6053 16.8177 12.512 17.291C11.4187 17.7643 10.249 18.0007 9.003 18Z" fill="#CF3425"/>
</svg>
