<svg width="64" height="64" viewBox="0 0 64 64" fill="none" xmlns="http://www.w3.org/2000/svg">
<path d="M27 2.88675C30.094 1.10042 33.906 1.10042 37 2.88675L54.7128 13.1132C57.8068 14.8996 59.7128 18.2008 59.7128 21.7735V42.2265C59.7128 45.7992 57.8068 49.1004 54.7128 50.8867L37 61.1133C33.906 62.8996 30.094 62.8996 27 61.1133L9.28719 50.8867C6.19318 49.1004 4.28719 45.7992 4.28719 42.2265V21.7735C4.28719 18.2008 6.19318 14.8996 9.28719 13.1132L27 2.88675Z" fill="#CF3425"/>
<path d="M44.0375 35.325L43.525 37.65C42.6375 41.65 39.5 44.5 34.975 44.5H29.025C24.5 44.5 21.3625 41.65 20.475 37.65L19.9625 35.325C19.7125 34.1875 20.3875 32.9 21.475 32.4625L23.25 31.75L30.1375 28.9875C30.7375 28.75 31.375 28.625 32 28.625C32.625 28.625 33.2625 28.75 33.8625 28.9875L40.75 31.75L42.525 32.4625C43.6125 32.9 44.2875 34.1875 44.0375 35.325Z" fill="white"/>
<path d="M40.75 27V28.8C40.75 29.2375 40.3 29.55 39.8875 29.375L34.55 27.2375C32.9125 26.6 31.0875 26.6 29.4375 27.25L24.1125 29.3875C23.7 29.5625 23.25 29.25 23.25 28.8125V27C23.25 24.9375 24.9375 23.25 27 23.25H37C39.0625 23.25 40.75 24.9375 40.75 27Z" fill="white"/>
<path d="M35.125 23.25H28.875V20.75C28.875 20.0625 29.4375 19.5 30.125 19.5H33.875C34.5625 19.5 35.125 20.0625 35.125 20.75V23.25Z" fill="white"/>
</svg>
