<svg width="25" height="24" viewBox="0 0 25 24" fill="none" xmlns="http://www.w3.org/2000/svg">
<path d="M24.0203 12.0004C24.0203 18.0612 19.529 23.0717 13.6945 23.8848C13.1489 23.9605 12.5908 24 12.0242 24C11.3703 24 10.728 23.9479 10.1026 23.847C4.39 22.9271 0.0273438 17.9729 0.0273438 12.0004C0.0273438 5.37295 5.39871 0 12.0234 0C18.6481 0 24.0203 5.37295 24.0203 12.0004Z" fill="#1877F2"/>
<path d="M13.6945 9.63905V12.2532H16.9274L16.4155 15.7746H13.6945V23.8879C13.149 23.9635 12.5908 24.0031 12.0243 24.0031C11.3703 24.0031 10.7281 23.9509 10.1027 23.85V15.7746H7.12109V12.2532H10.1027V9.05467C10.1027 7.0703 11.7107 5.46094 13.6953 5.46094V5.46262C13.7012 5.46262 13.7063 5.46094 13.7122 5.46094H16.9282V8.50645H14.8268C14.2022 8.50645 13.6953 9.01347 13.6953 9.63821L13.6945 9.63905Z" fill="white"/>
</svg>
