<svg width="21" height="20" viewBox="0 0 21 20" fill="none" xmlns="http://www.w3.org/2000/svg">
<g clip-path="url(#clip0_160_24576)">
<path d="M20.25 10C20.25 4.47715 15.7729 0 10.25 0C4.72715 0 0.25 4.47715 0.25 10C0.25 14.9912 3.90684 19.1283 8.6875 19.8785V12.8906H6.14844V10H8.6875V7.79687C8.6875 5.29062 10.1805 3.90625 12.4646 3.90625C13.5584 3.90625 14.7031 4.10156 14.7031 4.10156V6.5625H13.4422C12.2 6.5625 11.8125 7.3334 11.8125 8.125V10H14.5859L14.1426 12.8906H11.8125V19.8785C16.5932 19.1283 20.25 14.9912 20.25 10Z" fill="#1877F2"/>
<path d="M14.1426 12.8906L14.5859 10H11.8125V8.125C11.8125 7.33418 12.2 6.5625 13.4422 6.5625H14.7031V4.10156C14.7031 4.10156 13.5588 3.90625 12.4646 3.90625C10.1805 3.90625 8.6875 5.29063 8.6875 7.79688V10H6.14844V12.8906H8.6875V19.8785C9.72287 20.0405 10.7771 20.0405 11.8125 19.8785V12.8906H14.1426Z" fill="white"/>
</g>
<defs>
<clipPath id="clip0_160_24576">
<rect width="20" height="20" fill="white" transform="translate(0.25)"/>
</clipPath>
</defs>
</svg>
