<svg width="41" height="35" viewBox="0 0 41 35" fill="none" xmlns="http://www.w3.org/2000/svg">
<path d="M29.8034 19.22C34.5004 19.2823 40.2508 18.5083 40.2752 17.4976C40.2758 16.4763 34.5555 15.5895 29.8585 15.5272C29.4229 15.5177 29.011 15.5187 28.5991 15.5198C28.1769 15.0339 27.2721 14.0068 26.1293 12.7176C26.1464 12.711 26.1595 12.7452 26.2003 12.7492L27.4598 12.7566C27.6164 12.7554 27.7376 12.6107 27.7469 12.4304L27.7675 11.2052C27.7768 11.0249 27.6427 10.88 27.4861 10.8812L26.2266 10.8738C26.2266 10.8738 26.1068 10.9198 26.0384 10.9461L24.5749 10.9188C23.603 9.81928 22.551 8.61306 21.5121 7.44109L22.7544 7.45508C22.911 7.45386 23.0322 7.30916 23.0415 7.12887L23.0621 5.90363C23.0714 5.72333 22.9373 5.57849 22.7806 5.57971L21.5212 5.57229C21.5212 5.57229 21.4014 5.61828 21.3329 5.64456L19.9103 5.62126C17.2459 2.61889 15.0103 0.119537 14.9155 0.0773616C14.655 -0.0386216 12.7888 0.0101711 12.7888 0.0101711C12.3532 0.000670865 11.9952 0.0399121 11.9978 0.097821C12.011 0.132045 12.4834 0.186311 12.9019 0.202377L16.8325 6.8616C16.4851 6.87717 16.2218 6.95859 16.231 7.03361C16.2362 7.14943 16.5823 7.23255 17.0179 7.24205L17.0521 7.22892L17.8369 8.55735C17.5131 8.58346 17.2604 8.64119 17.259 8.7399C17.2642 8.85571 17.6103 8.93886 18.0459 8.94836L18.761 10.1464L18.9999 11.0757C18.6117 11.0873 18.284 11.1542 18.2892 11.27C18.2943 11.3859 18.6404 11.469 19.076 11.4785L19.0931 11.4719L19.5947 13.3411C19.2064 13.3526 18.9023 13.4301 18.901 13.5288C18.9061 13.6446 19.2522 13.7278 19.6878 13.7372L19.7049 13.7307L20.1645 15.4392C17.002 15.4358 15.7556 15.4627 13.4275 15.4335C11.0823 15.4109 8.81993 15.5529 6.89703 15.7609C5.44911 14.1372 2.58089 10.8597 2.58089 10.8597L1.25834 10.7391L2.57069 16.4595C2.15738 16.5593 1.82566 16.667 1.58608 16.7589C0.60821 16.8201 0.00802403 16.8934 7.60382e-05 16.975C-0.00130677 17.0737 0.582969 17.1636 1.51469 17.2379C1.74495 17.3262 2.09755 17.4265 2.56601 17.5216L1.11724 23.2613L2.436 23.1674C2.436 23.1674 5.56126 19.749 6.99546 18.2167C8.83384 18.4535 10.9789 18.6707 13.2331 18.8657C16.1535 18.9031 17.4261 18.9447 20.1042 19.0162L19.6109 20.6979C19.1753 20.6884 18.8133 20.7684 18.8185 20.8842C18.8171 20.9829 19.1224 21.0621 19.5238 21.0847L18.9804 22.9426L18.9632 22.9492C18.5276 22.9397 18.1656 23.0198 18.1708 23.1356C18.1694 23.2343 18.4813 23.3306 18.8761 23.3361L18.6044 24.265L17.8627 25.4529C17.4271 25.4435 17.0651 25.5235 17.0703 25.6393C17.0689 25.738 17.3097 25.8027 17.6361 25.8345L16.8179 27.1303L16.7837 27.1434C16.3415 27.1168 15.9861 27.2139 15.9848 27.3126C15.9834 27.4113 16.2478 27.4865 16.5913 27.5118L12.4928 34.0723C12.0808 34.0733 11.5834 34.1072 11.5794 34.148C11.582 34.2059 11.932 34.2483 12.3676 34.2578C12.3676 34.2578 14.2179 34.3721 14.4917 34.267C14.5944 34.2276 16.8925 31.7747 19.6161 28.8443L21.0387 28.8676C21.0387 28.8676 21.1532 28.9611 21.2111 28.9585L22.4706 28.9659C22.6272 28.9647 22.7483 28.82 22.7577 28.6397L22.7782 27.4145C22.7875 27.2342 22.6534 27.0893 22.4968 27.0905L21.2544 27.0766C22.3225 25.9204 23.4077 24.7578 24.4034 23.6687L25.8668 23.696C25.8668 23.696 25.9812 23.7895 26.0391 23.7869L27.2986 23.7943C27.4552 23.7931 27.5764 23.6484 27.5857 23.4681L27.6063 22.2429C27.6156 22.0626 27.4814 21.9177 27.3248 21.919L26.0654 21.9115C26.0654 21.9115 26.014 21.9312 25.9969 21.9378C27.148 20.6909 28.0606 19.6927 28.5032 19.2086C28.9151 19.2076 29.3336 19.2236 29.7692 19.2331L29.8034 19.22Z" fill="white"/>
</svg>
