<svg width="30" height="30" viewBox="0 0 30 30" fill="none" xmlns="http://www.w3.org/2000/svg">
<path d="M29.427 15.339C29.427 14.3163 29.3433 13.2974 29.1684 12.2891H15.0098V18.0648H23.1182C22.783 19.9282 21.7011 21.5767 20.1204 22.6213V26.3736H24.9612C27.7952 23.7677 29.427 19.9063 29.427 15.339Z" fill="#4285F4"/>
<path d="M15.0103 30.0012C19.061 30.0012 22.4741 28.6728 24.9617 26.38L20.121 22.6277C18.7732 23.5413 17.0393 24.0617 15.0103 24.0617C11.0947 24.0617 7.77258 21.4233 6.58154 17.8711H1.59863V21.736C4.1483 26.8059 9.33534 30.0012 15.0103 30.0012Z" fill="#34A853"/>
<path d="M6.58473 17.8698C5.95469 16.0101 5.95469 13.9902 6.58473 12.127V8.26562H1.5983C-0.532767 12.5053 -0.532767 17.4986 1.5983 21.7385L6.58473 17.8698Z" fill="#FBBC04"/>
<path d="M15.0103 5.94015C17.1522 5.90739 19.2175 6.71183 20.7692 8.18941L25.0565 3.90939C22.3392 1.36199 18.7404 -0.0392346 15.0103 0.000836335C9.33534 0.000836335 4.14477 3.1997 1.59863 8.26577L6.58507 12.1307C7.77258 8.575 11.0947 5.94015 15.0103 5.94015Z" fill="#EA4335"/>
</svg>
