<svg width="111" height="32" viewBox="0 0 111 32" fill="none" xmlns="http://www.w3.org/2000/svg">
<rect width="88.039" height="25.6" rx="4" transform="matrix(1.25 0 0 -1.25 0 32)" fill="white"/>
<path d="M40.6598 9.20571C40.6598 9.79117 40.4814 10.2601 40.13 10.6098C39.726 11.0243 39.1998 11.2329 38.555 11.2329C37.9387 11.2329 37.4125 11.0208 36.9809 10.6028C36.5483 10.1786 36.3325 9.65796 36.3325 9.0348C36.3325 8.41165 36.5483 7.89104 36.9809 7.47034C37.4125 7.04877 37.9387 6.83667 38.555 6.83667C38.8618 6.83667 39.1543 6.8989 39.4335 7.01459C39.7117 7.13116 39.9383 7.28892 40.1024 7.48349L39.7296 7.85335C39.4433 7.52118 39.0535 7.35728 38.555 7.35728C38.1055 7.35728 37.7158 7.51154 37.3849 7.82267C37.0576 8.13469 36.8935 8.53873 36.8935 9.0348C36.8935 9.53087 37.0576 9.93842 37.3849 10.2504C37.7158 10.5581 38.1055 10.7158 38.555 10.7158C39.0321 10.7158 39.4335 10.5581 39.7501 10.2469C39.9588 10.041 40.0774 9.75699 40.1086 9.39414H38.555V8.88756H40.6277C40.6526 8.99711 40.6598 9.10316 40.6598 9.20571Z" fill="#111827"/>
<path d="M43.948 7.4493H42.0011V8.7815H43.7562V9.28809H42.0011V10.6203H43.948V11.1365H41.4499V6.93308H43.948V7.4493Z" fill="#111827"/>
<path d="M46.2686 11.1365H45.7174V7.4493H44.5232V6.93308H47.4636V7.4493H46.2686V11.1365Z" fill="#111827"/>
<path d="M49.5916 11.1365V6.93308H50.1419V11.1365H49.5916Z" fill="#111827"/>
<path d="M52.5811 11.1365H52.0344V7.4493H50.8357V6.93308H53.7797V7.4493H52.5811V11.1365Z" fill="#111827"/>
<path d="M59.3466 10.5958C58.9248 11.0208 58.4022 11.2329 57.7787 11.2329C57.1518 11.2329 56.6292 11.0208 56.2073 10.5958C55.7864 10.1716 55.5768 9.65094 55.5768 9.0348C55.5768 8.41866 55.7864 7.89805 56.2073 7.47385C56.6292 7.04877 57.1518 6.83667 57.7787 6.83667C58.3986 6.83667 58.9212 7.04877 59.3431 7.47735C59.7676 7.90506 59.9772 8.42216 59.9772 9.0348C59.9772 9.65094 59.7676 10.1716 59.3466 10.5958ZM56.6149 10.2434C56.9324 10.5581 57.3186 10.7158 57.7787 10.7158C58.2354 10.7158 58.6251 10.5581 58.939 10.2434C59.2556 9.92878 59.4162 9.52474 59.4162 9.0348C59.4162 8.54487 59.2556 8.14082 58.939 7.82618C58.6251 7.51154 58.2354 7.35377 57.7787 7.35377C57.3186 7.35377 56.9324 7.51154 56.6149 7.82618C56.2983 8.14082 56.1378 8.54487 56.1378 9.0348C56.1378 9.52474 56.2983 9.92878 56.6149 10.2434Z" fill="#111827"/>
<path d="M60.7504 11.1365V6.93308H61.4193L63.499 10.2022H63.5231L63.499 9.39414V6.93308H64.0493V11.1365H63.475L61.2971 7.7061H61.273L61.2971 8.51769V11.1365H60.7504Z" fill="#111827"/>
<path d="M55.441 17.2752C53.7653 17.2752 52.3963 18.5285 52.3963 20.2578C52.3963 21.973 53.7653 23.2394 55.441 23.2394C57.1204 23.2394 58.4894 21.973 58.4894 20.2578C58.4894 18.5285 57.1204 17.2752 55.441 17.2752ZM55.441 22.065C54.5215 22.065 53.7305 21.3191 53.7305 20.2578C53.7305 19.1824 54.5215 18.4497 55.441 18.4497C56.3605 18.4497 57.1552 19.1824 57.1552 20.2578C57.1552 21.3191 56.3605 22.065 55.441 22.065ZM48.7977 17.2752C47.1183 17.2752 45.7529 18.5285 45.7529 20.2578C45.7529 21.973 47.1183 23.2394 48.7977 23.2394C50.4761 23.2394 51.8424 21.973 51.8424 20.2578C51.8424 18.5285 50.4761 17.2752 48.7977 17.2752ZM48.7977 22.065C47.8773 22.065 47.0835 21.3191 47.0835 20.2578C47.0835 19.1824 47.8773 18.4497 48.7977 18.4497C49.7172 18.4497 50.5082 19.1824 50.5082 20.2578C50.5082 21.3191 49.7172 22.065 48.7977 22.065ZM40.8923 18.1894V19.4567H43.9719C43.8818 20.1649 43.641 20.6855 43.2718 21.0483C42.8223 21.4866 42.1222 21.973 40.8923 21.973C38.9972 21.973 37.5131 20.4699 37.5131 18.6074C37.5131 16.745 38.9972 15.2419 40.8923 15.2419C41.9171 15.2419 42.6627 15.6354 43.2129 16.1455L44.1217 15.2524C43.3521 14.5302 42.3282 13.9754 40.8923 13.9754C38.2935 13.9754 36.1094 16.0535 36.1094 18.6074C36.1094 21.1614 38.2935 23.2394 40.8923 23.2394C42.297 23.2394 43.3521 22.7872 44.1815 21.9388C45.0314 21.1035 45.2963 19.9291 45.2963 18.9808C45.2963 18.6863 45.2713 18.4155 45.2267 18.1894H40.8923ZM73.2182 19.1719C72.9676 18.5049 72.1944 17.2752 70.6194 17.2752C69.0586 17.2752 67.7592 18.4838 67.7592 20.2578C67.7592 21.9283 69.0453 23.2394 70.7692 23.2394C72.1631 23.2394 72.9676 22.4042 73.2985 21.9178L72.2639 21.2403C71.9188 21.7363 71.4488 22.065 70.7692 22.065C70.0941 22.065 69.6098 21.7609 69.2994 21.1614L73.3582 19.511L73.2182 19.1719ZM69.08 20.1649C69.0453 19.015 69.9888 18.426 70.6648 18.426C71.1946 18.426 71.6441 18.6863 71.7939 19.0588L69.08 20.1649ZM65.7811 23.058H67.1153V14.2935H65.7811V23.058ZM63.5961 17.9396H63.5515C63.2518 17.5907 62.6802 17.2752 61.956 17.2752C60.4363 17.2752 59.0468 18.5864 59.0468 20.2674C59.0468 21.9388 60.4363 23.2394 61.956 23.2394C62.6802 23.2394 63.2518 22.9213 63.5515 22.562H63.5961V22.9897C63.5961 24.1299 62.9762 24.7426 61.9765 24.7426C61.1613 24.7426 60.6557 24.1641 60.447 23.6777L59.2867 24.1536C59.6211 24.9441 60.5067 25.917 61.9765 25.917C63.5408 25.917 64.8607 25.0125 64.8607 22.8117V17.4566H63.5961V17.9396ZM62.0701 22.065C61.1506 22.065 60.381 21.3086 60.381 20.2674C60.381 19.2166 61.1506 18.4497 62.0701 18.4497C62.9762 18.4497 63.6906 19.2166 63.6906 20.2674C63.6906 21.3086 62.9762 22.065 62.0701 22.065ZM79.4647 14.2935H76.2737V23.058H77.6043V19.7372H79.4647C80.9425 19.7372 82.3917 18.6863 82.3917 17.0149C82.3917 15.3444 80.9389 14.2935 79.4647 14.2935ZM79.4995 18.518H77.6043V15.5127H79.4995C80.493 15.5127 81.0602 16.3234 81.0602 17.0149C81.0602 17.6933 80.493 18.518 79.4995 18.518ZM87.725 17.2586C86.7636 17.2586 85.7638 17.6758 85.3527 18.6004L86.5335 19.0868C86.7876 18.6004 87.255 18.4426 87.7491 18.4426C88.4393 18.4426 89.1394 18.8502 89.1501 19.5698V19.6618C88.9093 19.5251 88.3939 19.3226 87.7598 19.3226C86.488 19.3226 85.1921 20.0106 85.1921 21.2946C85.1921 22.469 86.2338 23.2254 87.4048 23.2254C88.3002 23.2254 88.7943 22.8284 89.1047 22.3665H89.1501V23.044H90.4353V19.6819C90.4353 18.128 89.2545 17.2586 87.725 17.2586ZM87.5644 22.0615C87.1292 22.0615 86.5228 21.8494 86.5228 21.3191C86.5228 20.6408 87.279 20.3805 87.9337 20.3805C88.5196 20.3805 88.7943 20.5076 89.1501 20.675C89.0458 21.4866 88.335 22.0615 87.5644 22.0615ZM95.1175 17.4505L93.588 21.2499H93.5425L91.9612 17.4505H90.5263L92.9021 22.76L91.5465 25.7145H92.9369L96.5979 17.4505H95.1175ZM83.123 23.058H84.4572V14.2935H83.123V23.058Z" fill="#111827"/>
<path d="M13.7811 7.30927C13.5715 7.52487 13.4502 7.86055 13.4502 8.29527V23.8014C13.4502 24.2361 13.5715 24.5718 13.7811 24.7874L13.8328 24.8347L22.6746 16.1491V15.944L13.8328 7.25843L13.7811 7.30927Z" fill="url(#paint0_linear_5948_6126)"/>
<path d="M25.6188 19.0457L22.6748 16.149V15.9439L25.6224 13.0472L25.6884 13.0849L29.179 15.0368C30.1752 15.5907 30.1752 16.5022 29.179 17.0596L25.6884 19.008L25.6188 19.0457Z" fill="url(#paint1_linear_5948_6126)"/>
<path d="M25.6873 19.008L22.6738 16.0465L13.7803 24.7873C14.1111 25.1291 14.6507 25.1703 15.2643 24.8285L25.6873 19.008Z" fill="url(#paint2_linear_5948_6126)"/>
<path d="M25.6873 13.0851L15.2643 7.26463C14.6507 6.92632 14.1111 6.96751 13.7803 7.30932L22.6738 16.0466L25.6873 13.0851Z" fill="url(#paint3_linear_5948_6126)"/>
<defs>
<linearGradient id="paint0_linear_5948_6126" x1="21.8895" y1="23.9629" x2="10.1242" y2="11.9908" gradientUnits="userSpaceOnUse">
<stop stop-color="#00A0FF"/>
<stop offset="0.0066" stop-color="#00A1FF"/>
<stop offset="0.2601" stop-color="#00BEFF"/>
<stop offset="0.5122" stop-color="#00D2FF"/>
<stop offset="0.7604" stop-color="#00DFFF"/>
<stop offset="1" stop-color="#00E3FF"/>
</linearGradient>
<linearGradient id="paint1_linear_5948_6126" x1="30.4762" y1="16.0455" x2="13.2123" y2="16.0455" gradientUnits="userSpaceOnUse">
<stop stop-color="#FFE000"/>
<stop offset="0.4087" stop-color="#FFBD00"/>
<stop offset="0.7754" stop-color="#FFA500"/>
<stop offset="1" stop-color="#FF9C00"/>
</linearGradient>
<linearGradient id="paint2_linear_5948_6126" x1="24.0486" y1="14.4366" x2="8.09389" y2="-1.79851" gradientUnits="userSpaceOnUse">
<stop stop-color="#FF3A44"/>
<stop offset="1" stop-color="#C31162"/>
</linearGradient>
<linearGradient id="paint3_linear_5948_6126" x1="11.5416" y1="29.9463" x2="18.6661" y2="22.6966" gradientUnits="userSpaceOnUse">
<stop stop-color="#32A071"/>
<stop offset="0.0685" stop-color="#2DA771"/>
<stop offset="0.4762" stop-color="#15CF74"/>
<stop offset="0.8009" stop-color="#06E775"/>
<stop offset="1" stop-color="#00F076"/>
</linearGradient>
</defs>
</svg>
