<svg width="111" height="32" viewBox="0 0 111 32" fill="none" xmlns="http://www.w3.org/2000/svg">
<rect width="88.039" height="25.6" rx="4" transform="matrix(1.25 0 0 -1.25 0 32)" fill="white"/>
<path d="M40.6602 9.20595C40.6602 9.79142 40.4819 10.2603 40.1305 10.61C39.7265 11.0246 39.2003 11.2332 38.5555 11.2332C37.9392 11.2332 37.413 11.0211 36.9814 10.603C36.5488 10.1788 36.333 9.6582 36.333 9.03505C36.333 8.41189 36.5488 7.89128 36.9814 7.47059C37.413 7.04902 37.9392 6.83691 38.5555 6.83691C38.8623 6.83691 39.1548 6.89914 39.434 7.01483C39.7122 7.1314 39.9387 7.28916 40.1028 7.48373L39.7301 7.85359C39.4438 7.52142 39.054 7.35753 38.5555 7.35753C38.106 7.35753 37.7163 7.51178 37.3854 7.82292C37.0581 8.13493 36.894 8.53898 36.894 9.03505C36.894 9.53111 37.0581 9.93866 37.3854 10.2507C37.7163 10.5583 38.106 10.7161 38.5555 10.7161C39.0326 10.7161 39.434 10.5583 39.7506 10.2472C39.9593 10.0412 40.0779 9.75724 40.1091 9.39439H38.5555V8.8878H40.6281C40.6531 8.99736 40.6602 9.10341 40.6602 9.20595Z" fill="#111827"/>
<path d="M43.9485 7.44955H42.0016V8.78175H43.7567V9.28833H42.0016V10.6205H43.9485V11.1368H41.4504V6.93332H43.9485V7.44955Z" fill="#111827"/>
<path d="M46.2691 11.1368H45.7179V7.44955H44.5237V6.93332H47.4641V7.44955H46.2691V11.1368Z" fill="#111827"/>
<path d="M49.5921 11.1368V6.93332H50.1424V11.1368H49.5921Z" fill="#111827"/>
<path d="M52.5815 11.1368H52.0348V7.44955H50.8362V6.93332H53.7802V7.44955H52.5815V11.1368Z" fill="#111827"/>
<path d="M59.3471 10.596C58.9253 11.0211 58.4026 11.2332 57.7792 11.2332C57.1523 11.2332 56.6297 11.0211 56.2078 10.596C55.7869 10.1718 55.5773 9.65119 55.5773 9.03505C55.5773 8.4189 55.7869 7.89829 56.2078 7.47409C56.6297 7.04902 57.1523 6.83691 57.7792 6.83691C58.3991 6.83691 58.9217 7.04901 59.3435 7.4776C59.7681 7.9053 59.9776 8.42241 59.9776 9.03505C59.9776 9.65119 59.7681 10.1718 59.3471 10.596ZM56.6154 10.2437C56.9329 10.5583 57.319 10.7161 57.7792 10.7161C58.2359 10.7161 58.6256 10.5583 58.9395 10.2437C59.2561 9.92902 59.4167 9.52498 59.4167 9.03505C59.4167 8.54511 59.2561 8.14107 58.9395 7.82642C58.6256 7.51178 58.2359 7.35402 57.7792 7.35402C57.319 7.35402 56.9329 7.51178 56.6154 7.82642C56.2988 8.14107 56.1382 8.54511 56.1382 9.03505C56.1382 9.52498 56.2988 9.92902 56.6154 10.2437Z" fill="#111827"/>
<path d="M60.7509 11.1368V6.93332H61.4197L63.4995 10.2025H63.5236L63.4995 9.39438V6.93332H64.0498V11.1368H63.4755L61.2976 7.70635H61.2735L61.2976 8.51794V11.1368H60.7509Z" fill="#111827"/>
<path d="M55.441 17.2752C53.7653 17.2752 52.3963 18.5285 52.3963 20.2578C52.3963 21.973 53.7653 23.2394 55.441 23.2394C57.1204 23.2394 58.4894 21.973 58.4894 20.2578C58.4894 18.5285 57.1204 17.2752 55.441 17.2752ZM55.441 22.065C54.5215 22.065 53.7305 21.3191 53.7305 20.2578C53.7305 19.1824 54.5215 18.4497 55.441 18.4497C56.3605 18.4497 57.1552 19.1824 57.1552 20.2578C57.1552 21.3191 56.3605 22.065 55.441 22.065ZM48.7977 17.2752C47.1183 17.2752 45.7529 18.5285 45.7529 20.2578C45.7529 21.973 47.1183 23.2394 48.7977 23.2394C50.4761 23.2394 51.8424 21.973 51.8424 20.2578C51.8424 18.5285 50.4761 17.2752 48.7977 17.2752ZM48.7977 22.065C47.8773 22.065 47.0835 21.3191 47.0835 20.2578C47.0835 19.1824 47.8773 18.4497 48.7977 18.4497C49.7172 18.4497 50.5082 19.1824 50.5082 20.2578C50.5082 21.3191 49.7172 22.065 48.7977 22.065ZM40.8923 18.1894V19.4567H43.9719C43.8818 20.1649 43.641 20.6855 43.2718 21.0483C42.8223 21.4866 42.1222 21.973 40.8923 21.973C38.9972 21.973 37.5131 20.4699 37.5131 18.6074C37.5131 16.745 38.9972 15.2419 40.8923 15.2419C41.9171 15.2419 42.6627 15.6354 43.2129 16.1455L44.1217 15.2524C43.3521 14.5302 42.3282 13.9754 40.8923 13.9754C38.2935 13.9754 36.1094 16.0535 36.1094 18.6074C36.1094 21.1614 38.2935 23.2394 40.8923 23.2394C42.297 23.2394 43.3521 22.7872 44.1815 21.9388C45.0314 21.1035 45.2963 19.9291 45.2963 18.9808C45.2963 18.6863 45.2713 18.4155 45.2267 18.1894H40.8923ZM73.2182 19.1719C72.9676 18.5049 72.1944 17.2752 70.6194 17.2752C69.0586 17.2752 67.7592 18.4838 67.7592 20.2578C67.7592 21.9283 69.0453 23.2394 70.7692 23.2394C72.1631 23.2394 72.9676 22.4042 73.2985 21.9178L72.2639 21.2403C71.9188 21.7363 71.4488 22.065 70.7692 22.065C70.0941 22.065 69.6098 21.7609 69.2994 21.1614L73.3582 19.511L73.2182 19.1719ZM69.08 20.1649C69.0453 19.015 69.9888 18.426 70.6648 18.426C71.1946 18.426 71.6441 18.6863 71.7939 19.0588L69.08 20.1649ZM65.7811 23.058H67.1153V14.2935H65.7811V23.058ZM63.5961 17.9396H63.5515C63.2518 17.5907 62.6802 17.2752 61.956 17.2752C60.4363 17.2752 59.0468 18.5864 59.0468 20.2674C59.0468 21.9388 60.4363 23.2394 61.956 23.2394C62.6802 23.2394 63.2518 22.9213 63.5515 22.562H63.5961V22.9897C63.5961 24.1299 62.9762 24.7426 61.9765 24.7426C61.1613 24.7426 60.6557 24.1641 60.447 23.6777L59.2867 24.1536C59.6211 24.9441 60.5067 25.917 61.9765 25.917C63.5408 25.917 64.8607 25.0125 64.8607 22.8117V17.4566H63.5961V17.9396ZM62.0701 22.065C61.1506 22.065 60.381 21.3086 60.381 20.2674C60.381 19.2166 61.1506 18.4497 62.0701 18.4497C62.9762 18.4497 63.6906 19.2166 63.6906 20.2674C63.6906 21.3086 62.9762 22.065 62.0701 22.065ZM79.4647 14.2935H76.2737V23.058H77.6043V19.7372H79.4647C80.9425 19.7372 82.3917 18.6863 82.3917 17.0149C82.3917 15.3444 80.9389 14.2935 79.4647 14.2935ZM79.4995 18.518H77.6043V15.5127H79.4995C80.493 15.5127 81.0602 16.3234 81.0602 17.0149C81.0602 17.6933 80.493 18.518 79.4995 18.518ZM87.725 17.2586C86.7636 17.2586 85.7638 17.6758 85.3527 18.6004L86.5335 19.0868C86.7876 18.6004 87.255 18.4426 87.7491 18.4426C88.4393 18.4426 89.1394 18.8502 89.1501 19.5698V19.6618C88.9093 19.5251 88.3939 19.3226 87.7598 19.3226C86.488 19.3226 85.1921 20.0106 85.1921 21.2946C85.1921 22.469 86.2338 23.2254 87.4048 23.2254C88.3002 23.2254 88.7943 22.8284 89.1047 22.3665H89.1501V23.044H90.4353V19.6819C90.4353 18.128 89.2545 17.2586 87.725 17.2586ZM87.5644 22.0615C87.1292 22.0615 86.5228 21.8494 86.5228 21.3191C86.5228 20.6408 87.279 20.3805 87.9337 20.3805C88.5196 20.3805 88.7943 20.5076 89.1501 20.675C89.0458 21.4866 88.335 22.0615 87.5644 22.0615ZM95.1175 17.4505L93.588 21.2499H93.5425L91.9612 17.4505H90.5263L92.9021 22.76L91.5465 25.7145H92.9369L96.5979 17.4505H95.1175ZM83.123 23.058H84.4572V14.2935H83.123V23.058Z" fill="#111827"/>
<path d="M13.7811 7.30951C13.5715 7.52512 13.4502 7.8608 13.4502 8.29551V23.8016C13.4502 24.2363 13.5715 24.572 13.7811 24.7876L13.8328 24.835L22.6746 16.1494V15.9443L13.8328 7.25868L13.7811 7.30951Z" fill="url(#paint0_linear_5883_6274)"/>
<path d="M25.6188 19.0459L22.6748 16.1492V15.9441L25.6224 13.0475L25.6884 13.0852L29.179 15.037C30.1752 15.5909 30.1752 16.5024 29.179 17.0599L25.6884 19.0082L25.6188 19.0459Z" fill="url(#paint1_linear_5883_6274)"/>
<path d="M25.6873 19.0082L22.6738 16.0467L13.7803 24.7875C14.1111 25.1294 14.6507 25.1706 15.2643 24.8287L25.6873 19.0082Z" fill="url(#paint2_linear_5883_6274)"/>
<path d="M25.6873 13.0854L15.2643 7.26487C14.6507 6.92656 14.1111 6.96775 13.7803 7.30957L22.6738 16.0469L25.6873 13.0854Z" fill="url(#paint3_linear_5883_6274)"/>
<defs>
<linearGradient id="paint0_linear_5883_6274" x1="21.8895" y1="23.9631" x2="10.1242" y2="11.9911" gradientUnits="userSpaceOnUse">
<stop stop-color="#00A0FF"/>
<stop offset="0.0066" stop-color="#00A1FF"/>
<stop offset="0.2601" stop-color="#00BEFF"/>
<stop offset="0.5122" stop-color="#00D2FF"/>
<stop offset="0.7604" stop-color="#00DFFF"/>
<stop offset="1" stop-color="#00E3FF"/>
</linearGradient>
<linearGradient id="paint1_linear_5883_6274" x1="30.4762" y1="16.0457" x2="13.2123" y2="16.0457" gradientUnits="userSpaceOnUse">
<stop stop-color="#FFE000"/>
<stop offset="0.4087" stop-color="#FFBD00"/>
<stop offset="0.7754" stop-color="#FFA500"/>
<stop offset="1" stop-color="#FF9C00"/>
</linearGradient>
<linearGradient id="paint2_linear_5883_6274" x1="24.0486" y1="14.4368" x2="8.09389" y2="-1.79826" gradientUnits="userSpaceOnUse">
<stop stop-color="#FF3A44"/>
<stop offset="1" stop-color="#C31162"/>
</linearGradient>
<linearGradient id="paint3_linear_5883_6274" x1="11.5416" y1="29.9465" x2="18.6661" y2="22.6969" gradientUnits="userSpaceOnUse">
<stop stop-color="#32A071"/>
<stop offset="0.0685" stop-color="#2DA771"/>
<stop offset="0.4762" stop-color="#15CF74"/>
<stop offset="0.8009" stop-color="#06E775"/>
<stop offset="1" stop-color="#00F076"/>
</linearGradient>
</defs>
</svg>
