<svg width="21" height="20" viewBox="0 0 21 20" fill="none" xmlns="http://www.w3.org/2000/svg">
<g clip-path="url(#clip0_160_24557)">
<path d="M20.055 10.2303C20.055 9.55056 19.9999 8.86711 19.8823 8.19836H10.45V12.0492H15.8514C15.6273 13.2911 14.9071 14.3898 13.8525 15.0879V17.5866H17.075C18.9674 15.8449 20.055 13.2728 20.055 10.2303Z" fill="#4285F4"/>
<path d="M10.45 20.0007C13.147 20.0007 15.4215 19.1151 17.0787 17.5866L13.8562 15.0879C12.9596 15.6979 11.8022 16.0433 10.4537 16.0433C7.84482 16.0433 5.6328 14.2832 4.83912 11.9169H1.51375V14.4927C3.21134 17.8695 6.66899 20.0007 10.45 20.0007Z" fill="#34A853"/>
<path d="M4.83545 11.9169C4.41656 10.675 4.41656 9.33011 4.83545 8.08815V5.51236H1.51375C0.0954131 8.33801 0.0954131 11.6671 1.51375 14.4927L4.83545 11.9169Z" fill="#FBBC04"/>
<path d="M10.45 3.95805C11.8757 3.93601 13.2536 4.47247 14.2861 5.45723L17.1412 2.60218C15.3333 0.904588 12.9339 -0.0287217 10.45 0.000673889C6.66899 0.000673889 3.21134 2.13185 1.51375 5.51234L4.83544 8.08813C5.62545 5.71811 7.84114 3.95805 10.45 3.95805Z" fill="#EA4335"/>
</g>
<defs>
<clipPath id="clip0_160_24557">
<rect width="20" height="20" fill="white" transform="translate(0.25)"/>
</clipPath>
</defs>
</svg>
