<svg width="152" height="78" viewBox="0 0 152 78" fill="none" xmlns="http://www.w3.org/2000/svg">
<path d="M2.62108 57.9776C0.598923 62.0286 0.231558 63.8787 0.642547 69.2503C1.08634 75.0018 2.56434 78.0799 4.80987 77.8377C5.75157 77.7562 5.91164 77.1681 5.49015 75.3384C2.99599 65.9841 4.06628 60.6757 9.41835 54.901C14.6822 49.3253 22.3648 46.1241 33.6006 45.008L38.977 44.399L41.252 47.5517C43.8902 51.2471 47.9666 53.2868 50.0737 52.0516C51.9316 50.9817 53.1668 48.1951 52.5689 46.7635C51.7689 44.823 48.5777 42.6588 45.8963 42.1253C42.2003 41.4404 41.4177 40.3118 41.0559 35.5102C40.6449 30.1386 41.746 23.9662 44.0637 18.4542C49.565 5.2496 66.4225 0.871462 92.3672 5.89898C96.2242 6.61783 99.9366 7.49275 100.702 7.80931C101.515 8.07386 104.399 9.11623 107.274 10.0636C117.744 13.5117 128.604 19.0315 139.072 26.1165L145.285 30.3159L142.54 30.2664C139.803 30.312 137.93 31.8139 138.842 33.2184C139.512 34.261 149.42 33.6425 150.481 32.498C151.735 31.1453 151.393 23.5188 150.039 22.4876C148.572 21.3704 147.334 22.9131 147.459 25.5819C147.542 27.1538 147.366 27.5519 146.689 27.0363C144.714 25.5324 132.193 17.8596 128.1 15.6299C102.656 1.75445 73.822 -3.16647 55.8729 3.2202C51.8341 4.67037 51.2874 5.05266 45.9835 10.7754C40.535 16.6542 40.4467 16.8532 38.8779 22.4919C37.0607 28.9176 36.9335 29.8857 37.3947 36.4492L37.6354 41.0699L33.0397 41.5634C25.3614 42.3716 21.4991 43.4237 15.7318 46.2198C11.4284 48.2671 4.33852 54.6708 2.62108 57.9776ZM47.5937 46.5242C49.4554 47.9421 49.5538 49.082 47.7423 48.856C46.4621 48.6798 43.9777 45.5452 44.903 45.2737C45.3134 45.1425 46.5218 45.7078 47.5937 46.5242Z" fill="#4E5561"/>
</svg>
