<svg width="25" height="24" viewBox="0 0 25 24" fill="none" xmlns="http://www.w3.org/2000/svg">
<path d="M12.0443 0H11.9897C5.37928 0 0.0205078 5.36035 0.0205078 11.9727V12.0273C0.0205078 18.6397 5.37928 24 11.9897 24H12.0443C18.6547 24 24.0134 18.6397 24.0134 12.0273V11.9727C24.0134 5.36035 18.6547 0 12.0443 0Z" fill="url(#paint0_linear_461_59504)"/>
<path d="M15.7296 4.88281H8.30554C6.25451 4.88281 4.58594 6.55187 4.58594 8.60351V15.3975C4.58594 17.4491 6.25451 19.1182 8.30554 19.1182H15.7296C17.7807 19.1182 19.4492 17.4491 19.4492 15.3975V8.60351C19.4492 6.55187 17.7807 4.88281 15.7296 4.88281ZM5.8981 8.60351C5.8981 7.27583 6.97825 6.19536 8.30554 6.19536H15.7296C17.0569 6.19536 18.1371 7.27583 18.1371 8.60351V15.3975C18.1371 16.7252 17.0569 17.8056 15.7296 17.8056H8.30554C6.97825 17.8056 5.8981 16.7252 5.8981 15.3975V8.60351Z" fill="white"/>
<path d="M12.0175 15.4608C13.9248 15.4608 15.4773 13.9086 15.4773 11.9999C15.4773 10.0912 13.9256 8.53906 12.0175 8.53906C10.1093 8.53906 8.55762 10.0912 8.55762 11.9999C8.55762 13.9086 10.1093 15.4608 12.0175 15.4608ZM12.0175 9.85245C13.2019 9.85245 14.1652 10.816 14.1652 12.0008C14.1652 13.1855 13.2019 14.1491 12.0175 14.1491C10.8331 14.1491 9.86978 13.1855 9.86978 12.0008C9.86978 10.816 10.8331 9.85245 12.0175 9.85245Z" fill="white"/>
<path d="M15.7979 9.09935C16.3115 9.09935 16.7301 8.68146 16.7301 8.16686C16.7301 7.65227 16.3124 7.23438 15.7979 7.23438C15.2835 7.23438 14.8657 7.65227 14.8657 8.16686C14.8657 8.68146 15.2835 9.09935 15.7979 9.09935Z" fill="white"/>
<defs>
<linearGradient id="paint0_linear_461_59504" x1="3.52576" y1="20.4937" x2="20.5132" y2="3.51213" gradientUnits="userSpaceOnUse">
<stop stop-color="#FAAD4F"/>
<stop offset="0.35" stop-color="#DD2A7B"/>
<stop offset="0.62" stop-color="#9537B0"/>
<stop offset="1" stop-color="#515BD4"/>
</linearGradient>
</defs>
</svg>
