<svg width="32" height="32" viewBox="0 0 32 32" fill="none" xmlns="http://www.w3.org/2000/svg">
<g clip-path="url(#clip0_5352_11450)">
<path d="M16 32C24.8366 32 32 24.8366 32 16C32 7.16344 24.8366 0 16 0C7.16344 0 0 7.16344 0 16C0 24.8366 7.16344 32 16 32Z" fill="#FFDA44"/>
<path d="M12.5218 13.9131H31.8646C30.8419 6.06262 24.1292 0 16 0C14.8054 0 13.6417 0.132063 12.5218 0.380313V13.9131H12.5218Z" fill="#0052B4"/>
<path d="M8.34781 13.9129V1.94531C3.95444 4.34244 0.809375 8.73937 0.135437 13.9129H8.34781V13.9129Z" fill="#0052B4"/>
<path d="M8.34775 18.0859H0.135437C0.809375 23.2595 3.95444 27.6564 8.34781 30.0535L8.34775 18.0859Z" fill="#0052B4"/>
<path d="M12.5218 18.086V31.6187C13.6417 31.8669 14.8054 31.999 16 31.999C24.1292 31.999 30.8419 25.9364 31.8646 18.0859H12.5218V18.086Z" fill="#0052B4"/>
</g>
<defs>
<clipPath id="clip0_5352_11450">
<rect width="32" height="32" fill="white"/>
</clipPath>
</defs>
</svg>
