<svg width="32" height="32" viewBox="0 0 32 32" fill="none" xmlns="http://www.w3.org/2000/svg">
<g clip-path="url(#clip0_5352_11316)">
<path d="M22.9565 1.58763C20.853 0.5705 18.4931 0 16 0C13.5069 0 11.147 0.5705 9.0435 1.58763L7.65219 16L9.0435 30.4124C11.147 31.4295 13.5069 32 16 32C18.4931 32 20.853 31.4295 22.9565 30.4124L24.3478 16L22.9565 1.58763Z" fill="#FFDA44"/>
<path d="M15.9999 10.4375L17.3811 14.6888H21.8516L18.2351 17.3164L19.6164 21.5679L15.9999 18.9404L12.3833 21.5679L13.7649 17.3164L10.1484 14.6888H14.6186L15.9999 10.4375Z" fill="#496E2D"/>
<path d="M9.0435 1.58984C3.69163 4.17778 0 9.65834 0 16.0017C0 22.345 3.69163 27.8255 9.0435 30.4135V1.58984Z" fill="#496E2D"/>
<path d="M22.9565 1.58984V30.4135C28.3084 27.8255 32 22.345 32 16.0017C32 9.65834 28.3084 4.17778 22.9565 1.58984Z" fill="#D80027"/>
</g>
<defs>
<clipPath id="clip0_5352_11316">
<rect width="32" height="32" fill="white"/>
</clipPath>
</defs>
</svg>
