<svg width="32" height="32" viewBox="0 0 32 32" fill="none" xmlns="http://www.w3.org/2000/svg">
<g clip-path="url(#clip0_5352_11341)">
<path d="M16 32C24.8366 32 32 24.8366 32 16C32 7.16344 24.8366 0 16 0C7.16344 0 0 7.16344 0 16C0 24.8366 7.16344 32 16 32Z" fill="#F0F0F0"/>
<path d="M32 15.9983C32 9.65494 28.3084 4.17394 22.9565 1.58594V30.4106C28.3084 27.8227 32 22.3417 32 15.9983Z" fill="#D80027"/>
<path d="M0 15.9983C0 22.3417 3.69156 27.8227 9.0435 30.4107V1.58594C3.69156 4.17394 0 9.65494 0 15.9983Z" fill="#D80027"/>
<path d="M18.7826 18.0854L21.5652 16.6941L20.1739 15.9985V14.6072L17.3913 15.9985L18.7826 13.2158H17.3913L16 11.1289L14.6087 13.2158H13.2174L14.6087 15.9985L11.8261 14.6072V15.9985L10.4348 16.6941L13.2174 18.0854L12.5218 19.4767H15.3044V21.5637H16.6956V19.4767H19.4783L18.7826 18.0854Z" fill="#D80027"/>
</g>
<defs>
<clipPath id="clip0_5352_11341">
<rect width="32" height="32" fill="white"/>
</clipPath>
</defs>
</svg>
