<svg width="32" height="32" viewBox="0 0 32 32" fill="none" xmlns="http://www.w3.org/2000/svg">
<g clip-path="url(#clip0_5352_11269)">
<path d="M32 15.9992C32 14.042 31.6479 12.1672 31.0048 10.434L16 9.73828L0.995188 10.4339C0.352063 12.1672 0 14.042 0 15.9992C0 17.9563 0.352063 19.8311 0.995188 21.5643L16 22.26L31.0048 21.5644C31.6479 19.8311 32 17.9563 32 15.9992Z" fill="#F0F0F0"/>
<path d="M16 32.0012C22.8794 32.0012 28.7441 27.6592 31.0048 21.5664H0.995178C3.25587 27.6592 9.12055 32.0012 16 32.0012Z" fill="#0052B4"/>
<path d="M0.995178 10.4348H31.0049C28.7441 4.342 22.8794 0 16 0C9.12055 0 3.25587 4.342 0.995178 10.4348Z" fill="#D80027"/>
<path d="M20.174 11.1313H17.3913L17.8551 7.65303L19.7101 6.26172L21.5652 7.65303V10.4357L20.174 11.1313Z" fill="#338AF3"/>
<path d="M11.8261 11.1313H14.6087L14.1449 7.65303L12.2898 6.26172L10.4348 7.65303V10.4357L11.8261 11.1313Z" fill="#338AF3"/>
<path d="M17.8551 11.1313H14.1449V7.65303L16 6.26172L17.8551 7.65303V11.1313Z" fill="#0052B4"/>
<path d="M10.4348 10.4336V18.0857C10.4348 19.9078 11.3149 21.5282 12.6724 22.544L13.6464 22.3003L14.8754 23.5367C15.2388 23.6115 15.6149 23.651 16.0001 23.651C16.3832 23.651 16.7574 23.612 17.1189 23.5379L18.5218 22.3698L19.3276 22.5417C20.6845 21.526 21.5653 19.9073 21.5653 18.0857V10.4336H10.4348Z" fill="#F0F0F0"/>
<path d="M10.4348 10.4336H12.6609V12.6597H10.4348V10.4336Z" fill="#D80027"/>
<path d="M14.8869 10.4336H17.113V12.6597H14.8869V10.4336Z" fill="#D80027"/>
<path d="M19.3391 10.4336H21.5652V12.6597H19.3391V10.4336Z" fill="#D80027"/>
<path d="M12.6609 12.6602H14.887V14.8862H12.6609V12.6602Z" fill="#D80027"/>
<path d="M17.113 12.6602H19.3391V14.8862H17.113V12.6602Z" fill="#D80027"/>
<path d="M10.4348 14.8867H12.6609V17.1128H10.4348V14.8867Z" fill="#D80027"/>
<path d="M12.6609 17.1094H14.887V19.3354H12.6609V17.1094Z" fill="#D80027"/>
<path d="M14.887 14.8867H17.113V17.1128H14.887V14.8867Z" fill="#D80027"/>
<path d="M19.3391 14.8867H21.5652V17.1128H19.3391V14.8867Z" fill="#D80027"/>
<path d="M17.113 17.1094H19.3391V19.3354H17.113V17.1094Z" fill="#D80027"/>
<path d="M14.887 19.3359H17.113V21.562H14.887V19.3359Z" fill="#D80027"/>
<path d="M12.6609 19.3359H10.5784C10.7694 20.1634 11.1449 20.9206 11.6598 21.562H12.6609V19.3359Z" fill="#D80027"/>
<path d="M19.3391 21.562H20.3401C20.8551 20.9206 21.2305 20.1634 21.4215 19.3359H19.3391V21.562Z" fill="#D80027"/>
<path d="M12.6609 21.5625V22.5338C13.3083 23.021 14.065 23.3703 14.887 23.5379V21.5625H12.6609Z" fill="#D80027"/>
<path d="M17.113 21.5625V23.5379C17.9351 23.3704 18.6917 23.021 19.3391 22.5338V21.5625H17.113Z" fill="#D80027"/>
</g>
<defs>
<clipPath id="clip0_5352_11269">
<rect width="32" height="32" fill="white"/>
</clipPath>
</defs>
</svg>
