<svg width="32" height="32" viewBox="0 0 32 32" fill="none" xmlns="http://www.w3.org/2000/svg">
<g clip-path="url(#clip0_5352_11358)">
<path d="M16 32C24.8366 32 32 24.8366 32 16C32 7.16344 24.8366 0 16 0C7.16344 0 0 7.16344 0 16C0 24.8366 7.16344 32 16 32Z" fill="#D80027"/>
<path d="M15.3449 13.0742L16.6577 14.8833L18.7838 14.1939L17.4689 16.0014L18.7815 17.8104L16.6562 17.1184L15.3414 18.9259L15.3428 16.6908L13.2174 15.9988L15.3435 15.3095L15.3449 13.0742Z" fill="#F0F0F0"/>
<path d="M11.7621 20.5206C9.26489 20.5206 7.24039 18.4961 7.24039 15.9988C7.24039 13.5016 9.26489 11.4771 11.7621 11.4771C12.5408 11.4771 13.2734 11.674 13.913 12.0206C12.9096 11.0392 11.5373 10.4336 10.023 10.4336C6.94939 10.4336 4.45782 12.9252 4.45782 15.9988C4.45782 19.0723 6.94945 21.564 10.023 21.564C11.5374 21.564 12.9096 20.9583 13.913 19.977C13.2734 20.3237 12.5408 20.5206 11.7621 20.5206Z" fill="#F0F0F0"/>
</g>
<defs>
<clipPath id="clip0_5352_11358">
<rect width="32" height="32" fill="white"/>
</clipPath>
</defs>
</svg>
