<svg width="32" height="32" viewBox="0 0 32 32" fill="none" xmlns="http://www.w3.org/2000/svg">
<g clip-path="url(#clip0_5352_11311)">
<path d="M16 32C24.8366 32 32 24.8366 32 16C32 7.16344 24.8366 0 16 0C7.16344 0 0 7.16344 0 16C0 24.8366 7.16344 32 16 32Z" fill="#F0F0F0"/>
<path d="M16 0C9.12056 0 3.25587 4.342 0.995186 10.4348H31.0049C28.7441 4.342 22.8794 0 16 0Z" fill="#A2001D"/>
<path d="M16 32.0012C22.8794 32.0012 28.7441 27.6592 31.0048 21.5664H0.995193C3.25588 27.6592 9.12057 32.0012 16 32.0012Z" fill="#0052B4"/>
</g>
<defs>
<clipPath id="clip0_5352_11311">
<rect width="32" height="32" fill="white"/>
</clipPath>
</defs>
</svg>
