<svg width="32" height="32" viewBox="0 0 32 32" fill="none" xmlns="http://www.w3.org/2000/svg">
<g clip-path="url(#clip0_5352_11458)">
<path d="M16 32C24.8366 32 32 24.8366 32 16C32 7.16344 24.8366 0 16 0C7.16344 0 0 7.16344 0 16C0 24.8366 7.16344 32 16 32Z" fill="#6DA544"/>
<path d="M16 6.26172L29.2174 16.0008L16 25.74L2.78262 16.0008L16 6.26172Z" fill="#FFDA44"/>
<path d="M16 21.564C19.0736 21.564 21.5652 19.0723 21.5652 15.9988C21.5652 12.9252 19.0736 10.4336 16 10.4336C12.9264 10.4336 10.4348 12.9252 10.4348 15.9988C10.4348 19.0723 12.9264 21.564 16 21.564Z" fill="#F0F0F0"/>
<path d="M13.2174 15.6523C12.2496 15.6523 11.3157 15.7995 10.4366 16.0727C10.4755 19.1127 12.9508 21.5654 16 21.5654C17.8855 21.5654 19.5508 20.6268 20.5574 19.1924C18.8351 17.0363 16.1851 15.6523 13.2174 15.6523Z" fill="#0052B4"/>
<path d="M21.4621 17.065C21.5291 16.7198 21.5653 16.3636 21.5653 15.9988C21.5653 12.9252 19.0736 10.4336 16.0001 10.4336C13.7067 10.4336 11.7379 11.8212 10.8859 13.8023C11.6391 13.6462 12.4188 13.564 13.2175 13.564C16.4498 13.564 19.3739 14.9076 21.4621 17.065Z" fill="#0052B4"/>
</g>
<defs>
<clipPath id="clip0_5352_11458">
<rect width="32" height="32" fill="white"/>
</clipPath>
</defs>
</svg>
