<svg width="32" height="32" viewBox="0 0 32 32" fill="none" xmlns="http://www.w3.org/2000/svg">
<g clip-path="url(#clip0_5352_11304)">
<path d="M1.58763 9.04366C0.5705 11.1472 0 13.507 0 16.0002C0 18.4933 0.5705 20.8532 1.58763 22.9567L16 24.348L30.4124 22.9567C31.4295 20.8532 32 18.4933 32 16.0002C32 13.507 31.4295 11.1472 30.4124 9.04366L16 7.65234L1.58763 9.04366Z" fill="#F0F0F0"/>
<path d="M1.5882 22.957C4.17607 28.309 9.65663 32.0005 16 32.0005C22.3434 32.0005 27.8239 28.309 30.4118 22.957H1.5882Z" fill="#6DA544"/>
<path d="M1.5882 9.0435H30.4118C27.8239 3.69156 22.3433 0 16 0C9.6567 0 4.17607 3.69156 1.5882 9.0435Z" fill="#FF9811"/>
<path d="M16 21.564C19.0736 21.564 21.5652 19.0723 21.5652 15.9988C21.5652 12.9252 19.0736 10.4336 16 10.4336C12.9264 10.4336 10.4348 12.9252 10.4348 15.9988C10.4348 19.0723 12.9264 21.564 16 21.564Z" fill="#FF9811"/>
</g>
<defs>
<clipPath id="clip0_5352_11304">
<rect width="32" height="32" fill="white"/>
</clipPath>
</defs>
</svg>
