<svg width="32" height="32" viewBox="0 0 32 32" fill="none" xmlns="http://www.w3.org/2000/svg">
<g clip-path="url(#clip0_5352_11466)">
<path d="M31.0048 21.5647C31.6479 19.8313 32 17.9566 32 15.9995C32 14.0423 31.6479 12.1676 31.0048 10.4343L16 9.04297L0.995188 10.4343C0.352063 12.1676 0 14.0423 0 15.9995C0 17.9566 0.352063 19.8313 0.995188 21.5647L16 22.956L31.0048 21.5647Z" fill="#F0F0F0"/>
<path d="M16 32.0012C22.8794 32.0012 28.7441 27.6592 31.0047 21.5664H0.995117C3.25587 27.6592 9.12049 32.0012 16 32.0012Z" fill="#D80027"/>
<path d="M16 0C9.12051 0 3.25588 4.342 0.995132 10.4348H31.0048C28.7441 4.342 22.8794 0 16 0Z" fill="#6DA544"/>
<path d="M4.68625 4.6875C-1.56212 10.9359 -1.56212 21.0666 4.68625 27.315C6.31719 25.6841 7.90906 24.0922 10.4347 21.5665V10.4361L4.68625 4.6875Z" fill="black"/>
</g>
<defs>
<clipPath id="clip0_5352_11466">
<rect width="32" height="32" fill="white"/>
</clipPath>
</defs>
</svg>
