<svg width="32" height="32" viewBox="0 0 32 32" fill="none" xmlns="http://www.w3.org/2000/svg">
<g clip-path="url(#clip0_5352_11334)">
<path d="M16 32C24.8366 32 32 24.8366 32 16C32 7.16344 24.8366 0 16 0C7.16344 0 0 7.16344 0 16C0 24.8366 7.16344 32 16 32Z" fill="#F0F0F0"/>
<path d="M16 0C9.65665 0 4.17565 3.69156 1.58765 9.0435H30.4123C27.8244 3.69156 22.3433 0 16 0Z" fill="#338AF3"/>
<path d="M16 32.0005C22.3433 32.0005 27.8244 28.309 30.4124 22.957H1.58765C4.17565 28.309 9.65665 32.0005 16 32.0005Z" fill="#338AF3"/>
<path d="M20.7822 15.9984L18.8281 16.9176L19.8687 18.81L17.7468 18.4041L17.478 20.5476L16 18.9711L14.522 20.5476L14.2532 18.4041L12.1313 18.81L13.1718 16.9175L11.2178 15.9984L13.1719 15.0792L12.1313 13.1868L14.2531 13.5927L14.5221 11.4492L16 13.0257L17.478 11.4492L17.7468 13.5927L19.8688 13.1868L18.8282 15.0793L20.7822 15.9984Z" fill="#FFDA44"/>
</g>
<defs>
<clipPath id="clip0_5352_11334">
<rect width="32" height="32" fill="white"/>
</clipPath>
</defs>
</svg>
