<svg width="32" height="32" viewBox="0 0 32 32" fill="none" xmlns="http://www.w3.org/2000/svg">
<g clip-path="url(#clip0_5352_11323)">
<path d="M16 32C24.8366 32 32 24.8366 32 16C32 7.16344 24.8366 0 16 0C7.16344 0 0 7.16344 0 16C0 24.8366 7.16344 32 16 32Z" fill="#F0F0F0"/>
<path d="M0 16.0001C0 7.1635 7.1635 0 16 0C24.8365 0 32 7.1635 32 16.0001" fill="#D80027"/>
<path d="M9.73913 8.34606C9.73913 6.01494 11.3774 4.06756 13.5652 3.58975C13.2289 3.51638 12.8801 3.47656 12.5217 3.47656C9.83226 3.47656 7.65213 5.65669 7.65213 8.34613C7.65213 11.0356 9.83226 13.2157 12.5217 13.2157C12.88 13.2157 13.2289 13.1759 13.5652 13.1024C11.3774 12.6246 9.73913 10.6772 9.73913 8.34606Z" fill="#F0F0F0"/>
<path d="M16 3.82422L16.3454 4.88703H17.4629L16.5588 5.54397L16.9041 6.60678L16 5.94997L15.0959 6.60678L15.4412 5.54397L14.5371 4.88703H15.6546L16 3.82422Z" fill="#F0F0F0"/>
<path d="M13.2891 5.91016L13.6344 6.97303H14.7519L13.8478 7.62991L14.1932 8.69272L13.2891 8.03591L12.3848 8.69272L12.7303 7.62991L11.8261 6.97303H12.9436L13.2891 5.91016Z" fill="#F0F0F0"/>
<path d="M18.711 5.91016L19.0565 6.97303H20.174L19.2698 7.62991L19.6152 8.69272L18.711 8.03591L17.8069 8.69272L18.1523 7.62991L17.2481 6.97303H18.3656L18.711 5.91016Z" fill="#F0F0F0"/>
<path d="M17.6676 9.04297L18.0129 10.1058H19.1304L18.2263 10.7627L18.5717 11.8255L17.6676 11.1687L16.7634 11.8255L17.1088 10.7627L16.2047 10.1058H17.3221L17.6676 9.04297Z" fill="#F0F0F0"/>
<path d="M14.3325 9.04297L14.6778 10.1058H15.7954L14.8913 10.7627L15.2367 11.8255L14.3325 11.1687L13.4283 11.8255L13.7737 10.7627L12.8696 10.1058H13.9871L14.3325 9.04297Z" fill="#F0F0F0"/>
</g>
<defs>
<clipPath id="clip0_5352_11323">
<rect width="32" height="32" fill="white"/>
</clipPath>
</defs>
</svg>
