<svg width="31" height="4" viewBox="0 0 31 4" fill="none" xmlns="http://www.w3.org/2000/svg">
<path d="M7.90311 0.891916C9.17326 -0.0824426 9.92143 -0.534963 12.4269 0.996138C14.7759 2.42288 15.5414 2.38808 17.9773 0.735149C19.4041 -0.239175 19.9608 -0.221846 22.0835 0.839544C24.5368 2.07489 26.416 2.07489 27.1815 0.839544C27.7905 -0.13485 30.383 -0.204341 30.383 0.769948C30.383 2.75346 24.6064 3.90182 21.492 2.52727L19.9782 1.8661L19.1431 2.38808C16.916 3.74522 13.6275 3.79742 11.0698 2.49247L10.165 2.02287L8.79049 2.64907C5.46723 4.1628 1.60458 4.12818 0.160437 2.54485C-0.570332 1.72708 1.34359 1.41372 2.90952 2.07489C4.28406 2.66647 6.16318 2.23166 7.90311 0.891916Z" fill="#CF3425"/>
</svg>
