<svg width="190" height="120" viewBox="0 0 190 120" fill="none" xmlns="http://www.w3.org/2000/svg">
<path fill-rule="evenodd" clip-rule="evenodd" d="M156.326 26.8426C164.18 30.9741 168.906 37.4824 173.428 44.4217C188.253 67.1968 185.802 90.5527 162.192 103.523C125.516 123.609 64.1942 119.187 28.2948 91.0068C20.3397 84.7757 9.11704 77.3015 4.95106 63.1989C1.07371 50.0845 6.58811 39.2596 15.1469 30.8636C23.8955 22.2425 35.8184 16.1303 44.619 12.7363C83.0699 -2.04634 146.214 -2.20816 186.834 32.6686C187.677 33.3689 188.838 33.3935 189.478 32.747C190.117 32.1004 190.028 31.0426 189.254 30.3745C147.44 -5.52372 82.4024 -5.61114 42.8281 9.60095C31.8705 13.8407 16.227 22.1646 7.22975 34.1608C1.10362 42.3708 -1.9639 52.2672 1.36522 63.6994C5.77461 78.7084 17.6199 86.8175 26.0613 93.4389C63.1206 122.536 126.5 127.211 164.333 106.446C189.735 92.5165 192.492 67.4456 176.546 42.9601C171.701 35.4602 166.445 28.4758 157.919 23.9921C156.978 23.4983 155.861 23.7374 155.478 24.5508C155.027 25.332 155.454 26.3811 156.326 26.8426Z" fill="black"/>
</svg>
