<svg width="253" height="137" viewBox="0 0 253 137" fill="none" xmlns="http://www.w3.org/2000/svg">
<rect x="18.6113" y="0.862793" width="216.257" height="63.8202" rx="5" fill="#DBDCFF"/>
<path fill-rule="evenodd" clip-rule="evenodd" d="M41.6954 10.5742H49.5176V29.2739L41.6954 10.5742ZM36.1799 10.5742H28.3481V29.2739L36.1799 10.5742ZM38.9356 17.4642L43.9231 29.2739H40.6543L39.1615 25.5119H35.5117L38.9356 17.4642Z" fill="#FA0C00"/>
<rect x="12.416" y="31.6443" width="228.649" height="67.4772" rx="5" fill="#EDEEFF"/>
<rect x="0.863281" y="61.9736" width="251.753" height="74.2956" rx="5" fill="#FBFBFF"/>
<path d="M43.4615 104.109C42.3944 105.056 41.0618 106.234 38.6455 106.234H37.2006C35.4521 106.234 33.8618 105.599 32.7234 104.447C31.6115 103.322 30.9993 101.781 30.9993 100.11V98.1332C30.9993 96.4613 31.6115 94.9212 32.7234 93.7958C33.8618 92.6442 35.4521 92.0098 37.2006 92.0098H38.6455C41.0647 92.0098 42.3944 93.1868 43.4615 94.1335C44.5695 95.1095 45.5253 95.9626 48.0744 95.9626C48.4631 95.9625 48.8513 95.9314 49.2351 95.8698L49.2264 95.8474C49.0737 95.4683 48.8946 95.1005 48.6904 94.7465L46.9868 91.796C46.2186 90.466 45.1136 89.3615 43.7831 88.5936C42.4526 87.8258 40.9434 87.4216 39.407 87.4216H35.9988C34.4625 87.4216 32.9533 87.8258 31.6227 88.5936C30.2922 89.3615 29.1873 90.466 28.4191 91.796L26.7155 94.7465C25.9475 96.0766 25.5432 97.5855 25.5432 99.1214C25.5432 100.657 25.9475 102.166 26.7155 103.496L28.4191 106.447C29.1873 107.777 30.2922 108.881 31.6227 109.649C32.9533 110.417 34.4625 110.821 35.9988 110.821H39.407C40.9434 110.821 42.4526 110.417 43.7831 109.649C45.1136 108.881 46.2186 107.777 46.9868 106.447L48.6904 103.501C48.8946 103.147 49.0737 102.779 49.2264 102.4L49.2351 102.379C48.8515 102.315 48.4633 102.282 48.0744 102.281C45.5253 102.281 44.5695 103.129 43.4615 104.11" fill="#006BFF"/>
<path d="M38.6739 93.8565H37.238C34.5932 93.8565 32.8555 95.7368 32.8555 98.1435V100.099C32.8555 102.506 34.5932 104.386 37.238 104.386H38.6739C42.5275 104.386 42.2248 100.475 48.0442 100.475C48.5955 100.474 49.1457 100.525 49.6877 100.626C49.8643 99.6304 49.8643 98.6122 49.6877 97.6172C49.1456 97.7175 48.5955 97.7679 48.0442 97.7678C42.2229 97.7678 42.5275 93.8565 38.6739 93.8565Z" fill="#006BFF"/>
<path d="M53.1675 102.115C52.1682 101.378 51.0157 100.879 49.797 100.655C49.797 100.666 49.797 100.675 49.797 100.685C49.6922 101.273 49.5282 101.85 49.3079 102.405C50.3146 102.562 51.2698 102.958 52.0942 103.561C52.0942 103.569 52.0893 103.579 52.0864 103.587C51.0252 107.049 48.7667 110.012 45.7211 111.939C42.6756 113.866 39.045 114.628 35.489 114.087C31.933 113.547 28.6874 111.739 26.3418 108.993C23.9962 106.247 22.7062 102.744 22.7062 99.1214C22.7062 95.4985 23.9962 91.9959 26.3418 89.2497C28.6874 86.5035 31.933 84.696 35.489 84.1554C39.045 83.6149 42.6756 84.3772 45.7211 86.3038C48.7667 88.2305 51.0252 91.1938 52.0864 94.6553C52.0864 94.6641 52.0913 94.674 52.0942 94.6819C51.2699 95.2846 50.3146 95.6806 49.3079 95.837C49.528 96.3928 49.6919 96.9697 49.797 97.5587C49.7965 97.5679 49.7965 97.5772 49.797 97.5863C51.0157 97.3635 52.1681 96.8647 53.1675 96.1277C54.1282 95.4112 53.9423 94.602 53.7966 94.1231C52.6087 90.242 50.0781 86.919 46.6646 84.7579C43.2513 82.5968 39.1814 81.741 35.1948 82.3461C31.2082 82.9511 27.5694 84.9769 24.9395 88.0552C22.3096 91.1335 20.8633 95.06 20.8633 99.1214C20.8633 103.183 22.3096 107.109 24.9395 110.188C27.5694 113.266 31.2082 115.292 35.1948 115.897C39.1814 116.502 43.2513 115.646 46.6646 113.485C50.0781 111.324 52.6087 108.001 53.7966 104.12C53.9423 103.641 54.1282 102.832 53.1675 102.115Z" fill="#006BFF"/>
<path d="M49.3317 95.9077C48.9481 95.9706 48.56 96.0027 48.1712 96.004C45.6228 96.004 44.6673 95.1669 43.5605 94.1987C42.4927 93.2643 41.1633 92.1015 38.7448 92.1015H37.3002C35.5512 92.1015 33.9622 92.7286 32.8242 93.8654C31.7125 94.9761 31.1006 96.4963 31.1006 98.1465V100.097C31.1006 101.747 31.7125 103.268 32.8242 104.378C33.9622 105.515 35.5512 106.141 37.3002 106.141H38.7448C41.1633 106.141 42.4927 104.979 43.5605 104.045C44.6673 103.082 45.6228 102.24 48.1712 102.24C48.5598 102.24 48.9479 102.27 49.3317 102.331C49.552 101.789 49.7155 101.225 49.8197 100.65C49.8203 100.641 49.8203 100.631 49.8197 100.621C49.2744 100.521 48.7209 100.471 48.1663 100.472C42.3102 100.472 42.6166 104.374 38.7399 104.374H37.2954C34.6347 104.374 32.8867 102.498 32.8867 100.097V98.1426C32.8867 95.742 34.6347 93.8664 37.2954 93.8664H38.7399C42.6166 93.8664 42.3121 97.7669 48.1663 97.7669C48.721 97.7679 49.2745 97.7179 49.8197 97.6176C49.8197 97.6089 49.8197 97.6002 49.8197 97.5906C49.7148 97.0148 49.5513 96.451 49.3317 95.9077Z" fill="#0AE8F0"/>
<path d="M49.3317 95.9077C48.9481 95.9706 48.56 96.0027 48.1712 96.004C45.6228 96.004 44.6673 95.1669 43.5605 94.1987C42.4927 93.2643 41.1633 92.1015 38.7448 92.1015H37.3002C35.5512 92.1015 33.9622 92.7286 32.8242 93.8654C31.7125 94.9761 31.1006 96.4963 31.1006 98.1465V100.097C31.1006 101.747 31.7125 103.268 32.8242 104.378C33.9622 105.515 35.5512 106.141 37.3002 106.141H38.7448C41.1633 106.141 42.4927 104.979 43.5605 104.045C44.6673 103.082 45.6228 102.24 48.1712 102.24C48.5598 102.24 48.9479 102.27 49.3317 102.331C49.552 101.789 49.7155 101.225 49.8197 100.65C49.8203 100.641 49.8203 100.631 49.8197 100.621C49.2744 100.521 48.7209 100.471 48.1663 100.472C42.3102 100.472 42.6166 104.374 38.7399 104.374H37.2954C34.6347 104.374 32.8867 102.498 32.8867 100.097V98.1426C32.8867 95.742 34.6347 93.8664 37.2954 93.8664H38.7399C42.6166 93.8664 42.3121 97.7669 48.1663 97.7669C48.721 97.7679 49.2745 97.7179 49.8197 97.6176C49.8197 97.6089 49.8197 97.6002 49.8197 97.5906C49.7148 97.0148 49.5513 96.451 49.3317 95.9077Z" fill="#0AE8F0"/>
<rect x="63.915" y="79.3936" width="42.0291" height="3.43115" rx="1.71558" fill="#D5DAE4"/>
<rect x="63.915" y="97.406" width="65.5047" height="3.43115" rx="1.71558" fill="#D5DAE4"/>
<rect x="117.095" y="79.3936" width="42.0291" height="3.43115" rx="1.71558" fill="#D5DAE4"/>
<rect x="146.798" y="97.406" width="65.5047" height="3.43115" rx="1.71558" fill="#D5DAE4"/>
<rect x="63.915" y="115.418" width="148.388" height="3.43115" rx="1.71558" fill="#D5DAE4"/>
<rect x="170.274" y="79.3936" width="42.0291" height="3.43115" rx="1.71558" fill="#D5DAE4"/>
</svg>
