<svg width="48" height="48" viewBox="0 0 48 48" fill="none" xmlns="http://www.w3.org/2000/svg">
<path d="M13.1976 0.120819C11.2656 0.747288 8.91148 2.72613 7.19515 5.14251C3.56555 10.2636 1.0614 16.9758 0.20793 23.8868C0.010975 25.4878 -0.0734344 30.0322 0.0766267 31.3448C0.592462 36.098 2.51512 40.2546 5.7133 43.5361C9.6524 47.5733 15.0827 48.9953 20.0066 47.2949C24.8648 45.6044 28.0349 39.827 28.0255 32.6574C28.0161 26.5717 25.9622 22.0472 21.8824 19.1436C19.0406 17.125 14.7263 16.2101 10.9373 16.8366C10.5809 16.8963 10.262 16.9261 10.2433 16.8963C10.2151 16.8764 10.3277 16.4189 10.4965 15.882C11.35 13.048 12.4004 11.4171 16.9491 5.88831C18.5341 3.96913 18.7874 3.58131 18.8905 2.92501C18.9656 2.40793 18.7686 2.02011 18.2059 1.58258C17.1461 0.767178 15.9456 0.319698 14.792 0.319698C14.3512 0.319698 14.1542 0.279922 14.1167 0.180485C14.0323 -0.0382843 13.7416 -0.0581703 13.1976 0.120819ZM6.61366 13.0678C6.01342 14.5296 5.60075 15.3947 5.47883 15.4146C5.39442 15.4345 5.32877 15.4246 5.32877 15.4047C5.32877 15.3549 6.1541 13.3761 6.27603 13.1176C6.37919 12.9286 6.68869 12.8789 6.61366 13.0678ZM8.89272 36.7344C8.89272 36.7841 8.82707 36.814 8.75204 36.814C8.65825 36.814 8.61135 36.7145 8.61135 36.5455C8.61135 36.2869 8.62073 36.2869 8.75204 36.4759C8.82707 36.5753 8.89272 36.6946 8.89272 36.7344ZM14.4637 37.7984C14.7545 38.3752 14.9702 38.8525 14.9514 38.8724C14.9327 38.8923 14.792 38.7729 14.6326 38.6039C14.3231 38.2757 13.7228 37.0626 13.629 36.5654L13.5634 36.2671L13.7509 36.5157C13.8541 36.6449 14.1824 37.2316 14.4637 37.7984ZM6.21975 39.7773C6.19162 39.8071 6.16348 39.8071 6.1541 39.7872C6.13534 39.7673 6.0228 39.6082 5.8915 39.4491L5.65702 39.1508L5.95715 39.4392C6.12597 39.5983 6.24789 39.7574 6.21975 39.7773Z" fill="#E4EBF1"/>
<path d="M28.9727 1.1264C28.0911 1.50426 24.9773 5.25313 23.3923 7.8485C22.2106 9.79752 21.1414 12.9 21.3102 13.8845C21.3477 14.0834 21.3102 14.3518 21.2258 14.5706C20.9163 15.3661 21.1602 15.8335 22.2387 16.5395C23.4767 17.3549 24.3677 18.1107 25.4463 19.2642C27.9129 21.9092 29.3104 24.9123 29.8543 28.7407C30.0138 29.8743 30.0419 32.1018 29.8918 32.5095C29.8356 32.6586 29.7605 33.484 29.7137 34.3292C29.648 35.612 29.573 36.0893 29.301 37.1632C28.7383 39.3708 27.7629 41.8667 26.7687 43.6765C26.5811 44.0146 26.3748 44.482 26.3185 44.7206C26.2154 45.1085 26.2341 45.188 26.478 45.715C26.628 46.0233 26.8437 46.3614 26.9657 46.4608C27.2189 46.6697 28.8039 46.9978 30.4171 47.1669C33.09 47.4453 36.3632 46.9779 38.7736 45.9537C43.5568 43.945 46.5486 40.2061 47.6929 34.8264C48.0117 33.305 48.0961 30.7792 47.8804 29.2976C46.8769 22.6053 41.5122 16.977 34.6657 15.4158C33.8591 15.2369 33.3901 15.1971 31.777 15.1971C30.7172 15.1871 29.723 15.217 29.5636 15.2567L29.2635 15.3263L29.4979 14.5607C29.8637 13.2978 30.8391 11.3289 32.1709 9.17105C33.7559 6.59557 34.3937 5.4719 34.4968 5.07414C34.6188 4.65649 34.4687 4.03003 34.1967 3.74165C34.0748 3.61238 33.287 3.17485 32.4335 2.74726C31.3643 2.23017 30.7641 1.87219 30.5015 1.60371C29.995 1.08662 29.4698 0.917572 28.9727 1.1264ZM39.6646 24.7532C39.5708 24.9223 39.5708 24.9123 39.5614 24.7234C39.5614 24.4947 39.6833 24.3157 39.7302 24.4748C39.749 24.5344 39.7209 24.6538 39.6646 24.7532ZM35.3691 43.776C35.3316 43.8157 35.1252 43.8754 34.9189 43.9152L34.5437 43.9749L34.9189 43.7959C35.2753 43.6169 35.5473 43.6069 35.3691 43.776Z" fill="#E4EBF1"/>
</svg>
