<svg width="24" height="31" viewBox="0 0 24 31" fill="none" xmlns="http://www.w3.org/2000/svg">
<path d="M8.40086 0.0717525C7.92395 0.198929 7.5297 0.555025 7.34529 1.03194C7.25627 1.2545 6.88746 4.7773 6.88746 5.40682C6.88746 5.90281 6.97648 6.15717 7.26899 6.49419C7.61872 6.88844 7.90487 6.99654 8.65522 7.02833L9.30382 7.05377V7.48617V7.91221L7.89215 7.95036C6.22614 7.99487 5.7683 8.07118 4.94165 8.47179C4.0069 8.92327 3.40281 9.68633 3.09758 10.7991C3.00856 11.1234 2.98948 11.3778 3.00856 12.0327C3.06579 13.7623 3.02764 15.918 2.91954 16.8973C2.75421 18.4552 2.27093 21.3357 2.08017 21.9207C2.06745 21.9716 1.90848 22.0861 1.73043 22.1687C1.28531 22.3722 0.655787 22.9827 0.414151 23.4342C-0.13271 24.4643 -0.139068 25.8632 0.401434 27.4402C0.929218 28.9981 2.19463 30.2127 3.71439 30.626C4.59191 30.8676 5.15149 30.8867 11.8474 30.8867C18.5432 30.8867 19.1028 30.8676 19.9803 30.626C21.4111 30.2381 22.6765 29.0744 23.2233 27.6437C23.6176 26.6199 23.7829 25.1765 23.6049 24.3244C23.4268 23.4596 22.7019 22.4994 21.9706 22.1687C21.5828 21.9907 21.6209 22.0797 21.3284 20.6172C20.7561 17.7175 20.5781 15.4093 20.6862 12.0645C20.7179 11.2315 20.7052 11.098 20.5717 10.6656C20.2855 9.74356 19.8277 9.10767 19.1282 8.66255C18.3143 8.14113 17.653 8.00123 15.8089 7.95036L14.3909 7.91221V7.47981V7.04105H14.9823C15.6754 7.04105 16.076 6.88844 16.4194 6.50055C16.8772 5.97276 16.8899 5.80107 16.6165 3.08585C16.4003 0.993786 16.3494 0.790302 15.9297 0.42149C15.4528 0.00180626 15.58 0.0145226 11.9745 0.00180626C9.47551 -0.0109119 8.62978 0.00816345 8.40086 0.0717525ZM15.2875 1.16547L15.4846 1.3626L15.6945 3.42286C15.8789 5.20334 15.8916 5.50857 15.8216 5.68661C15.6499 6.09358 15.7199 6.08722 11.8474 6.08722C7.97482 6.08722 8.04477 6.09358 7.87308 5.68661C7.80313 5.50857 7.82221 5.19698 8.00025 3.42922C8.19102 1.49613 8.21646 1.36896 8.35635 1.21634C8.43901 1.12096 8.56619 1.02558 8.63614 0.993786C8.70609 0.968349 10.1877 0.949274 11.9237 0.955633L15.0904 0.968349L15.2875 1.16547ZM13.4371 7.48617V7.93129H11.8474H10.2576V7.48617V7.04105H11.8474H13.4371V7.48617ZM15.7898 11.683V14.4809H11.8474H7.90487V11.683V8.88511H11.8474H15.7898V11.683ZM6.95104 16.1024V23.2561H6.47413C6.00358 23.2561 5.99722 23.2561 5.62205 22.9509C4.88442 22.3595 3.80978 21.8572 3.26927 21.8572H3.09123L3.26927 20.9796C3.87336 17.9973 4.12772 14.9197 3.96875 12.7004C3.8988 11.7784 3.90516 11.594 3.98782 11.2188C4.19766 10.3095 4.63007 9.69905 5.29775 9.36203C5.67292 9.17126 6.42962 8.95506 6.74756 8.95506L6.95104 8.9487V16.1024ZM17.583 9.06952C18.823 9.38746 19.4525 10.0424 19.7069 11.257C19.7896 11.6512 19.7959 11.8674 19.726 12.764C19.6115 14.3792 19.726 16.5602 20.0566 18.8049C20.1774 19.6634 20.5335 21.5837 20.5971 21.7491C20.6162 21.8126 20.5081 21.8572 20.1711 21.9144C19.6051 22.0161 18.645 22.4867 18.0981 22.9382L17.7039 23.2561H17.2269H16.7437V16.1024V8.9487H16.9217C17.0235 8.9487 17.3223 9.00593 17.583 9.06952ZM15.7898 19.3454V23.2561H11.8474H7.90487V19.3454V15.4347H11.8474H15.7898V19.3454ZM4.02598 23.0781C4.28669 23.2052 4.68094 23.4469 4.9035 23.6122L5.29775 23.9174V26.9315V29.9393L4.93529 29.9011C2.90682 29.6722 1.57782 28.4831 1.1327 26.5055C0.725735 24.6996 1.12634 23.4914 2.31545 22.9382C2.75421 22.7283 3.41553 22.7855 4.02598 23.0781ZM21.5573 23.0335C21.977 23.2752 22.2886 23.6186 22.5048 24.0637C22.651 24.3753 22.6892 24.5342 22.7083 25.0747C22.7782 26.8361 22.0215 28.464 20.7561 29.2589C20.241 29.5832 19.1282 29.9202 18.5432 29.9329H18.397V26.9252V23.9174L18.7022 23.6885C19.8595 22.8173 20.807 22.6011 21.5573 23.0335ZM17.4431 27.0714V29.9329H11.8474H6.25157V27.0714V24.2099H11.8474H17.4431V27.0714Z" fill="white"/>
</svg>
