<svg width="24" height="24" viewBox="0 0 24 24" fill="none" xmlns="http://www.w3.org/2000/svg">
<path d="M10.5936 0.0439625C6.03262 0.564276 2.08574 3.75646 0.62793 8.09709L0.463867 8.58928L3.57168 11.7018C5.28262 13.4127 6.74512 14.8471 6.82012 14.8893C6.94199 14.9596 7.19043 14.9737 8.69512 14.9971C10.617 15.0299 10.7061 15.044 11.3436 15.3533C11.8076 15.5783 12.3748 16.1362 12.6186 16.6096C12.9748 17.3033 12.9561 17.083 12.9748 20.7018L12.9889 23.9455H13.1342C13.3779 23.9455 14.2498 23.8049 14.7654 23.683C16.3873 23.3033 17.8967 22.5955 19.2186 21.5971C19.8186 21.1424 20.4842 20.5471 20.4842 20.458C20.4842 20.4299 19.8092 19.7315 18.9889 18.9112C17.0529 16.9799 17.067 17.008 17.0201 15.5221L16.992 14.6268L16.8514 14.4205C16.7717 14.3127 16.6123 14.1674 16.4998 14.1018L16.2889 13.9846L14.3436 13.9565C12.2389 13.9283 12.2764 13.933 11.6717 13.6424C11.4045 13.5112 11.2264 13.3799 10.9217 13.0705C10.4764 12.6252 10.2326 12.208 10.1061 11.6643C10.0076 11.2612 10.0076 10.2768 10.1014 9.91584C10.3592 8.92678 11.1982 8.17678 12.1967 8.05021C12.7217 7.98459 12.7967 7.96115 12.9092 7.80646C12.9982 7.68459 13.0123 7.59084 13.0357 6.82209C13.0592 6.10959 13.0779 5.92209 13.1623 5.68771C13.4201 4.98459 13.992 4.41271 14.7045 4.1549C14.9436 4.06584 15.1076 4.04709 16.0404 4.02834L17.1092 4.00021L17.9998 3.10959C18.4873 2.62209 18.8904 2.2049 18.8904 2.18146C18.8904 2.11584 18.0326 1.58615 17.3904 1.26271C16.1248 0.620525 14.6951 0.193962 13.3029 0.0439625C12.7732 -0.0169754 11.1045 -0.0122871 10.5936 0.0439625Z" fill="#6938EF"/>
<path d="M19.3828 4.48304C17.9484 5.89866 17.8688 5.93616 16.2656 5.97835L15.2625 6.00647L15.1359 6.12835C15.0188 6.25022 15.0141 6.26429 14.9859 7.07053C14.9578 7.96116 14.9062 8.21428 14.6625 8.67366C14.3203 9.32053 13.5703 9.83147 12.8203 9.9346C12.2625 10.0096 12.2344 10.019 12.1125 10.1408C12.0094 10.2487 12 10.2862 12 10.7643C12 11.2096 12.0141 11.3033 12.1078 11.4815C12.1688 11.594 12.3094 11.7487 12.4172 11.8283L12.6188 11.969L14.5219 11.9971C16.6359 12.0299 16.6922 12.0346 17.3438 12.3533C17.8078 12.5783 18.375 13.1362 18.6188 13.6096C18.9047 14.1674 18.9469 14.3596 18.9703 15.3205L18.9938 16.1877L20.3859 17.5893L21.7828 18.9862L22.0969 18.5033C22.4813 17.908 23.0906 16.6846 23.3156 16.0424C23.5359 15.4237 23.7375 14.6408 23.8688 13.9143C23.9625 13.394 23.9766 13.1783 23.9766 11.9924C23.9766 10.8205 23.9625 10.5815 23.8688 10.0471C23.4516 7.64241 22.3922 5.49553 20.7703 3.77991C20.6063 3.60178 20.4609 3.46116 20.4422 3.46116C20.4281 3.46116 19.95 3.92054 19.3828 4.48304Z" fill="#6938EF"/>
<path d="M0.0328125 10.994C0.0140625 11.008 0 11.4393 0 11.9409C0 13.2534 0.140625 14.2799 0.473438 15.4049C1.62656 19.2862 4.65 22.3143 8.55 23.4955C9.15469 23.683 10.125 23.8799 10.6547 23.9268L11.0156 23.9596L11.0063 20.7909L10.9922 17.6268L10.8516 17.4205C10.7719 17.3127 10.6125 17.1674 10.5 17.1018L10.2891 16.9846L8.50781 16.9612C6.79688 16.9377 6.7125 16.933 6.42188 16.8252C5.77031 16.5955 5.7375 16.5721 2.85938 13.6987C1.35 12.194 0.103125 10.9612 0.0890625 10.9612C0.075 10.9612 0.046875 10.9752 0.0328125 10.994Z" fill="#6938EF"/>
</svg>
