<svg width="24" height="24" viewBox="0 0 24 24" fill="none" xmlns="http://www.w3.org/2000/svg">
<path d="M3.93281 0.0785036C2.03438 0.481629 0.482813 2.04257 0.0890625 3.94569C0.0140625 4.30194 0 4.58319 0 5.69413V7.02069H12H24V5.69413C24 4.58319 23.9859 4.30194 23.9109 3.94569C23.5312 2.11288 22.1391 0.650379 20.2594 0.116004L19.8984 0.0128789L12.1172 0.0035038C4.74844 -0.0058713 4.3125 -0.00118351 3.93281 0.0785036ZM5.08594 2.141C5.59219 2.366 5.95312 2.91444 5.95312 3.45819C5.95312 3.62694 5.92031 3.866 5.87813 3.98788C5.77969 4.27382 5.44219 4.64882 5.1375 4.80819C4.93125 4.916 4.84219 4.93475 4.5 4.93475C4.15781 4.93475 4.06875 4.916 3.8625 4.80819C3.55781 4.64882 3.22031 4.27382 3.12188 3.98788C2.84063 3.16757 3.32813 2.26288 4.15781 2.05194C4.40156 1.991 4.84219 2.03319 5.08594 2.141ZM9.08438 2.14569C9.20625 2.20194 9.40313 2.34257 9.525 2.45975C9.82031 2.75038 9.95156 3.06444 9.95625 3.48632C9.96094 3.77694 9.94219 3.85663 9.79688 4.14257C9.33281 5.05194 8.19375 5.23475 7.47188 4.51757C6.95156 3.99725 6.89063 3.25663 7.30781 2.64257C7.58906 2.23944 8.11875 1.98632 8.59219 2.0285C8.74688 2.04257 8.96719 2.09413 9.08438 2.14569Z" fill="#CF3425"/>
<path d="M0.00917969 13.4519L0.0232422 17.9191L0.154492 18.341C0.59043 19.7613 1.44824 20.7973 2.72324 21.4582C3.24824 21.7301 3.79668 21.8988 4.38262 21.9691C4.65918 22.0019 6.08887 22.0207 8.4748 22.0207H12.1498L11.8967 21.7348C10.9873 20.7082 10.4295 19.6019 10.1436 18.2707C10.0123 17.6613 10.0217 16.2598 10.1623 15.6129C10.467 14.2019 11.1561 12.9598 12.1686 11.9848C13.1529 11.0426 14.2826 10.4426 15.6232 10.1519C16.2701 10.0113 17.6717 10.0019 18.2811 10.1285C21.4639 10.8035 23.7279 13.3582 23.9482 16.5129C23.9717 16.8129 23.9904 15.3598 23.9951 13.0066L23.9998 8.98944H11.9998H-0.00488281L0.00917969 13.4519Z" fill="#CF3425"/>
<path d="M15.9324 12.0832C14.348 12.416 12.9464 13.5973 12.3371 15.116C12.0652 15.791 11.9855 16.2973 12.0136 17.1691C12.0324 17.7973 12.0558 17.9848 12.1589 18.341C12.5714 19.7332 13.4433 20.7973 14.723 21.4582C16.148 22.1941 17.8168 22.1941 19.2886 21.4582L19.7527 21.2238L21.0699 22.5363C21.923 23.3848 22.448 23.8723 22.5605 23.9191C22.823 24.0269 23.2402 24.0129 23.4886 23.8816C23.798 23.7176 23.9668 23.4457 23.9902 23.0801C24.023 22.5504 24.023 22.5504 22.5652 21.0785L21.2339 19.7426L21.4683 19.2738C22.1855 17.8441 22.1996 16.1707 21.5105 14.7926C20.7886 13.3394 19.5043 12.3551 17.9386 12.0598C17.423 11.9613 16.448 11.9707 15.9324 12.0832Z" fill="#CF3425"/>
</svg>
