<svg width="24" height="24" viewBox="0 0 24 24" fill="none" xmlns="http://www.w3.org/2000/svg">
<g clip-path="url(#clip0_5790_5758)">
<path d="M11.6484 0.0562534C11.6344 0.089066 11.4656 0.726566 11.2734 1.47657C11.0766 2.22188 10.9078 2.87344 10.8938 2.91563C10.8703 2.99532 10.7578 3 9.41719 3H7.96875V3.31407V3.63282L9.06094 4.2375C9.65625 4.57032 10.1578 4.84688 10.1625 4.85625C10.1719 4.86094 9.98906 5.47032 9.75 6.21094C9.45 7.15313 9.3375 7.57032 9.37031 7.6125C9.39844 7.64063 9.51094 7.73438 9.62344 7.81875L9.82969 7.96407L10.9219 7.12032C11.6391 6.56719 12.0281 6.29532 12.0656 6.31875C12.5813 6.73125 14.0203 7.82813 14.0953 7.875C14.1844 7.93594 14.2219 7.92188 14.4609 7.7625C14.6063 7.66875 14.7188 7.56094 14.7047 7.53282C14.6859 7.48594 14.0719 5.60625 13.9031 5.08594L13.8422 4.89844L14.9344 4.26563L16.0312 3.63282V3.31407V3H14.5875H13.1438L12.9516 2.25938C12.8484 1.85625 12.6703 1.18125 12.5625 0.759378L12.3609 3.33786e-06H12.0141C11.7797 3.33786e-06 11.6625 0.0187535 11.6484 0.0562534Z" fill="#3538CD"/>
<path d="M3.63281 3.10313C3.61406 3.16407 3.44063 3.83438 3.23906 4.59375L2.87813 5.97657L1.43906 5.99063L0 6V6.32344V6.64688L1.07812 7.24688C1.67344 7.575 2.15625 7.86563 2.15625 7.88907C2.15625 7.92188 1.40156 10.3172 1.32656 10.5281C1.31719 10.5563 1.425 10.6641 1.56563 10.7719L1.81875 10.9641L2.89219 10.1391C3.47813 9.68438 3.97969 9.31407 4.00781 9.31407C4.03594 9.31407 4.52344 9.675 5.09531 10.1156C5.66719 10.5609 6.15469 10.9219 6.18281 10.9219C6.24375 10.9219 6.70313 10.5984 6.70313 10.5563C6.70313 10.5422 6.51563 9.95625 6.28125 9.25313C6.05156 8.55469 5.85938 7.95938 5.85938 7.93125C5.85938 7.90782 6.34688 7.60313 6.9375 7.26094L8.01562 6.6375V6.31875V6L6.57656 5.99063L5.1375 5.97657L4.74844 4.5C4.5375 3.68907 4.35938 3.01875 4.35938 3.00938C4.35938 3.00469 4.2 3 4.00781 3C3.68438 3 3.65625 3.00938 3.63281 3.10313Z" fill="#3538CD"/>
<path d="M19.2984 4.36875C19.1016 5.12344 18.9281 5.79844 18.9094 5.86875L18.8813 6H17.4328H15.9844V6.31875V6.6375L17.0297 7.21875C17.6016 7.53282 18.0938 7.81407 18.1219 7.8375C18.1594 7.86563 18.0516 8.25938 17.7609 9.17344C17.5313 9.88594 17.3438 10.5047 17.3438 10.5422C17.3438 10.5844 17.4563 10.6969 17.5875 10.7906L17.8266 10.9641L17.9953 10.8328C18.0891 10.7625 18.5531 10.4016 19.0313 10.0313C19.5094 9.66563 19.9219 9.34219 19.9547 9.31875C19.9922 9.29063 20.3484 9.53907 21.0703 10.0969C21.6562 10.5516 22.1531 10.9219 22.1766 10.9219C22.2656 10.9219 22.6875 10.6125 22.6875 10.5469C22.6875 10.5094 22.4953 9.9 22.2609 9.19219C21.9141 8.15625 21.8438 7.90313 21.8953 7.87032C21.9328 7.84688 22.4203 7.56094 22.9828 7.2375L24 6.64219V6.32344V6H22.5703H21.1406L21.1125 5.86875C21.0938 5.79844 20.9156 5.12813 20.7234 4.38282L20.3672 3.02344L20.0109 3.00938L19.6547 2.99532L19.2984 4.36875Z" fill="#3538CD"/>
<path d="M11.1281 9.06563C9.6047 9.4125 8.39533 10.6359 8.05783 12.1641C7.96877 12.5719 7.98283 13.5469 8.08127 13.9219C8.27814 14.6672 8.58283 15.2297 9.09377 15.7641C10.6219 17.3766 13.1485 17.4469 14.7516 15.9188C15.3235 15.3797 15.7313 14.6766 15.9188 13.9219C16.0219 13.5 16.036 12.5906 15.9422 12.1641C15.6281 10.7297 14.5828 9.59531 13.1485 9.14063C12.7313 9.00469 11.5781 8.9625 11.1281 9.06563Z" fill="#3538CD"/>
<path d="M8.17969 18.0891C7.40156 18.3141 6.70312 18.8766 6.34219 19.5703C6.00938 20.2125 6 20.2969 6 22.2609V24H12H18V22.2609C18 20.2969 17.9906 20.2125 17.6578 19.5703C17.3953 19.0641 16.9359 18.6047 16.4297 18.3422C15.7406 17.9859 15.9047 18 11.9719 18.0047C8.78906 18.0047 8.43281 18.0141 8.17969 18.0891Z" fill="#3538CD"/>
</g>
<defs>
<clipPath id="clip0_5790_5758">
<rect width="24" height="24" fill="white"/>
</clipPath>
</defs>
</svg>
