<svg width="22" height="24" viewBox="0 0 22 24" fill="none" xmlns="http://www.w3.org/2000/svg">
<path d="M7.54751 0.0796871C7.15376 0.285936 6.93345 0.665625 6.97095 1.07344C7.03658 1.75781 8.06314 3.24844 9.38501 4.57969L9.85845 5.05312L9.40376 5.15625C6.28189 5.87812 3.31939 8.49844 1.48189 12.1734C0.774075 13.5891 0.328762 14.9531 0.0897 16.4297C-0.0181125 17.0812 -0.032175 18.6141 0.0662625 19.1016C0.305325 20.3156 0.863137 21.3703 1.73501 22.2422C2.62095 23.1328 3.63345 23.6719 4.86158 23.9109C5.3022 23.9953 5.61158 24 10.9928 24C16.3741 24 16.6835 23.9953 17.1241 23.9109C19.5053 23.4469 21.3147 21.6937 21.8819 19.2891C22.0178 18.7172 22.0272 17.2078 21.896 16.4297C21.6475 14.8875 21.2022 13.5562 20.4288 12.0375C20.0116 11.2125 19.2288 9.98437 18.7131 9.35156C16.9085 7.12031 14.8413 5.69062 12.6756 5.17969L12.1272 5.05312L12.6006 4.575C13.9225 3.23906 14.9491 1.75781 15.0147 1.07812C15.0522 0.670311 14.8366 0.285936 14.4569 0.0890617C14.2835 0.00468636 14.1522 0 10.9834 0C8.0772 0.00468636 7.66939 0.014061 7.54751 0.0796871ZM11.4897 8.17969C11.6163 8.25469 11.7428 8.38594 11.8225 8.52187C11.9444 8.72812 11.9538 8.77969 11.9678 9.37969L11.9866 10.0172L12.4131 10.0406C13.1678 10.0828 13.81 10.3734 14.3631 10.9219C14.9538 11.5078 15.0991 12.0094 14.8225 12.4781C14.6678 12.7406 14.3631 12.9375 14.0631 12.975C13.8006 13.0031 13.3881 12.8156 13.2381 12.5953C13.0647 12.3422 12.9006 12.1828 12.7178 12.0891C12.5585 12.0094 12.4272 12 11.1335 12C9.58658 12 9.5397 12.0047 9.27251 12.2812C8.8647 12.6984 8.88345 13.3359 9.31939 13.6547C9.41314 13.7297 9.84908 13.8187 11.1991 14.0437C12.4178 14.25 13.0413 14.3766 13.2428 14.4562C13.8616 14.7094 14.3913 15.2062 14.6913 15.8203C14.8366 16.1203 14.9772 16.7016 14.9772 17.0156C14.9772 17.3625 14.8319 17.925 14.6397 18.3234C14.2225 19.1953 13.2616 19.8609 12.3006 19.95L11.9866 19.9828L11.9678 20.625C11.9538 21.2437 11.9491 21.2719 11.8131 21.4922C11.6163 21.8109 11.2553 22.0031 10.9272 21.9656C10.6084 21.9281 10.3178 21.7453 10.1631 21.4781C10.0413 21.2719 10.0319 21.2203 10.0178 20.6203L9.99907 19.9828L9.57251 19.9547C8.79908 19.9125 8.16626 19.6266 7.61783 19.0734C7.2147 18.6656 7.03658 18.3375 7.03189 18C7.03189 17.2641 7.83345 16.7953 8.46626 17.1656C8.58345 17.2359 8.71939 17.3531 8.76626 17.4234C8.9022 17.6437 9.08501 17.8172 9.27251 17.9109C9.43657 18 9.5397 18.0047 10.9178 17.9906L12.385 17.9766L12.5772 17.8406C13.1678 17.4328 13.135 16.5 12.521 16.2703C12.4506 16.2422 11.635 16.0922 10.7116 15.9375C8.87407 15.6328 8.66314 15.5766 8.1522 15.2109C7.60845 14.8219 7.21939 14.2125 7.08345 13.5375C6.9897 13.0828 6.9897 12.8859 7.08345 12.4312C7.30845 11.3109 8.17095 10.4109 9.28658 10.125C9.48814 10.0734 9.7272 10.0312 9.82564 10.0312H9.99907L10.0178 9.38437C10.0319 8.78437 10.0413 8.72812 10.1585 8.52187C10.4444 8.04375 11.0069 7.89844 11.4897 8.17969Z" fill="#0E9384"/>
</svg>
