<svg width="65" height="64" viewBox="0 0 65 64" fill="none" xmlns="http://www.w3.org/2000/svg">
<path d="M27.5 2.88675C30.594 1.10042 34.406 1.10042 37.5 2.88675L55.2128 13.1132C58.3068 14.8996 60.2128 18.2008 60.2128 21.7735V42.2265C60.2128 45.7992 58.3068 49.1004 55.2128 50.8867L37.5 61.1133C34.406 62.8996 30.594 62.8996 27.5 61.1133L9.78719 50.8867C6.69318 49.1004 4.78719 45.7992 4.78719 42.2265V21.7735C4.78719 18.2008 6.69318 14.8996 9.78719 13.1132L27.5 2.88675Z" fill="#98AA30"/>
<path d="M40.675 22.1508L33.8 19.5758C33.0875 19.3133 31.925 19.3133 31.2125 19.5758L24.3375 22.1508C23.0125 22.6508 21.9375 24.2008 21.9375 25.6133V35.7383C21.9375 36.7508 22.6 38.0883 23.4125 38.6883L30.2875 43.8258C31.5 44.7383 33.4875 44.7383 34.7 43.8258L41.575 38.6883C42.3875 38.0758 43.05 36.7508 43.05 35.7383V25.6133C43.0625 24.2008 41.9875 22.6508 40.675 22.1508ZM36.85 29.1508L31.475 34.5258C31.2875 34.7133 31.05 34.8008 30.8125 34.8008C30.575 34.8008 30.3375 34.7133 30.15 34.5258L28.15 32.5008C27.7875 32.1383 27.7875 31.5383 28.15 31.1758C28.5125 30.8133 29.1125 30.8133 29.475 31.1758L30.825 32.5258L35.5375 27.8133C35.9 27.4508 36.5 27.4508 36.8625 27.8133C37.225 28.1758 37.225 28.7883 36.85 29.1508Z" fill="white"/>
</svg>
