<svg width="24" height="24" viewBox="0 0 24 24" fill="none" xmlns="http://www.w3.org/2000/svg">
<path d="M24.0053 12.0004C24.0053 18.0612 19.514 23.0717 13.6795 23.8848C13.1339 23.9605 12.5758 24 12.0092 24C11.3552 24 10.713 23.9479 10.0876 23.847C4.37584 22.9271 0.0131836 17.9729 0.0131836 12.0004C0.0131836 5.37295 5.38454 0 12.0101 0C18.6356 0 24.007 5.37295 24.007 12.0004H24.0053Z" fill="#1C1C1B"/>
<path d="M4.87871 5.28906L10.4115 12.6884L4.84424 18.7046H6.09756L10.9721 13.4376L14.9103 18.7046H19.1746L13.3308 10.889L18.5131 5.28906H17.2597L12.771 10.1398L9.14385 5.28906H4.87954H4.87871ZM6.72127 6.2123H8.67985L17.3304 17.7814H15.3718L6.72127 6.2123Z" fill="white"/>
</svg>
