<svg width="42" height="14" viewBox="0 0 42 14" fill="none" xmlns="http://www.w3.org/2000/svg">
<path fill-rule="evenodd" clip-rule="evenodd" d="M10.675 13.4898H7.10079L4.42053 3.26451C4.29332 2.79414 4.0232 2.37831 3.62587 2.18233C2.63428 1.68981 1.54161 1.29784 0.349609 1.10015V0.706473H6.10746C6.90212 0.706473 7.49812 1.29784 7.59745 1.98464L8.98812 9.36051L12.5606 0.706473H16.0356L10.675 13.4898ZM18.0225 13.4898H14.6469L17.4265 0.706473H20.8021L18.0225 13.4898ZM25.1693 4.24636C25.2687 3.55785 25.8647 3.16418 26.56 3.16418C27.6527 3.06533 28.8429 3.26302 29.8362 3.75384L30.4322 1.00152C29.4389 0.607846 28.3462 0.410156 27.3547 0.410156C24.0784 0.410156 21.6944 2.18084 21.6944 4.63833C21.6944 6.50786 23.3831 7.48949 24.5751 8.08086C25.8647 8.67052 26.3613 9.06419 26.262 9.65385C26.262 10.5383 25.2687 10.932 24.2771 10.932C23.0851 10.932 21.8931 10.6372 20.8021 10.1447L20.2061 12.8987C21.3981 13.3895 22.6877 13.5872 23.8797 13.5872C27.5533 13.6843 29.8362 11.9154 29.8362 9.26018C29.8362 5.9165 25.1693 5.72051 25.1693 4.24636ZM41.6499 13.4898L38.9696 0.706473H36.0907C35.4947 0.706473 34.8987 1.10015 34.7 1.68981L29.7368 13.4898H33.2118L33.9054 11.622H38.1749L38.5723 13.4898H41.6499ZM36.5869 4.14704L37.5785 8.96488H34.7989L36.5869 4.14704Z" fill="#172B85"/>
</svg>
