<svg width="24" height="24" viewBox="0 0 24 24" fill="none" xmlns="http://www.w3.org/2000/svg">
<path d="M12.0306 0H11.976C5.36561 0 0.00683594 5.36035 0.00683594 11.9727V12.0273C0.00683594 18.6397 5.36561 24 11.976 24H12.0306C18.641 24 23.9998 18.6397 23.9998 12.0273V11.9727C23.9998 5.36035 18.641 0 12.0306 0Z" fill="#00E510"/>
<path d="M14.3412 15.5066C11.2706 15.5066 8.77232 13.0068 8.77148 9.9352C8.77232 9.15659 9.40613 8.52344 10.1828 8.52344C10.2627 8.52344 10.3417 8.53016 10.4174 8.54362C10.5838 8.57137 10.7418 8.6277 10.8873 8.71263C10.9083 8.72524 10.9226 8.74542 10.9259 8.76896L11.2504 10.8147C11.2546 10.8391 11.247 10.8626 11.231 10.8803C11.052 11.0787 10.8234 11.2217 10.5687 11.2932L10.4459 11.3276L10.4922 11.4462C10.9108 12.5124 11.7631 13.3641 12.8299 13.7846L12.9484 13.8316L12.9828 13.7089C13.0543 13.4541 13.1972 13.2254 13.3956 13.0463C13.4099 13.0328 13.4292 13.0261 13.4485 13.0261C13.4527 13.0261 13.4569 13.0261 13.462 13.027L15.5071 13.3515C15.5315 13.3557 15.5517 13.3692 15.5643 13.3902C15.6483 13.5357 15.7047 13.6946 15.7332 13.8611C15.7467 13.9351 15.7526 14.0133 15.7526 14.0948C15.7526 14.8726 15.1196 15.5057 14.3412 15.5066Z" fill="#FDFDFD"/>
<path d="M19.7867 11.324C19.6211 9.45225 18.7637 7.71592 17.3725 6.43533C15.9729 5.14717 14.1572 4.4375 12.2583 4.4375C8.09071 4.4375 4.69978 7.82943 4.69978 11.9983C4.69978 13.3975 5.0856 14.7605 5.81607 15.9477L4.18701 19.5549L9.40287 18.9991C10.3099 19.3708 11.2698 19.5591 12.2575 19.5591C12.5173 19.5591 12.7837 19.5457 13.051 19.5179C13.2864 19.4927 13.5243 19.4557 13.758 19.4086C17.2481 18.7031 19.7959 15.6047 19.8161 12.0387V11.9983C19.8161 11.7713 19.806 11.5443 19.7858 11.324H19.7867ZM9.60377 17.4158L6.71803 17.7236L7.57964 15.814L7.40731 15.5828C7.3947 15.566 7.3821 15.5492 7.36781 15.5298C6.61968 14.4964 6.2246 13.2755 6.2246 11.9991C6.2246 8.67111 8.9313 5.96362 12.2583 5.96362C15.3753 5.96362 18.0172 8.39616 18.2719 11.5014C18.2854 11.6679 18.2929 11.8352 18.2929 12C18.2929 12.0471 18.2921 12.0933 18.2913 12.1429C18.2274 14.9269 16.2831 17.2914 13.5629 17.8934C13.3553 17.9397 13.1426 17.975 12.9308 17.9977C12.7106 18.0229 12.4845 18.0355 12.26 18.0355C11.4606 18.0355 10.6839 17.8808 9.9501 17.5747C9.86856 17.5419 9.7887 17.5066 9.71388 17.4705L9.60461 17.4175L9.60377 17.4158Z" fill="#FDFDFD"/>
</svg>
