<svg width="32" height="32" viewBox="0 0 32 32" fill="none" xmlns="http://www.w3.org/2000/svg">
<g clip-path="url(#clip0_5790_5716)">
<path d="M8.03751 0.100012C5.20626 0.662512 3.05001 2.97501 2.68751 5.82501C2.65001 6.16251 2.62501 9.75001 2.62501 16.0313C2.62501 26.5438 2.61876 26.375 2.96876 27.4063C3.75626 29.75 5.68126 31.45 8.06251 31.9C8.82501 32.05 23.1625 32.05 23.9188 31.9063C26.3313 31.45 28.3375 29.6625 29.0563 27.3438C29.375 26.3125 29.375 26.4313 29.375 16C29.375 5.57501 29.375 5.68751 29.0563 4.65626C28.45 2.67501 26.8188 1.00626 24.85 0.337511C23.8438 -0.00623703 24.0375 1.14441e-05 15.9438 0.00625992C9.89376 0.0125122 8.38751 0.0250111 8.03751 0.100012ZM16.3063 5.78751C16.6938 6.28126 17.025 7.93126 17.1875 10.1875C17.2188 10.6875 17.2625 11.3 17.2813 11.5438L17.3188 12H16.0313H14.75L14.7813 11.5125C14.8 11.25 14.8438 10.625 14.8813 10.125C15.0813 7.33126 15.5188 5.62501 16.0313 5.62501C16.1125 5.62501 16.2313 5.69376 16.3063 5.78751ZM12.2313 6.85001C12.3125 6.90001 12.4188 7.01251 12.4813 7.10626C12.5813 7.25626 12.5813 7.30626 12.45 8.08751C12.2625 9.20626 12.1313 10.3125 12.0875 11.2313L12.0438 12H10.1125H8.17501L8.21876 11.7938C8.61876 9.95626 9.65001 8.27501 11.0938 7.12501C11.6688 6.66876 11.875 6.61876 12.2313 6.85001ZM20.7125 6.92501C21.15 7.22501 21.9938 8.06876 22.4125 8.61876C23.0625 9.48126 23.6 10.6813 23.8438 11.7938L23.8875 12H21.95H20.0188L19.975 11.225C19.9313 10.3375 19.8125 9.32501 19.6125 8.11251L19.475 7.25001L19.6 7.08126C19.7688 6.85001 20.1125 6.67501 20.3125 6.71876C20.4 6.74376 20.5813 6.83126 20.7125 6.92501ZM12.0625 15.0563C12.0625 15.6313 12.2375 17.25 12.4125 18.3C12.5 18.8313 12.55 19.3375 12.5313 19.4375C12.475 19.6938 12.2375 19.8875 11.925 19.9188C11.6 19.9563 11.3375 19.8 10.6125 19.125C9.41876 18.025 8.60626 16.575 8.22501 14.8563L8.18751 14.6875H10.125H12.0625V15.0563ZM17.2813 15.1375C17.2688 15.3875 17.2188 15.9875 17.1875 16.4688C16.9313 19.9125 16.2813 21.7813 15.6938 20.7813C15.325 20.1563 14.9688 18.1813 14.8438 16.0938C14.825 15.75 14.7938 15.2938 14.775 15.075L14.7375 14.6875H16.0313H17.3188L17.2813 15.1375ZM23.8375 14.8563C23.4563 16.575 22.6438 18.025 21.45 19.125C20.725 19.8 20.4625 19.9563 20.1375 19.9188C19.825 19.8875 19.5875 19.6938 19.5313 19.4375C19.5125 19.3375 19.5625 18.8313 19.65 18.3C19.825 17.25 20 15.6313 20 15.0563V14.6875H21.9375H23.875L23.8375 14.8563ZM21.9063 24.1938C22.6688 24.5813 22.8563 25.5313 22.2938 26.1688C21.8688 26.65 22.2625 26.625 16.0125 26.625C9.91251 26.625 10.1938 26.6438 9.78751 26.2625C9.22501 25.7375 9.25626 24.7875 9.85626 24.3313C10.2875 24.0063 10.2375 24.0063 16.125 24.0188L21.6 24.0313L21.9063 24.1938Z" fill="white"/>
</g>
<defs>
<clipPath id="clip0_5790_5716">
<rect width="32" height="32" fill="white"/>
</clipPath>
</defs>
</svg>
