<svg width="32" height="32" viewBox="0 0 32 32" fill="none" xmlns="http://www.w3.org/2000/svg">
<path d="M7.875 0.086792C5.20625 0.568042 2.925 2.41179 1.8875 4.93054C1.675 5.43679 1.40625 6.36804 1.40625 6.58054C1.40625 6.67429 2.21875 6.68054 10.175 6.68054H18.9438L19.2625 6.52429C19.7313 6.28679 19.9312 5.96804 19.9563 5.39929C19.9937 4.76179 19.775 4.36179 19.2375 4.09304C19.0688 4.01179 18.8 3.99304 17.6438 3.99304L16.25 3.98679L15.9875 3.56804C14.8938 1.81179 12.8313 0.461792 10.6813 0.086792C10.025 -0.0257082 8.49375 -0.0319581 7.875 0.086792Z" fill="white"/>
<path d="M24.6875 0.093029C24.425 0.23678 24.225 0.430529 24.1062 0.649279C24.0125 0.818029 24 1.39303 23.9687 6.58678L23.9375 12.3368L23.7937 12.6243C23.675 12.868 23.1687 13.318 20.3875 15.6305C18.5937 17.1243 17.0437 18.3993 16.9375 18.468C16.7625 18.5805 16.55 18.5868 12.4687 18.6243C7.6875 18.6618 7.70625 18.6618 6.3375 19.118C4.875 19.6055 3.8125 20.268 2.6875 21.393C1.325 22.7555 0.53125 24.218 0.11875 26.118C0.01875 26.5618 0 26.9243 0 28.368V30.0868L0.18125 30.4618C0.39375 30.8993 0.86875 31.4243 1.24375 31.6368C1.89375 32.018 1.44375 31.9993 9.4125 31.9805L16.6937 31.9618L17.1687 31.7243C17.8937 31.368 18.325 30.843 18.5625 30.0305C18.6562 29.7118 18.6687 29.4555 18.6375 28.1555C18.6 26.518 18.5437 26.118 18.15 24.9368L17.9562 24.3555L18.3562 23.9368C18.8187 23.4618 24.8375 17.1368 25.5 16.4305C26.0125 15.8805 26.3562 15.2618 26.5312 14.5805C26.65 14.1305 26.6562 13.8743 26.6562 10.5618V7.02428L29.0625 5.75553C30.75 4.86178 31.5187 4.42428 31.65 4.27428C31.9 3.98678 31.9875 3.68053 31.9562 3.18053C31.9375 2.82428 31.9 2.69928 31.7437 2.48053C31.5687 2.22428 31.4625 2.16803 29.5937 1.32428C27.0187 0.161779 26.6687 0.0492802 25.6562 0.0117798C25.0125 -0.00697136 24.8437 0.0055294 24.6875 0.093029Z" fill="white"/>
<path d="M1.40625 9.40549C1.40625 9.61799 1.675 10.5492 1.8875 11.0555C2.7625 13.1742 4.53125 14.8492 6.68125 15.5867C8.23125 16.118 10.1562 16.1367 11.725 15.643C14.3438 14.818 16.3688 12.6805 17.0625 10.0117C17.15 9.68674 17.2188 9.39299 17.2188 9.36174C17.2188 9.33049 13.8938 9.30549 9.3125 9.30549C2.14375 9.30549 1.40625 9.31174 1.40625 9.40549Z" fill="white"/>
</svg>
