<svg width="32" height="32" viewBox="0 0 32 32" fill="none" xmlns="http://www.w3.org/2000/svg">
<g clip-path="url(#clip0_5790_5689)">
<path d="M7.125 0.106226C6.00625 0.299974 4.65625 0.856226 3.69375 1.52498C3.05625 1.96248 2.2 2.78748 1.7125 3.43123C0.94375 4.45623 0.3125 5.92498 0.1 7.18123C0.01875 7.66873 0 8.36248 0 11.1937C0 15.05 0 15.0312 0.4875 15.7875C1.0125 16.5937 1.85625 17.1625 2.75625 17.3125C3.04375 17.3625 4.18125 17.375 6.475 17.3562C9.6 17.3312 9.8125 17.325 10.4 17.1937C11.8875 16.8625 13.05 16.3062 14.2063 15.375C15.7188 14.1562 16.8375 12.2625 17.225 10.25C17.3938 9.37498 17.3813 7.80623 17.2 6.95623C16.4312 3.35623 13.6625 0.674974 10.0938 0.0937252C9.375 -0.0250244 7.83125 -0.018774 7.125 0.106226ZM9.41875 2.78748C11.6375 3.24373 13.05 5.44373 12.5 7.58748C12.3125 8.31873 11.9875 8.89373 11.4375 9.44373C11.1813 9.69998 10.8125 9.99998 10.625 10.1125C10.4375 10.2187 10.0437 10.5 9.7625 10.7437C9.14375 11.2625 8.88125 11.3625 8.4 11.2562C7.6 11.075 7.15625 10.2062 7.49375 9.46248C7.6375 9.14373 8.3 8.54373 9.09375 8.00623C9.875 7.48123 10.0188 7.25623 9.9875 6.58748C9.96875 6.21873 9.9375 6.09998 9.7875 5.88748C9.44375 5.39373 8.7 5.17498 8.1375 5.41248C7.675 5.60623 7.31875 6.09998 7.3125 6.56248C7.3125 6.98123 7.1875 7.26873 6.875 7.56873C6.33125 8.09998 5.66875 8.09998 5.125 7.56873C4.7625 7.21873 4.65625 6.89998 4.7125 6.33123C4.91875 4.29998 6.6 2.74373 8.64375 2.69373C8.80625 2.69373 9.15625 2.73123 9.41875 2.78748ZM9.28125 12.2C10.1062 12.6375 10.1687 13.85 9.3875 14.4C8.56875 14.9812 7.38125 14.3437 7.375 13.3187C7.36875 12.375 8.43125 11.7562 9.28125 12.2Z" fill="white"/>
<path d="M19.5 5.38128C19.5 5.41878 19.5563 5.66878 19.625 5.94378C19.8438 6.78753 19.9375 7.61253 19.9375 8.63753C19.9375 9.51253 19.8688 10.3688 19.7688 10.7188C19.75 10.7875 20.9563 9.62503 22.45 8.13753C23.9437 6.65628 25.2 5.43753 25.2375 5.43753C25.2812 5.43753 25.3125 5.40628 25.3125 5.37503C25.3125 5.33128 24.3 5.31253 22.4062 5.31253C20.3625 5.31253 19.5 5.33128 19.5 5.38128Z" fill="white"/>
<path d="M28.4377 6.66248C28.0752 6.73748 27.6314 6.90623 27.3127 7.09998C26.8564 7.37498 18.6189 15.625 18.2877 16.1375C17.9502 16.6625 17.6439 17.3375 17.4939 17.9062C17.3814 18.3125 17.3502 18.6375 17.3252 19.6437C17.2939 21.0125 17.3127 21.0875 17.7002 21.2875C17.9939 21.4375 19.9377 21.375 20.6814 21.1937C21.3252 21.0312 22.1314 20.6562 22.6439 20.2875C23.1877 19.8937 31.3189 11.7312 31.5252 11.3687C32.5439 9.58123 31.8377 7.51248 29.9689 6.81873C29.6064 6.68123 28.7752 6.59998 28.4377 6.66248Z" fill="white"/>
<path d="M28.2812 18.4312C25.0125 21.6875 24.525 22.15 23.9625 22.5188C22.8688 23.2437 21.6875 23.7 20.4688 23.8812C20.1625 23.925 19.375 23.9625 18.7188 23.9625C17.7438 23.9625 17.4625 23.9437 17.1562 23.85C15.95 23.4875 15.0312 22.5062 14.7812 21.3313C14.6813 20.8687 14.6625 19.2437 14.7438 18.5938C14.775 18.3875 14.7875 18.2063 14.775 18.2C14.7688 18.1875 14.5563 18.2937 14.3125 18.4375C12.6688 19.4 10.7188 19.9312 8.83125 19.9437L8 19.95V21.05C8 21.8875 8.03125 22.2937 8.11875 22.725C8.64375 25.275 10.725 27.3562 13.275 27.8812C13.8 27.9875 14.175 28 18.0188 28H22.1875L24.9188 29.825C26.425 30.825 27.8125 31.7188 28 31.8062C28.3125 31.9562 28.4125 31.9688 29.1313 31.9688C29.9125 31.9688 29.9125 31.9688 30.3938 31.7313C31.0188 31.425 31.425 31.0188 31.7313 30.3937L31.9688 29.9125L31.9875 24.1C31.9937 20.9 31.9937 17.4875 31.9875 16.5188L31.9688 14.7563L28.2812 18.4312Z" fill="white"/>
</g>
<defs>
<clipPath id="clip0_5790_5689">
<rect width="32" height="32" fill="white"/>
</clipPath>
</defs>
</svg>
