<svg width="32" height="32" viewBox="0 0 32 32" fill="none" xmlns="http://www.w3.org/2000/svg">
<g clip-path="url(#clip0_5790_5728)">
<path d="M12.4625 0.1125C11.7688 0.35625 11.25 0.8125 10.9188 1.46875C10.6938 1.91875 10.625 2.34375 10.625 3.21875V4H16H21.375V3.21875C21.375 2.79375 21.3438 2.29375 21.3063 2.1125C21.1313 1.30625 20.5938 0.6125 19.8438 0.24375L19.4062 0.03125L16.0938 0.01875C13.0563 0.0062499 12.7563 0.0125 12.4625 0.1125Z" fill="white"/>
<path d="M8.675 6.68755C7.09375 6.96255 5.83125 8.1188 5.4375 9.66255C5.325 10.0938 5.3125 10.3563 5.3125 12.1V14.05L10.6562 12.2688L16 10.4875L21.3438 12.2688L26.6875 14.05V12.1C26.6875 10.3563 26.675 10.0938 26.5625 9.66255C26.225 8.33755 25.2313 7.27505 23.9188 6.8313L23.4062 6.6563L16.1875 6.65005C12.2188 6.6438 8.8375 6.66255 8.675 6.68755Z" fill="white"/>
<path d="M8.59375 15.6813L2.65625 17.6688L2.63125 17.85C2.59375 18.1813 2.75625 19.7688 2.9125 20.5751C3.44375 23.3376 4.7375 25.8751 6.61875 27.8876L7.13125 28.4313L6.75 28.7126C6.06875 29.2126 5.3375 29.3938 4.525 29.2563C3.74375 29.1188 3.00625 28.6813 2.7875 28.2188L2.68125 28.0001H1.34375H0V28.2751C0 28.4251 0.05625 28.7251 0.125 28.9438C0.5625 30.3688 2.03125 31.5563 3.80625 31.9126C4.6125 32.0751 5.975 32.0126 6.6875 31.7813C7.2875 31.5876 7.96875 31.2563 8.3625 30.9501C8.50625 30.8438 8.64375 30.7501 8.6625 30.7501C8.6875 30.7501 8.8375 30.8501 9 30.9688C9.38125 31.2501 10.225 31.6501 10.7812 31.8188C11.325 31.9813 12.7188 32.0501 13.325 31.9438C14.1313 31.8063 15.075 31.4126 15.7063 30.9626L16.0063 30.7438L16.3 30.9626C16.9125 31.4126 17.85 31.8001 18.65 31.9438C19.2812 32.0501 20.6625 31.9876 21.2188 31.8188C21.775 31.6501 22.6187 31.2501 23 30.9688C23.1625 30.8501 23.3125 30.7501 23.3375 30.7501C23.3563 30.7501 23.5063 30.8501 23.6688 30.9751C24.0625 31.2751 24.6688 31.5751 25.3125 31.7813C26.0188 32.0126 27.3813 32.0751 28.1938 31.9126C29.9688 31.5563 31.4375 30.3688 31.875 28.9438C31.9438 28.7251 32 28.4251 32 28.2751V28.0001H30.6625H29.325L29.25 28.1876C29.0625 28.6376 28.2625 29.1188 27.4813 29.2501C26.6562 29.3938 25.9312 29.2188 25.2437 28.7126L24.8625 28.4313L25.2938 27.9813C26.9375 26.2751 28.275 23.8751 28.8687 21.5438C28.9688 21.1626 29.0938 20.5751 29.15 20.2501C29.2938 19.4251 29.4188 17.7626 29.3438 17.6938C29.2812 17.6438 17.4563 13.6875 17.3563 13.6875C17.3313 13.6875 17.3125 16.9063 17.3125 20.8438V28.0001H16H14.6875V20.8438C14.6875 15.1563 14.6687 13.6875 14.6125 13.6938C14.5688 13.6938 11.8625 14.5875 8.59375 15.6813Z" fill="white"/>
</g>
<defs>
<clipPath id="clip0_5790_5728">
<rect width="32" height="32" fill="white"/>
</clipPath>
</defs>
</svg>
