<svg width="21" height="21" viewBox="0 0 21 21" fill="none" xmlns="http://www.w3.org/2000/svg">
<g clip-path="url(#clip0_83_13791)">
<path d="M10.8882 20.9849C16.411 20.9849 20.8882 16.5077 20.8882 10.9849C20.8882 5.46202 16.411 0.984863 10.8882 0.984863C5.36534 0.984863 0.888184 5.46202 0.888184 10.9849C0.888184 16.5077 5.36534 20.9849 10.8882 20.9849Z" fill="#F0F0F0"/>
<path d="M3.81711 18.056C-0.088125 14.1507 -0.088125 7.81909 3.81711 3.91382C3.81684 3.91425 9.58387 10.9849 9.58387 10.9849L3.81711 18.056Z" fill="black"/>
<path d="M9.58379 10.9848L2.21441 6.00488C1.98594 6.40203 1.78445 6.81656 1.61133 7.24563L5.34215 10.9849L1.61145 14.7243C1.78441 15.1531 1.9857 15.5673 2.21402 15.9642L9.58379 10.9848Z" fill="#FFDA44"/>
<path d="M20.8033 9.68042H9.58336L3.8168 3.91382C3.19539 4.53522 2.65551 5.238 2.21426 6.00483L7.18453 10.9848L2.21387 15.9641C2.65512 16.7311 3.19523 17.4341 3.8168 18.0557L9.58336 12.2891H20.8033C20.8589 11.8621 20.888 11.4268 20.888 10.9848C20.888 10.5427 20.8589 10.1074 20.8033 9.68042Z" fill="#6DA544"/>
<path d="M4.7998 18.9175C6.48609 20.2137 8.59691 20.9848 10.8882 20.9848C15.5084 20.9848 19.3962 17.8512 20.5437 13.5935H10.1238L4.7998 18.9175Z" fill="#0052B4"/>
<path d="M20.5437 8.37615C19.3962 4.1185 15.5084 0.984863 10.8882 0.984863C8.59691 0.984863 6.48609 1.756 4.7998 3.05217L10.1238 8.37615H20.5437Z" fill="#D80027"/>
</g>
<defs>
<clipPath id="clip0_83_13791">
<rect width="20" height="20" fill="white" transform="translate(0.888184 0.984863)"/>
</clipPath>
</defs>
</svg>
