<svg width="21" height="21" viewBox="0 0 21 21" fill="none" xmlns="http://www.w3.org/2000/svg">
<g clip-path="url(#clip0_83_13817)">
<path d="M20.8882 10.9849C20.8882 16.5077 16.411 20.9849 10.8882 20.9849C5.36537 20.9849 0.888184 16.5077 0.888184 10.9849C0.888184 10.9872 10.8882 0.985996 10.8882 0.984863C16.411 0.984863 20.8882 5.46205 20.8882 10.9849Z" fill="#0052B4"/>
<path d="M10.8613 10.9848H10.8881C10.8881 10.9757 10.8881 10.967 10.8881 10.958C10.8792 10.967 10.8703 10.9759 10.8613 10.9848Z" fill="#F0F0F0"/>
<path d="M10.8882 6.20225C10.8882 4.44268 10.8882 3.28967 10.8882 0.984863H10.8865C5.36443 0.985762 0.888184 5.46252 0.888184 10.9848H6.10557V8.04685L9.04354 10.9848H10.8615C10.8704 10.9759 10.8793 10.967 10.8882 10.9581C10.8882 10.2844 10.8882 9.68322 10.8882 9.14025L7.95021 6.20225H10.8882Z" fill="#F0F0F0"/>
<path d="M5.94723 2.28931C4.3832 3.17989 3.08297 4.48013 2.19238 6.04415V10.985H4.80109V4.89806V4.89802H10.888C10.888 4.07524 10.888 3.29142 10.888 2.28931H5.94723Z" fill="#D80027"/>
<path d="M10.888 9.75522L7.3352 6.20241H6.10547C6.10547 6.20237 6.10547 6.20241 6.10547 6.20241L10.888 10.9849H10.888C10.888 10.9849 10.888 10.1371 10.888 9.75522Z" fill="#D80027"/>
<path d="M6.91926 12.7241L7.46809 13.8717L8.70742 13.5853L8.15242 14.7299L9.14906 15.5202L7.90816 15.7999L7.91164 17.0719L6.91926 16.2761L5.92691 17.0719L5.93039 15.7999L4.68945 15.5202L5.68613 14.7299L5.13105 13.5853L6.37047 13.8717L6.91926 12.7241Z" fill="#F0F0F0"/>
<path d="M15.86 14.8979L16.1344 15.4717L16.7541 15.3285L16.4766 15.9008L16.9749 16.296L16.3545 16.4358L16.3562 17.0719L15.86 16.6739L15.3638 17.0719L15.3655 16.4358L14.7451 16.296L15.2434 15.9008L14.9659 15.3285L15.5856 15.4717L15.86 14.8979Z" fill="#F0F0F0"/>
<path d="M13.3073 8.81104L13.5817 9.38486L14.2014 9.24158L13.9239 9.81389L14.4222 10.2091L13.8018 10.3489L13.8034 10.9849L13.3073 10.587L12.8111 10.9849L12.8128 10.3489L12.1924 10.2091L12.6907 9.81389L12.4132 9.24158L13.0329 9.38486L13.3073 8.81104Z" fill="#F0F0F0"/>
<path d="M15.86 5.33276L16.1344 5.90659L16.7541 5.76335L16.4766 6.33565L16.9749 6.73081L16.3545 6.87069L16.3562 7.50671L15.86 7.10878L15.3638 7.50671L15.3655 6.87069L14.7451 6.73081L15.2434 6.33565L14.9659 5.76335L15.5856 5.90659L15.86 5.33276Z" fill="#F0F0F0"/>
<path d="M18.09 7.94141L18.3644 8.51523L18.9841 8.37195L18.7066 8.94426L19.2049 9.33945L18.5844 9.47934L18.5862 10.1153L18.09 9.71742L17.5938 10.1153L17.5955 9.47934L16.9751 9.33945L17.4734 8.94426L17.1959 8.37195L17.8156 8.51523L18.09 7.94141Z" fill="#F0F0F0"/>
<path d="M16.4954 10.9849L16.7112 11.6492H17.4097L16.8446 12.0597L17.0605 12.724L16.4954 12.3135L15.9303 12.724L16.1461 12.0597L15.5811 11.6492H16.2795L16.4954 10.9849Z" fill="#F0F0F0"/>
</g>
<defs>
<clipPath id="clip0_83_13817">
<rect width="20" height="20" fill="white" transform="translate(0.888184 0.984863)"/>
</clipPath>
</defs>
</svg>
