<svg width="21" height="21" viewBox="0 0 21 21" fill="none" xmlns="http://www.w3.org/2000/svg">
<g clip-path="url(#clip0_75_1588)">
<path d="M10.8882 20.9849C16.411 20.9849 20.8882 16.5077 20.8882 10.9849C20.8882 5.46202 16.411 0.984863 10.8882 0.984863C5.36534 0.984863 0.888184 5.46202 0.888184 10.9849C0.888184 16.5077 5.36534 20.9849 10.8882 20.9849Z" fill="#6DA544"/>
<path d="M10.8883 4.89795L19.1492 10.9849L10.8883 17.0719L2.62744 10.9849L10.8883 4.89795Z" fill="#FFDA44"/>
<path d="M10.8884 14.4631C12.8094 14.4631 14.3666 12.9058 14.3666 10.9848C14.3666 9.06385 12.8094 7.50659 10.8884 7.50659C8.96742 7.50659 7.41016 9.06385 7.41016 10.9848C7.41016 12.9058 8.96742 14.4631 10.8884 14.4631Z" fill="#F0F0F0"/>
<path d="M9.14914 10.7673C8.5443 10.7673 7.96059 10.8593 7.41113 11.03C7.43547 12.93 8.9825 14.463 10.8883 14.463C12.0667 14.463 13.1075 13.8764 13.7367 12.9799C12.6602 11.6323 11.0039 10.7673 9.14914 10.7673Z" fill="#0052B4"/>
<path d="M14.302 11.6512C14.3438 11.4355 14.3665 11.2128 14.3665 10.9848C14.3665 9.06382 12.8092 7.50659 10.8882 7.50659C9.45486 7.50659 8.22439 8.37382 7.69189 9.61202C8.1626 9.51448 8.64994 9.46312 9.14912 9.46312C11.1693 9.46308 12.9969 10.3028 14.302 11.6512Z" fill="#0052B4"/>
</g>
<defs>
<clipPath id="clip0_75_1588">
<rect width="20" height="20" fill="white" transform="translate(0.888184 0.984863)"/>
</clipPath>
</defs>
</svg>
