<svg width="20" height="20" viewBox="0 0 20 20" fill="none" xmlns="http://www.w3.org/2000/svg">
<g clip-path="url(#clip0_688_59742)">
<path d="M10 20C15.5228 20 20 15.5228 20 10C20 4.47715 15.5228 0 10 0C4.47715 0 0 4.47715 0 10C0 15.5228 4.47715 20 10 20Z" fill="#F0F0F0"/>
<path d="M0.344727 12.6086C0.92332 14.7555 2.19852 16.6162 3.91328 17.9337V12.6086H0.344727Z" fill="#D80027"/>
<path d="M9.13086 19.9619C9.4175 19.9866 9.70738 19.9999 10.0004 19.9999C14.6207 19.9999 18.5084 16.8663 19.6559 12.6086H9.13086V19.9619Z" fill="#D80027"/>
<path d="M19.6559 7.39129C18.5084 3.13363 14.6207 0 10.0004 0C9.70738 0 9.4175 0.0133594 9.13086 0.0380469V7.39129H19.6559Z" fill="#D80027"/>
<path d="M3.91328 2.06616C2.19852 3.38374 0.92332 5.2444 0.344727 7.39124H3.91328V2.06616Z" fill="#D80027"/>
<path d="M19.9154 8.69576H7.82613H7.82609V0.237793C6.90195 0.442715 6.02582 0.774863 5.21738 1.216V8.69568V8.69572H0.0846484C0.0289844 9.12271 0 9.55803 0 10.0001C0 10.4422 0.0289844 10.8775 0.0846484 11.3044H5.21734H5.21738V18.7842C6.02582 19.2253 6.90195 19.5575 7.82609 19.7624V11.3046V11.3045H19.9154C19.9709 10.8775 20 10.4422 20 10.0001C20 9.55803 19.9709 9.12271 19.9154 8.69576Z" fill="#0052B4"/>
</g>
<defs>
<clipPath id="clip0_688_59742">
<rect width="20" height="20" fill="white"/>
</clipPath>
</defs>
</svg>
