<svg width="109" height="28" viewBox="0 0 109 28" fill="none" xmlns="http://www.w3.org/2000/svg">
<g clip-path="url(#clip0_75_1345)">
<path d="M35.2252 23.0924C33.1925 22.9763 30.6391 21.5998 29.6143 20.5715L31.8654 17.7355C32.4198 18.3491 35.074 19.8584 36.8883 19.5267C37.3754 19.4272 37.9298 19.0125 37.9298 18.3657C37.9634 17.9345 37.5938 17.5365 37.2746 17.3872C36.9722 17.1716 36.0147 17.1385 35.3932 17.1053C34.6876 17.0721 33.8813 16.9892 33.0245 16.6409C31.4454 15.878 30.3367 14.3025 30.2863 12.6274C30.2863 10.6538 31.0926 9.55921 31.9158 8.87924C33.5789 7.60221 35.8971 7.48612 37.493 7.90074C38.7529 8.19926 40.1472 8.87924 40.9704 9.65872L38.9041 12.5113C38.6017 12.2957 37.1402 11.6323 36.5859 11.4831C35.7291 11.2343 34.6372 11.367 34.15 11.6655C33.9988 11.7484 33.7805 12.0967 33.8477 12.5113C33.8477 12.8098 34.1332 13.241 34.3348 13.3571C34.7716 13.5727 35.1748 13.6888 35.7459 13.722C36.5523 13.722 37.8962 13.722 38.9209 14.203C40.6176 15.1151 41.6087 16.6741 41.4743 18.4652C41.3735 20.0242 40.2984 21.5334 38.8873 22.2632C37.8458 22.9431 36.4347 23.1919 35.2252 23.0924Z" fill="#2A3137"/>
<path d="M50.2097 22.9432C48.2106 22.9432 46.3291 22.1803 44.8844 20.8204C43.4061 19.4273 42.5662 17.5366 42.5494 15.4967C42.5158 13.4567 43.2885 11.5495 44.6996 10.0734C46.1107 8.64713 48.0258 7.78472 50.0921 7.76813C52.1583 7.73496 54.0734 8.49786 55.5517 9.89098L52.9983 12.5114C52.2591 11.8149 51.268 11.4168 50.2265 11.4168H50.1593C49.0841 11.4168 48.093 11.848 47.3539 12.6109C46.6147 13.3738 46.2115 14.3689 46.2451 15.4469C46.2451 16.5083 46.6819 17.4868 47.4546 18.2166C48.2274 18.9463 49.2353 19.3443 50.3273 19.3112C51.3184 19.3112 52.2423 18.9131 52.9815 18.2497L55.4845 20.9199C54.0902 22.1969 52.2759 22.9266 50.3944 22.9598H50.2097V22.9432Z" fill="#2A3137"/>
<path d="M70.9562 7.8178V22.9763H67.882V21.5997C66.6221 22.4456 65.1102 22.9763 63.4807 22.9763C59.2306 22.9763 55.77 19.5432 55.77 15.3639C55.77 11.1679 59.2138 7.75146 63.4807 7.75146C65.1102 7.75146 66.6221 8.2656 67.882 9.12801V7.8178H70.9562ZM67.462 15.3639C67.462 13.1747 65.6813 11.4167 63.4471 11.4167C61.2632 11.4167 59.4657 13.1747 59.4657 15.3639C59.4657 17.5199 61.2464 19.2945 63.4471 19.2945C65.6813 19.2945 67.462 17.5199 67.462 15.3639Z" fill="#2A3137"/>
<path d="M88.6623 15.6623C88.6623 19.8251 85.2353 23.2084 81.0524 23.2084C79.4733 23.2084 78.0286 22.7274 76.8359 21.9314V27.9848H73.1738V7.91724H76.8359V9.44304C78.0454 8.6138 79.4901 8.16602 81.0524 8.16602C85.2521 8.14943 88.6623 11.5327 88.6623 15.6623ZM85.0002 15.6623C85.0002 13.5063 83.2363 11.7649 81.0524 11.7649C78.8686 11.7649 77.0711 13.5063 77.0711 15.6623C77.0711 17.8183 78.8518 19.5929 81.0524 19.5929C83.2363 19.5929 85.0002 17.8349 85.0002 15.6623Z" fill="#2A3137"/>
<path d="M91.9887 6.10955C90.6112 6.10955 89.5024 5.01496 89.5024 3.60525V3.43941C89.5024 2.07945 90.6112 0.984863 91.9887 0.984863C93.3998 0.984863 94.5589 2.07945 94.5589 3.43941V3.60525C94.5589 4.99837 93.3998 6.10955 91.9887 6.10955ZM93.9038 22.8768H90.2752V7.76803H93.9038V22.8768Z" fill="#2A3137"/>
<path d="M103.177 22.9432C101.178 22.9432 99.296 22.1803 97.8513 20.8204C96.373 19.4273 95.533 17.5366 95.5162 15.4967C95.4826 13.4567 96.2554 11.5495 97.6665 10.0734C99.0776 8.64713 100.993 7.78472 103.059 7.76813C105.126 7.73496 107.041 8.49786 108.519 9.89098L105.966 12.5114C105.226 11.8149 104.235 11.4168 103.194 11.4168H103.127C102.051 11.4168 101.06 11.848 100.321 12.6109C99.5816 13.3738 99.1784 14.3689 99.212 15.4469C99.212 16.5083 99.6488 17.4868 100.421 18.2166C101.195 18.9463 102.203 19.3443 103.295 19.3112C104.286 19.3112 105.21 18.9131 105.949 18.2497L108.452 20.9199C107.057 22.1969 105.243 22.9266 103.362 22.9598H103.177V22.9432Z" fill="#2A3137"/>
<path d="M12.4965 21.0689C12.1941 21.1021 12.1101 20.6875 12.3957 20.6046C12.4125 20.6046 12.4125 20.6046 12.4293 20.588C18.3929 18.9295 22.7606 15.9277 22.1894 13.8877C21.6014 11.8478 16.293 11.5327 10.3294 13.1912C4.3658 14.8496 -0.00191331 17.8515 0.569249 19.8914C2.24914 25.779 8.44792 29.2286 14.4115 27.5702C19.2664 26.2268 22.475 21.9148 22.5926 17.1881C18.2753 20.8533 12.4965 21.0689 12.4965 21.0689Z" fill="#F54547"/>
<path d="M18.4094 6.02668C17.3678 2.36145 13.5041 0.222014 9.77472 1.25027C6.95251 2.04633 5.00384 4.45113 4.71826 7.18761C5.22222 6.85592 7.45648 5.52914 10.8499 5.31353C10.9339 5.31353 10.9843 5.29695 10.9843 5.29695C11.169 5.26378 11.2194 5.54572 11.0514 5.59548H11.0346C7.30529 6.62373 4.58387 8.49781 4.93664 9.77484C5.30622 11.0518 8.5988 11.2343 12.3282 10.206C16.0575 9.1612 18.7789 7.30371 18.4094 6.02668Z" fill="#F54547"/>
</g>
<defs>
<clipPath id="clip0_75_1345">
<rect width="108" height="27" fill="white" transform="translate(0.518555 0.984863)"/>
</clipPath>
</defs>
</svg>
