<svg width="91" height="30" viewBox="0 0 91 30" fill="none" xmlns="http://www.w3.org/2000/svg">
<g style="mix-blend-mode:luminosity" clip-path="url(#clip0_679_67424)">
<path d="M35.7536 8.61328C38.7536 8.61328 41.2858 9.58955 43.3502 11.5523C45.4146 13.5048 46.4417 15.976 46.4417 18.9455C46.4417 21.8946 45.3943 24.376 43.3095 26.3794C41.2451 28.3624 38.7332 29.359 35.7536 29.359C32.7841 29.359 30.262 28.3726 28.1976 26.3794C26.1332 24.3963 25.1061 21.915 25.1061 18.9455C25.1061 15.9658 26.1332 13.5048 28.1976 11.5523C30.2824 9.58955 32.8044 8.61328 35.7536 8.61328ZM35.7536 26.0641C37.6553 26.0641 39.262 25.4031 40.5637 24.0709C41.8959 22.7184 42.557 21.0099 42.557 18.9455C42.557 16.9116 41.8959 15.2235 40.5637 13.9014C39.262 12.559 37.6553 11.898 35.7536 11.898C33.8722 11.898 32.2654 12.559 30.9434 13.8912C29.6214 15.2235 28.94 16.9116 28.94 18.9455C28.94 20.9794 29.601 22.6777 30.9332 24.0302C32.2756 25.3828 33.8722 26.0641 35.7536 26.0641Z" fill="white"/>
<path d="M50.6217 28.1995V10.9826C50.6217 10.1182 51.0489 9.69103 51.9133 9.69103H53.0116C53.876 9.69103 54.3031 10.1182 54.3031 10.9826V13.2504L54.1811 14.7351H54.2624C54.7607 13.2504 55.5539 12.0097 56.6522 11.0131C57.7505 10.0266 58.9709 9.52832 60.3336 9.52832C61.1675 9.52832 61.5844 9.95544 61.5844 10.8198V11.9182C61.5844 12.7826 61.1166 13.2097 60.1709 13.2097C58.3404 13.2097 56.9268 14.0334 55.9099 15.6707C54.9133 17.2876 54.4251 19.169 54.4251 21.3046V28.1893C54.4251 29.0537 53.998 29.4809 53.1336 29.4809H51.9234C51.059 29.491 50.6217 29.0639 50.6217 28.1995Z" fill="white"/>
<path d="M67.1362 5.73493H65.804C64.9396 5.73493 64.5125 5.30781 64.5125 4.4434V3.15188C64.5125 2.28747 64.9396 1.86035 65.804 1.86035H67.1362C68.0006 1.86035 68.4277 2.28747 68.4277 3.15188V4.4434C68.4277 5.30781 68.0006 5.73493 67.1362 5.73493ZM64.5531 28.1993V10.9824C64.5531 10.118 64.9803 9.69086 65.8447 9.69086H67.0548C67.9192 9.69086 68.3464 10.118 68.3464 10.9824V28.1993C68.3464 29.0637 67.9192 29.4909 67.0548 29.4909H65.8447C64.9904 29.4909 64.5531 29.0637 64.5531 28.1993Z" fill="white"/>
<path d="M73.8678 28.1993V3.15188C73.8678 2.28747 74.2949 1.86035 75.1594 1.86035H76.3695C77.2034 1.86035 77.6204 2.28747 77.6204 3.15188V16.9315H80.478L85.2882 10.5146C85.6238 9.96544 86.1322 9.69086 86.8136 9.69086H88.2577C88.7763 9.69086 89.1221 9.8434 89.2746 10.1587C89.4272 10.4739 89.356 10.84 89.0407 11.257L83.5594 18.4163V18.4976L89.895 27.9248C90.1797 28.3722 90.2407 28.7383 90.0678 29.0434C89.895 29.3485 89.5492 29.4909 89.0306 29.4909H87.4644C86.8136 29.4909 86.3051 29.1959 85.939 28.5858L80.539 20.2061H77.6V28.1892C77.6 29.0536 77.1831 29.4807 76.3492 29.4807H75.139C74.3051 29.4909 73.8678 29.0637 73.8678 28.1993Z" fill="white"/>
<path d="M21.1703 16.1182H19.7669C19.1567 16.1182 18.6686 15.6199 18.6686 15.0199V2.92838C18.6686 2.31821 19.1669 1.83008 19.7669 1.83008H21.1703C21.7805 1.83008 22.2686 2.32838 22.2686 2.92838V15.0097C22.2686 15.6199 21.7805 16.1182 21.1703 16.1182Z" fill="white"/>
<path d="M11.509 29.3491C5.64123 29.3491 0.871735 24.6508 0.871735 18.8847C0.871735 13.1085 5.64123 8.41016 11.509 8.41016H12.2921C12.9022 8.41016 13.4006 8.90846 13.4006 9.51863V10.7491C13.4006 11.3593 12.9022 11.8576 12.2921 11.8576H11.509C7.54292 11.8576 4.30902 15.0102 4.30902 18.8949C4.30902 22.7796 7.54292 25.9322 11.509 25.9322C15.1497 25.9322 18.17 23.278 18.648 19.8508C18.7192 19.3119 19.1768 18.9051 19.726 18.9051H20.987C21.648 18.9051 22.1667 19.4847 22.0853 20.1356C21.465 25.3119 16.9599 29.3491 11.509 29.3491Z" fill="white"/>
</g>
<defs>
<clipPath id="clip0_679_67424">
<rect width="89.3899" height="30" fill="white" transform="translate(0.871735)"/>
</clipPath>
</defs>
</svg>
