<svg width="99" height="30" viewBox="0 0 99 30" fill="none" xmlns="http://www.w3.org/2000/svg">
<g style="mix-blend-mode:luminosity" clip-path="url(#clip0_679_67474)">
<path fill-rule="evenodd" clip-rule="evenodd" d="M47.1289 0.906946C46.4031 1.50693 45.9149 2.34588 45.7517 3.2733C45.4689 5.21195 46.8022 6.70742 48.7427 6.70742C50.7229 6.70742 52.3805 5.37413 52.6634 3.51469C52.9859 1.53455 51.6526 -0.000523666 49.7121 -0.000523666C48.7705 -0.0147585 47.8547 0.306971 47.1289 0.906946ZM30.356 17.1607C30.4029 16.2549 30.389 15.347 30.3145 14.4432H15.5069L12.9987 19.6009H24.0252C23.186 22.5787 20.0404 24.4645 16.2687 24.4645C10.564 24.4645 6.79236 20.6495 6.79236 15.2409C6.79236 9.95676 10.6508 6.10022 15.8067 6.10022C19.7066 6.10022 22.013 8.10864 23.1897 10.4603H29.6016C28.0496 4.50669 23.0615 0.480406 15.8067 0.480406C7.16952 0.480406 0.838745 6.76969 0.838745 15.2409C0.838745 23.7932 7.08654 29.9995 16.2687 29.9844C24.6985 29.9844 30.0202 23.9949 30.356 17.1607ZM35.89 0.942386L31.362 29.5374H37.1497L41.6757 0.942386H35.89ZM42.2176 29.5374L45.3199 9.83032H51.1056L48.0034 29.5374H42.2176ZM76.9301 0.942386H71.1442L69.381 11.9689C68.3344 10.4187 66.4485 9.37022 63.7235 9.37022C59.1107 9.37022 54.2075 12.4724 53.1986 18.8465C51.9822 26.5597 57.0136 29.9994 60.9136 29.9994C63.5141 29.9994 65.6527 28.949 67.1614 27.0632L68.4099 29.5374H74.833L73.3885 24.2778L76.9301 0.942386ZM64.2685 14.4017C66.49 14.4017 68.8794 16.4138 68.3344 19.9365C67.7479 23.7102 64.8965 24.968 62.8824 24.968C60.2422 24.968 58.3149 22.7032 58.8165 19.4745C59.2786 16.4138 61.5001 14.4017 64.2685 14.4017ZM97.7276 21.5717H82.9257C83.5556 24.0873 85.317 25.3433 87.7477 25.3433C89.9712 25.3433 91.1424 24.7983 91.9419 23.5819H97.1826C95.9247 28.1513 91.7741 29.9938 87.8741 29.9938C81.6264 29.9938 77.5605 25.5904 77.5605 19.6783C77.5605 13.8095 81.7527 9.36457 87.7062 9.36457C93.6599 9.36457 97.771 13.8152 97.771 19.6839C97.771 20.4817 97.771 20.7739 97.7276 21.5717ZM82.8842 17.7132H92.4907C92.1135 15.5747 90.0995 14.0659 87.7101 14.0659C85.1906 14.0659 83.4386 15.5332 82.8842 17.7132Z" fill="white"/>
</g>
<defs>
<clipPath id="clip0_679_67474">
<rect width="97.5" height="30" fill="white" transform="translate(0.838745)"/>
</clipPath>
</defs>
</svg>
