<svg width="128" height="27" viewBox="0 0 128 27" fill="none" xmlns="http://www.w3.org/2000/svg">
<g clip-path="url(#clip0_5928_6305)">
<path d="M32.2412 8.17943C33.4324 7.46473 34.7824 7.06767 36.2118 7.06767C36.9265 7.06767 37.5618 7.14708 38.1176 7.38532C38.6735 7.54414 39.15 7.86177 39.547 8.33824C39.9441 8.81471 40.2618 9.37061 40.5 10.1647C40.7382 10.9588 40.8176 11.8324 40.8176 13.0236C40.8176 14.9294 40.6588 16.4382 40.3412 17.55C40.0235 18.6618 39.6265 19.5353 39.15 20.1706C38.6735 20.8059 38.1971 21.203 37.6412 21.3618C37.0853 21.5206 36.6088 21.6 36.2118 21.6C35.6559 21.6 35.1 21.5206 34.7029 21.2824C34.3059 21.0441 33.9088 20.8853 33.75 20.5677V26.6824C33.5912 26.6824 33.5118 26.7618 33.3529 26.7618C33.1941 26.7618 33.1147 26.7618 32.9559 26.7618C32.7176 26.7618 32.4794 26.6824 32.4 26.6029C32.3206 26.5235 32.2412 26.3647 32.2412 26.1265V8.17943ZM33.75 18.8206C33.9882 19.2177 34.3059 19.5353 34.7029 19.7736C35.1 20.0118 35.4177 20.0912 35.8147 20.0912C36.0529 20.0912 36.45 20.0118 36.7676 19.8529C37.1647 19.6941 37.4824 19.3765 37.8794 18.9C38.1971 18.4236 38.5147 17.7088 38.7529 16.8353C38.9912 15.9618 39.15 14.6912 39.15 13.1824C39.15 12.2294 39.0706 11.4353 38.9912 10.8C38.9118 10.1647 38.6735 9.68825 38.4353 9.29119C38.1971 8.89413 37.8794 8.6559 37.4824 8.57649C37.0853 8.41767 36.6882 8.33824 36.2118 8.33824C35.3382 8.33824 34.5441 8.5765 33.8294 9.05297V18.8206H33.75ZM32.9559 27C32.7085 27.0034 32.4638 26.9491 32.2412 26.8412C32.0824 26.6824 32.0029 26.4441 32.0029 26.1265V8.0206L32.1618 7.94118C33.4324 7.14707 34.7824 6.82942 36.2912 6.82942C37.0059 6.82942 37.7206 6.90883 38.2765 7.14707C38.9118 7.3853 39.3882 7.70296 39.8647 8.17943C40.2618 8.6559 40.5794 9.29119 40.8176 10.0853C41.0559 10.8794 41.1353 11.8324 41.1353 13.0236C41.1353 14.9294 40.9765 16.4383 40.6588 17.6294C40.3412 18.8206 39.9441 19.6941 39.4677 20.3294C38.9912 20.9647 38.4353 21.3618 37.8794 21.6C37.3235 21.7588 36.7676 21.9177 36.3706 21.9177C35.7353 21.9177 35.1794 21.8383 34.7029 21.6C34.4647 21.5206 34.3059 21.3618 34.1471 21.2824V26.9206L33.9882 27C33.8294 27.0794 33.6706 27.0794 33.5118 27.0794C33.1941 26.9206 33.0353 27 32.9559 27ZM32.4794 8.33824V26.0471C32.4794 26.2853 32.5588 26.3647 32.5588 26.3647C32.5588 26.3647 32.6382 26.4441 32.9559 26.4441C33.0353 26.4441 33.1941 26.4441 33.3529 26.4441C33.4324 26.4441 33.4324 26.4441 33.5118 26.4441V19.7736L33.9882 20.4088C34.147 20.6471 34.4647 20.8059 34.8618 21.0441C35.2588 21.2029 35.7353 21.3618 36.2912 21.3618C36.6882 21.3618 37.1647 21.2824 37.6412 21.1235C38.1176 20.9647 38.5941 20.5677 38.9912 20.0118C39.4677 19.4559 39.7853 18.5824 40.1029 17.4706C40.4206 16.3588 40.5794 14.85 40.5794 13.0236C40.5794 11.9118 40.5 11.0383 40.2618 10.2441C40.0235 9.52944 39.7853 8.97355 39.3882 8.57649C38.9912 8.17943 38.5941 7.86178 38.0382 7.70296C37.4823 7.54413 36.9265 7.46473 36.2118 7.46473C34.8618 7.30591 33.5912 7.70295 32.4794 8.33824ZM35.8147 20.4088C35.4177 20.4088 34.9412 20.25 34.5441 20.0912C34.1471 19.853 33.75 19.5353 33.5118 19.0588V8.97355L33.5912 8.89413C34.3059 8.41766 35.1794 8.17943 36.1324 8.17943C36.6882 8.17943 37.1647 8.25883 37.5618 8.41766C37.9588 8.57648 38.3559 8.89413 38.5941 9.29119C38.8324 9.68825 39.0706 10.2441 39.2294 10.8794C39.3882 11.5147 39.4677 12.3088 39.4677 13.3412C39.4677 14.9294 39.3088 16.2 39.0706 17.0735C38.8324 18.0265 38.5147 18.7412 38.1176 19.2177C37.7206 19.6941 37.3235 20.0912 36.9265 20.25C36.45 20.3294 36.1324 20.4088 35.8147 20.4088ZM33.9882 18.7412C34.2265 19.0588 34.4647 19.3765 34.7823 19.5353C35.1 19.6941 35.4177 19.8529 35.8147 19.8529C36.0529 19.8529 36.3706 19.7736 36.6882 19.6941C37.0059 19.5353 37.3235 19.2971 37.6412 18.9C37.9588 18.4236 38.2765 17.7883 38.4353 16.9147C38.6735 16.0412 38.7529 14.85 38.7529 13.2618C38.7529 12.3088 38.6735 11.5147 38.5941 10.9588C38.5147 10.3236 38.3559 9.84707 38.1176 9.52942C37.8794 9.21177 37.6412 8.97355 37.3235 8.89413C37.0059 8.73531 36.6088 8.7353 36.1324 8.7353C35.3382 8.7353 34.6235 8.89413 33.9882 9.29119V18.7412ZM42.3265 8.33824C42.3265 8.10001 42.4059 7.86179 42.5647 7.78237C42.8824 7.62355 43.3588 7.46472 44.1529 7.3059C44.9471 7.14708 45.9 7.06767 46.8529 7.06767C47.9647 7.06767 48.7588 7.3059 49.3147 7.78237C49.8706 8.25884 50.1088 9.13236 50.1088 10.403V12.0706C50.1088 13.6588 50.1088 15.1677 50.0294 16.6765C50.0294 18.1059 49.95 19.3765 49.95 20.4883C49.6323 20.7265 49.1559 20.8853 48.6 21.1235C47.9647 21.3618 47.1706 21.4412 46.2177 21.4412C45.7412 21.4412 45.2647 21.4412 44.7088 21.3618C44.2323 21.2824 43.8353 21.1235 43.4382 20.8059C43.0412 20.5677 42.8029 20.0912 42.5647 19.5353C42.3265 18.9794 42.2471 18.2647 42.2471 17.3118C42.2471 16.3588 42.3265 15.5647 42.5647 14.9294C42.8029 14.3736 43.1206 13.8971 43.5176 13.5794C43.9147 13.2618 44.3118 13.0236 44.8676 12.9441C45.3441 12.8647 45.9 12.7853 46.3765 12.7853C46.7735 12.7853 47.1706 12.7853 47.5676 12.8647C47.9647 12.9441 48.3618 13.0235 48.6794 13.1029V10.6412C48.6794 10.1647 48.6 9.84707 48.5206 9.52942C48.4412 9.21177 48.2824 9.05295 48.0441 8.81472C47.8853 8.65589 47.6471 8.57649 47.3294 8.49708C47.0912 8.41766 46.7735 8.41766 46.4559 8.41766C45.0996 8.40922 43.7535 8.65152 42.4853 9.13236C42.4059 8.97354 42.3265 8.65589 42.3265 8.33824ZM48.7588 14.2941C48.5206 14.2147 48.2029 14.1353 47.8853 14.0559C47.5676 13.9765 47.25 13.9765 47.0118 13.9765C46.6147 13.9765 46.2176 13.9765 45.9 14.0559C45.5029 14.1353 45.1853 14.2941 44.9471 14.453C44.7088 14.6912 44.4706 15.0089 44.3118 15.4059C44.1529 15.803 44.0735 16.4382 44.0735 17.153C44.0735 17.7882 44.1529 18.3441 44.3118 18.7412C44.4706 19.1382 44.6294 19.3765 44.8676 19.6147C45.1059 19.7735 45.4235 19.9324 45.7412 20.0118C46.0588 20.0912 46.3765 20.0912 46.7735 20.0912C47.25 20.0912 47.6471 20.0118 48.0441 19.9324C48.4412 19.7735 48.6794 19.6941 48.8382 19.5353C48.8382 19.2177 48.8382 18.9 48.9177 18.503C48.9177 18.1059 48.9177 17.6294 48.9971 17.153C48.9971 16.6765 48.9971 16.2 48.9971 15.7236C48.7588 15.2471 48.7588 14.7706 48.7588 14.2941ZM46.2971 21.7589C45.8206 21.7589 45.2647 21.7588 44.7882 21.6794C44.2323 21.6 43.7559 21.4412 43.3588 21.1235C42.9618 20.8059 42.6441 20.3294 42.4059 19.7736C42.1676 19.2177 42.0088 18.4236 42.0088 17.3912C42.0088 16.3589 42.1676 15.5647 42.4059 14.9294C42.5941 14.3805 42.9187 13.8885 43.3494 13.4995C43.78 13.1105 44.3025 12.8374 44.8676 12.7059C45.4235 12.6265 45.9 12.5471 46.4559 12.5471C46.8529 12.5471 47.25 12.5471 47.6471 12.6265C47.9647 12.6265 48.2029 12.7059 48.4412 12.7853V10.7206C48.4412 10.3235 48.3618 10.0059 48.2823 9.68825C48.2029 9.45002 48.0441 9.29118 47.8853 9.13236C47.8157 9.05443 47.7298 8.99271 47.6338 8.95155C47.5378 8.91038 47.4339 8.89079 47.3294 8.89413C47.0912 8.81472 46.7735 8.81472 46.4559 8.81472C45.5824 8.81472 44.7882 8.89414 44.1529 9.05297C43.4382 9.21179 42.9618 9.37059 42.5647 9.52942L42.3265 9.60884L42.2471 9.37061C42.0882 9.05296 42.0088 8.7353 42.0088 8.33824C42.0088 8.0206 42.0882 7.70295 42.3265 7.54412C42.6441 7.3853 43.2 7.22649 44.0735 6.98826C44.8676 6.82943 45.8206 6.75001 46.8529 6.75001C48.0441 6.75001 48.9176 6.98824 49.5529 7.54412C50.1882 8.10001 50.5059 9.05295 50.5059 10.403V12.0706C50.5059 13.6588 50.5059 15.1677 50.4265 16.6765C50.4265 18.1059 50.3471 19.3765 50.3471 20.4883V20.6471L50.2676 20.7265C49.95 20.9647 49.4735 21.2029 48.8382 21.4412C48.2029 21.6794 47.3294 21.7589 46.2971 21.7589ZM46.4559 13.1029C45.9794 13.1029 45.5029 13.1824 44.9471 13.2618C44.4706 13.3412 44.0735 13.5794 43.7559 13.8177C43.4382 14.1353 43.1206 14.5324 42.8824 15.0882C42.6441 15.6441 42.5647 16.4383 42.5647 17.3118C42.5647 18.1853 42.6441 18.9 42.8824 19.4559C43.1206 19.9324 43.3588 20.3294 43.6765 20.5677C43.9941 20.8059 44.3912 20.9647 44.8676 21.0441C45.3441 21.1235 45.8206 21.1235 46.2971 21.1235C47.5227 21.1858 48.7391 20.8817 49.7912 20.25C49.7912 19.2177 49.8706 17.9471 49.8706 16.5971C49.8706 15.1677 49.95 13.5794 49.95 11.9912V10.3235C49.95 9.13236 49.7118 8.33824 49.2353 7.94118C48.7588 7.46471 47.9647 7.3059 46.9324 7.3059C45.9 7.3059 45.0265 7.3853 44.2324 7.54412C43.2794 7.70295 42.8823 7.86178 42.7235 8.0206C42.6441 8.10001 42.6441 8.17942 42.6441 8.33824C42.6441 8.49707 42.6441 8.73531 42.7235 8.89413C43.1206 8.73531 43.5177 8.6559 44.1529 8.49708C44.8677 8.33825 45.6618 8.25885 46.6147 8.25885C46.9324 8.25885 47.25 8.25883 47.5676 8.33824C47.8853 8.41765 48.1235 8.49707 48.3618 8.7353C48.6 8.89412 48.7588 9.21177 48.9177 9.52942C48.9971 9.84707 49.0765 10.2441 49.0765 10.7206V13.5794L48.6794 13.4206C48.3618 13.2618 48.0441 13.1824 47.6471 13.1824C47.1706 13.103 46.8529 13.1029 46.4559 13.1029ZM46.5353 20.4088C46.1382 20.4088 45.8206 20.4088 45.5029 20.3294C45.1059 20.25 44.7882 20.1706 44.55 19.9324C44.3118 19.6941 44.0735 19.3765 43.9147 18.9794C43.7559 18.5824 43.6765 18.0265 43.6765 17.3118C43.6765 16.5177 43.7559 15.8824 43.9147 15.4853C44.0735 15.0088 44.3118 14.6118 44.6294 14.3735C44.9471 14.1353 45.3441 13.9765 45.7412 13.8971C46.1382 13.8177 46.5353 13.8177 46.9324 13.8177C47.1706 13.8177 47.4882 13.8177 47.8853 13.8971C48.2823 13.9765 48.6 14.0559 48.8382 14.1353L48.9971 14.2147V14.2941C48.9971 14.6912 48.9971 15.1677 48.9971 15.7236V17.153C48.9971 17.6294 48.9971 18.1059 48.9177 18.503C48.9177 18.9 48.9176 19.2971 48.8382 19.5353V19.6147L48.7588 19.6941C48.6 19.853 48.2823 20.0118 47.8853 20.1706C47.4882 20.4088 47.0118 20.4088 46.5353 20.4088ZM46.9324 14.2941C46.5353 14.2941 46.2177 14.2941 45.8206 14.3735C45.503 14.453 45.1853 14.5324 44.9471 14.7706C44.7088 14.9294 44.55 15.2471 44.3912 15.6441C44.2323 16.0412 44.1529 16.5971 44.1529 17.3118C44.1529 17.9471 44.2323 18.4235 44.3118 18.8206C44.4706 19.1383 44.6294 19.3765 44.7882 19.5353C45.0265 19.6941 45.2647 19.7735 45.5029 19.8529C45.8206 19.9324 46.1382 19.9324 46.4559 19.9324C46.8529 19.9324 47.25 19.853 47.6471 19.7736C47.9647 19.6941 48.2029 19.5353 48.2823 19.4559C48.2823 19.2177 48.2824 18.9 48.3618 18.503C48.3618 18.1059 48.3618 17.6294 48.4412 17.153V15.7236C48.4412 15.3265 48.4412 14.85 48.4412 14.5324C48.2029 14.453 48.0441 14.453 47.8059 14.3735C47.4882 14.2941 47.1706 14.2941 46.9324 14.2941ZM52.7294 8.0206C53.3647 7.78236 54.0794 7.54413 54.8735 7.3059C55.6677 7.14708 56.4618 6.98826 57.2559 6.98826C57.9706 6.98826 58.6059 7.06766 59.0824 7.22648C59.5588 7.38531 59.9559 7.62354 60.2735 7.94118C60.5912 8.25883 60.75 8.65589 60.9088 9.13236C60.9882 9.60883 61.0676 10.1647 61.0676 10.8V20.8059C61.0676 20.8853 61.0676 20.9647 61.0676 21.0441C61.0676 21.1235 60.9882 21.1235 60.9088 21.1235C60.8294 21.1235 60.6706 21.203 60.4324 21.203C60.1941 21.203 59.9559 21.203 59.5588 21.203V11.2765C59.5588 10.8 59.5588 10.3235 59.4794 10.0059C59.4 9.60884 59.3206 9.37059 59.1618 9.13236C59.0029 8.89412 58.7647 8.73532 58.4471 8.65591C58.1294 8.5765 57.7324 8.49708 57.2559 8.49708C56.8588 8.49708 56.3823 8.5765 55.8265 8.65591C55.2706 8.73532 54.7941 8.89412 54.3176 9.13236V20.9647C54.3176 21.0441 54.3176 21.1235 54.3176 21.203C54.3176 21.2824 54.2382 21.2824 54.1588 21.2824C54.0794 21.2824 53.9206 21.3618 53.6824 21.3618C53.4441 21.3618 53.2059 21.3618 52.8088 21.3618V8.0206H52.7294ZM60.4324 21.5206H59.2412V11.2765C59.2412 10.8 59.2412 10.403 59.1618 10.0059C59.1047 9.72419 58.997 9.45515 58.8441 9.21178C58.6853 9.05295 58.5265 8.89413 58.2882 8.81472C57.8118 8.65589 57.0176 8.57648 55.8265 8.81472C55.35 8.89413 54.953 9.05295 54.5559 9.21178V20.8059C54.5559 20.9647 54.5559 21.0441 54.4765 21.1235C54.3971 21.2824 54.1588 21.3618 54.0794 21.3618C53.9206 21.3618 53.7618 21.4412 53.5235 21.4412H52.4118V7.86179L52.5706 7.78237C53.2059 7.46473 54 7.2265 54.7941 7.06767C55.5882 6.90885 56.3824 6.75001 57.1765 6.75001C57.9706 6.75001 58.6059 6.82943 59.0824 6.98826C59.6382 7.14708 60.0353 7.38532 60.3529 7.78237C60.6706 8.10002 60.9088 8.57648 61.0676 9.13236C61.1471 9.60883 61.2265 10.2441 61.2265 10.8794V20.8853C61.2265 21.0441 61.2265 21.1235 61.1471 21.203C61.0677 21.3618 60.8294 21.4412 60.75 21.4412C60.8294 21.4412 60.5912 21.5206 60.4324 21.5206ZM59.7971 20.9647H60.4324C60.6706 20.9647 60.75 20.9647 60.8294 20.9647C60.8294 20.9647 60.8294 20.9647 60.8294 20.8853V10.8794C60.8294 10.2441 60.75 9.68825 60.6706 9.21178C60.5912 8.81472 60.353 8.41767 60.1147 8.17943C59.8765 7.86179 59.4794 7.70295 59.0824 7.54412C58.6059 7.3853 58.05 7.3059 57.3353 7.3059C56.6206 7.3059 55.8265 7.3853 55.0323 7.54412C54.3176 7.70295 53.6824 7.9412 53.1265 8.17943V20.8853H53.6824C53.9206 20.8853 54 20.8853 54.0794 20.8853C54.0794 20.8853 54.0794 20.8853 54.0794 20.8059V8.89413L54.2382 8.81472C54.7147 8.57648 55.1912 8.41765 55.7471 8.33824C56.303 8.25883 56.7794 8.17943 57.2559 8.17943C57.8118 8.17943 58.2088 8.25883 58.5265 8.33824C58.8441 8.49707 59.1618 8.6559 59.3206 8.97355C59.4794 9.21179 59.6382 9.60884 59.7177 10.0059C59.7971 10.403 59.7971 10.8 59.7971 11.3559V20.9647ZM70.1206 1.58824C70.1206 1.19118 70.2 1.03237 70.4382 0.952957C70.6765 0.873545 71.0735 0.794124 71.6294 0.794124V20.6471C71.1529 20.8853 70.5971 21.1236 69.9618 21.2824C69.3265 21.4412 68.5324 21.5206 67.7382 21.5206C67.1029 21.5206 66.5471 21.4412 65.9912 21.2824C65.4353 21.1236 64.9588 20.8059 64.5618 20.3294C64.1647 19.853 63.8471 19.1382 63.6088 18.2647C63.3706 17.3912 63.2118 16.1206 63.2118 14.6118C63.2118 13.2618 63.3706 12.15 63.6088 11.1971C63.8471 10.2441 64.1647 9.45001 64.5618 8.81472C64.9588 8.17942 65.4353 7.78238 66.0706 7.46473C66.7127 7.12771 67.4319 6.96502 68.1565 6.99289C68.8811 7.02075 69.5857 7.2382 70.2 7.62354V1.58824H70.1206ZM70.1206 8.97355C69.8824 8.73532 69.5647 8.6559 69.3265 8.57649C69.0882 8.49708 68.6912 8.41766 68.2941 8.41766C67.8177 8.41766 67.4206 8.49707 67.0235 8.7353C66.6265 8.97354 66.2294 9.2912 65.9118 9.76767C65.5941 10.2441 65.3559 10.8794 65.1971 11.6735C65.0382 12.4677 64.9588 13.4206 64.9588 14.5324C64.9588 15.7236 65.0382 16.7559 65.1971 17.4706C65.3559 18.1853 65.5147 18.7412 65.8324 19.1382C66.0706 19.5353 66.3882 19.7735 66.7853 19.9324C67.1824 20.0912 67.5794 20.0912 67.9765 20.0912C68.3735 20.0912 68.7706 20.0118 69.1677 19.9324C69.5647 19.853 69.8824 19.6941 70.2 19.5353L70.1206 8.97355ZM67.7382 21.7589C67.1029 21.7589 66.4677 21.6794 65.9118 21.5206C65.2765 21.3618 64.8 21.0441 64.3235 20.4883C63.9265 20.0118 63.5294 19.2971 63.2912 18.3441C63.053 17.3912 62.8941 16.2 62.8941 14.6118C62.8941 13.2618 63.053 12.0706 63.2912 11.1177C63.5294 10.1647 63.8471 9.2912 64.3235 8.65591C64.705 8.0761 65.2233 7.59899 65.8326 7.26664C66.4419 6.93428 67.1236 6.75685 67.8176 6.75001C68.6118 6.75001 69.2471 6.90883 69.8029 7.14707V1.58824C69.8029 0.952947 70.0412 0.714732 70.2794 0.714732C70.5177 0.63532 70.9147 0.635315 71.6294 0.635315H71.8677V20.8853L71.7088 20.9647C71.2324 21.203 70.6765 21.4412 69.9618 21.6C69.3265 21.6794 68.6118 21.7589 67.7382 21.7589ZM67.8176 7.3059C67.2618 7.3059 66.7059 7.46472 66.15 7.70296C65.5941 7.94119 65.1971 8.41767 64.8 8.97355C64.403 9.52943 64.0853 10.3235 63.8471 11.2765C63.6088 12.2294 63.5294 13.3412 63.5294 14.6912C63.5294 16.2 63.6088 17.3912 63.8471 18.2647C64.0853 19.1382 64.403 19.7735 64.8 20.25C65.1971 20.6471 65.5941 20.9647 66.0706 21.0441C66.6265 21.2029 67.1824 21.2824 67.7382 21.2824C68.5324 21.2824 69.2471 21.2029 69.9618 21.0441C70.5177 20.8853 70.9941 20.7265 71.4706 20.5677V1.11179C70.9147 1.11179 70.6765 1.19118 70.5971 1.19118C70.5176 1.19118 70.4382 1.42942 70.4382 1.58824V8.17943L69.9618 7.94118C69.4059 7.54412 68.6912 7.3059 67.8176 7.3059ZM67.8971 20.4088C67.4206 20.4088 67.0235 20.3294 66.6265 20.25C66.2294 20.0912 65.8324 19.853 65.5147 19.3765C65.1971 18.9794 65.0382 18.3441 64.8794 17.55C64.7206 16.8353 64.6412 15.803 64.6412 14.5324C64.6412 13.4206 64.7206 12.3882 64.9588 11.5941C65.1176 10.8 65.4353 10.1647 65.7529 9.60884C66.0706 9.05295 66.4677 8.73531 66.9441 8.49708C67.4206 8.25884 67.8971 8.17943 68.3735 8.17943C68.85 8.17943 69.1677 8.25883 69.4853 8.33824C69.8029 8.41765 70.0412 8.57648 70.3588 8.81472L70.4382 8.89413V19.7736L70.2794 19.8529C69.9618 20.0912 69.5647 20.25 69.1677 20.3294C68.7706 20.3294 68.2941 20.4088 67.8971 20.4088ZM68.2941 8.7353C67.8971 8.7353 67.5 8.81473 67.1029 9.05297C66.7059 9.21179 66.3882 9.52942 66.15 10.0059C65.8323 10.4824 65.5941 11.0383 65.4353 11.8324C65.2765 12.5471 65.1971 13.5 65.1971 14.6118C65.1971 15.803 65.2765 16.7559 65.4353 17.4706C65.5941 18.1853 65.753 18.7412 65.9912 19.0588C66.2294 19.3765 66.4677 19.6147 66.7853 19.6941C67.103 19.7736 67.5 19.8529 67.8971 19.8529C68.2941 19.8529 68.6912 19.7736 69.0882 19.7736C69.4059 19.6941 69.6441 19.6147 69.9618 19.4559V9.13236C69.7671 8.99533 69.5529 8.88826 69.3265 8.81472C69.0088 8.73531 68.6912 8.7353 68.2941 8.7353ZM73.9324 8.33824C73.9324 8.10001 74.0118 7.86179 74.1706 7.78237C74.4088 7.62355 74.9647 7.46472 75.7588 7.3059C76.5529 7.14708 77.5059 7.06767 78.4588 7.06767C79.5706 7.06767 80.3647 7.3059 80.9206 7.78237C81.4765 8.25884 81.7147 9.13236 81.7147 10.403V12.0706C81.7147 13.6588 81.7147 15.1677 81.6353 16.6765C81.6353 18.1059 81.5559 19.3765 81.5559 20.4883C81.2382 20.7265 80.7618 20.8853 80.2059 21.1235C79.5706 21.3618 78.7765 21.4412 77.8235 21.4412C77.3471 21.4412 76.8706 21.4412 76.3147 21.3618C75.8382 21.2824 75.4412 21.1235 75.0441 20.8059C74.6471 20.5677 74.4088 20.0912 74.1706 19.5353C73.9324 18.9794 73.8529 18.2647 73.8529 17.3118C73.8529 16.3588 73.9324 15.5647 74.1706 14.9294C74.4088 14.3736 74.7265 13.8971 75.1235 13.5794C75.5206 13.2618 75.9177 13.0236 76.4735 12.9441C76.95 12.8647 77.5059 12.7853 77.9824 12.7853C78.3794 12.7853 78.7765 12.7853 79.1735 12.8647C79.5706 12.9441 79.9677 13.0235 80.2853 13.1029V10.6412C80.2853 10.1647 80.2059 9.84707 80.1265 9.52942C80.0471 9.21177 79.8882 9.05295 79.65 8.81472C79.4912 8.65589 79.2529 8.57649 78.9353 8.49708C78.6971 8.41766 78.3794 8.41766 78.0618 8.41766C76.7055 8.40922 75.3594 8.65152 74.0912 9.13236C74.0118 8.97354 73.9324 8.65589 73.9324 8.33824ZM80.3647 14.2941C80.1265 14.2147 79.8088 14.1353 79.4912 14.0559C79.1735 13.9765 78.8559 13.9765 78.6177 13.9765C78.2206 13.9765 77.8235 13.9765 77.5059 14.0559C77.1088 14.1353 76.7912 14.2941 76.5529 14.453C76.3147 14.6118 76.0765 15.0089 75.9177 15.4059C75.7588 15.803 75.6794 16.4382 75.6794 17.153C75.6794 17.7882 75.7588 18.3441 75.9177 18.7412C76.0765 19.1382 76.2353 19.3765 76.4735 19.6147C76.7118 19.7735 77.0294 19.9324 77.3471 20.0118C77.6647 20.0912 77.9824 20.0912 78.3794 20.0912C78.8559 20.0912 79.253 20.0118 79.65 19.9324C80.0471 19.7735 80.2853 19.6941 80.4441 19.5353C80.4441 19.2177 80.4441 18.9 80.5235 18.503C80.5235 18.1059 80.5235 17.6294 80.603 17.153C80.603 16.6765 80.603 16.2 80.603 15.7236C80.3647 15.2471 80.3647 14.7706 80.3647 14.2941ZM77.9824 21.7589C77.5059 21.7589 76.95 21.7588 76.4735 21.6794C75.9177 21.6 75.4412 21.4412 75.0441 21.1235C74.6471 20.8059 74.3294 20.3294 74.0912 19.7736C73.853 19.2177 73.6941 18.4236 73.6941 17.3912C73.6941 16.3589 73.853 15.5647 74.0912 14.9294C74.2794 14.3805 74.6041 13.8885 75.0347 13.4995C75.4653 13.1105 75.9878 12.8374 76.5529 12.7059C77.0294 12.6265 77.5853 12.5471 78.1412 12.5471C78.5382 12.5471 78.9353 12.5471 79.3324 12.6265C79.65 12.6265 79.8882 12.7059 80.1265 12.7853V10.7206C80.1265 10.3235 80.0471 10.0059 79.9677 9.68825C79.8882 9.45002 79.7294 9.29118 79.5706 9.13236C79.501 9.05443 79.4151 8.99271 79.3191 8.95155C79.2231 8.91038 79.1192 8.89079 79.0147 8.89413C78.7765 8.81472 78.4588 8.81472 78.1412 8.81472C77.2677 8.81472 76.4735 8.89414 75.8382 9.05297C75.1235 9.21179 74.6471 9.37059 74.25 9.52942L74.0118 9.60884L73.9324 9.37061C73.7735 9.05296 73.6941 8.7353 73.6941 8.33824C73.6941 8.0206 73.7735 7.70295 74.0118 7.54412C74.3294 7.3853 74.8853 7.22649 75.7588 6.98826C76.5529 6.82943 77.5059 6.75001 78.5382 6.75001C79.7294 6.75001 80.603 6.98824 81.2382 7.54412C81.8735 8.10001 82.1912 9.05295 82.1912 10.403V12.0706C82.1912 13.6588 82.1912 15.1677 82.1118 16.6765C82.1118 18.1059 82.0324 19.3765 82.0324 20.4883V20.6471L81.9529 20.7265C81.6353 20.9647 81.1588 21.2029 80.5235 21.4412C79.8088 21.6794 78.9353 21.7589 77.9824 21.7589ZM78.1412 13.1029C77.6647 13.1029 77.1088 13.1824 76.6324 13.2618C76.1559 13.3412 75.7588 13.5794 75.4412 13.8177C75.0698 14.1801 74.773 14.6117 74.5676 15.0882C74.3294 15.6441 74.25 16.4383 74.25 17.3118C74.25 18.1853 74.3294 18.9 74.5676 19.4559C74.8059 19.9324 75.0441 20.3294 75.3618 20.5677C75.6794 20.8059 76.0765 20.9647 76.5529 21.0441C77.0294 21.1235 77.5059 21.1235 77.9824 21.1235C79.208 21.1858 80.4244 20.8817 81.4765 20.25C81.4765 19.2177 81.5559 17.9471 81.5559 16.5971C81.5559 15.1677 81.6353 13.5794 81.6353 11.9912V10.3235C81.6353 9.13236 81.3971 8.33824 80.9206 7.94118C80.4441 7.46471 79.65 7.3059 78.6177 7.3059C77.5853 7.3059 76.7118 7.3853 75.9177 7.54412C74.9647 7.70295 74.5676 7.86178 74.4088 8.0206C74.3294 8.10001 74.3294 8.17942 74.3294 8.33824C74.3294 8.49707 74.3294 8.73531 74.4088 8.89413C74.8059 8.73531 75.2029 8.6559 75.8382 8.49708C76.5529 8.33825 77.3471 8.25885 78.3 8.25885C78.6177 8.25885 78.9353 8.25883 79.253 8.33824C79.5706 8.41765 79.8088 8.49707 80.0471 8.7353C80.2853 8.89412 80.4441 9.21177 80.603 9.52942C80.6824 9.84707 80.7618 10.2441 80.7618 10.7206V13.5794L80.3647 13.4206C80.0471 13.2618 79.7294 13.1824 79.3324 13.1824C78.8559 13.103 78.4588 13.1029 78.1412 13.1029ZM78.2206 20.4088C77.8235 20.4088 77.5059 20.4088 77.1882 20.3294C76.7912 20.25 76.4735 20.1706 76.2353 19.9324C75.9971 19.6941 75.7588 19.3765 75.6 18.9794C75.4412 18.5824 75.3618 18.0265 75.3618 17.3118C75.3618 16.5177 75.4412 15.8824 75.6 15.4853C75.7588 15.0088 75.9971 14.6118 76.3147 14.3735C76.6324 14.1353 77.0294 13.9765 77.4265 13.8971C77.8235 13.8177 78.2206 13.8177 78.6177 13.8177C78.8559 13.8177 79.1735 13.8177 79.5706 13.8971C79.9677 13.9765 80.2853 14.0559 80.5235 14.1353L80.6824 14.2147V14.2941C80.6824 14.6912 80.6824 15.1677 80.6824 15.7236V17.153C80.6824 17.6294 80.6824 18.1059 80.603 18.503C80.603 18.9 80.6029 19.2971 80.5235 19.5353V19.6147L80.4441 19.6941C80.2853 19.853 79.9677 20.0118 79.5706 20.1706C79.0941 20.4088 78.6971 20.4088 78.2206 20.4088ZM78.5382 14.2941C78.1412 14.2941 77.8235 14.2941 77.4265 14.3735C77.1088 14.453 76.7912 14.5324 76.5529 14.7706C76.3147 14.9294 76.1559 15.2471 75.9971 15.6441C75.8382 16.0412 75.7588 16.5971 75.7588 17.3118C75.7588 17.9471 75.8382 18.4235 75.9177 18.8206C76.0765 19.1383 76.2353 19.3765 76.3941 19.5353C76.6324 19.6941 76.8706 19.7735 77.1088 19.8529C77.4265 19.9324 77.7441 19.9324 78.0618 19.9324C78.4588 19.9324 78.8559 19.853 79.253 19.7736C79.5706 19.6941 79.8088 19.5353 79.8882 19.4559C79.8882 19.2177 79.8882 18.9 79.9677 18.503C79.9677 18.1059 79.9677 17.6294 80.0471 17.153V15.7236C80.0471 15.3265 80.0471 14.85 80.0471 14.5324C79.8088 14.453 79.65 14.453 79.4118 14.3735C79.0941 14.2941 78.8559 14.2941 78.5382 14.2941Z" fill="white"/>
<path d="M88.5443 7.06764C89.1796 7.06764 89.7355 7.14703 90.212 7.22645C90.6884 7.30586 91.0061 7.46468 91.3237 7.62351C91.562 7.78233 91.8002 7.94116 91.959 8.09998C92.1179 8.2588 92.1178 8.41763 92.1178 8.49704C92.1178 8.73527 91.959 9.05293 91.7208 9.37057C90.8407 8.74237 89.7844 8.40879 88.7031 8.41762C87.8296 8.41762 87.1149 8.57645 86.6384 8.8941C86.0826 9.21175 85.8443 9.60881 85.8443 10.2441C85.8443 10.5618 85.9237 10.8794 86.0825 11.197C86.2414 11.5147 86.6384 11.8323 87.1943 12.2294L90.212 14.3735C90.8473 14.9294 91.3237 15.4059 91.6414 15.9617C91.959 16.5176 92.1178 17.0735 92.1178 17.7882C92.1178 18.9794 91.7208 19.9323 90.9267 20.5676C90.1326 21.2029 89.0208 21.5206 87.5914 21.5206C86.4796 21.5206 85.6855 21.4412 85.0502 21.2029C84.4149 20.9647 84.0973 20.7264 84.0973 20.3294C84.0973 19.9323 84.1767 19.6941 84.4149 19.3765C84.812 19.6147 85.2884 19.8529 85.7649 19.9323C86.2414 20.0117 86.7973 20.0912 87.4326 20.0912C88.3855 20.0912 89.1002 19.9323 89.6561 19.6147C90.212 19.297 90.4502 18.7412 90.4502 18.0264C90.4502 17.4706 90.2914 16.9941 90.0531 16.597C89.8149 16.2 89.4178 15.7235 88.862 15.3265L85.9237 13.1823C85.1296 12.6264 84.6531 12.15 84.4149 11.6735C84.1767 11.197 84.0973 10.7206 84.0973 10.2441C84.0973 9.29117 84.4943 8.49703 85.2884 7.94115C86.0031 7.38526 87.1149 7.06764 88.5443 7.06764ZM87.4326 21.7588C86.3208 21.7588 85.4473 21.6 84.812 21.3618C84.0973 21.1235 83.7002 20.7264 83.7002 20.25C83.7002 19.8529 83.859 19.4559 84.0973 19.1382L84.2561 18.9794L84.4943 19.1382C84.8914 19.3764 85.2884 19.5353 85.7649 19.6941C86.2414 19.7735 86.7973 19.8529 87.3531 19.8529C88.2267 19.8529 88.9414 19.6941 89.4179 19.3765C89.8943 19.0588 90.1326 18.6617 90.1326 17.947C90.1326 17.4706 90.0531 16.9941 89.8149 16.6764C89.5767 16.2794 89.1796 15.8823 88.7031 15.4853L85.7649 13.3412C84.9708 12.7853 84.4149 12.3088 84.1767 11.7529C83.9384 11.2765 83.7796 10.7206 83.7796 10.1647C83.7796 9.13234 84.2561 8.2588 85.1296 7.62351C86.0031 7.06762 87.1149 6.74997 88.6237 6.74997C89.259 6.74997 89.8943 6.82939 90.3708 6.9088C90.8473 6.98822 91.2443 7.14704 91.562 7.30586C91.8796 7.46469 92.1178 7.62352 92.2767 7.86175C92.4355 8.09999 92.5149 8.2588 92.5149 8.41762C92.5149 8.73527 92.3561 9.13234 92.1178 9.44999L91.959 9.6088L91.7208 9.44999C91.2443 9.13234 90.7678 8.89409 90.3708 8.81468C89.8943 8.65586 89.4178 8.65587 88.862 8.65587C88.0678 8.65587 87.4325 8.8147 86.8767 9.05293C86.4002 9.29117 86.162 9.68822 86.162 10.1647C86.162 10.4029 86.2414 10.7206 86.4002 10.9588C86.4796 11.1176 86.7973 11.4353 87.4326 11.9117L90.4502 14.0559C91.0855 14.6117 91.6414 15.1676 91.959 15.7235C92.2767 16.2794 92.4355 16.9941 92.4355 17.7088C92.4355 18.9794 91.959 20.0117 91.1649 20.7264C90.1326 21.4412 88.9414 21.7588 87.4326 21.7588ZM84.4149 19.6941C84.3355 19.8529 84.2561 20.0911 84.2561 20.25C84.2561 20.4882 84.4943 20.647 85.0502 20.8059C85.6855 21.0441 86.4796 21.1235 87.512 21.1235C88.862 21.1235 89.9737 20.8059 90.6884 20.25C91.4031 19.6941 91.8002 18.8206 91.8002 17.7088C91.8002 17.0735 91.6414 16.5176 91.4031 15.9617C91.0855 15.4853 90.6884 14.9294 90.0531 14.4529L87.0355 12.3088C86.4002 11.9117 86.0031 11.5147 85.8443 11.197C85.6855 10.8794 85.5267 10.4823 85.5267 10.1647C85.5267 9.44999 85.8443 8.97351 86.4796 8.57646C87.0355 8.25881 87.8296 8.09998 88.7031 8.09998C89.3384 8.09998 89.8943 8.17938 90.3708 8.33821C90.7678 8.49703 91.2443 8.65586 91.6414 8.8941C91.7208 8.73527 91.8002 8.57645 91.8002 8.41762C91.8002 8.41762 91.8002 8.33822 91.6414 8.1794C91.562 8.02057 91.4031 7.94116 91.1649 7.78234C90.9267 7.62351 90.5296 7.54411 90.1326 7.4647C89.7355 7.38528 89.1796 7.30586 88.5443 7.30586C87.1943 7.30586 86.162 7.5441 85.3678 8.09998C84.6531 8.57645 84.2561 9.29116 84.2561 10.1647C84.2561 10.6412 84.3355 11.0382 84.5737 11.5147C84.812 11.9117 85.2884 12.3882 86.0031 12.8647L88.9414 15.0088C89.4973 15.4853 89.9737 15.8823 90.212 16.3588C90.4502 16.8353 90.609 17.3117 90.609 17.947C90.609 18.8206 90.2914 19.3765 89.6561 19.7735C89.1002 20.1706 88.3061 20.3294 87.3531 20.3294C86.7178 20.3294 86.0826 20.25 85.6061 20.1706C85.1296 20.0912 84.7326 19.9323 84.4149 19.6941ZM102.759 20.5676C102.124 20.8853 101.488 21.1235 100.694 21.2823C99.9796 21.4412 99.1855 21.5206 98.5502 21.5206C97.7561 21.5206 97.0414 21.4412 96.5649 21.2823C96.009 21.1235 95.612 20.8059 95.2943 20.4088C94.9767 20.0117 94.7384 19.4559 94.659 18.9C94.5002 18.2647 94.5002 17.55 94.5002 16.6764V7.78234C94.5002 7.70293 94.5002 7.6235 94.5002 7.54409C94.5002 7.46468 94.5796 7.46469 94.659 7.38528C94.7384 7.38528 94.8973 7.30586 95.1355 7.30586C95.3737 7.30586 95.612 7.30586 96.009 7.30586V16.6764C96.009 17.3117 96.009 17.8676 96.0884 18.2647C96.1678 18.6617 96.3267 19.0588 96.4855 19.297C96.6443 19.5353 96.962 19.7735 97.2796 19.8529C97.5973 19.9323 98.0737 20.0117 98.6296 20.0117C98.9473 20.0117 99.3443 19.9323 99.8208 19.8529C100.297 19.7735 100.774 19.6147 101.171 19.3765V7.78234C101.171 7.70293 101.171 7.6235 101.171 7.54409C101.171 7.46468 101.25 7.46469 101.33 7.38528C101.409 7.38528 101.568 7.30586 101.806 7.30586C102.044 7.30586 102.283 7.30586 102.68 7.30586V20.5676H102.759ZM98.4708 21.7588C97.5973 21.7588 96.962 21.6794 96.4061 21.4411C95.8502 21.2029 95.3737 20.8853 95.0561 20.4882C94.7384 20.0117 94.5002 19.5353 94.3414 18.8206C94.1826 18.1853 94.1826 17.3912 94.1826 16.5176V7.78234C94.1826 7.70293 94.1826 7.6235 94.1826 7.54409C94.1826 7.46468 94.262 7.30586 94.5796 7.22645C94.7384 7.22645 94.8973 7.14703 95.1355 7.14703H96.3267V16.7559C96.3267 17.3912 96.3267 17.947 96.4061 18.3441C96.4855 18.7412 96.5649 19.0588 96.7237 19.297C96.8826 19.5353 97.1208 19.6941 97.4384 19.7735C97.7561 19.8529 98.1531 19.9323 98.709 19.9323C99.4782 19.8862 100.232 19.6978 100.933 19.3765V7.78234C100.933 7.62351 100.933 7.54411 101.012 7.4647C101.012 7.38528 101.171 7.22644 101.409 7.14703C101.568 7.14703 101.727 7.06764 101.965 7.06764H103.077V20.647L102.918 20.7264C102.283 21.0441 101.568 21.2823 100.774 21.4411C99.9796 21.6794 99.1855 21.7588 98.4708 21.7588ZM94.659 7.62351V16.5176C94.659 17.3912 94.7384 18.1059 94.8178 18.7412C94.8973 19.297 95.1355 19.7735 95.3737 20.1706C95.612 20.5676 96.009 20.8059 96.4855 20.9647C96.962 21.1235 97.5973 21.2029 98.3914 21.2029C99.1061 21.2029 99.8208 21.1235 100.535 20.9647C101.171 20.8059 101.806 20.5676 102.362 20.3294V7.62351H101.806C101.568 7.62351 101.488 7.62351 101.409 7.62351V19.6147L101.25 19.6941C100.774 19.9323 100.297 20.1706 99.8208 20.25C99.3443 20.3294 98.9473 20.4088 98.5502 20.4088C97.9943 20.4088 97.5178 20.3294 97.1208 20.25C96.7237 20.0911 96.4061 19.9323 96.1679 19.6147C95.9296 19.297 95.7708 18.9 95.6914 18.4235C95.612 17.947 95.612 17.3912 95.612 16.7559V7.62351H94.9767C94.8973 7.62351 94.7384 7.62351 94.659 7.62351ZM105.618 2.69999C105.618 1.82646 105.935 1.4294 106.571 1.4294C106.888 1.4294 107.127 1.5088 107.206 1.74704C107.285 1.98528 107.365 2.30293 107.365 2.69999C107.365 3.57352 107.047 3.97056 106.412 3.97056C106.288 3.97758 106.164 3.95198 106.052 3.89626C105.941 3.84054 105.846 3.75664 105.777 3.65292C105.618 3.49409 105.618 3.09705 105.618 2.69999ZM107.206 20.8853C107.206 20.9647 107.206 21.0441 107.206 21.1235C107.206 21.2029 107.127 21.2029 107.047 21.2029C106.968 21.2029 106.809 21.2823 106.571 21.2823C106.333 21.2823 106.094 21.2823 105.697 21.2823V8.09998C105.697 7.70292 105.777 7.54411 106.015 7.4647C106.253 7.38528 106.65 7.38528 107.285 7.38528L107.206 20.8853ZM106.571 21.5206H105.38V8.09998C105.38 7.46469 105.697 7.22645 105.935 7.22645C106.174 7.14703 106.65 7.14703 107.285 7.14703H107.524V20.9647C107.524 21.1235 107.524 21.2029 107.444 21.2823C107.365 21.4412 107.127 21.5206 107.047 21.5206C106.968 21.4412 106.809 21.5206 106.571 21.5206ZM105.935 20.9647H106.571C106.809 20.9647 106.888 20.9647 106.968 20.9647C106.968 20.9647 106.968 20.9647 106.968 20.8853V7.62351C106.412 7.62351 106.174 7.70292 106.094 7.70292C106.015 7.70292 105.935 7.94116 105.935 8.09998V20.9647ZM106.412 4.20881C106.015 4.20881 105.777 4.04999 105.538 3.81175C105.38 3.57351 105.3 3.17646 105.3 2.62057C105.3 1.27057 106.015 1.11176 106.491 1.11176C106.968 1.11176 107.285 1.34999 107.365 1.50881C107.524 1.74705 107.603 2.1441 107.603 2.62057C107.603 3.97057 106.968 4.20881 106.412 4.20881ZM106.491 1.66762C106.333 1.66762 105.856 1.66764 105.856 2.69999C105.856 3.17646 105.935 3.4147 106.015 3.49411C106.094 3.65293 106.253 3.65292 106.412 3.65292C106.571 3.65292 107.047 3.65293 107.047 2.62057C107.047 2.1441 106.968 1.90587 106.888 1.82646C106.888 1.74704 106.809 1.66762 106.491 1.66762ZM111.335 8.73526H109.271C109.271 8.09997 109.271 7.78233 109.35 7.62351C109.43 7.46468 109.509 7.38528 109.668 7.38528H111.335V2.93822C111.335 2.62057 111.415 2.46174 111.574 2.38232C111.733 2.30291 112.209 2.30293 112.844 2.30293V7.30586H116.18C116.18 7.94116 116.18 8.2588 116.1 8.41762C116.1 8.57645 115.941 8.65587 115.862 8.65587H112.844V17.1529C112.844 17.55 112.844 17.947 112.844 18.2647C112.844 18.5823 112.924 18.9 113.003 19.2176C113.083 19.5353 113.241 19.6941 113.4 19.8529C113.559 20.0117 113.797 20.0912 114.115 20.0912C114.512 20.0912 114.83 20.0912 115.068 20.0117C115.306 19.9323 115.624 19.8529 115.941 19.6941C115.941 19.7735 116.021 19.9323 116.021 20.0912C116.021 20.25 116.021 20.4088 116.021 20.4882C116.021 20.647 115.941 20.8059 115.862 20.9647C115.703 21.1235 115.544 21.2029 115.385 21.2823C115.147 21.3617 114.909 21.4411 114.671 21.4411C114.433 21.4411 114.115 21.5206 113.877 21.5206C113.321 21.5206 112.844 21.4412 112.527 21.2029C112.209 20.9647 111.971 20.7264 111.812 20.3294C111.653 19.9323 111.574 19.5353 111.494 18.9794C111.494 18.4235 111.415 17.8676 111.415 17.2323V8.73526H111.335ZM113.797 21.7588C113.162 21.7588 112.685 21.6 112.288 21.3618C111.891 21.1235 111.653 20.8059 111.415 20.3294C111.256 19.9323 111.097 19.4559 111.097 18.9C111.097 18.3441 111.018 17.7882 111.018 17.1529V8.97351H108.953V8.73526C108.953 7.86174 108.953 7.6235 109.033 7.54409C109.112 7.30585 109.271 7.14703 109.588 7.14703H111.018V2.93822C111.018 2.38233 111.335 2.1441 111.494 2.1441C111.653 2.1441 111.891 2.06468 112.844 2.06468H113.083V7.06764H116.418V7.30586C116.418 8.17939 116.418 8.41763 116.338 8.49704C116.259 8.73527 116.1 8.8941 115.783 8.8941H113.003V17.1529C113.003 17.55 113.003 17.947 113.003 18.2647C113.003 18.5823 113.083 18.9 113.162 19.1382C113.241 19.3764 113.321 19.5353 113.48 19.6147C113.559 19.6941 113.797 19.7735 114.036 19.7735C114.433 19.7735 114.671 19.7735 114.909 19.6941C115.147 19.6147 115.385 19.5353 115.703 19.3765L115.941 19.2176L116.021 19.5353C116.1 19.6941 116.1 19.7735 116.1 19.9323C116.1 20.0912 116.1 20.25 116.1 20.4088C116.1 20.647 116.021 20.8853 115.783 21.0441C115.624 21.2029 115.465 21.2823 115.147 21.4411C114.909 21.5206 114.671 21.6 114.353 21.6C114.433 21.7588 114.115 21.7588 113.797 21.7588ZM109.588 8.41762H111.653V17.1529C111.653 17.7882 111.653 18.3441 111.733 18.9C111.733 19.3765 111.891 19.8529 112.05 20.1706C112.209 20.4882 112.447 20.7265 112.685 20.9647C113.003 21.1235 113.4 21.2029 113.877 21.2029C114.115 21.2029 114.433 21.2029 114.671 21.1235C114.909 21.1235 115.147 21.0441 115.306 20.9647C115.465 20.8853 115.624 20.8059 115.703 20.7264C115.783 20.647 115.783 20.5676 115.783 20.4882C115.783 20.3294 115.783 20.25 115.783 20.0912C115.544 20.1706 115.385 20.25 115.227 20.3294C114.988 20.4088 114.591 20.4882 114.194 20.4882C113.797 20.4882 113.48 20.4088 113.321 20.1706C113.083 20.0118 113.003 19.7735 112.844 19.4559C112.765 19.1382 112.685 18.8206 112.685 18.4235C112.685 18.1059 112.685 17.7088 112.685 17.2323V8.41762H115.941C115.941 8.33821 116.021 8.17939 116.021 7.62351H112.685V2.62057C112.05 2.62057 111.812 2.62058 111.733 2.69999C111.653 2.69999 111.653 2.85881 111.653 3.01763V7.70292H109.668C109.668 7.70292 109.668 7.70292 109.588 7.70292C109.588 7.70292 109.588 7.86174 109.588 8.41762ZM122.056 7.06764C123.247 7.06764 124.2 7.4647 124.756 8.25881C125.312 9.05293 125.55 10.0853 125.55 11.5147C125.55 12.0706 125.55 12.7059 125.471 13.2617C125.391 13.8176 125.391 14.3735 125.233 14.85C124.677 14.9294 124.041 15.0882 123.406 15.0882C122.771 15.1676 122.135 15.247 121.5 15.247C120.865 15.247 120.309 15.3265 119.833 15.3265C119.277 15.3265 118.88 15.3265 118.641 15.3265C118.641 16.3588 118.721 17.1529 118.88 17.7882C119.038 18.4235 119.277 18.9 119.515 19.2176C119.833 19.5353 120.15 19.7735 120.547 19.8529C120.944 19.9323 121.421 20.0117 121.897 20.0117C122.533 20.0117 123.168 19.9323 123.724 19.7735C124.28 19.6147 124.835 19.3764 125.233 19.0588C125.312 19.2176 125.391 19.4559 125.391 19.6147C125.391 19.7735 125.471 20.0117 125.471 20.0912C125.471 20.25 125.391 20.4088 125.153 20.5676C124.915 20.7265 124.677 20.8853 124.359 20.9647C124.041 21.1235 123.644 21.2029 123.168 21.2823C122.691 21.3617 122.215 21.4411 121.738 21.4411C121.103 21.4411 120.468 21.3617 119.912 21.2029C119.356 21.0441 118.88 20.7264 118.483 20.25C118.085 19.7735 117.768 19.1382 117.53 18.2647C117.291 17.3911 117.212 16.2794 117.212 14.9294C117.212 13.1823 117.371 11.7529 117.688 10.7206C118.006 9.68821 118.403 8.89409 118.88 8.33821C119.356 7.78232 119.912 7.46469 120.468 7.30586C120.944 7.14704 121.5 7.06764 122.056 7.06764ZM121.977 8.49704C121.659 8.49704 121.262 8.57646 120.865 8.65587C120.468 8.8147 120.15 9.05293 119.833 9.44999C119.515 9.84705 119.277 10.4029 119.038 11.1176C118.8 11.8323 118.721 12.7853 118.641 14.0559C118.88 14.0559 119.277 14.0559 119.674 14.0559C120.071 14.0559 120.547 14.0559 121.103 13.9764C121.58 13.9764 122.135 13.897 122.612 13.8176C123.088 13.7382 123.565 13.6588 123.962 13.5794C123.962 13.2617 124.041 12.9441 124.041 12.6265C124.041 12.3088 124.041 11.9912 124.041 11.7529C124.041 10.6412 123.883 9.84704 123.565 9.29116C123.247 8.73527 122.771 8.49704 121.977 8.49704ZM121.659 21.7588C120.944 21.7588 120.309 21.6794 119.753 21.5206C119.118 21.3617 118.641 21.0441 118.165 20.4882C117.768 20.0117 117.371 19.297 117.133 18.4235C116.894 17.55 116.815 16.4382 116.815 15.0088C116.815 13.1823 116.974 11.7529 117.291 10.7206C117.609 9.60879 118.006 8.81469 118.483 8.1794C118.959 7.62351 119.594 7.22646 120.23 6.98822C120.865 6.8294 121.421 6.74997 122.056 6.74997C123.327 6.74997 124.359 7.14703 124.915 8.02056C125.471 8.81468 125.788 10.0059 125.788 11.4353C125.788 11.9912 125.788 12.6264 125.709 13.1823C125.63 13.7382 125.63 14.2941 125.471 14.7706V14.9294H125.312C124.677 15.0088 124.041 15.1676 123.406 15.247C122.771 15.3265 122.135 15.4059 121.5 15.4059C120.865 15.4059 120.309 15.4853 119.833 15.4853C119.435 15.4853 119.118 15.4853 118.88 15.4853C118.88 16.3588 118.959 17.0735 119.118 17.6294C119.277 18.1853 119.435 18.6618 119.753 18.9794C119.991 19.297 120.309 19.4559 120.627 19.5353C121.624 19.7581 122.66 19.7308 123.644 19.4559C124.2 19.297 124.677 19.0588 125.074 18.8206L125.391 18.5823L125.55 18.9C125.63 19.1382 125.709 19.297 125.709 19.5353C125.709 19.7735 125.788 19.9323 125.788 20.0912C125.788 20.3294 125.63 20.5676 125.391 20.8059C125.153 20.9647 124.835 21.1235 124.518 21.2823C124.2 21.4412 123.724 21.5206 123.247 21.6C122.691 21.7588 122.215 21.7588 121.659 21.7588ZM122.056 7.30586C121.5 7.30586 120.944 7.38526 120.388 7.54409C119.833 7.70291 119.356 8.02057 118.959 8.49704C118.483 9.05292 118.165 9.76762 117.847 10.8C117.53 11.8323 117.371 13.2618 117.371 15.0088C117.371 16.3588 117.45 17.4706 117.688 18.2647C117.927 19.0588 118.244 19.6941 118.562 20.0912C118.959 20.4882 119.356 20.8059 119.833 20.8853C120.388 21.0441 120.944 21.1235 121.58 21.1235C122.056 21.1235 122.533 21.0441 123.009 20.9647C123.485 20.8853 123.883 20.8059 124.2 20.647C124.518 20.5676 124.756 20.4088 124.915 20.25C125.074 20.1706 125.153 20.0117 125.153 19.9323C125.153 19.7735 125.153 19.6147 125.153 19.4559C125.153 19.3764 125.153 19.297 125.153 19.297C124.756 19.5353 124.359 19.6941 123.883 19.8529C122.793 20.143 121.65 20.1703 120.547 19.9323C120.071 19.7735 119.674 19.5353 119.435 19.2176C119.118 18.8206 118.88 18.3441 118.721 17.7088C118.562 17.0735 118.483 16.2 118.483 15.1676V14.9294H118.721C119.038 14.9294 119.435 14.9294 119.912 14.9294C120.388 14.9294 120.944 14.9294 121.58 14.85C122.136 14.85 122.771 14.7706 123.406 14.6911C123.962 14.6117 124.518 14.5323 125.074 14.4529C125.153 14.0559 125.233 13.5794 125.233 13.1029C125.312 12.547 125.312 11.9117 125.312 11.3559C125.312 10.0059 125.074 8.97352 124.518 8.25881C124.041 7.70293 123.247 7.30586 122.056 7.30586ZM119.753 14.2941H118.403V13.9764C118.483 12.7059 118.562 11.7529 118.8 10.9588C119.038 10.1647 119.277 9.6088 119.594 9.21174C119.912 8.81468 120.309 8.49703 120.706 8.33821C121.103 8.17938 121.5 8.1794 121.897 8.1794C122.85 8.1794 123.485 8.49703 123.803 9.13232C124.121 9.68821 124.28 10.5617 124.28 11.7529C124.28 12.0706 124.28 12.3882 124.28 12.7059C124.28 13.0235 124.2 13.3412 124.2 13.6588V13.8176L124.041 13.897C123.644 13.9764 123.168 14.0559 122.691 14.1353C122.215 14.2147 121.659 14.2147 121.183 14.2941C120.706 14.2941 120.23 14.2941 119.753 14.2941ZM118.959 13.7382H119.753C120.15 13.7382 120.627 13.7382 121.103 13.6588C121.58 13.6588 122.056 13.5794 122.612 13.5C123.009 13.4206 123.406 13.4206 123.724 13.3412C123.724 13.1029 123.803 12.8647 123.803 12.547C123.803 12.2294 123.803 11.9117 123.803 11.6735C123.803 10.6412 123.644 9.84704 123.406 9.29116C123.168 8.81469 122.691 8.57646 121.977 8.57646C121.659 8.57646 121.341 8.65585 120.944 8.73526C120.627 8.81468 120.309 9.05293 120.071 9.37057C119.753 9.76763 119.515 10.2441 119.356 10.9588C119.197 11.8323 119.038 12.7059 118.959 13.7382Z" fill="white"/>
<path d="M20.4885 1.90591C20.4885 1.90591 19.6943 2.70001 19.6943 3.17648C21.8385 4.44707 24.2208 6.90884 25.0944 8.89413C25.0944 8.89413 25.7296 8.89414 26.2061 8.65591C27.6355 7.9412 28.112 5.95589 27.9532 4.44707C27.7944 2.93825 26.4444 2.70003 25.9679 2.30297C25.4914 1.90591 25.6502 0.873546 23.9032 0.555899C22.1561 0.15884 20.4885 1.90591 20.4885 1.90591Z" fill="#E7E7E7"/>
<path d="M9.13244 2.46174C9.13244 2.46174 14.7707 -0.158857 20.6471 3.5735C26.5236 7.30585 26.2854 13.2617 26.2854 13.2617C26.2854 13.2617 29.7001 19.5353 23.7442 23.9029C17.7883 28.2706 11.0383 26.7617 9.5295 26.1265C8.10009 25.5706 5.4795 4.12938 9.13244 2.46174Z" fill="#EFEFEF"/>
<path d="M15.4855 1.74705C11.8326 1.27058 9.13256 2.54116 9.13256 2.54116C5.47962 4.20881 3.73256 9.21175 3.57373 11.6735C3.49432 13.7382 2.14433 14.0559 2.14433 18.2647C2.06492 23.347 8.1002 25.5706 9.52962 26.2059C10.3237 26.5235 12.6267 27.1588 15.4061 27V1.74705H15.4855Z" fill="#F8F8F8"/>
<path d="M12.7057 9.13232C10.7204 8.09996 8.73507 9.52938 8.17918 10.8C7.22624 12.8647 6.11448 15.1676 5.87625 15.6441C5.08213 17.3117 6.90861 18.3441 8.33802 17.947C9.60861 17.55 11.4351 16.9147 13.4998 14.9294C15.6439 12.8647 14.7704 10.1647 12.7057 9.13232ZM11.6733 13.9764C11.5145 13.6588 11.038 13.4206 10.4821 13.4206C10.0851 13.4206 9.68801 13.5794 9.44978 13.8176C9.52919 13.3412 9.84684 12.547 10.641 12.6265C11.4351 12.7059 11.6733 13.4206 11.6733 13.9764ZM17.0733 14.9294C19.138 16.9147 20.9645 17.55 22.2351 17.947C23.6645 18.3441 25.491 17.3912 24.6968 15.6441C24.4586 15.1676 23.3469 12.8647 22.3939 10.8C21.7586 9.44997 19.8527 8.02055 17.8674 9.13232C15.9615 10.1647 15.0086 12.8647 17.0733 14.9294ZM18.9792 13.9764C18.9792 13.4206 19.2174 12.7058 20.0116 12.7058C20.8057 12.6264 21.1233 13.4206 21.2027 13.897C20.9645 13.6588 20.6468 13.5 20.1704 13.5C19.6939 13.4206 19.2174 13.6588 18.9792 13.9764C19.0586 13.9764 18.9792 13.9764 18.9792 13.9764Z" fill="#E7E7E7"/>
<path d="M19.5355 24.6971C17.6296 25.4912 14.7708 25.8883 11.356 25.0147C5.71781 23.4265 8.57664 16.1206 15.009 16.1206C21.3619 16.0412 25.3325 22.3147 19.5355 24.6971Z" fill="#F8F8F8"/>
<path d="M15.4852 25.4912V16.0412C15.3264 16.0412 15.1675 16.0412 15.0087 16.0412C8.57636 16.0412 5.79694 23.4265 11.3558 24.9353C12.8646 25.3324 14.2146 25.4912 15.4852 25.4912Z" fill="white"/>
<path d="M20.2498 20.7265C20.1704 21.2823 19.5351 21.8382 18.0263 21.6C16.9146 21.4412 16.2793 20.7265 16.041 20.3294C16.4381 20.25 16.6763 19.8529 17.0734 19.5353C17.5498 19.1382 18.0263 18.9 18.1057 18.5029C18.1851 18.1059 18.1057 17.6294 16.994 17.3912C15.8822 17.2324 16.041 17.947 14.6116 17.4706C13.1822 16.9147 12.8646 17.9471 12.8646 18.5824C12.8646 19.2176 13.8969 19.5353 14.6116 20.0118C14.9292 20.1706 15.0881 20.3294 15.2469 20.3294C15.0087 20.647 14.3734 21.4412 13.2616 21.6C11.7528 21.8382 11.1175 21.2823 11.0381 20.7265C10.9587 20.1706 10.4822 20.8853 10.9587 21.5206C11.4351 22.1559 12.7057 22.95 14.1351 22.2353C15.0881 21.7588 15.4851 21.2823 15.644 20.8059C15.8028 21.2823 16.1998 21.7588 17.1528 22.2353C18.5822 22.95 19.8528 22.1559 20.3293 21.5206C20.8057 20.8059 20.3293 20.1706 20.2498 20.7265ZM4.04984 8.73528C4.92337 8.81469 5.63806 8.41764 5.79688 8.09999C5.8763 7.94117 5.8763 7.78235 5.79688 7.70294C5.95571 7.54411 6.03512 7.30588 5.8763 6.90882C5.8763 6.82941 5.79688 6.59117 5.79688 6.51176C5.79688 6.51176 5.87632 6.43234 6.11455 6.43234C6.19396 6.43234 6.27337 6.43234 6.35278 6.43234C6.5116 6.35293 6.67042 6.35294 6.67042 6.19412C6.67042 6.03529 6.59102 5.95589 6.51161 5.87647C6.4322 5.79706 6.27336 5.71764 6.19394 5.63823C6.11453 5.55881 5.95572 5.47941 5.95572 5.4C5.95572 5.32059 6.03514 5.24117 6.11455 5.24117C6.19396 5.24117 6.35277 5.24117 6.591 5.32058C6.67041 5.39999 6.82926 5.4 6.90867 5.4C7.06749 5.47941 7.14689 5.39999 7.14689 5.32058C7.22631 5.24117 7.22631 5.08235 7.22631 4.92352C7.38514 4.92352 7.54396 5.00295 7.70279 5.08236C7.86161 5.16177 7.94102 5.16175 8.02043 5.16175C8.25866 5.16175 8.33807 5.00293 8.33807 4.84411C8.33807 4.7647 8.33807 4.76469 8.33807 4.76469C8.4969 4.76469 8.81455 4.60589 8.81455 4.28824H8.89396C8.89396 4.28824 8.97336 4.28824 9.05277 4.28824C9.2116 4.28824 9.44984 4.28823 9.60867 4.04999C9.68808 3.89117 9.76747 3.73234 9.76747 3.57351C9.76747 3.57351 9.76747 3.57353 9.76747 3.49412C9.68806 2.54118 9.291 0.317652 6.591 -0.0794067C6.51159 5.02169e-06 6.35279 -1.43722e-05 6.11455 -1.43722e-05C4.12926 -1.43722e-05 2.62042 1.27058 1.58807 3.73235C0.952775 5.32058 0.873369 7.30589 2.4616 8.25883C2.69984 8.41765 2.85865 8.49706 3.09689 8.57647" fill="#E7E7E7"/>
</g>
<defs>
<clipPath id="clip0_5928_6305">
<rect width="127.059" height="27" fill="white"/>
</clipPath>
</defs>
</svg>
