<svg width="105" height="30" viewBox="0 0 105 30" fill="none" xmlns="http://www.w3.org/2000/svg">
<g style="mix-blend-mode:luminosity">
<path d="M14.4042 29.6841C18.8647 29.6841 21.8252 28.263 24.4305 25.9736C24.8647 25.5788 25.22 24.9867 25.22 24.2367C25.22 23.013 24.1542 21.9867 22.9305 21.9867C22.3384 21.9867 21.8252 22.2236 21.47 22.5394C19.4568 24.2367 17.4831 25.1841 14.5621 25.1841C9.27261 25.1841 5.44365 20.8025 5.44365 15.3946V15.3157C5.44365 9.90779 9.31209 5.56568 14.5621 5.56568C17.2068 5.56568 19.2595 6.51305 21.1542 8.05253C21.47 8.28937 21.9436 8.52621 22.6147 8.52621C23.9568 8.52621 25.0226 7.49989 25.0226 6.15779C25.0226 5.28937 24.5884 4.61832 24.0752 4.22358C21.6673 2.36832 18.8647 1.10516 14.6015 1.10516C6.23313 1.10516 0.351562 7.53937 0.351562 15.3946V15.4736C0.351562 23.4078 6.35155 29.6841 14.4042 29.6841ZM31.6164 5.36832C33.1559 5.36832 34.3401 4.42095 34.3401 2.9999V2.76305C34.3401 1.342 33.1559 0.434107 31.6164 0.434107C30.077 0.434107 28.8927 1.342 28.8927 2.76305V2.9999C28.8927 4.42095 30.077 5.36832 31.6164 5.36832ZM31.6164 29.4078C32.9585 29.4078 34.0243 28.3815 34.0243 27.0394V10.5394C34.0243 9.19726 32.9585 8.13147 31.6164 8.13147C30.2743 8.13147 29.248 9.19726 29.248 10.5394V27.0394C29.248 28.3815 30.3138 29.4078 31.6164 29.4078ZM41.4471 29.4078C42.7892 29.4078 43.855 28.342 43.855 27.0394V20.8815C43.855 15.9473 46.1839 13.342 49.5786 12.7499C50.6444 12.5525 51.4734 11.7236 51.4734 10.4604C51.4734 9.07884 50.605 8.092 49.105 8.092C47.0129 8.092 44.9602 10.0657 43.855 12.6709V10.5394C43.855 9.19726 42.7892 8.13147 41.4471 8.13147C40.105 8.13147 39.0786 9.19726 39.0786 10.5394V27.0394C39.0786 28.3815 40.1444 29.4078 41.4471 29.4078ZM63.1198 29.6841C66.5935 29.6841 68.8435 28.4999 70.6988 26.7236C71.133 26.3683 71.3698 25.8552 71.3698 25.2236C71.3698 24.0788 70.4619 23.1315 69.3172 23.1315C68.7645 23.1315 68.2909 23.4078 68.0146 23.6446C66.7119 24.7499 65.2514 25.4999 63.3567 25.4999C59.6856 25.4999 57.1198 22.5394 57.1198 18.8288V18.7499C57.1198 15.1183 59.6856 12.1183 63.1593 12.1183C65.054 12.1183 66.3961 12.8683 67.6198 13.8946C67.9356 14.1315 68.4488 14.3683 69.0409 14.3683C70.2646 14.3683 71.2514 13.4209 71.2514 12.1973C71.2514 11.4078 70.8172 10.8157 70.5014 10.5394C68.7251 8.99989 66.4751 7.9341 63.1988 7.9341C56.9225 7.9341 52.3435 12.9078 52.3435 18.8288V18.9078C52.3435 24.8288 56.9225 29.6841 63.1198 29.6841ZM77.49 29.4078C78.8321 29.4078 79.8979 28.3815 79.8979 27.0394V2.56569C79.8979 1.26305 78.8321 0.197266 77.49 0.197266C76.1478 0.197266 75.1215 1.26305 75.1215 2.56569V27.0394C75.1215 28.3815 76.1873 29.4078 77.49 29.4078ZM94.5048 29.6841C97.7416 29.6841 100.11 28.6183 102.005 26.9209C102.36 26.5657 102.636 26.0525 102.636 25.4604C102.636 24.3552 101.807 23.5262 100.742 23.5262C100.189 23.5262 99.8732 23.6841 99.518 23.9604C98.1759 25.0657 96.5969 25.7762 94.5838 25.7762C91.5048 25.7762 89.0969 23.8815 88.5838 20.4867H101.65C102.873 20.4867 103.9 19.5394 103.9 18.1973C103.9 13.3815 100.623 7.9341 93.9917 7.9341C88.0311 7.9341 83.8074 12.8288 83.8074 18.7894V18.8683C83.8074 25.3025 88.4653 29.6841 94.5048 29.6841ZM99.2416 17.3288H88.5443C88.9785 14.092 91.0311 11.842 93.9522 11.842C97.1101 11.842 98.9259 14.2499 99.2416 17.3288Z" fill="white"/>
</g>
</svg>
