<svg width="122" height="28" viewBox="0 0 122 28" fill="none" xmlns="http://www.w3.org/2000/svg">
<g clip-path="url(#clip0_75_1379)">
<path d="M33.0518 6.64209H35.1089V12.3635C35.9446 11.1421 37.1017 10.4992 38.4517 10.4992C40.316 10.4992 41.4089 11.5278 41.4089 13.5849V20.5921H39.3518V14.1635C39.3518 12.7492 38.8374 12.3635 37.8088 12.3635C37.166 12.3635 36.5874 12.7492 36.0088 13.4563C35.4303 14.2278 35.1732 15.1921 35.1732 16.4135V20.5921H33.116L33.0518 6.64209Z" fill="#3A3938"/>
<path d="M51.6946 16.1562H44.6875C44.6875 17.6991 45.5875 18.9205 47.1304 18.9205C48.2232 18.9205 49.2518 18.2777 49.7018 17.2491L51.4375 17.9562C50.4089 19.8848 49.2518 20.7205 47.0661 20.7205C43.7875 20.7205 42.4375 17.9562 42.4375 15.5777C42.4375 13.1991 43.7875 10.4348 47.0661 10.4348C50.2161 10.4348 51.6304 13.0062 51.6304 15.2562V16.1562H51.6946ZM44.7518 14.4848H49.5732C49.3804 13.2634 48.5446 12.2991 47.1946 12.2991C45.8446 12.2991 45.0089 13.1991 44.7518 14.4848Z" fill="#3A3938"/>
<path d="M67.7658 10.4991C68.2801 10.4991 68.7301 10.6277 69.3086 10.8848C69.8229 11.142 70.2086 11.3991 70.4658 11.7205V6.57764H72.5229V20.5277H70.4658V19.3705C70.0801 20.0134 68.9872 20.6562 67.7658 20.6562C64.8729 20.6562 63.3301 18.792 63.3301 15.5134C63.3301 12.4277 64.8729 10.4991 67.7658 10.4991ZM65.4515 15.5777C65.4515 16.6062 65.7086 17.3777 66.1586 18.0205C66.6086 18.5991 67.2515 18.9205 67.9586 18.9205C68.7301 18.9205 69.3086 18.5991 69.7586 18.0205C70.2086 17.442 70.4658 16.6062 70.4658 15.5777C70.4658 14.5491 70.2086 13.7777 69.7586 13.1991C69.3086 12.6205 68.6658 12.2991 67.9586 12.2991C67.1872 12.2991 66.6086 12.6205 66.1586 13.1991C65.7086 13.7777 65.4515 14.6134 65.4515 15.5777Z" fill="#3A3938"/>
<path d="M80.3018 12.0421L79.016 13.1993C78.566 12.6207 77.9875 12.2993 77.2803 12.2993C76.7018 12.2993 76.316 12.685 76.316 13.2636C76.316 13.4564 76.3803 13.7136 76.5732 13.8421C76.8946 14.1636 77.216 14.3564 78.116 14.6778C78.8232 14.935 79.0803 15.0636 79.6589 15.385C80.4303 15.835 80.816 16.4778 80.8803 17.5064C80.8803 18.4064 80.5589 19.1136 79.916 19.7564C79.2732 20.335 78.4375 20.6564 77.4089 20.6564C75.5446 20.6564 74.1946 19.435 73.5518 18.0207L75.2875 17.0564C75.8018 18.2778 76.5732 18.8564 77.4732 18.8564C78.3732 18.8564 78.8232 18.4064 78.8232 17.5707C78.8232 17.2493 78.6946 16.9921 78.3089 16.7993C78.116 16.6707 77.9875 16.6064 77.7946 16.5421C77.4732 16.4136 76.766 16.1564 76.4446 16.0278C75.0303 15.4493 74.3232 14.5493 74.3232 13.3278C74.3232 12.5564 74.6446 11.8493 75.1589 11.335C75.7375 10.7564 76.4446 10.4993 77.3446 10.4993C78.566 10.4993 79.6589 11.0778 80.3018 12.0421Z" fill="#3A3938"/>
<path d="M86.8589 20.7207C85.7017 20.7207 84.6732 20.1421 84.2232 19.435V24.5779H82.166V10.6278H84.2232V11.785C84.6089 11.1421 85.7017 10.4993 86.9232 10.4993C89.816 10.4993 91.3589 12.3636 91.3589 15.6421C91.2946 18.7278 89.7517 20.7207 86.8589 20.7207ZM89.1732 15.5778C89.1732 14.5493 88.916 13.7778 88.466 13.1993C88.016 12.6207 87.3732 12.2993 86.666 12.2993C85.8946 12.2993 85.316 12.6207 84.866 13.1993C84.416 13.7778 84.1589 14.6136 84.1589 15.5778C84.1589 16.6064 84.416 17.3778 84.866 18.0207C85.316 18.5993 85.9589 18.9207 86.666 18.9207C87.4374 18.9207 88.016 18.5993 88.466 18.0207C88.916 17.4421 89.1732 16.6064 89.1732 15.5778Z" fill="#3A3938"/>
<path d="M111.544 17.9562C110.709 19.7562 109.294 20.7205 107.237 20.7205C105.759 20.7205 104.602 20.2062 103.766 19.242C102.93 18.2777 102.544 17.0562 102.544 15.5777C102.544 14.0991 102.93 12.8777 103.766 11.9134C104.602 10.9491 105.759 10.4348 107.237 10.4348C109.294 10.4348 110.709 11.3348 111.544 13.1991L109.744 13.9705C109.23 12.8134 108.394 12.2348 107.302 12.2348C105.63 12.2348 104.794 13.5848 104.794 15.5134C104.794 17.5062 105.63 18.792 107.302 18.792C108.394 18.792 109.23 18.2134 109.744 17.0562L111.544 17.9562Z" fill="#3A3938"/>
<path d="M121.445 16.1562H114.438C114.438 17.6991 115.338 18.9205 116.88 18.9205C117.973 18.9205 119.002 18.2777 119.452 17.2491L121.188 17.9562C120.159 19.8848 119.002 20.7205 116.816 20.7205C113.537 20.7205 112.188 17.9562 112.188 15.5777C112.188 13.1991 113.537 10.4348 116.816 10.4348C119.966 10.4348 121.38 13.0062 121.38 15.2562V16.1562H121.445ZM114.502 14.4848H119.323C119.13 13.2634 118.295 12.2991 116.945 12.2991C115.595 12.2991 114.695 13.1991 114.502 14.4848Z" fill="#3A3938"/>
<path d="M57.3517 10.4993C57.866 10.4993 58.3161 10.6278 58.8946 10.885C59.4089 11.1421 59.7946 11.3993 60.0517 11.7207V10.6278H62.1089V20.5921H60.3731L60.0517 19.435C59.666 20.0778 58.5731 20.7207 57.3517 20.7207C54.4589 20.7207 52.916 18.8564 52.916 15.5778C52.8517 12.4921 54.3946 10.4993 57.3517 10.4993ZM55.0375 15.6421C55.0375 16.6707 55.2946 17.4421 55.7446 18.085C56.1946 18.6636 56.8375 18.985 57.5446 18.985C58.3161 18.985 58.8946 18.6636 59.3446 18.085C59.7946 17.5064 60.0517 16.6707 60.0517 15.6421C60.0517 14.6136 59.7946 13.8421 59.3446 13.2636C58.8946 12.685 58.2518 12.3636 57.5446 12.3636C56.7732 12.3636 56.1946 12.685 55.7446 13.2636C55.2946 13.7778 55.0375 14.6136 55.0375 15.6421Z" fill="#3A3938"/>
<path d="M96.7589 10.4993C97.2732 10.4993 97.7232 10.6278 98.3018 10.885C98.8161 11.1421 99.2018 11.3993 99.4589 11.7207V10.6278H101.516V20.5921H99.7804L99.4589 19.435C99.0732 20.0778 97.9804 20.7207 96.7589 20.7207C93.8661 20.7207 92.3232 18.8564 92.3232 15.5778C92.2589 12.4921 93.8018 10.4993 96.7589 10.4993ZM94.4446 15.6421C94.4446 16.6707 94.7018 17.4421 95.1518 18.085C95.6018 18.6636 96.2447 18.985 96.9518 18.985C97.7232 18.985 98.3018 18.6636 98.7518 18.085C99.2018 17.5064 99.4589 16.6707 99.4589 15.6421C99.4589 14.6136 99.2018 13.8421 98.7518 13.2636C98.3018 12.685 97.6589 12.3636 96.9518 12.3636C96.1804 12.3636 95.6018 12.685 95.1518 13.2636C94.6375 13.7778 94.4446 14.6136 94.4446 15.6421Z" fill="#3A3938"/>
<path d="M26.6874 14.3562C27.0088 18.5991 25.016 20.9776 23.8588 22.6491C22.0588 24.5776 19.6803 27.2134 13.8303 27.3419C8.81599 27.5348 6.37313 25.3491 4.31599 23.4205C1.61599 20.4634 0.908845 18.6634 0.780273 14.3562C0.780273 11.6562 1.80885 9.0205 3.60885 6.64195C6.11599 3.10624 10.1017 1.88481 13.8303 1.62767C17.6874 1.4991 20.7731 3.42766 22.8946 5.54909C25.5946 8.44192 26.4303 10.8848 26.6874 14.3562Z" fill="#FF7E1D"/>
</g>
<defs>
<clipPath id="clip0_75_1379">
<rect width="120.857" height="27" fill="white" transform="translate(0.780273 0.984863)"/>
</clipPath>
</defs>
</svg>
