<svg width="175" height="28" viewBox="0 0 175 28" fill="none" xmlns="http://www.w3.org/2000/svg">
<mask id="mask0_75_1295" style="mask-type:alpha" maskUnits="userSpaceOnUse" x="26" y="10" width="15" height="18">
<path d="M35.3433 10.6941L40.2205 21.6593C41.2075 23.8783 40.2105 26.478 37.9938 27.4659C35.777 28.4538 33.1799 27.4559 32.1929 25.237L28.2503 16.3729L26.5127 20.4704V10.6941H35.3433V10.6941Z" fill="white"/>
</mask>
<g mask="url(#mask0_75_1295)">
<path d="M35.3433 10.6941L40.2205 21.6593C41.2075 23.8783 40.2105 26.478 37.9938 27.4659C35.777 28.4538 33.1799 27.4559 32.1929 25.237L28.2503 16.3729L26.5127 20.4704V10.6941H35.3433V10.6941Z" fill="#2AA8FF"/>
</g>
<mask id="mask1_75_1295" style="mask-type:alpha" maskUnits="userSpaceOnUse" x="27" y="11" width="10" height="8">
<path d="M35.8719 11.8826L36.881 14.1513C36.2715 13.9393 35.6167 13.8241 34.935 13.8241C32.1191 13.8241 29.7623 15.7892 29.1619 18.4225L28.2503 16.373L27.2842 18.6513L27.2842 11.8826H35.8719Z" fill="white"/>
</mask>
<g mask="url(#mask1_75_1295)">
<path d="M35.8714 11.8826L36.8805 14.1513C36.271 13.9393 35.6162 13.8241 34.9345 13.8241C32.1186 13.8241 29.7618 15.7892 29.1614 18.4225L28.2498 16.373L27.2837 18.6513L27.2837 11.8826H35.8714Z" fill="#393939" fill-opacity="0.2"/>
</g>
<mask id="mask2_75_1295" style="mask-type:alpha" maskUnits="userSpaceOnUse" x="2" y="0" width="20" height="19">
<path d="M21.194 10.5015V18.2665H13.0688L12.2265 16.3728L11.4235 18.2665H2.43604V16.9489L8.06894 3.66555C8.78136 1.98552 10.4148 0.978908 12.1305 0.98489C13.8184 0.979007 15.4313 1.95251 16.1619 3.59511L20.2373 12.7575L21.194 10.5015Z" fill="white"/>
</mask>
<g mask="url(#mask2_75_1295)">
<path d="M21.1935 10.5015V18.2665H13.0683L12.226 16.3728L11.423 18.2665H2.43555V16.9489L8.06845 3.66555C8.78088 1.98552 10.4143 0.978908 12.13 0.98489C13.8179 0.979007 15.4308 1.95251 16.1615 3.59511L20.2368 12.7575L21.1935 10.5015Z" fill="#017ACE"/>
</g>
<mask id="mask3_75_1295" style="mask-type:alpha" maskUnits="userSpaceOnUse" x="12" y="0" width="25" height="28">
<path d="M20.2313 12.7442L20.2372 12.7575L24.0928 3.66554C24.8052 1.98552 26.4386 0.978908 28.1543 0.98489C29.8422 0.979007 31.4552 1.95251 32.1858 3.59511L36.8769 14.1419C35.9309 13.3242 34.6983 12.8296 33.3503 12.8296C31.0082 12.8296 29.0145 14.3227 28.2668 16.4099L28.2503 16.3728L24.4629 25.3042C23.5148 27.54 20.9354 28.5832 18.7018 27.6341C18.4833 27.5413 18.2761 27.4328 18.0812 27.3105C17.262 26.8647 16.5776 26.1554 16.1691 25.2369L12.2417 16.4072C12.8329 16.5766 13.4573 16.6674 14.1029 16.6674C16.8195 16.6674 19.1612 15.0604 20.2313 12.7442Z" fill="white"/>
</mask>
<g mask="url(#mask3_75_1295)">
<path d="M20.2313 12.7442L20.2372 12.7575L24.0928 3.66554C24.8052 1.98552 26.4386 0.978908 28.1543 0.98489C29.8422 0.979007 31.4552 1.95251 32.1858 3.59511L36.8769 14.1419C35.9309 13.3242 34.6983 12.8296 33.3503 12.8296C31.0082 12.8296 29.0145 14.3227 28.2668 16.4099L28.2503 16.3728L24.4629 25.3042C23.5148 27.54 20.9354 28.5832 18.7018 27.6341C18.4833 27.5413 18.2761 27.4328 18.0812 27.3105C17.262 26.8647 16.5776 26.1554 16.1691 25.2369L12.2417 16.4072C12.8329 16.5766 13.4573 16.6674 14.1029 16.6674C16.8195 16.6674 19.1612 15.0604 20.2313 12.7442Z" fill="#AEDEFF"/>
</g>
<mask id="mask4_75_1295" style="mask-type:alpha" maskUnits="userSpaceOnUse" x="1" y="12" width="12" height="12">
<path d="M12.2018 16.4303L9.37354 23.0998C8.68379 23.4167 7.9152 23.5932 7.10492 23.5932C4.2626 23.5932 1.93318 21.4213 1.7207 18.635L3.66164 14.0579C4.59629 13.2833 5.79624 12.8176 7.10492 12.8176C9.46051 12.8176 11.4638 14.3263 12.2018 16.4303Z" fill="white"/>
</mask>
<g mask="url(#mask4_75_1295)">
<path d="M12.2018 16.4303L9.37354 23.0998C8.68379 23.4167 7.9152 23.5932 7.10492 23.5932C4.2626 23.5932 1.93318 21.4213 1.7207 18.635L3.66164 14.0579C4.59629 13.2833 5.79624 12.8176 7.10492 12.8176C9.46051 12.8176 11.4638 14.3263 12.2018 16.4303Z" fill="black"/>
</g>
<mask id="mask5_75_1295" style="mask-type:alpha" maskUnits="userSpaceOnUse" x="0" y="13" width="12" height="15">
<path d="M11.3721 18.3877L8.43914 25.3041C7.49102 27.5399 4.91168 28.5831 2.67804 27.634C0.4444 26.6849 -0.597718 24.1031 0.350407 21.8672L3.60714 14.1873C4.29653 13.8818 5.059 13.7122 5.86092 13.7122C8.62946 13.7122 10.9278 15.734 11.3721 18.3877Z" fill="white"/>
</mask>
<g mask="url(#mask5_75_1295)">
<path d="M11.3721 18.3877L8.43914 25.3041C7.49102 27.5399 4.91168 28.5831 2.67804 27.634C0.4444 26.6849 -0.597718 24.1031 0.350407 21.8672L3.60714 14.1873C4.29653 13.8818 5.059 13.7122 5.86092 13.7122C8.62946 13.7122 10.9278 15.734 11.3721 18.3877Z" fill="#393939"/>
</g>
<path d="M65.1211 7.75484V21.2668C65.1211 21.4746 64.9527 21.6431 64.745 21.6431H62.1121C61.9044 21.6431 61.736 21.4746 61.736 21.2668V13.4408C61.736 13.233 61.5676 13.0644 61.3598 13.0644C61.2363 13.0644 61.1206 13.1252 61.0504 13.2269L58.6134 16.7571C58.5432 16.8589 58.4275 16.9196 58.304 16.9196H57.0078C56.8833 16.9196 56.7668 16.8579 56.6968 16.7549L54.3364 13.2823C54.2196 13.1104 53.9856 13.0658 53.8139 13.1827C53.7109 13.2528 53.6493 13.3693 53.6493 13.494V21.2668C53.6493 21.4746 53.4809 21.6431 53.2732 21.6431H50.6403C50.4326 21.6431 50.2642 21.4746 50.2642 21.2668V7.75484C50.2642 7.54698 50.4326 7.37847 50.6403 7.37847H53.9748C54.1004 7.37847 54.2178 7.44125 54.2875 7.54581L57.3798 12.1791C57.4952 12.3519 57.7288 12.3985 57.9015 12.283C57.9426 12.2556 57.9779 12.2202 58.0054 12.1791L61.0977 7.54581C61.1675 7.44125 61.2848 7.37847 61.4105 7.37847H64.745C64.9527 7.37847 65.1211 7.54698 65.1211 7.75484ZM69.7363 17.3336C69.8743 17.9358 70.1595 18.4063 70.592 18.745C71.0246 19.0838 71.6608 19.2531 72.5009 19.2531C72.9898 19.2531 73.4568 19.1936 73.9019 19.0744C74.1445 19.0094 74.5302 18.8613 75.0591 18.63C75.2495 18.5468 75.4712 18.6337 75.5544 18.8242C75.5588 18.8343 75.5628 18.8446 75.5663 18.8551L76.1741 20.6661C76.2353 20.8484 76.1493 21.0476 75.9747 21.1279C75.2618 21.4559 74.7182 21.6622 74.3439 21.7466C73.7045 21.8909 72.9397 21.9631 72.0495 21.9631C70.8083 21.9631 69.752 21.7278 68.8807 21.2573C68.0093 20.7869 67.3479 20.1251 66.8966 19.272C66.4452 18.4188 66.2196 17.4277 66.2196 16.2986C66.2196 15.1193 66.4515 14.1062 66.9154 13.2593C67.3793 12.4125 68.0062 11.7727 68.796 11.3398C69.5859 10.907 70.4698 10.6906 71.4477 10.6906C73.0149 10.6906 74.2436 11.1454 75.1337 12.0549C76.0239 12.9645 76.469 14.2912 76.469 16.0351V16.9572C76.469 17.1651 76.3006 17.3336 76.0928 17.3336H69.7363ZM71.4477 13.4005C70.9964 13.4005 70.6296 13.5134 70.3475 13.7392C70.1431 13.9266 69.9902 14.1418 69.8888 14.3846C69.8088 14.5765 69.8994 14.7969 70.091 14.8769C70.137 14.8961 70.1862 14.906 70.2359 14.906H72.5857C72.7935 14.906 72.9619 14.7375 72.9619 14.5296C72.9619 14.4968 72.9576 14.4642 72.9491 14.4325C72.8713 14.1409 72.7439 13.9161 72.5667 13.758C72.2812 13.5224 71.9367 13.4005 71.4477 13.4005ZM90.4811 10.7659C91.8351 10.7659 92.8475 11.1234 93.5183 11.8385C94.189 12.5536 94.5244 13.689 94.5244 15.2447V21.2668C94.5244 21.4746 94.356 21.6431 94.1483 21.6431H91.6283C91.4205 21.6431 91.2521 21.4746 91.2521 21.2668V15.2447C91.2521 14.7304 91.1393 14.3383 90.9136 14.0686C90.6879 13.7988 90.2993 13.664 89.7476 13.664C89.0706 13.664 88.3811 13.9651 87.6789 14.5673C87.6915 14.7053 87.6978 14.9311 87.6978 15.2447V21.2668C87.6978 21.4746 87.5294 21.6431 87.3216 21.6431H84.8016C84.5939 21.6431 84.4255 21.4746 84.4255 21.2668V15.2447C84.4255 14.7304 84.3126 14.3383 84.087 14.0686C83.8613 13.7988 83.4726 13.664 82.921 13.664C82.2565 13.664 81.5732 13.9525 80.8711 14.5296V21.2668C80.8711 21.4746 80.7027 21.6431 80.495 21.6431H77.9749C77.7672 21.6431 77.5988 21.4746 77.5988 21.2668V11.3681C77.5988 11.1602 77.7672 10.9917 77.9749 10.9917H80.495C80.7027 10.9917 80.8711 11.1602 80.8711 11.3681V11.8197C81.3099 11.4559 81.7518 11.1893 82.1969 11.0199C82.642 10.8505 83.1278 10.7659 83.6544 10.7659C85.3219 10.7659 86.4628 11.299 87.0771 12.3655C87.6413 11.8134 88.1898 11.4088 88.7227 11.1516C89.2555 10.8944 89.8417 10.7659 90.4811 10.7659ZM101.955 10.6906C102.908 10.6906 103.751 10.9007 104.484 11.321C105.218 11.7413 105.795 12.3749 106.215 13.2217C106.635 14.0686 106.845 15.1004 106.845 16.3174C106.845 17.5469 106.635 18.5851 106.215 19.4319C105.795 20.2788 105.218 20.9123 104.484 21.3326C103.751 21.7529 102.908 21.9631 101.955 21.9631C100.939 21.9631 99.9865 21.6243 99.0964 20.9468V21.2668C99.0964 21.4746 98.928 21.6431 98.7202 21.6431H96.2002C95.9925 21.6431 95.8241 21.4746 95.8241 21.2668V6.09879C95.8241 5.89092 95.9925 5.72241 96.2002 5.72241H98.7202C98.928 5.72241 99.0964 5.89092 99.0964 6.09879V11.7068C99.9865 11.0293 100.939 10.6906 101.955 10.6906ZM101.24 19.065C101.967 19.065 102.516 18.8329 102.886 18.3687C103.256 17.9045 103.441 17.2207 103.441 16.3174C103.441 15.4266 103.256 14.7492 102.886 14.285C102.516 13.8208 101.967 13.5887 101.24 13.5887C100.526 13.5887 99.811 13.8459 99.0964 14.3602V18.2934C99.811 18.8078 100.526 19.065 101.24 19.065ZM110.99 17.3336C111.128 17.9358 111.413 18.4063 111.845 18.745C112.278 19.0838 112.914 19.2531 113.754 19.2531C114.243 19.2531 114.71 19.1936 115.155 19.0744C115.398 19.0094 115.784 18.8613 116.312 18.63C116.503 18.5468 116.725 18.6337 116.808 18.8242C116.812 18.8343 116.816 18.8446 116.82 18.8551L117.427 20.6661C117.489 20.8484 117.403 21.0476 117.228 21.1279C116.515 21.4559 115.972 21.6622 115.597 21.7466C114.958 21.8909 114.193 21.9631 113.303 21.9631C112.062 21.9631 111.005 21.7278 110.134 21.2573C109.263 20.7869 108.601 20.1251 108.15 19.272C107.699 18.4188 107.473 17.4277 107.473 16.2986C107.473 15.1193 107.705 14.1062 108.169 13.2593C108.633 12.4125 109.259 11.7727 110.049 11.3398C110.839 10.907 111.723 10.6906 112.701 10.6906C114.268 10.6906 115.497 11.1454 116.387 12.0549C117.277 12.9645 117.722 14.2912 117.722 16.0351V16.9572C117.722 17.1651 117.554 17.3336 117.346 17.3336H110.99ZM112.701 13.4005C112.25 13.4005 111.883 13.5134 111.601 13.7392C111.396 13.9266 111.243 14.1418 111.142 14.3846C111.062 14.5765 111.153 14.7969 111.344 14.8769C111.39 14.8961 111.439 14.906 111.489 14.906H113.839C114.047 14.906 114.215 14.7375 114.215 14.5296C114.215 14.4968 114.211 14.4642 114.202 14.4325C114.125 14.1409 113.997 13.9161 113.82 13.758C113.534 13.5224 113.19 13.4005 112.701 13.4005ZM125.483 11.1422V13.2876C125.483 13.4954 125.315 13.664 125.107 13.664H125.05C124.948 13.664 124.847 13.6678 124.745 13.6755C123.881 13.7407 123.018 14.0818 122.154 14.699V21.2668C122.154 21.4746 121.986 21.6431 121.778 21.6431H119.258C119.05 21.6431 118.882 21.4746 118.882 21.2668V11.3681C118.882 11.1602 119.05 10.9917 119.258 10.9917H121.778C121.986 10.9917 122.154 11.1602 122.154 11.3681V11.9326C122.618 11.5437 123.085 11.252 123.555 11.0575C123.99 10.8776 124.45 10.7809 124.933 10.7675C124.972 10.7664 125.011 10.7659 125.05 10.7659H125.107C125.315 10.7659 125.483 10.9344 125.483 11.1422ZM130.562 21.9631C129.672 21.9631 128.885 21.8909 128.202 21.7466C127.79 21.6597 127.368 21.5351 126.936 21.373C126.784 21.3162 126.569 21.2263 126.291 21.1034C126.155 21.0431 126.067 20.9081 126.067 20.7591V18.7397C126.067 18.5318 126.236 18.3633 126.443 18.3633C126.501 18.3633 126.558 18.3765 126.609 18.402C126.75 18.4711 126.868 18.526 126.963 18.5667C127.383 18.7462 127.805 18.8872 128.23 18.9897C128.957 19.1653 129.734 19.2531 130.562 19.2531C131.377 19.2531 131.784 19.0085 131.784 18.5192C131.784 18.3185 131.728 18.1679 131.615 18.0676C131.502 17.9672 131.32 17.8856 131.07 17.8229L129.245 17.4465C128.18 17.2333 127.402 16.8694 126.913 16.355C126.424 15.8407 126.18 15.1381 126.18 14.2473C126.18 13.0429 126.553 12.149 127.299 11.5657C128.045 10.9823 129.176 10.6906 130.693 10.6906C131.32 10.6906 131.975 10.7533 132.659 10.8788C133.05 10.9506 133.43 11.0347 133.798 11.1312C133.932 11.1664 134.112 11.218 134.338 11.2861C134.497 11.3341 134.605 11.4805 134.605 11.6464V13.5938C134.605 13.8017 134.437 13.9702 134.229 13.9702C134.184 13.9702 134.139 13.962 134.096 13.946C134.002 13.9103 133.918 13.8809 133.845 13.8576C133.546 13.7624 133.22 13.6791 132.866 13.6075C132.182 13.4695 131.515 13.4005 130.863 13.4005C130.349 13.4005 129.991 13.4507 129.791 13.551C129.59 13.6514 129.49 13.8082 129.49 14.0215C129.49 14.1846 129.54 14.3007 129.64 14.3697C129.741 14.4387 129.91 14.4983 130.148 14.5484L131.972 14.9248C133.076 15.1506 133.872 15.5207 134.361 16.0351C134.85 16.5495 135.094 17.3148 135.094 18.331C135.094 19.548 134.687 20.4575 133.872 21.0597C133.057 21.662 131.953 21.9631 130.562 21.9631ZM140.323 14.6425V17.8605C140.323 18.2746 140.392 18.5663 140.53 18.7356C140.668 18.905 140.919 18.9897 141.283 18.9897C141.522 18.9897 141.746 18.9729 141.956 18.9393C141.956 18.9393 141.956 18.9393 141.957 18.9393C142.162 18.9065 142.355 19.0462 142.387 19.2515C142.391 19.2711 142.392 19.291 142.392 19.3109V21.316C142.392 21.4958 142.265 21.6506 142.089 21.6853C142.072 21.6885 142.057 21.6915 142.043 21.6942C141.765 21.748 141.521 21.7905 141.311 21.8219C141.016 21.8658 140.7 21.8878 140.361 21.8878C139.245 21.8878 138.415 21.6431 137.869 21.1538C137.324 20.6646 137.051 19.962 137.051 19.0461V14.6425C137.051 14.4347 136.883 14.2662 136.675 14.2662H135.96C135.753 14.2662 135.584 14.0976 135.584 13.8898V11.7444C135.584 11.5366 135.753 11.3681 135.96 11.3681H136.675C136.883 11.3681 137.051 11.1995 137.051 10.9917V8.16886C137.051 7.96099 137.22 7.79248 137.427 7.79248H139.947C140.155 7.79248 140.323 7.96099 140.323 8.16886V10.9917C140.323 11.1995 140.492 11.3681 140.7 11.3681H142.354C142.562 11.3681 142.731 11.5366 142.731 11.7444V13.8898C142.731 14.0976 142.562 14.2662 142.354 14.2662H140.7C140.492 14.2662 140.323 14.4347 140.323 14.6425ZM148.085 10.9917C149.464 10.9917 150.514 11.1767 151.235 11.5468C151.956 11.9169 152.435 12.4094 152.673 13.0241C152.912 13.6389 153.031 14.423 153.031 15.3765V21.2668C153.031 21.4746 152.862 21.6431 152.655 21.6431H150.135C149.927 21.6431 149.758 21.4746 149.758 21.2668V20.7775C149.32 21.1789 148.887 21.4644 148.461 21.6337C148.035 21.8031 147.564 21.8878 147.05 21.8878C145.847 21.8878 144.903 21.571 144.22 20.9374C143.537 20.3039 143.195 19.4225 143.195 18.2934C143.195 17.1517 143.543 16.2735 144.239 15.6587C144.935 15.044 145.903 14.7366 147.144 14.7366C148.172 14.7366 149.044 14.9248 149.758 15.3012C149.746 14.9499 149.693 14.6708 149.599 14.4638C149.505 14.2567 149.317 14.0968 149.034 13.9839C148.752 13.871 148.342 13.8145 147.803 13.8145H146.035C145.827 13.8145 145.659 13.646 145.659 13.4381V11.3681C145.659 11.1602 145.827 10.9917 146.035 10.9917H148.085ZM147.259 19.3661C147.898 19.3661 148.569 19.0775 149.271 18.5004V17.503C148.669 17.2144 148.061 17.0702 147.447 17.0702C146.996 17.0702 146.645 17.1674 146.394 17.3619C146.143 17.5563 146.018 17.8543 146.018 18.2557C146.018 18.6698 146.124 18.9583 146.337 19.1214C146.551 19.2845 146.858 19.3661 147.259 19.3661ZM159.339 21.9631C157.584 21.9505 156.242 21.4518 155.314 20.467C154.387 19.4821 153.923 18.0927 153.923 16.2986C153.923 14.5171 154.387 13.1402 155.314 12.1679C156.242 11.1955 157.584 10.7031 159.339 10.6906C159.978 10.6906 160.524 10.7282 160.975 10.8035C161.256 10.8503 161.544 10.9213 161.839 11.0166C161.914 11.0411 162.015 11.0769 162.141 11.1241C162.288 11.1791 162.385 11.3196 162.385 11.4766V13.6146C162.385 13.8225 162.217 13.991 162.009 13.991C161.961 13.991 161.914 13.9818 161.869 13.9638C161.845 13.954 161.822 13.9453 161.802 13.9374C161.551 13.8427 161.31 13.7704 161.078 13.7204C160.671 13.6326 160.216 13.5887 159.715 13.5887C158.875 13.6012 158.267 13.8333 157.891 14.285C157.515 14.7366 157.327 15.4016 157.327 16.2798C157.327 17.1831 157.508 17.8731 157.872 18.3498C158.236 18.8266 158.819 19.065 159.621 19.065C160.072 19.065 160.508 18.996 160.928 18.8579C161.159 18.782 161.395 18.6832 161.636 18.5616C161.692 18.5332 161.761 18.4959 161.842 18.4497C162.023 18.3473 162.253 18.4109 162.355 18.5918C162.367 18.6122 162.376 18.6337 162.384 18.656L163.055 20.6304C163.114 20.8039 163.04 20.9947 162.879 21.0823C162.727 21.1653 162.603 21.229 162.508 21.2735C161.531 21.7332 160.475 21.9631 159.339 21.9631ZM168.028 18.0864L167.163 19.0085V21.2668C167.163 21.4746 166.995 21.6431 166.787 21.6431H164.267C164.06 21.6431 163.891 21.4746 163.891 21.2668V6.09879C163.891 5.89092 164.06 5.72241 164.267 5.72241H166.66H166.787C166.995 5.72241 167.163 5.89092 167.163 6.09879V6.21694V14.9248L170.381 11.4872C170.452 11.4112 170.551 11.3681 170.655 11.3681H173.531C173.738 11.3681 173.907 11.5366 173.907 11.7444C173.907 11.8406 173.87 11.9331 173.804 12.003L170.172 15.8469L174.262 21.0336C174.39 21.1968 174.363 21.4335 174.199 21.5622C174.133 21.6146 174.051 21.6431 173.966 21.6431H171.013C170.898 21.6431 170.789 21.5903 170.718 21.4998L168.028 18.0864Z" fill="#192A33"/>
</svg>
