<svg width="108" height="27" viewBox="0 0 108 27" fill="none" xmlns="http://www.w3.org/2000/svg">
<g style="mix-blend-mode:luminosity" clip-path="url(#clip0_5928_6307)">
<path d="M34.7066 22.1075C32.6739 21.9914 30.1205 20.6149 29.0957 19.5866L31.3468 16.7506C31.9012 17.3642 34.5554 18.8735 36.3697 18.5418C36.8568 18.4423 37.4112 18.0276 37.4112 17.3808C37.4448 16.9496 37.0752 16.5516 36.756 16.4023C36.4536 16.1867 35.4961 16.1536 34.8746 16.1204C34.169 16.0872 33.3627 16.0043 32.5059 15.656C30.9268 14.8931 29.8181 13.3176 29.7677 11.6425C29.7677 9.66895 30.574 8.57435 31.3972 7.89438C33.0603 6.61735 35.3785 6.50126 36.9744 6.91588C38.2343 7.2144 39.6286 7.89438 40.4518 8.67386L38.3855 11.5264C38.0831 11.3108 36.6216 10.6474 36.0673 10.4982C35.2105 10.2494 34.1186 10.3821 33.6314 10.6806C33.4802 10.7635 33.2619 11.1118 33.3291 11.5264C33.3291 11.8249 33.6146 12.2561 33.8162 12.3722C34.253 12.5878 34.6562 12.7039 35.2273 12.7371C36.0337 12.7371 37.3776 12.7371 38.4023 13.2181C40.099 14.1302 41.0901 15.6892 40.9557 17.4803C40.8549 19.0393 39.7798 20.5485 38.3687 21.2783C37.3272 21.9582 35.9161 22.207 34.7066 22.1075Z" fill="white"/>
<path d="M49.6911 21.9582C47.692 21.9582 45.8105 21.1953 44.3658 19.8354C42.8875 18.4423 42.0476 16.5516 42.0308 14.5117C41.9972 12.4717 42.7699 10.5645 44.181 9.08843C45.5921 7.66214 47.5072 6.79973 49.5735 6.78314C51.6397 6.74997 53.5548 7.51287 55.0331 8.90599L52.4797 11.5264C51.7405 10.8299 50.7494 10.4318 49.7079 10.4318H49.6407C48.5655 10.4318 47.5744 10.863 46.8353 11.6259C46.0961 12.3888 45.6929 13.3839 45.7265 14.4619C45.7265 15.5233 46.1633 16.5018 46.936 17.2316C47.7088 17.9613 48.7167 18.3593 49.8087 18.3262C50.7998 18.3262 51.7237 17.9281 52.4629 17.2647L54.9659 19.9349C53.5716 21.2119 51.7573 21.9416 49.8758 21.9748H49.6911V21.9582Z" fill="white"/>
<path d="M70.4377 6.83288V21.9914H67.3635V20.6148C66.1036 21.4607 64.5917 21.9914 62.9622 21.9914C58.7121 21.9914 55.2515 18.5583 55.2515 14.379C55.2515 10.183 58.6953 6.76654 62.9622 6.76654C64.5917 6.76654 66.1036 7.28067 67.3635 8.14308V6.83288H70.4377ZM66.9435 14.379C66.9435 12.1898 65.1628 10.4318 62.9286 10.4318C60.7447 10.4318 58.9472 12.1898 58.9472 14.379C58.9472 16.535 60.7279 18.3096 62.9286 18.3096C65.1628 18.3096 66.9435 16.535 66.9435 14.379Z" fill="white"/>
<path d="M88.1438 14.6775C88.1438 18.8403 84.7168 22.2236 80.5339 22.2236C78.9548 22.2236 77.5101 21.7426 76.3174 20.9466V27H72.6553V6.93243H76.3174V8.45823C77.5269 7.62899 78.9716 7.18121 80.5339 7.18121C84.7336 7.16462 88.1438 10.5479 88.1438 14.6775ZM84.4817 14.6775C84.4817 12.5215 82.7178 10.7801 80.5339 10.7801C78.3501 10.7801 76.5526 12.5215 76.5526 14.6775C76.5526 16.8335 78.3333 18.6081 80.5339 18.6081C82.7178 18.6081 84.4817 16.8501 84.4817 14.6775Z" fill="white"/>
<path d="M91.4702 5.12469C90.0927 5.12469 88.9839 4.0301 88.9839 2.62039V2.45455C88.9839 1.09459 90.0927 0 91.4702 0C92.8813 0 94.0404 1.09459 94.0404 2.45455V2.62039C94.0404 4.01351 92.8813 5.12469 91.4702 5.12469ZM93.3853 21.8919H89.7567V6.78317H93.3853V21.8919Z" fill="white"/>
<path d="M102.658 21.9582C100.659 21.9582 98.7774 21.1953 97.3327 19.8354C95.8544 18.4423 95.0144 16.5516 94.9976 14.5117C94.964 12.4717 95.7368 10.5645 97.1479 9.08843C98.559 7.66214 100.474 6.79973 102.54 6.78314C104.607 6.74997 106.522 7.51287 108 8.90599L105.447 11.5264C104.707 10.8299 103.716 10.4318 102.675 10.4318H102.608C101.532 10.4318 100.541 10.863 99.8021 11.6259C99.063 12.3888 98.6598 13.3839 98.6934 14.4619C98.6934 15.5233 99.1302 16.5018 99.9029 17.2316C100.676 17.9613 101.684 18.3593 102.776 18.3262C103.767 18.3262 104.691 17.9281 105.43 17.2647L107.933 19.9349C106.538 21.2119 104.724 21.9416 102.843 21.9748H102.658V21.9582Z" fill="white"/>
<path d="M11.9779 20.0841C11.6755 20.1173 11.5915 19.7027 11.8771 19.6198C11.8939 19.6198 11.8939 19.6198 11.9107 19.6032C17.8743 17.9447 22.242 14.9429 21.6708 12.9029C21.0828 10.863 15.7744 10.5479 9.81084 12.2064C3.84724 13.8648 -0.520468 16.8667 0.0506938 18.9066C1.73058 24.7942 7.92936 28.2438 13.8929 26.5854C18.7478 25.242 21.9564 20.93 22.074 16.2033C17.7567 19.8685 11.9779 20.0841 11.9779 20.0841Z" fill="white"/>
<path d="M17.8908 5.04176C16.8492 1.37653 12.9855 -0.76291 9.25617 0.265346C6.43396 1.06141 4.48529 3.46621 4.19971 6.20269C4.70367 5.871 6.93793 4.54422 10.3313 4.32861C10.4153 4.32861 10.4657 4.31203 10.4657 4.31203C10.6504 4.27886 10.7008 4.5608 10.5328 4.61056H10.516C6.78674 5.63881 4.06532 7.51289 4.41809 8.78992C4.78767 10.0669 8.08025 10.2494 11.8096 9.22112C15.5389 8.17628 18.2603 6.31879 17.8908 5.04176Z" fill="white"/>
</g>
<defs>
<clipPath id="clip0_5928_6307">
<rect width="108" height="27" fill="white"/>
</clipPath>
</defs>
</svg>
