<svg width="121" height="30" viewBox="0 0 121 30" fill="none" xmlns="http://www.w3.org/2000/svg">
<g clip-path="url(#clip0_679_67457)">
<path d="M39.0789 24.5642C36.8203 24.4352 33.9832 22.9057 32.8445 21.7632L35.3458 18.6121C35.9618 19.2939 38.9109 20.9709 40.9268 20.6023C41.468 20.4917 42.084 20.031 42.084 19.3123C42.1213 18.8332 41.7107 18.391 41.356 18.2251C41.02 17.9855 39.9561 17.9487 39.2655 17.9119C38.4815 17.875 37.5857 17.7829 36.6337 17.3959C34.8791 16.5482 33.6472 14.7976 33.5912 12.9364C33.5912 10.7435 34.4871 9.52732 35.4018 8.7718C37.2497 7.35288 39.8254 7.22389 41.5987 7.68458C42.9985 8.01627 44.5478 8.7718 45.4624 9.63789L43.1665 12.8074C42.8305 12.5679 41.2067 11.8307 40.5908 11.665C39.6388 11.3885 38.4255 11.536 37.8842 11.8676C37.7162 11.9597 37.4737 12.3467 37.5483 12.8074C37.5483 13.1391 37.8655 13.6182 38.0895 13.7472C38.5749 13.9867 39.0229 14.1157 39.6574 14.1526C40.5534 14.1526 42.0467 14.1526 43.1852 14.6871C45.0704 15.7005 46.1717 17.4327 46.0223 19.4229C45.9103 21.1551 44.7158 22.832 43.1479 23.6429C41.9907 24.3983 40.4228 24.6747 39.0789 24.5642Z" fill="white"/>
<path d="M55.7284 24.3984C53.5072 24.3984 51.4166 23.5508 49.8114 22.0398C48.1689 20.4919 47.2356 18.3911 47.217 16.1245C47.1796 13.8579 48.0382 11.7388 49.6061 10.0987C51.174 8.51395 53.3019 7.55572 55.5978 7.53729C57.8935 7.50043 60.0214 8.3481 61.664 9.89601L58.8269 12.8075C58.0055 12.0337 56.9043 11.5913 55.7471 11.5913H55.6724C54.4778 11.5913 53.3765 12.0704 52.5553 12.9181C51.734 13.7658 51.286 14.8714 51.3233 16.0692C51.3233 17.2485 51.8086 18.3358 52.6672 19.1467C53.5259 19.9574 54.6458 20.3997 55.8591 20.3629C56.9603 20.3629 57.9869 19.9205 58.8082 19.1834L61.5893 22.1503C60.0401 23.5692 58.0242 24.38 55.9336 24.4169H55.7284V24.3984Z" fill="white"/>
<path d="M78.7805 7.59227V24.435H75.3648V22.9055C73.9649 23.8454 72.285 24.435 70.4744 24.435C65.7521 24.435 61.907 20.6205 61.907 15.9768C61.907 11.3146 65.7334 7.51855 70.4744 7.51855C72.285 7.51855 73.9649 8.08981 75.3648 9.04804V7.59227H78.7805ZM74.8981 15.9768C74.8981 13.5444 72.9195 11.591 70.4371 11.591C68.0105 11.591 66.0133 13.5444 66.0133 15.9768C66.0133 18.3724 67.9919 20.3441 70.4371 20.3441C72.9195 20.3441 74.8981 18.3724 74.8981 15.9768Z" fill="white"/>
<path d="M98.4524 16.3088C98.4524 20.9341 94.6446 24.6933 89.9969 24.6933C88.2424 24.6933 86.6371 24.1589 85.3119 23.2744V30.0004H81.2429V7.70312H85.3119V9.39846C86.6558 8.47708 88.261 7.97955 89.9969 7.97955C94.6633 7.96111 98.4524 11.7203 98.4524 16.3088ZM94.3834 16.3088C94.3834 13.9132 92.4235 11.9783 89.9969 11.9783C87.5705 11.9783 85.5733 13.9132 85.5733 16.3088C85.5733 18.7043 87.5518 20.6761 89.9969 20.6761C92.4235 20.6761 94.3834 18.7228 94.3834 16.3088Z" fill="white"/>
<path d="M102.15 5.6941C100.619 5.6941 99.3875 4.47789 99.3875 2.91154V2.72728C99.3875 1.21621 100.619 0 102.15 0C103.718 0 105.006 1.21621 105.006 2.72728V2.91154C105.006 4.45946 103.718 5.6941 102.15 5.6941ZM104.278 24.3243H100.246V7.53686H104.278V24.3243Z" fill="white"/>
<path d="M114.58 24.3975C112.359 24.3975 110.268 23.5498 108.663 22.0388C107.02 20.4909 106.087 18.3901 106.068 16.1236C106.031 13.8569 106.89 11.7378 108.458 10.0977C110.025 8.51298 112.153 7.55474 114.449 7.53631C116.745 7.49945 118.873 8.34712 120.515 9.89503L117.679 12.8066C116.857 12.0327 115.755 11.5903 114.599 11.5903H114.524C113.329 11.5903 112.228 12.0695 111.407 12.9171C110.585 13.7648 110.137 14.8705 110.175 16.0682C110.175 17.2476 110.66 18.3348 111.519 19.1457C112.378 19.9565 113.498 20.3987 114.711 20.3619C115.812 20.3619 116.839 19.9196 117.66 19.1825L120.441 22.1493C118.891 23.5682 116.875 24.379 114.785 24.4159H114.58V24.3975Z" fill="white"/>
<path d="M13.8246 22.3157C13.4886 22.3526 13.3953 21.8919 13.7126 21.7998C13.7313 21.7998 13.7313 21.7998 13.75 21.7813C20.3762 19.9386 25.2292 16.6032 24.5945 14.3366C23.9412 12.07 18.043 11.7199 11.4168 13.5627C4.79053 15.4053 -0.0624828 18.7408 0.572141 21.0073C2.43869 27.5491 9.32622 31.382 15.9524 29.5393C21.3468 28.0467 24.9119 23.2556 25.0425 18.0037C20.2455 22.0761 13.8246 22.3157 13.8246 22.3157Z" fill="white"/>
<path d="M20.3967 5.60143C19.2394 1.52895 14.9464 -0.848207 10.8026 0.2943C7.66683 1.17882 5.50164 3.85082 5.18433 6.89135C5.74428 6.5228 8.22679 5.0486 11.9972 4.80904C12.0906 4.80904 12.1466 4.79062 12.1466 4.79062C12.3518 4.75376 12.4078 5.06703 12.2211 5.12232H12.2025C8.0588 6.26482 5.035 8.34713 5.42697 9.76605C5.83762 11.1849 9.49604 11.3877 13.6398 10.2452C17.7835 9.08423 20.8072 7.02035 20.3967 5.60143Z" fill="white"/>
</g>
<defs>
<clipPath id="clip0_679_67457">
<rect width="120" height="30" fill="white" transform="translate(0.516357)"/>
</clipPath>
</defs>
</svg>
