<svg width="67" height="30" viewBox="0 0 67 30" fill="none" xmlns="http://www.w3.org/2000/svg">
<g style="mix-blend-mode:luminosity" clip-path="url(#clip0_679_67467)">
<path d="M32.3171 6.10535C33.915 6.10535 35.2104 4.80596 35.2104 3.20307C35.2104 1.60018 33.915 0.300781 32.3171 0.300781C30.719 0.300781 29.4236 1.60018 29.4236 3.20307C29.4236 4.80596 30.719 6.10535 32.3171 6.10535Z" fill="white"/>
<path d="M7.87372 15.4591L15.296 8.01403C15.4238 7.88586 15.333 7.66371 15.1513 7.66371H9.15427C9.10034 7.66371 9.04927 7.68651 9.00952 7.72356L5.14499 11.5999V1.41768C5.14499 1.27242 4.99734 1.17273 4.86388 1.22685L0.621733 2.94999C0.545068 2.98132 0.493958 3.05538 0.493958 3.14082V23.1948C0.493958 23.3827 0.647288 23.5366 0.834692 23.5366H4.80425C4.99165 23.5366 5.14499 23.3827 5.14499 23.1948V19.3184L9.29624 23.4796C9.33322 23.5166 9.38714 23.5394 9.44107 23.5394L15.4408 23.5366C15.6226 23.5366 15.7135 23.3144 15.5857 23.1862L7.87372 15.4591Z" fill="white"/>
<path d="M30.3308 23.537H34.3003C34.4877 23.537 34.6411 23.3832 34.6411 23.1952V8.00877C34.6411 7.82082 34.4877 7.66699 34.3003 7.66699H30.3308C30.1434 7.66699 29.9901 7.82082 29.9901 8.00877V23.1981C29.9929 23.3861 30.1434 23.537 30.3308 23.537Z" fill="white"/>
<path fill-rule="evenodd" clip-rule="evenodd" d="M58.4562 7.68342C62.3576 7.95117 65.518 11.1212 65.7905 15.0317C66.1114 19.6742 62.4541 23.5363 57.8997 23.5392C56.7355 23.5392 55.6309 23.2828 54.6371 22.83V27.9709C54.6371 28.1105 54.5548 28.2358 54.4242 28.2871L50.2672 29.976C50.1337 30.0302 49.9861 29.9333 49.9861 29.7852V15.6013H49.989C49.989 11.03 53.8336 7.36441 58.4562 7.68342ZM54.6371 15.6013C54.6371 17.4071 56.0966 18.8739 57.8997 18.8739C59.6999 18.8739 61.1594 17.4071 61.1594 15.6013C61.1594 13.7956 59.6999 12.3288 57.8997 12.3288C56.0966 12.3288 54.6371 13.7956 54.6371 15.6013Z" fill="white"/>
<path d="M42.4795 11.4892C42.4938 11.4892 42.5108 11.4892 42.525 11.4921C43.2888 11.4608 43.9759 11.9506 44.5353 12.7168C44.6262 12.8421 44.7909 12.8848 44.9328 12.8279L48.1301 11.5377C48.3061 11.4665 48.3913 11.2642 48.3175 11.0877C47.5139 9.14517 45.0691 7.66699 42.4767 7.66699C39.0921 7.66699 36.3435 9.82594 36.3435 12.489C36.3435 13.9159 37.1726 15.1548 38.3112 15.9637C39.3334 16.69 40.5544 17.16 41.7583 17.4732C41.7782 17.4789 41.7981 17.484 41.8179 17.4889C41.8378 17.4939 41.8577 17.4989 41.8776 17.5046C43.5018 17.8663 43.7346 18.2964 43.7346 18.7208C43.7346 19.2733 43.0673 19.7205 42.2467 19.7205C41.3977 19.7745 40.6452 19.1907 40.0546 18.3021C39.9666 18.1682 39.7934 18.1198 39.6458 18.1796L36.4854 19.4784C36.3123 19.5495 36.2328 19.7433 36.2981 19.9198C37.2039 22.3806 39.6458 23.5427 42.2467 23.5427C45.6313 23.5427 48.3799 21.3867 48.3799 18.7208C48.3799 18.1397 48.2493 17.5843 48.008 17.0688C47.778 16.5761 47.1789 15.528 45.6285 14.8017C45.2421 14.6215 44.5568 14.3817 43.8369 14.1299C42.9066 13.8044 41.9186 13.4586 41.4432 13.1953C41.1535 13.0358 40.9888 12.7709 40.9888 12.489C40.9888 11.9364 41.6589 11.4892 42.4795 11.4892Z" fill="white"/>
<path d="M28.3508 7.94899C28.4048 7.81512 28.3054 7.66699 28.1606 7.66699H25.165C20.8064 7.66699 17.2713 11.213 17.2713 15.5849V23.1952C17.2713 23.3832 17.4246 23.537 17.612 23.537H21.5816C21.769 23.537 21.9194 23.3861 21.9194 23.1981V15.5849C21.9194 13.7849 23.3732 12.3266 25.1678 12.3266H26.4228C26.5052 12.3266 26.579 12.2782 26.6102 12.2013L28.3508 7.94899Z" fill="white"/>
</g>
<defs>
<clipPath id="clip0_679_67467">
<rect width="66" height="30" fill="white" transform="translate(0.177551)"/>
</clipPath>
</defs>
</svg>
