<svg width="143" height="30" viewBox="0 0 143 30" fill="none" xmlns="http://www.w3.org/2000/svg">
<g style="mix-blend-mode:luminosity" clip-path="url(#clip0_679_67432)">
<path d="M36.7463 9.08841C38.0698 8.29429 39.5698 7.85312 41.1581 7.85312C41.9522 7.85312 42.6581 7.94135 43.2757 8.20606C43.8934 8.38253 44.4228 8.73545 44.864 9.26486C45.3051 9.79427 45.6581 10.4119 45.9228 11.2943C46.1875 12.1766 46.2757 13.1472 46.2757 14.4708C46.2757 16.5884 46.0992 18.2649 45.7463 19.5002C45.3934 20.7355 44.9522 21.7061 44.4228 22.4119C43.8934 23.1178 43.364 23.559 42.7463 23.7355C42.1287 23.9119 41.5993 24.0002 41.1581 24.0002C40.5404 24.0002 39.9228 23.9119 39.4816 23.6472C39.0404 23.3825 38.5993 23.2061 38.4228 22.8531V29.6472C38.2463 29.6472 38.1581 29.7355 37.9816 29.7355C37.8051 29.7355 37.7169 29.7355 37.5404 29.7355C37.2757 29.7355 37.011 29.6472 36.9228 29.559C36.8345 29.4707 36.7463 29.2943 36.7463 29.0296V9.08841ZM38.4228 20.9119C38.6875 21.3531 39.0404 21.7061 39.4816 21.9708C39.9228 22.2355 40.2757 22.3237 40.7169 22.3237C40.9816 22.3237 41.4228 22.2355 41.7757 22.059C42.2169 21.8825 42.5699 21.5296 43.011 21.0002C43.364 20.4708 43.7169 19.6766 43.9816 18.7061C44.2463 17.7355 44.4228 16.3237 44.4228 14.6472C44.4228 13.5884 44.3346 12.706 44.2463 12.0002C44.1581 11.2943 43.8934 10.7649 43.6287 10.3237C43.364 9.88252 43.011 9.61782 42.5699 9.52958C42.1287 9.35311 41.6875 9.26486 41.1581 9.26486C40.1875 9.26486 39.3051 9.52959 38.511 10.059V20.9119H38.4228ZM37.5404 30.0002C37.2656 30.004 36.9937 29.9436 36.7463 29.8237C36.5698 29.6472 36.4816 29.3825 36.4816 29.0296V8.91193L36.6581 8.82369C38.0698 7.94133 39.5699 7.5884 41.2463 7.5884C42.0404 7.5884 42.8346 7.67663 43.4522 7.94133C44.1581 8.20604 44.6875 8.559 45.2169 9.08841C45.6581 9.61782 46.011 10.3237 46.2757 11.206C46.5404 12.0884 46.6287 13.1472 46.6287 14.4708C46.6287 16.5884 46.4522 18.2649 46.0993 19.5884C45.7463 20.9119 45.3051 21.8825 44.7757 22.5884C44.2463 23.2943 43.6287 23.7355 43.011 24.0002C42.3934 24.1766 41.7757 24.3531 41.3345 24.3531C40.6287 24.3531 40.011 24.2649 39.4816 24.0002C39.2169 23.9119 39.0404 23.7355 38.864 23.6472V29.9119L38.6875 30.0002C38.511 30.0884 38.3346 30.0884 38.1581 30.0884C37.8051 29.9119 37.6287 30.0002 37.5404 30.0002ZM37.011 9.26486V28.9414C37.011 29.2061 37.0993 29.2943 37.0993 29.2943C37.0993 29.2943 37.1875 29.3825 37.5404 29.3825C37.6287 29.3825 37.8051 29.3825 37.9816 29.3825C38.0698 29.3825 38.0699 29.3825 38.1581 29.3825V21.9708L38.6875 22.6766C38.864 22.9413 39.2169 23.1178 39.6581 23.3825C40.0993 23.559 40.6287 23.7355 41.2463 23.7355C41.6875 23.7355 42.2169 23.6472 42.7463 23.4708C43.2757 23.2943 43.8051 22.8531 44.2463 22.2355C44.7757 21.6178 45.1287 20.6472 45.4816 19.4119C45.8345 18.1766 46.011 16.5002 46.011 14.4708C46.011 13.2355 45.9228 12.2649 45.6581 11.3825C45.3934 10.5884 45.1287 9.97076 44.6875 9.52958C44.2463 9.08841 43.8051 8.73546 43.1875 8.55899C42.5698 8.38252 41.9522 8.2943 41.1581 8.2943C39.6581 8.11783 38.2463 8.55898 37.011 9.26486ZM40.7169 22.6766C40.2757 22.6766 39.7463 22.5002 39.3051 22.3237C38.864 22.059 38.4228 21.706 38.1581 21.1766V9.97076L38.2463 9.88252C39.0404 9.35311 40.011 9.08841 41.0698 9.08841C41.6875 9.08841 42.2169 9.17663 42.6581 9.3531C43.0992 9.52957 43.5404 9.88252 43.8051 10.3237C44.0698 10.7649 44.3345 11.3825 44.511 12.0884C44.6875 12.7943 44.7757 13.6766 44.7757 14.8237C44.7757 16.5884 44.5993 18.0002 44.3346 18.9707C44.0699 20.0296 43.7169 20.8237 43.2757 21.3531C42.8345 21.8825 42.3934 22.3237 41.9522 22.5002C41.4228 22.5884 41.0698 22.6766 40.7169 22.6766ZM38.6875 20.8237C38.9522 21.1766 39.2169 21.5296 39.5698 21.706C39.9228 21.8825 40.2757 22.059 40.7169 22.059C40.9816 22.059 41.3346 21.9708 41.6875 21.8825C42.0404 21.7061 42.3934 21.4414 42.7463 21.0002C43.0993 20.4708 43.4522 19.7649 43.6287 18.7943C43.8934 17.8237 43.9816 16.5002 43.9816 14.7355C43.9816 13.6766 43.8934 12.7943 43.8051 12.1766C43.7169 11.4708 43.5404 10.9413 43.2757 10.5884C43.011 10.2355 42.7463 9.97076 42.3934 9.88252C42.0404 9.70605 41.5993 9.70604 41.0698 9.70604C40.1875 9.70604 39.3934 9.88252 38.6875 10.3237V20.8237ZM47.9522 9.26486C47.9522 9.00016 48.0404 8.73547 48.2169 8.64723C48.5698 8.47076 49.0993 8.29429 49.9816 8.11781C50.864 7.94134 51.9228 7.85312 52.9816 7.85312C54.2169 7.85312 55.0993 8.11782 55.7169 8.64723C56.3346 9.17664 56.5993 10.1472 56.5993 11.559V13.4119C56.5993 15.1766 56.5993 16.8531 56.511 18.5296C56.511 20.1178 56.4228 21.5296 56.4228 22.7649C56.0698 23.0296 55.5404 23.206 54.9228 23.4708C54.2169 23.7355 53.3346 23.8237 52.2757 23.8237C51.7463 23.8237 51.2169 23.8237 50.5992 23.7355C50.0698 23.6472 49.6287 23.4708 49.1875 23.1178C48.7463 22.8531 48.4816 22.3237 48.2169 21.706C47.9522 21.0884 47.864 20.2943 47.864 19.2355C47.864 18.1766 47.9522 17.2943 48.2169 16.5884C48.4816 15.9708 48.8345 15.4413 49.2757 15.0884C49.7169 14.7355 50.1581 14.4708 50.7757 14.3825C51.3051 14.2943 51.9228 14.206 52.4522 14.206C52.8934 14.206 53.3345 14.206 53.7757 14.2943C54.2169 14.3825 54.6581 14.4707 55.011 14.559V11.8237C55.011 11.2943 54.9228 10.9413 54.8346 10.5884C54.7463 10.2355 54.5698 10.059 54.3051 9.79428C54.1287 9.61781 53.864 9.52958 53.511 9.44134C53.2463 9.35311 52.8934 9.3531 52.5404 9.3531C51.0335 9.34373 49.5378 9.61295 48.1287 10.1472C48.0404 9.97075 47.9522 9.6178 47.9522 9.26486ZM55.0993 15.8825C54.8345 15.7943 54.4816 15.7061 54.1287 15.6178C53.7757 15.5296 53.4228 15.5296 53.1581 15.5296C52.7169 15.5296 52.2757 15.5296 51.9228 15.6178C51.4816 15.7061 51.1287 15.8825 50.864 16.059C50.5993 16.3237 50.3345 16.6766 50.1581 17.1178C49.9816 17.559 49.8934 18.2649 49.8934 19.059C49.8934 19.7649 49.9816 20.3825 50.1581 20.8237C50.3345 21.2649 50.511 21.5296 50.7757 21.7943C51.0404 21.9708 51.3934 22.1472 51.7463 22.2355C52.0993 22.3237 52.4522 22.3237 52.8934 22.3237C53.4228 22.3237 53.864 22.2355 54.3051 22.1472C54.7463 21.9708 55.011 21.8825 55.1875 21.706C55.1875 21.3531 55.1875 21.0002 55.2757 20.559C55.2757 20.1178 55.2757 19.5884 55.364 19.059C55.364 18.5296 55.364 18.0002 55.364 17.4708C55.0993 16.9414 55.0993 16.4119 55.0993 15.8825ZM52.364 24.1767C51.8345 24.1767 51.2169 24.1766 50.6875 24.0884C50.0698 24.0002 49.5404 23.8237 49.0993 23.4708C48.6581 23.1178 48.3051 22.5884 48.0404 21.9708C47.7757 21.3531 47.5993 20.4708 47.5993 19.3237C47.5993 18.1766 47.7757 17.2943 48.0404 16.5884C48.2495 15.9785 48.6103 15.4318 49.0888 14.9996C49.5672 14.5674 50.1477 14.264 50.7757 14.1178C51.3934 14.0296 51.9228 13.9413 52.5404 13.9413C52.9816 13.9413 53.4228 13.9414 53.864 14.0296C54.2169 14.0296 54.4816 14.1178 54.7463 14.206V11.9119C54.7463 11.4707 54.6581 11.1178 54.5698 10.7649C54.4816 10.5002 54.3051 10.3237 54.1287 10.1472C54.0513 10.0606 53.9559 9.99205 53.8492 9.94631C53.7425 9.90058 53.6271 9.87881 53.511 9.88252C53.2463 9.79428 52.8934 9.79428 52.5404 9.79428C51.5698 9.79428 50.6875 9.88253 49.9816 10.059C49.1875 10.2355 48.6581 10.4119 48.2169 10.5884L47.9522 10.6766L47.864 10.4119C47.6875 10.059 47.5993 9.70604 47.5993 9.26486C47.5993 8.91192 47.6875 8.55898 47.9522 8.38251C48.3051 8.20604 48.9228 8.02958 49.8934 7.76488C50.7757 7.58841 51.8345 7.50016 52.9816 7.50016C54.3051 7.50016 55.2757 7.76486 55.9816 8.38251C56.6875 9.00016 57.0404 10.059 57.0404 11.559V13.4119C57.0404 15.1766 57.0404 16.8531 56.9522 18.5296C56.9522 20.1178 56.864 21.5296 56.864 22.7649V22.9413L56.7757 23.0296C56.4228 23.2943 55.8934 23.559 55.1875 23.8237C54.4816 24.0884 53.511 24.1767 52.364 24.1767ZM52.5404 14.559C52.011 14.559 51.4816 14.6472 50.864 14.7355C50.3346 14.8237 49.8934 15.0884 49.5404 15.3531C49.1875 15.7061 48.8345 16.1472 48.5698 16.7649C48.3051 17.3825 48.2169 18.2649 48.2169 19.2355C48.2169 20.2061 48.3051 21.0002 48.5698 21.6178C48.8345 22.1472 49.0993 22.5884 49.4522 22.8531C49.8051 23.1178 50.2463 23.2943 50.7757 23.3825C51.3051 23.4707 51.8345 23.4708 52.364 23.4708C53.7257 23.54 55.0773 23.2021 56.2463 22.5002C56.2463 21.3531 56.3345 19.9414 56.3345 18.4414C56.3345 16.8531 56.4228 15.0884 56.4228 13.3237V11.4707C56.4228 10.1472 56.1581 9.26486 55.6287 8.82369C55.0993 8.29427 54.2169 8.11781 53.0698 8.11781C51.9228 8.11781 50.9522 8.20604 50.0699 8.38251C49.011 8.55898 48.5698 8.73546 48.3934 8.91193C48.3051 9.00016 48.3051 9.08839 48.3051 9.26486C48.3051 9.44133 48.3051 9.70605 48.3934 9.88252C48.8345 9.70605 49.2757 9.61782 49.9816 9.44134C50.7757 9.26487 51.6581 9.17665 52.7169 9.17665C53.0699 9.17665 53.4228 9.17663 53.7757 9.26486C54.1287 9.3531 54.3934 9.44133 54.6581 9.70604C54.9228 9.88251 55.0993 10.2355 55.2757 10.5884C55.364 10.9413 55.4522 11.3825 55.4522 11.9119V15.0884L55.011 14.9119C54.6581 14.7355 54.3051 14.6472 53.864 14.6472C53.3346 14.559 52.9816 14.559 52.5404 14.559ZM52.6287 22.6766C52.1875 22.6766 51.8345 22.6766 51.4816 22.5884C51.0404 22.5002 50.6875 22.4119 50.4228 22.1472C50.1581 21.8825 49.8934 21.5296 49.7169 21.0884C49.5404 20.6472 49.4522 20.0296 49.4522 19.2355C49.4522 18.3531 49.5404 17.6472 49.7169 17.206C49.8934 16.6766 50.1581 16.2355 50.511 15.9708C50.864 15.706 51.3051 15.5296 51.7463 15.4413C52.1875 15.3531 52.6287 15.3531 53.0698 15.3531C53.3346 15.3531 53.6875 15.3531 54.1287 15.4413C54.5698 15.5296 54.9228 15.6178 55.1875 15.7061L55.364 15.7943V15.8825C55.364 16.3237 55.364 16.8531 55.364 17.4708V19.059C55.364 19.5884 55.364 20.1178 55.2757 20.559C55.2757 21.0002 55.2757 21.4413 55.1875 21.706V21.7943L55.0993 21.8825C54.9228 22.059 54.5698 22.2355 54.1287 22.4119C53.6875 22.6766 53.1581 22.6766 52.6287 22.6766ZM53.0698 15.8825C52.6287 15.8825 52.2757 15.8825 51.8346 15.9708C51.4816 16.059 51.1287 16.1472 50.864 16.4119C50.5993 16.5884 50.4228 16.9413 50.2463 17.3825C50.0698 17.8237 49.9816 18.4414 49.9816 19.2355C49.9816 19.9414 50.0698 20.4708 50.1581 20.9119C50.3345 21.2649 50.511 21.5296 50.6875 21.706C50.9522 21.8825 51.2169 21.9707 51.4816 22.059C51.8345 22.1472 52.1875 22.1472 52.5404 22.1472C52.9816 22.1472 53.4228 22.059 53.864 21.9708C54.2169 21.8825 54.4816 21.706 54.5698 21.6178C54.5698 21.3531 54.5698 21.0002 54.6581 20.559C54.6581 20.1178 54.6581 19.5884 54.7463 19.059V17.4708C54.7463 17.0296 54.7463 16.5002 54.7463 16.1472C54.4816 16.059 54.3051 16.059 54.0404 15.9708C53.6875 15.8825 53.3346 15.8825 53.0698 15.8825ZM59.511 8.91193C60.2169 8.64722 61.011 8.38252 61.8934 8.11781C62.7757 7.94134 63.6581 7.76488 64.5404 7.76488C65.3346 7.76488 66.0404 7.8531 66.5698 8.02957C67.0993 8.20604 67.5404 8.47075 67.8934 8.82369C68.2463 9.17663 68.4228 9.6178 68.5993 10.1472C68.6875 10.6766 68.7757 11.2943 68.7757 12.0002V23.1178C68.7757 23.2061 68.7757 23.2943 68.7757 23.3825C68.7757 23.4707 68.6875 23.4708 68.5993 23.4708C68.511 23.4708 68.3346 23.559 68.0698 23.559C67.8051 23.559 67.5404 23.559 67.0993 23.559V12.5296C67.0993 12.0002 67.0993 11.4708 67.011 11.1178C66.9228 10.6766 66.8346 10.4119 66.6581 10.1472C66.4816 9.88251 66.2169 9.70606 65.864 9.61783C65.511 9.52959 65.0698 9.44134 64.5404 9.44134C64.0993 9.44134 63.5698 9.52959 62.9522 9.61783C62.3345 9.70606 61.8051 9.88251 61.2757 10.1472V23.2943C61.2757 23.3825 61.2757 23.4708 61.2757 23.559C61.2757 23.6472 61.1875 23.6472 61.0993 23.6472C61.011 23.6472 60.8346 23.7355 60.5698 23.7355C60.3051 23.7355 60.0404 23.7355 59.5993 23.7355V8.91193H59.511ZM68.0698 23.9119H66.7463V12.5296C66.7463 12.0002 66.7463 11.559 66.6581 11.1178C66.5946 10.8048 66.4751 10.5059 66.3051 10.2355C66.1287 10.059 65.9522 9.88251 65.6875 9.79428C65.1581 9.61781 64.2757 9.52957 62.9522 9.79428C62.4228 9.88251 61.9816 10.059 61.5404 10.2355V23.1178C61.5404 23.2943 61.5404 23.3825 61.4522 23.4708C61.364 23.6472 61.0993 23.7355 61.011 23.7355C60.8346 23.7355 60.6581 23.8237 60.3934 23.8237H59.1581V8.73547L59.3346 8.64723C60.0404 8.29429 60.9228 8.02959 61.8051 7.85312C62.6875 7.67665 63.5698 7.50016 64.4522 7.50016C65.3346 7.50016 66.0404 7.58841 66.5698 7.76488C67.1875 7.94135 67.6287 8.20606 67.9816 8.64723C68.3346 9.00017 68.5993 9.52957 68.7757 10.1472C68.864 10.6766 68.9522 11.3825 68.9522 12.0884V23.2061C68.9522 23.3825 68.9522 23.4708 68.864 23.559C68.7757 23.7355 68.511 23.8237 68.4228 23.8237C68.511 23.8237 68.2463 23.9119 68.0698 23.9119ZM67.364 23.2943H68.0698C68.3346 23.2943 68.4228 23.2943 68.511 23.2943C68.511 23.2943 68.511 23.2943 68.511 23.2061V12.0884C68.511 11.3825 68.4228 10.7649 68.3345 10.2355C68.2463 9.79428 67.9816 9.35311 67.7169 9.08841C67.4522 8.73547 67.011 8.55898 66.5698 8.38251C66.0404 8.20604 65.4228 8.11781 64.6287 8.11781C63.8346 8.11781 62.9522 8.20604 62.0698 8.38251C61.2757 8.55898 60.5698 8.8237 59.9522 9.08841V23.2061H60.5698C60.8346 23.2061 60.9228 23.2061 61.011 23.2061C61.011 23.2061 61.011 23.2061 61.011 23.1178V9.88252L61.1875 9.79428C61.7169 9.52957 62.2463 9.3531 62.864 9.26486C63.4816 9.17663 64.011 9.08841 64.5404 9.08841C65.1581 9.08841 65.5993 9.17663 65.9522 9.26486C66.3051 9.44133 66.6581 9.61782 66.8346 9.97076C67.011 10.2355 67.1875 10.6766 67.2757 11.1178C67.364 11.559 67.364 12.0002 67.364 12.6178V23.2943ZM78.8346 1.76486C78.8346 1.32369 78.9228 1.14723 79.1875 1.05899C79.4522 0.970755 79.8934 0.882509 80.511 0.882509V22.9413C79.9816 23.206 79.364 23.4708 78.6581 23.6472C77.9522 23.8237 77.0698 23.9119 76.1875 23.9119C75.4816 23.9119 74.864 23.8237 74.2463 23.6472C73.6287 23.4708 73.0992 23.1178 72.6581 22.5884C72.2169 22.059 71.864 21.2649 71.5993 20.2943C71.3346 19.3237 71.1581 17.9119 71.1581 16.2355C71.1581 14.7355 71.3346 13.5002 71.5993 12.4413C71.864 11.3825 72.2169 10.5002 72.6581 9.79428C73.0992 9.0884 73.6287 8.64724 74.3346 8.2943C75.048 7.91983 75.8471 7.73906 76.6522 7.77002C77.4573 7.80099 78.2402 8.04259 78.9228 8.47075V1.76486H78.8346ZM78.8346 9.97076C78.5698 9.70606 78.2169 9.61782 77.9522 9.52958C77.6875 9.44135 77.2463 9.3531 76.8051 9.3531C76.2757 9.3531 75.8345 9.44133 75.3934 9.70604C74.9522 9.97075 74.511 10.3237 74.1581 10.8531C73.8051 11.3825 73.5404 12.0884 73.364 12.9708C73.1875 13.8531 73.0992 14.9119 73.0992 16.1472C73.0992 17.4708 73.1875 18.6178 73.364 19.4119C73.5404 20.206 73.7169 20.8237 74.0698 21.2649C74.3345 21.706 74.6875 21.9708 75.1287 22.1472C75.5699 22.3237 76.011 22.3237 76.4522 22.3237C76.8934 22.3237 77.3346 22.2355 77.7757 22.1472C78.2169 22.059 78.5698 21.8825 78.9228 21.706L78.8346 9.97076ZM76.1875 24.1767C75.4816 24.1767 74.7757 24.0884 74.1581 23.9119C73.4522 23.7355 72.9228 23.3825 72.3934 22.7649C71.9522 22.2355 71.511 21.4413 71.2463 20.3825C70.9816 19.3237 70.8051 18.0002 70.8051 16.2355C70.8051 14.7355 70.9816 13.4119 71.2463 12.3531C71.511 11.2943 71.864 10.3237 72.3934 9.61783C72.8173 8.97359 73.3931 8.44348 74.0701 8.07419C74.7471 7.70491 75.5046 7.50777 76.2757 7.50016C77.1581 7.50016 77.864 7.67663 78.4816 7.94133V1.76486C78.4816 1.05898 78.7463 0.794295 79.011 0.794295C79.2757 0.70606 79.7169 0.706055 80.511 0.706055H80.7757V23.2061L80.5993 23.2943C80.0698 23.559 79.4522 23.8237 78.6581 24.0002C77.9522 24.0884 77.1581 24.1767 76.1875 24.1767ZM76.2757 8.11781C75.6581 8.11781 75.0404 8.29429 74.4228 8.55899C73.8051 8.8237 73.364 9.35311 72.9228 9.97076C72.4816 10.5884 72.1287 11.4708 71.864 12.5296C71.5993 13.5884 71.511 14.8237 71.511 16.3237C71.511 18.0002 71.5993 19.3237 71.864 20.2943C72.1287 21.2649 72.4816 21.9707 72.9228 22.5002C73.364 22.9413 73.8051 23.2943 74.3346 23.3825C74.9522 23.559 75.5698 23.6472 76.1875 23.6472C77.0698 23.6472 77.864 23.559 78.6581 23.3825C79.2757 23.206 79.8051 23.0296 80.3345 22.8531V1.23547C79.7169 1.23547 79.4522 1.32369 79.364 1.32369C79.2757 1.32369 79.1875 1.58839 79.1875 1.76486V9.08841L78.6581 8.82369C78.0404 8.38251 77.2463 8.11781 76.2757 8.11781ZM76.364 22.6766C75.8345 22.6766 75.3934 22.5884 74.9522 22.5002C74.511 22.3237 74.0698 22.059 73.7169 21.5296C73.364 21.0884 73.1875 20.3825 73.011 19.5002C72.8346 18.706 72.7463 17.559 72.7463 16.1472C72.7463 14.9119 72.8345 13.7649 73.0992 12.8825C73.2757 12.0002 73.6287 11.2943 73.9816 10.6766C74.3345 10.059 74.7757 9.70605 75.3051 9.44134C75.8346 9.17664 76.364 9.08841 76.8934 9.08841C77.4228 9.08841 77.7757 9.17663 78.1287 9.26486C78.4816 9.3531 78.7463 9.52957 79.0993 9.79428L79.1875 9.88252V21.9708L79.011 22.059C78.6581 22.3237 78.2169 22.5002 77.7757 22.5884C77.3346 22.5884 76.8051 22.6766 76.364 22.6766ZM76.8051 9.70604C76.364 9.70604 75.9228 9.7943 75.4816 10.059C75.0404 10.2355 74.6875 10.5884 74.4228 11.1178C74.0698 11.6472 73.8051 12.2649 73.6287 13.1472C73.4522 13.9414 73.364 15.0002 73.364 16.2355C73.364 17.559 73.4522 18.6178 73.6287 19.4119C73.8051 20.206 73.9816 20.8237 74.2463 21.1766C74.511 21.5296 74.7757 21.7943 75.1287 21.8825C75.4816 21.9708 75.9228 22.059 76.364 22.059C76.8051 22.059 77.2463 21.9708 77.6875 21.9708C78.0404 21.8825 78.3051 21.7943 78.6581 21.6178V10.1472C78.4417 9.99496 78.2038 9.87599 77.9522 9.79428C77.5993 9.70604 77.2463 9.70604 76.8051 9.70604ZM83.0699 9.26486C83.0699 9.00016 83.1581 8.73547 83.3345 8.64723C83.5993 8.47076 84.2169 8.29429 85.0993 8.11781C85.9816 7.94134 87.0404 7.85312 88.0993 7.85312C89.3346 7.85312 90.2169 8.11782 90.8345 8.64723C91.4522 9.17664 91.7169 10.1472 91.7169 11.559V13.4119C91.7169 15.1766 91.7169 16.8531 91.6287 18.5296C91.6287 20.1178 91.5404 21.5296 91.5404 22.7649C91.1875 23.0296 90.6581 23.206 90.0404 23.4708C89.3345 23.7355 88.4522 23.8237 87.3934 23.8237C86.864 23.8237 86.3346 23.8237 85.7169 23.7355C85.1875 23.6472 84.7463 23.4708 84.3051 23.1178C83.864 22.8531 83.5993 22.3237 83.3345 21.706C83.0698 21.0884 82.9816 20.2943 82.9816 19.2355C82.9816 18.1766 83.0698 17.2943 83.3345 16.5884C83.5993 15.9708 83.9522 15.4413 84.3934 15.0884C84.8346 14.7355 85.2757 14.4708 85.8934 14.3825C86.4228 14.2943 87.0404 14.206 87.5698 14.206C88.011 14.206 88.4522 14.206 88.8934 14.2943C89.3345 14.3825 89.7757 14.4707 90.1287 14.559V11.8237C90.1287 11.2943 90.0404 10.9413 89.9522 10.5884C89.864 10.2355 89.6875 10.059 89.4228 9.79428C89.2463 9.61781 88.9816 9.52958 88.6287 9.44134C88.364 9.35311 88.011 9.3531 87.6581 9.3531C86.1511 9.34373 84.6554 9.61295 83.2463 10.1472C83.1581 9.97075 83.0699 9.6178 83.0699 9.26486ZM90.2169 15.8825C89.9522 15.7943 89.5993 15.7061 89.2463 15.6178C88.8934 15.5296 88.5404 15.5296 88.2757 15.5296C87.8345 15.5296 87.3934 15.5296 87.0404 15.6178C86.5993 15.7061 86.2463 15.8825 85.9816 16.059C85.7169 16.2355 85.4522 16.6766 85.2757 17.1178C85.0993 17.559 85.011 18.2649 85.011 19.059C85.011 19.7649 85.0993 20.3825 85.2757 20.8237C85.4522 21.2649 85.6287 21.5296 85.8934 21.7943C86.1581 21.9708 86.511 22.1472 86.864 22.2355C87.2169 22.3237 87.5698 22.3237 88.011 22.3237C88.5404 22.3237 88.9816 22.2355 89.4228 22.1472C89.864 21.9708 90.1287 21.8825 90.3051 21.706C90.3051 21.3531 90.3051 21.0002 90.3934 20.559C90.3934 20.1178 90.3934 19.5884 90.4816 19.059C90.4816 18.5296 90.4816 18.0002 90.4816 17.4708C90.2169 16.9414 90.2169 16.4119 90.2169 15.8825ZM87.5698 24.1767C87.0404 24.1767 86.4228 24.1766 85.8934 24.0884C85.2757 24.0002 84.7463 23.8237 84.3051 23.4708C83.864 23.1178 83.511 22.5884 83.2463 21.9708C82.9816 21.3531 82.8051 20.4708 82.8051 19.3237C82.8051 18.1766 82.9816 17.2943 83.2463 16.5884C83.4554 15.9785 83.8162 15.4318 84.2947 14.9996C84.7731 14.5674 85.3536 14.264 85.9816 14.1178C86.511 14.0296 87.1287 13.9413 87.7463 13.9413C88.1875 13.9413 88.6287 13.9414 89.0698 14.0296C89.4228 14.0296 89.6875 14.1178 89.9522 14.206V11.9119C89.9522 11.4707 89.864 11.1178 89.7757 10.7649C89.6875 10.5002 89.511 10.3237 89.3345 10.1472C89.2572 10.0606 89.1618 9.99205 89.0551 9.94631C88.9484 9.90058 88.8329 9.87881 88.7169 9.88252C88.4522 9.79428 88.0993 9.79428 87.7463 9.79428C86.7757 9.79428 85.8934 9.88253 85.1875 10.059C84.3934 10.2355 83.864 10.4119 83.4228 10.5884L83.1581 10.6766L83.0699 10.4119C82.8934 10.059 82.8051 9.70604 82.8051 9.26486C82.8051 8.91192 82.8934 8.55898 83.1581 8.38251C83.511 8.20604 84.1287 8.02958 85.0993 7.76488C85.9816 7.58841 87.0404 7.50016 88.1875 7.50016C89.511 7.50016 90.4816 7.76486 91.1875 8.38251C91.8934 9.00016 92.2463 10.059 92.2463 11.559V13.4119C92.2463 15.1766 92.2463 16.8531 92.1581 18.5296C92.1581 20.1178 92.0698 21.5296 92.0698 22.7649V22.9413L91.9816 23.0296C91.6287 23.2943 91.0993 23.559 90.3934 23.8237C89.5993 24.0884 88.6287 24.1767 87.5698 24.1767ZM87.7463 14.559C87.2169 14.559 86.5993 14.6472 86.0698 14.7355C85.5404 14.8237 85.0993 15.0884 84.7463 15.3531C84.3336 15.7558 84.0039 16.2354 83.7757 16.7649C83.511 17.3825 83.4228 18.2649 83.4228 19.2355C83.4228 20.2061 83.511 21.0002 83.7757 21.6178C84.0404 22.1472 84.3051 22.5884 84.6581 22.8531C85.011 23.1178 85.4522 23.2943 85.9816 23.3825C86.511 23.4707 87.0404 23.4708 87.5698 23.4708C88.9316 23.54 90.2832 23.2021 91.4522 22.5002C91.4522 21.3531 91.5404 19.9414 91.5404 18.4414C91.5404 16.8531 91.6287 15.0884 91.6287 13.3237V11.4707C91.6287 10.1472 91.364 9.26486 90.8345 8.82369C90.3051 8.29427 89.4228 8.11781 88.2757 8.11781C87.1287 8.11781 86.1581 8.20604 85.2757 8.38251C84.2169 8.55898 83.7757 8.73546 83.5993 8.91193C83.511 9.00016 83.511 9.08839 83.511 9.26486C83.511 9.44133 83.511 9.70605 83.5993 9.88252C84.0404 9.70605 84.4816 9.61782 85.1875 9.44134C85.9816 9.26487 86.864 9.17665 87.9228 9.17665C88.2757 9.17665 88.6287 9.17663 88.9816 9.26486C89.3346 9.3531 89.5993 9.44133 89.864 9.70604C90.1287 9.88251 90.3051 10.2355 90.4816 10.5884C90.5698 10.9413 90.6581 11.3825 90.6581 11.9119V15.0884L90.2169 14.9119C89.864 14.7355 89.511 14.6472 89.0698 14.6472C88.5404 14.559 88.0993 14.559 87.7463 14.559ZM87.8345 22.6766C87.3934 22.6766 87.0404 22.6766 86.6875 22.5884C86.2463 22.5002 85.8934 22.4119 85.6287 22.1472C85.364 21.8825 85.0993 21.5296 84.9228 21.0884C84.7463 20.6472 84.6581 20.0296 84.6581 19.2355C84.6581 18.3531 84.7463 17.6472 84.9228 17.206C85.0993 16.6766 85.364 16.2355 85.7169 15.9708C86.0699 15.706 86.511 15.5296 86.9522 15.4413C87.3934 15.3531 87.8345 15.3531 88.2757 15.3531C88.5404 15.3531 88.8934 15.3531 89.3345 15.4413C89.7757 15.5296 90.1287 15.6178 90.3934 15.7061L90.5699 15.7943V15.8825C90.5699 16.3237 90.5699 16.8531 90.5699 17.4708V19.059C90.5699 19.5884 90.5698 20.1178 90.4816 20.559C90.4816 21.0002 90.4816 21.4413 90.3934 21.706V21.7943L90.3051 21.8825C90.1287 22.059 89.7757 22.2355 89.3345 22.4119C88.8051 22.6766 88.364 22.6766 87.8345 22.6766ZM88.1875 15.8825C87.7463 15.8825 87.3934 15.8825 86.9522 15.9708C86.5993 16.059 86.2463 16.1472 85.9816 16.4119C85.7169 16.5884 85.5404 16.9413 85.364 17.3825C85.1875 17.8237 85.0993 18.4414 85.0993 19.2355C85.0993 19.9414 85.1875 20.4708 85.2757 20.9119C85.4522 21.2649 85.6287 21.5296 85.8051 21.706C86.0698 21.8825 86.3346 21.9707 86.5993 22.059C86.9522 22.1472 87.3051 22.1472 87.6581 22.1472C88.0993 22.1472 88.5404 22.059 88.9816 21.9708C89.3346 21.8825 89.5993 21.706 89.6875 21.6178C89.6875 21.3531 89.6875 21.0002 89.7757 20.559C89.7757 20.1178 89.7757 19.5884 89.864 19.059V17.4708C89.864 17.0296 89.864 16.5002 89.864 16.1472C89.5993 16.059 89.4228 16.059 89.1581 15.9708C88.8051 15.8825 88.5404 15.8825 88.1875 15.8825Z" fill="white"/>
<path d="M99.3051 7.853C100.011 7.853 100.629 7.94122 101.158 8.02945C101.687 8.11769 102.04 8.29416 102.393 8.47063C102.658 8.6471 102.923 8.82358 103.099 9.00005C103.276 9.17652 103.276 9.35299 103.276 9.44122C103.276 9.70593 103.099 10.0589 102.835 10.4118C101.857 9.71381 100.683 9.34317 99.4816 9.35298C98.511 9.35298 97.7169 9.52946 97.1875 9.8824C96.5698 10.2353 96.3051 10.6765 96.3051 11.3824C96.3051 11.7354 96.3934 12.0883 96.5698 12.4412C96.7463 12.7942 97.1875 13.1471 97.8051 13.5883L101.158 15.9706C101.864 16.5883 102.393 17.1177 102.746 17.7353C103.099 18.353 103.276 18.9706 103.276 19.7648C103.276 21.0883 102.835 22.1471 101.952 22.853C101.07 23.5589 99.8345 23.9118 98.2463 23.9118C97.011 23.9118 96.1287 23.8236 95.4228 23.5589C94.7169 23.2942 94.364 23.0295 94.364 22.5883C94.364 22.1471 94.4522 21.8824 94.7169 21.5295C95.1581 21.7942 95.6875 22.0589 96.2169 22.1471C96.7463 22.2353 97.364 22.3236 98.0698 22.3236C99.1287 22.3236 99.9228 22.1471 100.54 21.7942C101.158 21.4412 101.423 20.8236 101.423 20.0295C101.423 19.4118 101.246 18.8824 100.982 18.4412C100.717 18.0001 100.276 17.4706 99.6581 17.0295L96.3934 14.6471C95.511 14.0295 94.9816 13.5 94.7169 12.9706C94.4522 12.4412 94.364 11.9118 94.364 11.3824C94.364 10.3236 94.8051 9.44121 95.6875 8.82357C96.4816 8.20592 97.7169 7.853 99.3051 7.853ZM98.0698 24.1765C96.8346 24.1765 95.864 24.0001 95.1581 23.7354C94.364 23.4706 93.9228 23.0294 93.9228 22.5C93.9228 22.0589 94.0992 21.6177 94.364 21.2647L94.5404 21.0883L94.8051 21.2647C95.2463 21.5295 95.6875 21.7059 96.2169 21.8824C96.7463 21.9706 97.364 22.0589 97.9816 22.0589C98.9522 22.0589 99.7463 21.8824 100.276 21.5295C100.805 21.1765 101.07 20.7353 101.07 19.9412C101.07 19.4118 100.982 18.8824 100.717 18.5294C100.452 18.0883 100.011 17.6471 99.4816 17.2059L96.2169 14.8236C95.3345 14.2059 94.7169 13.6765 94.4522 13.0589C94.1875 12.5295 94.011 11.9118 94.011 11.2942C94.011 10.1471 94.5404 9.17651 95.511 8.47063C96.4816 7.85298 97.7169 7.50004 99.3934 7.50004C100.099 7.50004 100.805 7.58828 101.335 7.67652C101.864 7.76475 102.305 7.94122 102.658 8.11769C103.011 8.29416 103.276 8.47065 103.452 8.73535C103.629 9.00006 103.717 9.17651 103.717 9.35298C103.717 9.70592 103.54 10.1471 103.276 10.5001L103.099 10.6765L102.835 10.5001C102.305 10.1471 101.776 9.88239 101.335 9.79416C100.805 9.61769 100.276 9.6177 99.6581 9.6177C98.7757 9.6177 98.0698 9.79418 97.4522 10.0589C96.9228 10.3236 96.6581 10.7648 96.6581 11.2942C96.6581 11.5589 96.7463 11.9118 96.9228 12.1765C97.011 12.353 97.364 12.7059 98.0698 13.2353L101.423 15.6177C102.129 16.2353 102.746 16.853 103.099 17.4706C103.452 18.0883 103.629 18.8824 103.629 19.6765C103.629 21.0883 103.099 22.2353 102.217 23.0295C101.07 23.8236 99.7463 24.1765 98.0698 24.1765ZM94.7169 21.8824C94.6287 22.0589 94.5404 22.3236 94.5404 22.5C94.5404 22.7647 94.8051 22.9412 95.4228 23.1177C96.1287 23.3824 97.011 23.4706 98.1581 23.4706C99.6581 23.4706 100.893 23.1177 101.687 22.5C102.482 21.8824 102.923 20.9118 102.923 19.6765C102.923 18.9706 102.746 18.353 102.482 17.7353C102.129 17.2059 101.687 16.5883 100.982 16.0589L97.6287 13.6765C96.9228 13.2353 96.4816 12.7942 96.3051 12.4412C96.1287 12.0883 95.9522 11.6471 95.9522 11.2942C95.9522 10.5001 96.3051 9.97064 97.011 9.52946C97.6287 9.17652 98.511 9.00005 99.4816 9.00005C100.187 9.00005 100.805 9.08827 101.335 9.26474C101.776 9.44121 102.305 9.61769 102.746 9.8824C102.835 9.70593 102.923 9.52945 102.923 9.35298C102.923 9.35298 102.923 9.26476 102.746 9.08829C102.658 8.91182 102.482 8.82358 102.217 8.64711C101.952 8.47064 101.511 8.38241 101.07 8.29418C100.629 8.20594 100.011 8.11769 99.3051 8.11769C97.8051 8.11769 96.6581 8.3824 95.7757 9.00005C94.9816 9.52946 94.5404 10.3236 94.5404 11.2942C94.5404 11.8236 94.6287 12.2647 94.8934 12.7942C95.1581 13.2353 95.6875 13.7648 96.4816 14.2942L99.7463 16.6765C100.364 17.2059 100.893 17.6471 101.158 18.1765C101.423 18.7059 101.599 19.2353 101.599 19.9412C101.599 20.9118 101.246 21.5295 100.54 21.9706C99.9228 22.4118 99.0404 22.5883 97.9816 22.5883C97.2757 22.5883 96.5698 22.5001 96.0404 22.4118C95.511 22.3236 95.0698 22.1471 94.7169 21.8824ZM115.099 22.853C114.393 23.2059 113.687 23.4706 112.805 23.6471C112.011 23.8236 111.129 23.9118 110.423 23.9118C109.54 23.9118 108.746 23.8236 108.217 23.6471C107.599 23.4706 107.158 23.1177 106.805 22.6765C106.452 22.2353 106.187 21.6177 106.099 21.0001C105.923 20.2942 105.923 19.5 105.923 18.5294V8.64711C105.923 8.55888 105.923 8.47062 105.923 8.38239C105.923 8.29415 106.011 8.29417 106.099 8.20593C106.187 8.20593 106.364 8.11769 106.629 8.11769C106.893 8.11769 107.158 8.11769 107.599 8.11769V18.5294C107.599 19.2353 107.599 19.853 107.687 20.2942C107.776 20.7353 107.952 21.1765 108.129 21.4412C108.305 21.7059 108.658 21.9706 109.011 22.0589C109.364 22.1471 109.893 22.2353 110.511 22.2353C110.864 22.2353 111.305 22.1471 111.835 22.0589C112.364 21.9706 112.893 21.7942 113.335 21.5295V8.64711C113.335 8.55888 113.335 8.47062 113.335 8.38239C113.335 8.29415 113.423 8.29417 113.511 8.20593C113.599 8.20593 113.776 8.11769 114.04 8.11769C114.305 8.11769 114.57 8.11769 115.011 8.11769V22.853H115.099ZM110.335 24.1765C109.364 24.1765 108.658 24.0883 108.04 23.8236C107.423 23.5589 106.893 23.2059 106.54 22.7648C106.187 22.2353 105.923 21.7059 105.746 20.9118C105.57 20.2059 105.57 19.3236 105.57 18.353V8.64711C105.57 8.55888 105.57 8.47062 105.57 8.38239C105.57 8.29415 105.658 8.11769 106.011 8.02945C106.187 8.02945 106.364 7.94121 106.629 7.94121H107.952V18.6177C107.952 19.3236 107.952 19.9412 108.04 20.3824C108.129 20.8236 108.217 21.1765 108.393 21.4412C108.57 21.7059 108.835 21.8824 109.187 21.9706C109.54 22.0589 109.982 22.1471 110.599 22.1471C111.454 22.0959 112.292 21.8865 113.07 21.5295V8.64711C113.07 8.47064 113.07 8.38241 113.158 8.29418C113.158 8.20594 113.335 8.02945 113.599 7.94121C113.776 7.94121 113.952 7.853 114.217 7.853H115.452V22.9412L115.276 23.0295C114.57 23.3824 113.776 23.6471 112.893 23.8236C112.011 24.0883 111.129 24.1765 110.335 24.1765ZM106.099 8.47063V18.353C106.099 19.3236 106.187 20.1177 106.276 20.8236C106.364 21.4412 106.629 21.9706 106.893 22.4118C107.158 22.853 107.599 23.1177 108.129 23.2942C108.658 23.4706 109.364 23.5589 110.246 23.5589C111.04 23.5589 111.835 23.4706 112.629 23.2942C113.335 23.1177 114.04 22.853 114.658 22.5883V8.47063H114.04C113.776 8.47063 113.687 8.47063 113.599 8.47063V21.7942L113.423 21.8824C112.893 22.1471 112.364 22.4118 111.835 22.5C111.305 22.5883 110.864 22.6765 110.423 22.6765C109.805 22.6765 109.276 22.5883 108.835 22.5C108.393 22.3236 108.04 22.1471 107.776 21.7942C107.511 21.4412 107.335 21 107.246 20.4706C107.158 19.9412 107.158 19.3236 107.158 18.6177V8.47063H106.452C106.364 8.47063 106.187 8.47063 106.099 8.47063ZM118.276 3.00006C118.276 2.02947 118.629 1.58829 119.335 1.58829C119.687 1.58829 119.952 1.67652 120.04 1.94122C120.129 2.20593 120.217 2.55888 120.217 3.00006C120.217 3.97065 119.864 4.4118 119.158 4.4118C119.02 4.4196 118.882 4.39115 118.758 4.32924C118.634 4.26733 118.529 4.17412 118.452 4.05886C118.276 3.88239 118.276 3.44123 118.276 3.00006ZM120.04 23.2059C120.04 23.2942 120.04 23.3824 120.04 23.4706C120.04 23.5589 119.952 23.5589 119.864 23.5589C119.776 23.5589 119.599 23.6471 119.335 23.6471C119.07 23.6471 118.805 23.6471 118.364 23.6471V9.00005C118.364 8.55887 118.452 8.38241 118.717 8.29418C118.982 8.20594 119.423 8.20593 120.129 8.20593L120.04 23.2059ZM119.335 23.9118H118.011V9.00005C118.011 8.29416 118.364 8.02945 118.629 8.02945C118.893 7.94122 119.423 7.94121 120.129 7.94121H120.393V23.2942C120.393 23.4706 120.393 23.5589 120.305 23.6471C120.217 23.8236 119.952 23.9118 119.864 23.9118C119.776 23.8236 119.599 23.9118 119.335 23.9118ZM118.629 23.2942H119.335C119.599 23.2942 119.687 23.2942 119.776 23.2942C119.776 23.2942 119.776 23.2942 119.776 23.2059V8.47063C119.158 8.47063 118.893 8.55887 118.805 8.55887C118.717 8.55887 118.629 8.82358 118.629 9.00005V23.2942ZM119.158 4.67652C118.717 4.67652 118.452 4.50005 118.187 4.23535C118.011 3.97064 117.923 3.52946 117.923 2.91182C117.923 1.41182 118.717 1.23535 119.246 1.23535C119.776 1.23535 120.129 1.50006 120.217 1.67653C120.393 1.94123 120.482 2.38241 120.482 2.91182C120.482 4.41182 119.776 4.67652 119.158 4.67652ZM119.246 1.85298C119.07 1.85298 118.54 1.853 118.54 3.00006C118.54 3.52947 118.629 3.79418 118.717 3.88241C118.805 4.05888 118.982 4.05886 119.158 4.05886C119.335 4.05886 119.864 4.05888 119.864 2.91182C119.864 2.38241 119.776 2.1177 119.687 2.02946C119.687 1.94123 119.599 1.85298 119.246 1.85298ZM124.629 9.70592H122.335C122.335 9.00004 122.335 8.6471 122.423 8.47063C122.511 8.29416 122.599 8.20593 122.776 8.20593H124.629V3.26475C124.629 2.91181 124.717 2.73533 124.893 2.64709C125.07 2.55886 125.599 2.55888 126.305 2.55888V8.11769H130.011C130.011 8.82358 130.011 9.17651 129.923 9.35298C129.923 9.52945 129.746 9.6177 129.658 9.6177H126.305V19.0589C126.305 19.5 126.305 19.9412 126.305 20.2942C126.305 20.6471 126.393 21 126.482 21.353C126.57 21.7059 126.746 21.8824 126.923 22.0589C127.099 22.2353 127.364 22.3236 127.717 22.3236C128.158 22.3236 128.511 22.3236 128.776 22.2353C129.04 22.1471 129.393 22.0589 129.746 21.8824C129.746 21.9706 129.835 22.1471 129.835 22.3236C129.835 22.5001 129.835 22.6765 129.835 22.7648C129.835 22.9412 129.746 23.1177 129.658 23.2942C129.482 23.4706 129.305 23.5589 129.129 23.6471C128.864 23.7353 128.599 23.8236 128.335 23.8236C128.07 23.8236 127.717 23.9118 127.452 23.9118C126.835 23.9118 126.305 23.8236 125.952 23.5589C125.599 23.2942 125.335 23.0295 125.158 22.5883C124.982 22.1471 124.893 21.7059 124.805 21.0883C124.805 20.4706 124.717 19.853 124.717 19.1471V9.70592H124.629ZM127.364 24.1765C126.658 24.1765 126.129 24.0001 125.687 23.7354C125.246 23.4706 124.982 23.1177 124.717 22.5883C124.54 22.1471 124.364 21.6177 124.364 21.0001C124.364 20.3824 124.276 19.7647 124.276 19.0589V9.97064H121.982V9.70592C121.982 8.73533 121.982 8.47062 122.07 8.38239C122.158 8.11768 122.335 7.94121 122.687 7.94121H124.276V3.26475C124.276 2.64711 124.629 2.3824 124.805 2.3824C124.982 2.3824 125.246 2.29416 126.305 2.29416H126.57V7.853H130.276V8.11769C130.276 9.08828 130.276 9.35299 130.187 9.44122C130.099 9.70593 129.923 9.8824 129.57 9.8824H126.482V19.0589C126.482 19.5 126.482 19.9412 126.482 20.2942C126.482 20.6471 126.57 21 126.658 21.2647C126.746 21.5295 126.835 21.7059 127.011 21.7942C127.099 21.8824 127.364 21.9706 127.629 21.9706C128.07 21.9706 128.335 21.9706 128.599 21.8824C128.864 21.7942 129.129 21.7059 129.482 21.5295L129.746 21.353L129.835 21.7059C129.923 21.8824 129.923 21.9706 129.923 22.1471C129.923 22.3236 129.923 22.5 129.923 22.6765C129.923 22.9412 129.835 23.2059 129.57 23.3824C129.393 23.5589 129.217 23.6471 128.864 23.8236C128.599 23.9118 128.335 24 127.982 24C128.07 24.1765 127.717 24.1765 127.364 24.1765ZM122.687 9.35298H124.982V19.0589C124.982 19.7647 124.982 20.3824 125.07 21.0001C125.07 21.5295 125.246 22.0589 125.423 22.4118C125.599 22.7648 125.864 23.0295 126.129 23.2942C126.482 23.4706 126.923 23.5589 127.452 23.5589C127.717 23.5589 128.07 23.5589 128.335 23.4706C128.599 23.4706 128.864 23.3824 129.04 23.2942C129.217 23.2059 129.393 23.1177 129.482 23.0295C129.57 22.9412 129.57 22.853 129.57 22.7648C129.57 22.5883 129.57 22.5001 129.57 22.3236C129.305 22.4118 129.129 22.5 128.952 22.5883C128.687 22.6765 128.246 22.7648 127.805 22.7648C127.364 22.7648 127.011 22.6765 126.835 22.4118C126.57 22.2354 126.482 21.9706 126.305 21.6177C126.217 21.2647 126.129 20.9118 126.129 20.4706C126.129 20.1177 126.129 19.6765 126.129 19.1471V9.35298H129.746C129.746 9.26475 129.835 9.08828 129.835 8.47063H126.129V2.91182C125.423 2.91182 125.158 2.91182 125.07 3.00006C124.982 3.00006 124.982 3.17652 124.982 3.35299V8.55887H122.776C122.776 8.55887 122.776 8.55887 122.687 8.55887C122.687 8.55887 122.687 8.73534 122.687 9.35298ZM136.54 7.853C137.864 7.853 138.923 8.29418 139.54 9.17653C140.158 10.0589 140.423 11.2059 140.423 12.7942C140.423 13.4118 140.423 14.1177 140.335 14.7353C140.246 15.353 140.246 15.9706 140.07 16.5C139.452 16.5883 138.746 16.7647 138.04 16.7647C137.335 16.853 136.629 16.9412 135.923 16.9412C135.217 16.9412 134.599 17.0295 134.07 17.0295C133.452 17.0295 133.011 17.0295 132.746 17.0295C132.746 18.1765 132.835 19.0589 133.011 19.7648C133.187 20.4706 133.452 21 133.717 21.353C134.07 21.7059 134.423 21.9706 134.864 22.0589C135.305 22.1471 135.835 22.2353 136.364 22.2353C137.07 22.2353 137.776 22.1471 138.393 21.9706C139.011 21.7942 139.629 21.5294 140.07 21.1765C140.158 21.353 140.246 21.6177 140.246 21.7942C140.246 21.9706 140.335 22.2353 140.335 22.3236C140.335 22.5001 140.246 22.6765 139.982 22.853C139.717 23.0295 139.452 23.2059 139.099 23.2942C138.746 23.4706 138.305 23.5589 137.776 23.6471C137.246 23.7353 136.717 23.8236 136.187 23.8236C135.482 23.8236 134.776 23.7353 134.158 23.5589C133.54 23.3824 133.011 23.0294 132.57 22.5C132.129 21.9706 131.776 21.2647 131.511 20.2942C131.246 19.3236 131.158 18.0883 131.158 16.5883C131.158 14.6471 131.335 13.0589 131.687 11.9118C132.04 10.7647 132.482 9.88239 133.011 9.26474C133.54 8.64709 134.158 8.29416 134.776 8.11769C135.305 7.94122 135.923 7.853 136.54 7.853ZM136.452 9.44122C136.099 9.44122 135.658 9.52947 135.217 9.6177C134.776 9.79418 134.423 10.0589 134.07 10.5001C133.717 10.9412 133.452 11.5589 133.187 12.353C132.923 13.1471 132.835 14.2059 132.746 15.6177C133.011 15.6177 133.452 15.6177 133.893 15.6177C134.335 15.6177 134.864 15.6177 135.482 15.5295C136.011 15.5295 136.629 15.4412 137.158 15.353C137.687 15.2648 138.217 15.1765 138.658 15.0883C138.658 14.7353 138.746 14.3824 138.746 14.0295C138.746 13.6765 138.746 13.3236 138.746 13.0589C138.746 11.8236 138.57 10.9412 138.217 10.3236C137.864 9.70593 137.335 9.44122 136.452 9.44122ZM136.099 24.1765C135.305 24.1765 134.599 24.0883 133.982 23.9118C133.276 23.7353 132.746 23.3824 132.217 22.7648C131.776 22.2353 131.335 21.4412 131.07 20.4706C130.805 19.5 130.717 18.2648 130.717 16.6765C130.717 14.6471 130.893 13.0589 131.246 11.9118C131.599 10.6765 132.04 9.79417 132.57 9.08829C133.099 8.47064 133.805 8.02946 134.511 7.76476C135.217 7.58829 135.835 7.50004 136.54 7.50004C137.952 7.50004 139.099 7.94122 139.717 8.91181C140.335 9.79416 140.687 11.1177 140.687 12.7059C140.687 13.3236 140.687 14.0295 140.599 14.6471C140.511 15.2647 140.511 15.8824 140.335 16.4118V16.5883H140.158C139.452 16.6765 138.746 16.853 138.04 16.9412C137.335 17.0295 136.629 17.1177 135.923 17.1177C135.217 17.1177 134.599 17.2059 134.07 17.2059C133.629 17.2059 133.276 17.2059 133.011 17.2059C133.011 18.1765 133.099 18.9706 133.276 19.5883C133.452 20.2059 133.629 20.7354 133.982 21.0883C134.246 21.4412 134.599 21.6177 134.952 21.7059C136.06 21.9535 137.212 21.9232 138.305 21.6177C138.923 21.4412 139.452 21.1765 139.893 20.9118L140.246 20.6471L140.423 21.0001C140.511 21.2648 140.599 21.4412 140.599 21.7059C140.599 21.9706 140.687 22.1471 140.687 22.3236C140.687 22.5883 140.511 22.853 140.246 23.1177C139.982 23.2942 139.629 23.4706 139.276 23.6471C138.923 23.8236 138.393 23.9118 137.864 24C137.246 24.1765 136.717 24.1765 136.099 24.1765ZM136.54 8.11769C135.923 8.11769 135.305 8.20592 134.687 8.38239C134.07 8.55886 133.54 8.91181 133.099 9.44122C132.57 10.0589 132.217 10.853 131.864 12C131.511 13.1471 131.335 14.7354 131.335 16.6765C131.335 18.1765 131.423 19.4118 131.687 20.2942C131.952 21.1765 132.305 21.8824 132.658 22.3236C133.099 22.7648 133.54 23.1177 134.07 23.2059C134.687 23.3824 135.305 23.4706 136.011 23.4706C136.54 23.4706 137.07 23.3824 137.599 23.2942C138.129 23.2059 138.57 23.1177 138.923 22.9412C139.276 22.853 139.54 22.6765 139.717 22.5C139.893 22.4118 139.982 22.2353 139.982 22.1471C139.982 21.9706 139.982 21.7942 139.982 21.6177C139.982 21.5294 139.982 21.4412 139.982 21.4412C139.54 21.7059 139.099 21.8824 138.57 22.0589C137.359 22.3812 136.089 22.4115 134.864 22.1471C134.335 21.9706 133.893 21.7059 133.629 21.353C133.276 20.9118 133.011 20.3824 132.835 19.6765C132.658 18.9706 132.57 18 132.57 16.853V16.5883H132.835C133.187 16.5883 133.629 16.5883 134.158 16.5883C134.687 16.5883 135.305 16.5883 136.011 16.5C136.629 16.5 137.335 16.4118 138.04 16.3236C138.658 16.2353 139.276 16.1471 139.893 16.0589C139.982 15.6177 140.07 15.0883 140.07 14.5589C140.158 13.9412 140.158 13.2353 140.158 12.6177C140.158 11.1177 139.893 9.97065 139.276 9.17653C138.746 8.55888 137.864 8.11769 136.54 8.11769ZM133.982 15.8824H132.482V15.5295C132.57 14.1177 132.658 13.0589 132.923 12.1765C133.187 11.2942 133.452 10.6765 133.805 10.2353C134.158 9.79416 134.599 9.44121 135.04 9.26474C135.482 9.08827 135.923 9.08829 136.364 9.08829C137.423 9.08829 138.129 9.44121 138.482 10.1471C138.835 10.7647 139.011 11.7353 139.011 13.0589C139.011 13.4118 139.011 13.7647 139.011 14.1177C139.011 14.4706 138.923 14.8236 138.923 15.1765V15.353L138.746 15.4412C138.305 15.5294 137.776 15.6177 137.246 15.7059C136.717 15.7942 136.099 15.7942 135.57 15.8824C135.04 15.8824 134.511 15.8824 133.982 15.8824ZM133.099 15.2648H133.982C134.423 15.2648 134.952 15.2648 135.482 15.1765C136.011 15.1765 136.54 15.0883 137.158 15C137.599 14.9118 138.04 14.9118 138.393 14.8236C138.393 14.5589 138.482 14.2942 138.482 13.9412C138.482 13.5883 138.482 13.2353 138.482 12.9706C138.482 11.8236 138.305 10.9412 138.04 10.3236C137.776 9.79416 137.246 9.52946 136.452 9.52946C136.099 9.52946 135.746 9.61768 135.305 9.70592C134.952 9.79415 134.599 10.0589 134.335 10.4118C133.982 10.853 133.717 11.3824 133.54 12.1765C133.364 13.1471 133.187 14.1177 133.099 15.2648Z" fill="white"/>
<path d="M23.688 2.11798C23.688 2.11798 22.8056 3.00031 22.8056 3.52972C25.188 4.94148 27.835 7.67679 28.8056 9.88267C28.8056 9.88267 29.5115 9.88268 30.0409 9.61798C31.6291 8.82386 32.1586 6.61796 31.9821 4.94149C31.8056 3.26502 30.3056 3.00033 29.7762 2.55915C29.2468 2.11798 29.4233 0.970905 27.4821 0.617964C25.5409 0.176788 23.688 2.11798 23.688 2.11798Z" fill="white"/>
<path d="M11.0716 2.73551C11.0716 2.73551 17.3363 -0.176264 23.8657 3.9708C30.3951 8.11786 30.1304 14.7355 30.1304 14.7355C30.1304 14.7355 33.9245 21.7061 27.3069 26.559C20.6892 31.412 13.1892 29.7355 11.5128 29.0296C9.92452 28.412 7.01275 4.58845 11.0716 2.73551Z" fill="white"/>
<path d="M18.13 1.94105C14.0712 1.41164 11.0712 2.82341 11.0712 2.82341C7.01234 4.67635 5.07116 10.2352 4.89469 12.9705C4.80646 15.2646 3.30647 15.6175 3.30647 20.294C3.21823 25.941 9.9241 28.4116 11.5123 29.1175C12.3947 29.4705 14.9535 30.1763 18.0417 29.9999V1.94105H18.13Z" fill="#F8F8F8"/>
<path d="M15.0415 10.1476C12.8356 9.00058 10.6297 10.5888 10.0121 12.0006C8.95325 14.2947 7.71796 16.8535 7.45326 17.3829C6.5709 19.2359 8.60032 20.3829 10.1886 19.9418C11.6003 19.5006 13.6297 18.7947 15.9238 16.5888C18.3062 14.2947 17.3356 11.2947 15.0415 10.1476ZM13.8944 15.53C13.718 15.1771 13.1886 14.9124 12.5709 14.9124C12.1297 14.9124 11.6886 15.0888 11.4238 15.3535C11.5121 14.8241 11.865 13.9418 12.7474 14.03C13.6297 14.1183 13.8944 14.9124 13.8944 15.53ZM19.8944 16.5888C22.1886 18.7947 24.218 19.5006 25.6297 19.9418C27.218 20.3829 29.2474 19.3241 28.365 17.3829C28.1003 16.8535 26.865 14.2947 25.8062 12.0006C25.1003 10.5006 22.9827 8.91235 20.7768 10.1476C18.6591 11.2947 17.6003 14.2947 19.8944 16.5888ZM22.0121 15.53C22.0121 14.9124 22.2768 14.1182 23.1592 14.1182C24.0415 14.03 24.3944 14.9123 24.4827 15.4418C24.218 15.1771 23.865 15.0006 23.3356 15.0006C22.8062 14.9123 22.2768 15.1771 22.0121 15.53C22.1003 15.53 22.0121 15.53 22.0121 15.53Z" fill="white"/>
<path d="M22.6302 27.4414C20.5125 28.3237 17.336 28.7649 13.5419 27.7943C7.27722 26.0296 10.4537 17.912 17.6008 17.912C24.6596 17.8237 29.0713 24.7943 22.6302 27.4414Z" fill="#F8F8F8"/>
<path d="M18.1304 28.3232V17.8232C17.9539 17.8232 17.7774 17.8232 17.601 17.8232C10.4539 17.8232 7.36568 26.0291 13.5422 27.7056C15.2186 28.1468 16.7186 28.3232 18.1304 28.3232Z" fill="white"/>
<path d="M23.4228 23.0297C23.3346 23.6474 22.6287 24.265 20.9522 24.0003C19.7169 23.8239 19.0111 23.0297 18.7463 22.5886C19.1875 22.5003 19.4522 22.0592 19.8934 21.7062C20.4228 21.265 20.9522 21.0003 21.0404 20.5592C21.1287 20.118 21.0404 19.5886 19.8052 19.3239C18.5699 19.1474 18.7463 19.9415 17.1581 19.4121C15.5699 18.7944 15.2169 19.9415 15.2169 20.6474C15.2169 21.3533 16.364 21.7062 17.1581 22.2356C17.511 22.4121 17.6875 22.5886 17.864 22.5886C17.5993 22.9415 16.8934 23.8239 15.6581 24.0003C13.9816 24.265 13.2757 23.6474 13.1875 23.0297C13.0993 22.4121 12.5699 23.2062 13.0993 23.9121C13.6287 24.618 15.0404 25.5003 16.6287 24.7062C17.6875 24.1768 18.1287 23.6474 18.3052 23.118C18.4816 23.6474 18.9228 24.1768 19.9816 24.7062C21.5699 25.5003 22.9816 24.618 23.511 23.9121C24.0405 23.118 23.511 22.4121 23.4228 23.0297ZM5.42281 9.70621C6.3934 9.79444 7.1875 9.35327 7.36397 9.00033C7.45221 8.82386 7.45221 8.64739 7.36397 8.55916C7.54044 8.38269 7.62868 8.11798 7.45221 7.6768C7.45221 7.58857 7.36397 7.32386 7.36397 7.23563C7.36397 7.23563 7.45223 7.14739 7.71693 7.14739C7.80517 7.14739 7.89339 7.14739 7.98163 7.14739C8.1581 7.05915 8.33457 7.05916 8.33457 6.88269C8.33457 6.70622 8.24635 6.61799 8.15811 6.52976C8.06988 6.44152 7.89338 6.35327 7.80515 6.26503C7.71691 6.1768 7.54045 6.08857 7.54045 6.00034C7.54045 5.9121 7.6287 5.82386 7.71693 5.82386C7.80517 5.82386 7.98162 5.82386 8.24632 5.9121C8.33456 6.00033 8.51105 6.00034 8.59929 6.00034C8.77576 6.08857 8.86398 6.00033 8.86398 5.9121C8.95222 5.82386 8.95222 5.64739 8.95222 5.47092C9.12869 5.47092 9.30517 5.55917 9.48164 5.6474C9.65811 5.73564 9.74634 5.73562 9.83458 5.73562C10.0993 5.73562 10.1875 5.55915 10.1875 5.38268C10.1875 5.29445 10.1875 5.29444 10.1875 5.29444C10.364 5.29444 10.7169 5.11799 10.7169 4.76505H10.8052C10.8052 4.76505 10.8934 4.76505 10.9816 4.76505C11.1581 4.76505 11.4228 4.76503 11.5993 4.50033C11.6875 4.32386 11.7757 4.14738 11.7757 3.97091C11.7757 3.97091 11.7757 3.97093 11.7757 3.8827C11.6875 2.82387 11.2463 0.353286 8.24632 -0.0878906C8.15809 0.000344664 7.98164 0.000323124 7.71693 0.000323124C5.51105 0.000323124 3.83457 1.4121 2.68751 4.14739C1.98163 5.9121 1.8934 8.11799 3.65811 9.17682C3.92281 9.35328 4.09927 9.44151 4.36398 9.52975" fill="white"/>
</g>
<defs>
<clipPath id="clip0_679_67432">
<rect width="141.176" height="30" fill="white" transform="translate(0.922791)"/>
</clipPath>
</defs>
</svg>
