<svg width="121" height="28" viewBox="0 0 121 28" fill="none" xmlns="http://www.w3.org/2000/svg">
<g clip-path="url(#clip0_75_1391)">
<path d="M21.0772 5.62029C16.4751 5.28972 11.3489 5.28972 6.74662 5.62029C5.78323 5.68949 5.05329 6.42716 4.98086 7.32884C4.74855 10.2205 4.71764 14.5527 4.93066 17.4415C5.00102 18.3956 5.83875 19.2146 6.97208 19.2146H10.5249V23.5974L6.97933 23.5948C3.72673 23.5948 0.807224 21.184 0.555034 17.7641C0.32544 14.6506 0.357151 10.093 0.607439 6.9775C0.858273 3.85513 3.36904 1.46409 6.43229 1.24407C11.2438 0.898464 16.5801 0.898462 21.3916 1.24406C24.4548 1.46409 26.9657 3.85513 27.2165 6.9775C27.4668 10.093 27.4558 14.6506 27.2262 17.7641C26.974 21.184 24.0613 23.6047 20.8087 23.6047L17.2997 23.6021L10.5249 27.9849V23.5974L17.2997 19.2146H20.8092C21.9425 19.2146 22.7802 18.3956 22.8506 17.4415C23.0636 14.5527 23.0753 10.2205 22.843 7.32884C22.7706 6.42716 22.0407 5.68949 21.0772 5.62029Z" fill="#FE5000"/>
<path d="M34.1157 20.2488H44.7186V17.5866H37.3287V4.18384H34.1157V20.2488Z" fill="#1B1B20"/>
<path d="M46.2554 20.2491H49.3766V8.31511H46.2554V20.2491ZM46.0029 5.19391C46.0029 6.22666 46.7603 7.00696 47.816 7.00696C48.8717 7.00696 49.629 6.22666 49.629 5.19391C49.629 4.16116 48.8717 3.38086 47.816 3.38086C46.7603 3.38086 46.0029 4.16116 46.0029 5.19391Z" fill="#1B1B20"/>
<path d="M61.6146 8.31494H58.4934L55.923 17.0589L53.3526 8.31494H50.2314L54.2936 20.2489H57.5525L61.6146 8.31494Z" fill="#1B1B20"/>
<path d="M67.1843 20.5241C69.8235 20.5241 71.9579 18.9406 72.371 16.7603H69.6399C69.3416 17.5865 68.5154 18.275 67.1843 18.275C65.3712 18.275 64.6598 17.0587 64.6598 15.6587V15.3604H72.4628V13.2719C72.4628 10.4032 70.6727 8.03931 67.1384 8.03931C63.5582 8.03931 61.6304 10.3343 61.6304 13.5703V15.1997C61.6304 18.5504 63.8106 20.5241 67.1843 20.5241ZM64.6598 13.0424C64.6598 11.4359 65.3483 10.2425 67.1384 10.2425C68.8137 10.2425 69.594 11.3671 69.594 12.8588V13.1572H64.6598V13.0424Z" fill="#1B1B20"/>
<path d="M80.7581 20.5701C84.8202 20.5701 87.3218 17.8161 87.4824 14.5343H84.4989C84.2923 16.3473 83.1449 17.9309 80.7581 17.9309C78.0729 17.9309 76.9254 16.0949 76.9254 13.5245V10.9082C76.9254 8.3378 78.0729 6.5018 80.7581 6.5018C83.1449 6.5018 84.2923 8.08535 84.4989 9.8984H87.4824C87.3218 6.61655 84.8202 3.86255 80.7581 3.86255C75.9156 3.86255 73.7354 6.9608 73.7354 11.0688V13.3638C73.7354 17.4719 75.9156 20.5701 80.7581 20.5701Z" fill="#1B1B20"/>
<path d="M89.1792 20.2489H92.3006V13.1803C92.3006 11.5738 93.1952 10.7476 94.5956 10.7476C96.1103 10.7476 96.7754 11.7345 96.7754 13.1115V20.2489H99.8966V12.6066C99.8966 9.78366 98.2676 8.03946 95.6738 8.03946C94.1366 8.03946 92.9198 8.70501 92.3006 9.73776V3.49536H89.1792V20.2489Z" fill="#1B1B20"/>
<path d="M105.855 20.5241C107.232 20.5241 108.746 19.9504 109.297 19.1471V20.2487H112.303V12.6293C112.303 9.85236 110.261 8.03931 107.278 8.03931C104.707 8.03931 102.848 9.27861 102.159 11.5966H105.051C105.372 10.954 106.038 10.472 107.116 10.472C108.402 10.472 109.182 11.2982 109.182 12.3998V14.0293C108.631 13.5703 107.575 13.0195 106.153 13.0195C103.284 13.0195 101.333 14.2129 101.333 16.8062C101.333 19.1242 103.169 20.5241 105.855 20.5241ZM106.657 18.4586C105.35 18.4586 104.362 17.816 104.362 16.7144C104.362 15.6128 105.28 15.0161 106.749 15.0161C108.15 15.0161 109.182 15.6358 109.182 16.6915C109.182 17.7013 108.034 18.4586 106.657 18.4586Z" fill="#1B1B20"/>
<path d="M118.136 20.2488H120.293V17.7243H119.03C118.204 17.7243 117.906 17.403 117.906 16.6227V10.8393H120.453V8.31481H117.906V5.05591H114.762V8.31481H113.063V10.8393H114.762V16.8522C114.762 18.9636 115.841 20.2488 118.136 20.2488Z" fill="#1B1B20"/>
</g>
<defs>
<clipPath id="clip0_75_1391">
<rect width="120.6" height="27" fill="white" transform="translate(0.399902 0.984863)"/>
</clipPath>
</defs>
</svg>
