<svg width="128" height="28" viewBox="0 0 128 28" fill="none" xmlns="http://www.w3.org/2000/svg">
<g clip-path="url(#clip0_75_1335)">
<path d="M33.0815 9.16424C34.2727 8.44953 35.6227 8.05248 37.0521 8.05248C37.7668 8.05248 38.4021 8.13188 38.958 8.37012C39.5139 8.52894 39.9903 8.84657 40.3874 9.32304C40.7844 9.79951 41.1021 10.3554 41.3403 11.1495C41.5786 11.9436 41.658 12.8172 41.658 14.0084C41.658 15.9142 41.4991 17.423 41.1815 18.5348C40.8639 19.6466 40.4668 20.5201 39.9903 21.1554C39.5139 21.7907 39.0374 22.1878 38.4815 22.3466C37.9256 22.5054 37.4492 22.5848 37.0521 22.5848C36.4962 22.5848 35.9403 22.5054 35.5433 22.2672C35.1462 22.0289 34.7492 21.8701 34.5903 21.5525V27.6672C34.4315 27.6672 34.3521 27.7466 34.1933 27.7466C34.0344 27.7466 33.955 27.7466 33.7962 27.7466C33.558 27.7466 33.3197 27.6672 33.2403 27.5878C33.1609 27.5083 33.0815 27.3495 33.0815 27.1113V9.16424ZM34.5903 19.8054C34.8286 20.2025 35.1462 20.5201 35.5433 20.7584C35.9403 20.9966 36.258 21.076 36.655 21.076C36.8933 21.076 37.2903 20.9966 37.608 20.8378C38.005 20.6789 38.3227 20.3613 38.7198 19.8848C39.0374 19.4084 39.355 18.6936 39.5933 17.8201C39.8315 16.9466 39.9903 15.676 39.9903 14.1672C39.9903 13.2142 39.9109 12.4201 39.8315 11.7848C39.7521 11.1495 39.5139 10.6731 39.2756 10.276C39.0374 9.87894 38.7198 9.64071 38.3227 9.56129C37.9256 9.40247 37.5286 9.32304 37.0521 9.32304C36.1786 9.32304 35.3845 9.5613 34.6697 10.0378V19.8054H34.5903ZM33.7962 27.9848C33.5489 27.9883 33.3041 27.9339 33.0815 27.826C32.9227 27.6672 32.8433 27.4289 32.8433 27.1113V9.0054L33.0021 8.92599C34.2727 8.13187 35.6227 7.81423 37.1315 7.81423C37.8462 7.81423 38.5609 7.89363 39.1168 8.13187C39.7521 8.3701 40.2286 8.68776 40.705 9.16424C41.1021 9.64071 41.4197 10.276 41.658 11.0701C41.8962 11.8642 41.9756 12.8172 41.9756 14.0084C41.9756 15.9142 41.8168 17.4231 41.4992 18.6142C41.1815 19.8054 40.7845 20.6789 40.308 21.3142C39.8315 21.9495 39.2756 22.3466 38.7198 22.5848C38.1639 22.7436 37.608 22.9025 37.2109 22.9025C36.5756 22.9025 36.0198 22.8231 35.5433 22.5848C35.305 22.5054 35.1462 22.3466 34.9874 22.2672V27.9054L34.8286 27.9848C34.6697 28.0642 34.5109 28.0642 34.3521 28.0642C34.0345 27.9054 33.8756 27.9848 33.7962 27.9848ZM33.3197 9.32304V27.0319C33.3197 27.2701 33.3992 27.3495 33.3992 27.3495C33.3992 27.3495 33.4786 27.4289 33.7962 27.4289C33.8756 27.4289 34.0344 27.4289 34.1933 27.4289C34.2727 27.4289 34.2727 27.4289 34.3521 27.4289V20.7584L34.8286 21.3936C34.9874 21.6319 35.305 21.7907 35.7021 22.0289C36.0991 22.1877 36.5756 22.3466 37.1315 22.3466C37.5286 22.3466 38.005 22.2672 38.4815 22.1083C38.958 21.9495 39.4345 21.5525 39.8315 20.9966C40.308 20.4407 40.6256 19.5672 40.9433 18.4554C41.2609 17.3436 41.4197 15.8348 41.4197 14.0084C41.4197 12.8966 41.3403 12.0231 41.1021 11.2289C40.8639 10.5142 40.6256 9.95835 40.2286 9.56129C39.8315 9.16424 39.4344 8.84658 38.8786 8.68776C38.3227 8.52894 37.7668 8.44953 37.0521 8.44953C35.7021 8.29071 34.4315 8.68775 33.3197 9.32304ZM36.655 21.3936C36.258 21.3936 35.7815 21.2348 35.3844 21.076C34.9874 20.8378 34.5903 20.5201 34.3521 20.0436V9.95835L34.4315 9.87894C35.1462 9.40247 36.0197 9.16424 36.9727 9.16424C37.5286 9.16424 38.005 9.24364 38.4021 9.40246C38.7991 9.56128 39.1962 9.87894 39.4345 10.276C39.6727 10.6731 39.9109 11.2289 40.0697 11.8642C40.2286 12.4995 40.308 13.2936 40.308 14.326C40.308 15.9142 40.1492 17.1848 39.9109 18.0583C39.6727 19.0113 39.355 19.726 38.958 20.2025C38.5609 20.6789 38.1639 21.076 37.7668 21.2348C37.2903 21.3142 36.9727 21.3936 36.655 21.3936ZM34.8286 19.726C35.0668 20.0436 35.305 20.3613 35.6227 20.5201C35.9403 20.6789 36.258 20.8378 36.655 20.8378C36.8933 20.8378 37.2109 20.7584 37.5286 20.6789C37.8462 20.5201 38.1639 20.2819 38.4815 19.8848C38.7991 19.4084 39.1168 18.7731 39.2756 17.8995C39.5139 17.026 39.5933 15.8348 39.5933 14.2466C39.5933 13.2936 39.5139 12.4995 39.4345 11.9436C39.355 11.3084 39.1962 10.8319 38.958 10.5142C38.7197 10.1966 38.4815 9.95835 38.1639 9.87894C37.8462 9.72011 37.4492 9.7201 36.9727 9.7201C36.1786 9.7201 35.4639 9.87894 34.8286 10.276V19.726ZM43.1668 9.32304C43.1668 9.08481 43.2462 8.84659 43.405 8.76718C43.7227 8.60835 44.1992 8.44952 44.9933 8.2907C45.7874 8.13188 46.7403 8.05248 47.6933 8.05248C48.805 8.05248 49.5992 8.29071 50.155 8.76718C50.7109 9.24365 50.9492 10.1172 50.9492 11.3878V13.0554C50.9492 14.6436 50.9492 16.1525 50.8697 17.6613C50.8697 19.0907 50.7903 20.3613 50.7903 21.4731C50.4727 21.7113 49.9962 21.8701 49.4403 22.1083C48.805 22.3466 48.0109 22.426 47.058 22.426C46.5815 22.426 46.105 22.426 45.5491 22.3466C45.0727 22.2672 44.6756 22.1083 44.2786 21.7907C43.8815 21.5525 43.6433 21.076 43.405 20.5201C43.1668 19.9642 43.0874 19.2495 43.0874 18.2966C43.0874 17.3436 43.1668 16.5495 43.405 15.9142C43.6433 15.3584 43.9609 14.8819 44.358 14.5642C44.755 14.2466 45.1521 14.0084 45.708 13.9289C46.1845 13.8495 46.7403 13.7701 47.2168 13.7701C47.6139 13.7701 48.0109 13.7701 48.408 13.8495C48.805 13.9289 49.2021 14.0083 49.5197 14.0878V11.626C49.5197 11.1495 49.4403 10.8319 49.3609 10.5142C49.2815 10.1966 49.1227 10.0378 48.8845 9.79952C48.7256 9.6407 48.4874 9.56129 48.1698 9.48188C47.9315 9.40247 47.6139 9.40246 47.2962 9.40246C45.94 9.39402 44.5938 9.63632 43.3256 10.1172C43.2462 9.95834 43.1668 9.64069 43.1668 9.32304ZM49.5992 15.2789C49.3609 15.1995 49.0433 15.1201 48.7256 15.0407C48.408 14.9613 48.0903 14.9613 47.8521 14.9613C47.455 14.9613 47.058 14.9613 46.7403 15.0407C46.3433 15.1201 46.0256 15.2789 45.7874 15.4378C45.5492 15.676 45.3109 15.9937 45.1521 16.3907C44.9933 16.7878 44.9139 17.423 44.9139 18.1378C44.9139 18.7731 44.9933 19.3289 45.1521 19.726C45.3109 20.123 45.4697 20.3613 45.708 20.5995C45.9462 20.7583 46.2639 20.9172 46.5815 20.9966C46.8992 21.076 47.2168 21.076 47.6139 21.076C48.0903 21.076 48.4874 20.9966 48.8845 20.9172C49.2815 20.7583 49.5197 20.6789 49.6786 20.5201C49.6786 20.2025 49.6786 19.8848 49.758 19.4878C49.758 19.0907 49.758 18.6142 49.8374 18.1378C49.8374 17.6613 49.8374 17.1848 49.8374 16.7084C49.5992 16.2319 49.5992 15.7554 49.5992 15.2789ZM47.1374 22.7437C46.6609 22.7437 46.105 22.7436 45.6286 22.6642C45.0727 22.5848 44.5962 22.426 44.1992 22.1083C43.8021 21.7907 43.4844 21.3142 43.2462 20.7584C43.008 20.2025 42.8492 19.4084 42.8492 18.376C42.8492 17.3437 43.008 16.5495 43.2462 15.9142C43.4344 15.3653 43.7591 14.8733 44.1897 14.4843C44.6203 14.0953 45.1428 13.8222 45.708 13.6907C46.2639 13.6113 46.7403 13.5319 47.2962 13.5319C47.6933 13.5319 48.0903 13.5319 48.4874 13.6113C48.805 13.6113 49.0433 13.6907 49.2815 13.7701V11.7054C49.2815 11.3083 49.2021 10.9907 49.1227 10.6731C49.0433 10.4348 48.8844 10.276 48.7256 10.1172C48.656 10.0392 48.5702 9.97751 48.4741 9.93635C48.3781 9.89519 48.2742 9.8756 48.1698 9.87894C47.9315 9.79952 47.6139 9.79952 47.2962 9.79952C46.4227 9.79952 45.6286 9.87895 44.9933 10.0378C44.2786 10.1966 43.8021 10.3554 43.405 10.5142L43.1668 10.5936L43.0874 10.3554C42.9286 10.0378 42.8492 9.7201 42.8492 9.32304C42.8492 9.0054 42.9286 8.68775 43.1668 8.52893C43.4844 8.3701 44.0403 8.21129 44.9139 7.97306C45.708 7.81424 46.6609 7.73481 47.6933 7.73481C48.8845 7.73481 49.758 7.97304 50.3933 8.52893C51.0286 9.08481 51.3462 10.0378 51.3462 11.3878V13.0554C51.3462 14.6436 51.3462 16.1525 51.2668 17.6613C51.2668 19.0907 51.1874 20.3613 51.1874 21.4731V21.6319L51.108 21.7113C50.7903 21.9495 50.3139 22.1877 49.6786 22.426C49.0433 22.6642 48.1697 22.7437 47.1374 22.7437ZM47.2962 14.0878C46.8197 14.0878 46.3433 14.1672 45.7874 14.2466C45.3109 14.326 44.9139 14.5642 44.5962 14.8025C44.2786 15.1201 43.9609 15.5172 43.7227 16.073C43.4845 16.6289 43.405 17.4231 43.405 18.2966C43.405 19.1701 43.4845 19.8848 43.7227 20.4407C43.9609 20.9172 44.1992 21.3142 44.5168 21.5525C44.8345 21.7907 45.2315 21.9495 45.708 22.0289C46.1845 22.1083 46.6609 22.1083 47.1374 22.1083C48.363 22.1707 49.5794 21.8665 50.6315 21.2348C50.6315 20.2025 50.7109 18.9319 50.7109 17.5819C50.7109 16.1525 50.7903 14.5642 50.7903 12.976V11.3083C50.7903 10.1172 50.5521 9.32304 50.0756 8.92599C49.5992 8.44951 48.805 8.2907 47.7727 8.2907C46.7403 8.2907 45.8668 8.3701 45.0727 8.52893C44.1198 8.68775 43.7227 8.84658 43.5639 9.0054C43.4844 9.08481 43.4845 9.16422 43.4845 9.32304C43.4845 9.48187 43.4844 9.72011 43.5639 9.87894C43.9609 9.72011 44.358 9.6407 44.9933 9.48188C45.708 9.32305 46.5021 9.24365 47.455 9.24365C47.7727 9.24365 48.0903 9.24363 48.408 9.32304C48.7256 9.40246 48.9639 9.48187 49.2021 9.7201C49.4403 9.87893 49.5992 10.1966 49.758 10.5142C49.8374 10.8319 49.9168 11.2289 49.9168 11.7054V14.5642L49.5197 14.4054C49.2021 14.2466 48.8845 14.1672 48.4874 14.1672C48.0109 14.0878 47.6933 14.0878 47.2962 14.0878ZM47.3756 21.3936C46.9786 21.3936 46.6609 21.3936 46.3433 21.3142C45.9462 21.2348 45.6286 21.1554 45.3903 20.9172C45.1521 20.6789 44.9139 20.3613 44.755 19.9642C44.5962 19.5672 44.5168 19.0113 44.5168 18.2966C44.5168 17.5025 44.5962 16.8672 44.755 16.4701C44.9139 15.9936 45.1521 15.5966 45.4698 15.3583C45.7874 15.1201 46.1845 14.9613 46.5815 14.8819C46.9786 14.8025 47.3756 14.8025 47.7727 14.8025C48.0109 14.8025 48.3286 14.8025 48.7256 14.8819C49.1227 14.9613 49.4403 15.0407 49.6786 15.1201L49.8374 15.1995V15.2789C49.8374 15.676 49.8374 16.1525 49.8374 16.7084V18.1378C49.8374 18.6142 49.8374 19.0907 49.758 19.4878C49.758 19.8848 49.758 20.2819 49.6786 20.5201V20.5995L49.5992 20.6789C49.4403 20.8378 49.1227 20.9966 48.7256 21.1554C48.3286 21.3937 47.8521 21.3936 47.3756 21.3936ZM47.7727 15.2789C47.3756 15.2789 47.058 15.2789 46.6609 15.3583C46.3433 15.4378 46.0256 15.5172 45.7874 15.7554C45.5492 15.9142 45.3903 16.2319 45.2315 16.6289C45.0727 17.026 44.9933 17.5819 44.9933 18.2966C44.9933 18.9319 45.0727 19.4083 45.1521 19.8054C45.3109 20.1231 45.4697 20.3613 45.6286 20.5201C45.8668 20.6789 46.105 20.7583 46.3433 20.8378C46.6609 20.9172 46.9786 20.9172 47.2962 20.9172C47.6933 20.9172 48.0903 20.8378 48.4874 20.7584C48.805 20.6789 49.0433 20.5201 49.1227 20.4407C49.1227 20.2025 49.1227 19.8848 49.2021 19.4878C49.2021 19.0907 49.2021 18.6142 49.2815 18.1378V16.7084C49.2815 16.3113 49.2815 15.8348 49.2815 15.5172C49.0433 15.4378 48.8845 15.4378 48.6462 15.3583C48.3286 15.2789 48.0109 15.2789 47.7727 15.2789ZM53.5697 9.0054C54.205 8.76717 54.9198 8.52894 55.7139 8.2907C56.508 8.13188 57.3021 7.97306 58.0962 7.97306C58.8109 7.97306 59.4462 8.05246 59.9227 8.21128C60.3992 8.37011 60.7962 8.60834 61.1139 8.92599C61.4315 9.24363 61.5903 9.64069 61.7492 10.1172C61.8286 10.5936 61.908 11.1495 61.908 11.7848V21.7907C61.908 21.8701 61.908 21.9495 61.908 22.0289C61.908 22.1083 61.8286 22.1083 61.7492 22.1083C61.6698 22.1083 61.5109 22.1878 61.2727 22.1878C61.0345 22.1878 60.7962 22.1878 60.3992 22.1878V12.2613C60.3992 11.7848 60.3992 11.3083 60.3197 10.9907C60.2403 10.5936 60.1609 10.3554 60.0021 10.1172C59.8433 9.87893 59.605 9.72012 59.2874 9.64071C58.9698 9.5613 58.5727 9.48188 58.0962 9.48188C57.6992 9.48188 57.2227 9.5613 56.6668 9.64071C56.1109 9.72012 55.6344 9.87893 55.158 10.1172V21.9495C55.158 22.0289 55.158 22.1083 55.158 22.1878C55.158 22.2672 55.0786 22.2672 54.9992 22.2672C54.9198 22.2672 54.7609 22.3466 54.5227 22.3466C54.2845 22.3466 54.0462 22.3466 53.6492 22.3466V9.0054H53.5697ZM61.2727 22.5054H60.0815V12.2613C60.0815 11.7848 60.0815 11.3878 60.0021 10.9907C59.945 10.709 59.8374 10.44 59.6845 10.1966C59.5256 10.0378 59.3668 9.87893 59.1286 9.79952C58.6521 9.6407 57.858 9.56128 56.6668 9.79952C56.1903 9.87893 55.7933 10.0378 55.3962 10.1966V21.7907C55.3962 21.9495 55.3962 22.0289 55.3168 22.1083C55.2374 22.2672 54.9992 22.3466 54.9198 22.3466C54.7609 22.3466 54.6021 22.426 54.3639 22.426H53.2521V8.84659L53.4109 8.76718C54.0462 8.44953 54.8403 8.2113 55.6345 8.05248C56.4286 7.89365 57.2227 7.73481 58.0168 7.73481C58.8109 7.73481 59.4462 7.81424 59.9227 7.97306C60.4786 8.13188 60.8756 8.37012 61.1933 8.76718C61.5109 9.08482 61.7492 9.56128 61.908 10.1172C61.9874 10.5936 62.0668 11.2289 62.0668 11.8642V21.8701C62.0668 22.0289 62.0668 22.1083 61.9874 22.1878C61.908 22.3466 61.6697 22.426 61.5903 22.426C61.6697 22.426 61.4315 22.5054 61.2727 22.5054ZM60.6374 21.9495H61.2727C61.5109 21.9495 61.5903 21.9495 61.6698 21.9495C61.6698 21.9495 61.6698 21.9495 61.6698 21.8701V11.8642C61.6698 11.2289 61.5903 10.673 61.5109 10.1966C61.4315 9.79952 61.1933 9.40247 60.9551 9.16424C60.7168 8.84659 60.3197 8.68775 59.9227 8.52893C59.4462 8.3701 58.8903 8.2907 58.1756 8.2907C57.4609 8.2907 56.6668 8.3701 55.8727 8.52893C55.158 8.68775 54.5227 8.926 53.9668 9.16424V21.8701H54.5227C54.7609 21.8701 54.8403 21.8701 54.9198 21.8701C54.9198 21.8701 54.9198 21.8701 54.9198 21.7907V9.87894L55.0786 9.79952C55.555 9.56128 56.0315 9.40246 56.5874 9.32304C57.1433 9.24363 57.6198 9.16424 58.0962 9.16424C58.6521 9.16424 59.0492 9.24363 59.3668 9.32304C59.6845 9.48187 60.0021 9.64071 60.1609 9.95835C60.3198 10.1966 60.4786 10.5936 60.558 10.9907C60.6374 11.3878 60.6374 11.7848 60.6374 12.3407V21.9495ZM70.9609 2.57304C70.9609 2.17599 71.0403 2.01717 71.2786 1.93776C71.5168 1.85835 71.9139 1.77893 72.4697 1.77893V21.6319C71.9933 21.8701 71.4374 22.1084 70.8021 22.2672C70.1668 22.426 69.3727 22.5054 68.5786 22.5054C67.9433 22.5054 67.3874 22.426 66.8315 22.2672C66.2756 22.1084 65.7992 21.7907 65.4021 21.3142C65.005 20.8378 64.6874 20.123 64.4492 19.2495C64.2109 18.376 64.0521 17.1054 64.0521 15.5966C64.0521 14.2466 64.2109 13.1348 64.4492 12.1819C64.6874 11.2289 65.005 10.4348 65.4021 9.79952C65.7992 9.16423 66.2756 8.76718 66.9109 8.44953C67.553 8.11251 68.2722 7.94982 68.9968 7.97769C69.7214 8.00556 70.4261 8.223 71.0403 8.60834V2.57304H70.9609ZM70.9609 9.95835C70.7227 9.72012 70.405 9.64071 70.1668 9.56129C69.9286 9.48188 69.5315 9.40246 69.1345 9.40246C68.658 9.40246 68.2609 9.48187 67.8639 9.7201C67.4668 9.95834 67.0697 10.276 66.7521 10.7525C66.4345 11.2289 66.1962 11.8642 66.0374 12.6583C65.8786 13.4525 65.7992 14.4054 65.7992 15.5172C65.7992 16.7084 65.8786 17.7407 66.0374 18.4554C66.1962 19.1701 66.355 19.726 66.6727 20.123C66.9109 20.5201 67.2286 20.7583 67.6256 20.9172C68.0227 21.076 68.4198 21.076 68.8168 21.076C69.2139 21.076 69.6109 20.9966 70.008 20.9172C70.405 20.8378 70.7227 20.6789 71.0403 20.5201L70.9609 9.95835ZM68.5786 22.7437C67.9433 22.7437 67.308 22.6642 66.7521 22.5054C66.1168 22.3466 65.6403 22.0289 65.1639 21.4731C64.7668 20.9966 64.3698 20.2819 64.1315 19.3289C63.8933 18.376 63.7345 17.1848 63.7345 15.5966C63.7345 14.2466 63.8933 13.0554 64.1315 12.1025C64.3698 11.1495 64.6874 10.276 65.1639 9.64071C65.5454 9.0609 66.0636 8.5838 66.6729 8.25144C67.2822 7.91909 67.9639 7.74166 68.658 7.73481C69.4521 7.73481 70.0874 7.89363 70.6433 8.13187V2.57304C70.6433 1.93775 70.8815 1.69953 71.1198 1.69953C71.358 1.62012 71.755 1.62012 72.4697 1.62012H72.708V21.8701L72.5492 21.9495C72.0727 22.1878 71.5168 22.426 70.8021 22.5848C70.1668 22.6642 69.4521 22.7437 68.5786 22.7437ZM68.658 8.2907C68.1021 8.2907 67.5462 8.44952 66.9903 8.68776C66.4344 8.92599 66.0374 9.40247 65.6403 9.95835C65.2433 10.5142 64.9256 11.3083 64.6874 12.2613C64.4492 13.2142 64.3697 14.326 64.3697 15.676C64.3697 17.1848 64.4492 18.376 64.6874 19.2495C64.9256 20.123 65.2433 20.7583 65.6403 21.2348C66.0374 21.6319 66.4345 21.9495 66.9109 22.0289C67.4668 22.1877 68.0227 22.2672 68.5786 22.2672C69.3727 22.2672 70.0874 22.1877 70.8021 22.0289C71.358 21.8701 71.8345 21.7113 72.3109 21.5525V2.09659C71.755 2.09659 71.5168 2.17599 71.4374 2.17599C71.358 2.17599 71.2786 2.41422 71.2786 2.57304V9.16424L70.8021 8.92599C70.2462 8.52893 69.5315 8.2907 68.658 8.2907ZM68.7374 21.3936C68.2609 21.3936 67.8639 21.3142 67.4668 21.2348C67.0697 21.076 66.6727 20.8378 66.355 20.3613C66.0374 19.9642 65.8786 19.3289 65.7198 18.5348C65.5609 17.8201 65.4815 16.7878 65.4815 15.5172C65.4815 14.4054 65.5609 13.373 65.7992 12.5789C65.958 11.7848 66.2756 11.1495 66.5933 10.5936C66.9109 10.0378 67.308 9.72011 67.7845 9.48188C68.2609 9.24364 68.7374 9.16424 69.2139 9.16424C69.6903 9.16424 70.008 9.24363 70.3256 9.32304C70.6433 9.40246 70.8815 9.56128 71.1992 9.79952L71.2786 9.87894V20.7584L71.1198 20.8378C70.8021 21.076 70.405 21.2348 70.008 21.3142C69.6109 21.3142 69.1345 21.3936 68.7374 21.3936ZM69.1345 9.7201C68.7374 9.7201 68.3403 9.79953 67.9433 10.0378C67.5462 10.1966 67.2286 10.5142 66.9903 10.9907C66.6727 11.4672 66.4344 12.0231 66.2756 12.8172C66.1168 13.5319 66.0374 14.4848 66.0374 15.5966C66.0374 16.7878 66.1168 17.7407 66.2756 18.4554C66.4344 19.1701 66.5933 19.726 66.8315 20.0436C67.0698 20.3613 67.308 20.5995 67.6256 20.6789C67.9433 20.7584 68.3403 20.8378 68.7374 20.8378C69.1345 20.8378 69.5315 20.7584 69.9286 20.7584C70.2462 20.6789 70.4845 20.5995 70.8021 20.4407V10.1172C70.6074 9.98013 70.3933 9.87306 70.1668 9.79952C69.8492 9.72011 69.5315 9.7201 69.1345 9.7201ZM74.7727 9.32304C74.7727 9.08481 74.8521 8.84659 75.0109 8.76718C75.2492 8.60835 75.805 8.44952 76.5992 8.2907C77.3933 8.13188 78.3462 8.05248 79.2992 8.05248C80.4109 8.05248 81.205 8.29071 81.7609 8.76718C82.3168 9.24365 82.555 10.1172 82.555 11.3878V13.0554C82.555 14.6436 82.555 16.1525 82.4756 17.6613C82.4756 19.0907 82.3962 20.3613 82.3962 21.4731C82.0786 21.7113 81.6021 21.8701 81.0462 22.1083C80.4109 22.3466 79.6168 22.426 78.6639 22.426C78.1874 22.426 77.7109 22.426 77.155 22.3466C76.6786 22.2672 76.2815 22.1083 75.8845 21.7907C75.4874 21.5525 75.2492 21.076 75.0109 20.5201C74.7727 19.9642 74.6933 19.2495 74.6933 18.2966C74.6933 17.3436 74.7727 16.5495 75.0109 15.9142C75.2492 15.3584 75.5668 14.8819 75.9639 14.5642C76.3609 14.2466 76.758 14.0084 77.3139 13.9289C77.7903 13.8495 78.3462 13.7701 78.8227 13.7701C79.2197 13.7701 79.6168 13.7701 80.0139 13.8495C80.4109 13.9289 80.808 14.0083 81.1256 14.0878V11.626C81.1256 11.1495 81.0462 10.8319 80.9668 10.5142C80.8874 10.1966 80.7286 10.0378 80.4903 9.79952C80.3315 9.6407 80.0933 9.56129 79.7756 9.48188C79.5374 9.40247 79.2198 9.40246 78.9021 9.40246C77.5458 9.39402 76.1997 9.63632 74.9315 10.1172C74.8521 9.95834 74.7727 9.64069 74.7727 9.32304ZM81.205 15.2789C80.9668 15.1995 80.6492 15.1201 80.3315 15.0407C80.0139 14.9613 79.6962 14.9613 79.458 14.9613C79.0609 14.9613 78.6639 14.9613 78.3462 15.0407C77.9492 15.1201 77.6315 15.2789 77.3933 15.4378C77.155 15.5966 76.9168 15.9937 76.758 16.3907C76.5992 16.7878 76.5198 17.423 76.5198 18.1378C76.5198 18.7731 76.5992 19.3289 76.758 19.726C76.9168 20.123 77.0756 20.3613 77.3139 20.5995C77.5521 20.7583 77.8697 20.9172 78.1874 20.9966C78.505 21.076 78.8227 21.076 79.2197 21.076C79.6962 21.076 80.0933 20.9966 80.4903 20.9172C80.8874 20.7583 81.1256 20.6789 81.2845 20.5201C81.2845 20.2025 81.2845 19.8848 81.3639 19.4878C81.3639 19.0907 81.3639 18.6142 81.4433 18.1378C81.4433 17.6613 81.4433 17.1848 81.4433 16.7084C81.205 16.2319 81.205 15.7554 81.205 15.2789ZM78.8227 22.7437C78.3462 22.7437 77.7903 22.7436 77.3139 22.6642C76.758 22.5848 76.2815 22.426 75.8845 22.1083C75.4874 21.7907 75.1698 21.3142 74.9315 20.7584C74.6933 20.2025 74.5345 19.4084 74.5345 18.376C74.5345 17.3437 74.6933 16.5495 74.9315 15.9142C75.1197 15.3653 75.4444 14.8733 75.875 14.4843C76.3056 14.0953 76.8281 13.8222 77.3933 13.6907C77.8697 13.6113 78.4256 13.5319 78.9815 13.5319C79.3786 13.5319 79.7756 13.5319 80.1727 13.6113C80.4903 13.6113 80.7286 13.6907 80.9668 13.7701V11.7054C80.9668 11.3083 80.8874 10.9907 80.808 10.6731C80.7286 10.4348 80.5697 10.276 80.4109 10.1172C80.3413 10.0392 80.2555 9.97751 80.1594 9.93635C80.0634 9.89519 79.9595 9.8756 79.855 9.87894C79.6168 9.79952 79.2992 9.79952 78.9815 9.79952C78.108 9.79952 77.3139 9.87895 76.6786 10.0378C75.9639 10.1966 75.4874 10.3554 75.0903 10.5142L74.8521 10.5936L74.7727 10.3554C74.6139 10.0378 74.5345 9.7201 74.5345 9.32304C74.5345 9.0054 74.6139 8.68775 74.8521 8.52893C75.1697 8.3701 75.7256 8.21129 76.5992 7.97306C77.3933 7.81424 78.3462 7.73481 79.3786 7.73481C80.5697 7.73481 81.4433 7.97304 82.0786 8.52893C82.7139 9.08481 83.0315 10.0378 83.0315 11.3878V13.0554C83.0315 14.6436 83.0315 16.1525 82.9521 17.6613C82.9521 19.0907 82.8727 20.3613 82.8727 21.4731V21.6319L82.7933 21.7113C82.4756 21.9495 81.9992 22.1877 81.3639 22.426C80.6492 22.6642 79.7756 22.7437 78.8227 22.7437ZM78.9815 14.0878C78.505 14.0878 77.9492 14.1672 77.4727 14.2466C76.9962 14.326 76.5992 14.5642 76.2815 14.8025C75.9101 15.1649 75.6133 15.5965 75.408 16.073C75.1697 16.6289 75.0903 17.4231 75.0903 18.2966C75.0903 19.1701 75.1697 19.8848 75.408 20.4407C75.6462 20.9172 75.8845 21.3142 76.2021 21.5525C76.5197 21.7907 76.9168 21.9495 77.3933 22.0289C77.8697 22.1083 78.3462 22.1083 78.8227 22.1083C80.0483 22.1707 81.2647 21.8665 82.3168 21.2348C82.3168 20.2025 82.3962 18.9319 82.3962 17.5819C82.3962 16.1525 82.4756 14.5642 82.4756 12.976V11.3083C82.4756 10.1172 82.2374 9.32304 81.7609 8.92599C81.2845 8.44951 80.4903 8.2907 79.458 8.2907C78.4256 8.2907 77.5521 8.3701 76.758 8.52893C75.805 8.68775 75.408 8.84658 75.2492 9.0054C75.1697 9.08481 75.1698 9.16422 75.1698 9.32304C75.1698 9.48187 75.1697 9.72011 75.2492 9.87894C75.6462 9.72011 76.0433 9.6407 76.6786 9.48188C77.3933 9.32305 78.1874 9.24365 79.1403 9.24365C79.458 9.24365 79.7756 9.24363 80.0933 9.32304C80.4109 9.40246 80.6492 9.48187 80.8874 9.7201C81.1256 9.87893 81.2845 10.1966 81.4433 10.5142C81.5227 10.8319 81.6021 11.2289 81.6021 11.7054V14.5642L81.205 14.4054C80.8874 14.2466 80.5697 14.1672 80.1727 14.1672C79.6962 14.0878 79.2992 14.0878 78.9815 14.0878ZM79.0609 21.3936C78.6639 21.3936 78.3462 21.3936 78.0286 21.3142C77.6315 21.2348 77.3139 21.1554 77.0756 20.9172C76.8374 20.6789 76.5992 20.3613 76.4403 19.9642C76.2815 19.5672 76.2021 19.0113 76.2021 18.2966C76.2021 17.5025 76.2815 16.8672 76.4403 16.4701C76.5992 15.9936 76.8374 15.5966 77.155 15.3583C77.4727 15.1201 77.8698 14.9613 78.2668 14.8819C78.6639 14.8025 79.0609 14.8025 79.458 14.8025C79.6962 14.8025 80.0139 14.8025 80.4109 14.8819C80.808 14.9613 81.1256 15.0407 81.3639 15.1201L81.5227 15.1995V15.2789C81.5227 15.676 81.5227 16.1525 81.5227 16.7084V18.1378C81.5227 18.6142 81.5227 19.0907 81.4433 19.4878C81.4433 19.8848 81.4433 20.2819 81.3639 20.5201V20.5995L81.2845 20.6789C81.1256 20.8378 80.808 20.9966 80.4109 21.1554C79.9345 21.3937 79.5374 21.3936 79.0609 21.3936ZM79.3786 15.2789C78.9815 15.2789 78.6639 15.2789 78.2668 15.3583C77.9492 15.4378 77.6315 15.5172 77.3933 15.7554C77.155 15.9142 76.9962 16.2319 76.8374 16.6289C76.6786 17.026 76.5992 17.5819 76.5992 18.2966C76.5992 18.9319 76.6786 19.4083 76.758 19.8054C76.9168 20.1231 77.0756 20.3613 77.2345 20.5201C77.4727 20.6789 77.7109 20.7583 77.9492 20.8378C78.2668 20.9172 78.5845 20.9172 78.9021 20.9172C79.2992 20.9172 79.6962 20.8378 80.0933 20.7584C80.4109 20.6789 80.6492 20.5201 80.7286 20.4407C80.7286 20.2025 80.7286 19.8848 80.808 19.4878C80.808 19.0907 80.808 18.6142 80.8874 18.1378V16.7084C80.8874 16.3113 80.8874 15.8348 80.8874 15.5172C80.6492 15.4378 80.4903 15.4378 80.2521 15.3583C79.9345 15.2789 79.6962 15.2789 79.3786 15.2789Z" fill="#393939"/>
<path d="M89.3847 8.05256C90.0199 8.05256 90.5758 8.13196 91.0523 8.21137C91.5288 8.29078 91.8464 8.44961 92.1641 8.60843C92.4023 8.76725 92.6405 8.92608 92.7994 9.0849C92.9582 9.24373 92.9582 9.40255 92.9582 9.48196C92.9582 9.7202 92.7994 10.0379 92.5611 10.3555C91.681 9.72729 90.6247 9.39371 89.5435 9.40255C88.6699 9.40255 87.9552 9.56138 87.4788 9.87902C86.9229 10.1967 86.6847 10.5937 86.6847 11.229C86.6847 11.5467 86.7641 11.8643 86.9229 12.182C87.0817 12.4996 87.4788 12.8173 88.0347 13.2143L91.0523 15.3584C91.6876 15.9143 92.1641 16.3908 92.4817 16.9467C92.7994 17.5025 92.9582 18.0584 92.9582 18.7731C92.9582 19.9643 92.5611 20.9173 91.767 21.5526C90.9729 22.1879 89.8611 22.5055 88.4317 22.5055C87.3199 22.5055 86.5258 22.4261 85.8905 22.1878C85.2552 21.9496 84.9376 21.7114 84.9376 21.3143C84.9376 20.9173 85.017 20.679 85.2552 20.3614C85.6523 20.5996 86.1288 20.8378 86.6052 20.9173C87.0817 20.9967 87.6376 21.0761 88.2729 21.0761C89.2258 21.0761 89.9405 20.9173 90.4964 20.5996C91.0523 20.282 91.2905 19.7261 91.2905 19.0114C91.2905 18.4555 91.1317 17.979 90.8935 17.582C90.6552 17.1849 90.2582 16.7084 89.7023 16.3114L86.7641 14.1673C85.9699 13.6114 85.4935 13.1349 85.2552 12.6584C85.017 12.182 84.9376 11.7055 84.9376 11.229C84.9376 10.2761 85.3346 9.48195 86.1288 8.92607C86.8435 8.37019 87.9552 8.05256 89.3847 8.05256ZM88.2729 22.7437C87.1611 22.7437 86.2876 22.5849 85.6523 22.3467C84.9376 22.1084 84.5405 21.7114 84.5405 21.2349C84.5405 20.8378 84.6994 20.4408 84.9376 20.1231L85.0964 19.9643L85.3346 20.1231C85.7317 20.3614 86.1288 20.5202 86.6052 20.679C87.0817 20.7584 87.6376 20.8378 88.1935 20.8378C89.067 20.8378 89.7817 20.679 90.2582 20.3614C90.7347 20.0437 90.9729 19.6467 90.9729 18.932C90.9729 18.4555 90.8935 17.979 90.6552 17.6614C90.417 17.2643 90.0199 16.8672 89.5435 16.4702L86.6052 14.3261C85.8111 13.7702 85.2552 13.2937 85.017 12.7379C84.7788 12.2614 84.6199 11.7055 84.6199 11.1496C84.6199 10.1173 85.0964 9.24372 85.9699 8.60843C86.8435 8.05255 87.9552 7.7349 89.4641 7.7349C90.0994 7.7349 90.7347 7.81432 91.2111 7.89373C91.6876 7.97314 92.0847 8.13196 92.4023 8.29079C92.7199 8.44961 92.9582 8.60844 93.117 8.84668C93.2758 9.08491 93.3552 9.24372 93.3552 9.40255C93.3552 9.72019 93.1964 10.1173 92.9582 10.4349L92.7994 10.5937L92.5611 10.4349C92.0847 10.1173 91.6082 9.87902 91.2111 9.79961C90.7347 9.64078 90.2582 9.6408 89.7023 9.6408C88.9082 9.6408 88.2729 9.79962 87.717 10.0379C87.2405 10.2761 87.0023 10.6731 87.0023 11.1496C87.0023 11.3879 87.0817 11.7055 87.2405 11.9437C87.3199 12.1026 87.6376 12.4202 88.2729 12.8967L91.2905 15.0408C91.9258 15.5967 92.4817 16.1526 92.7994 16.7084C93.117 17.2643 93.2758 17.979 93.2758 18.6937C93.2758 19.9643 92.7994 20.9967 92.0052 21.7114C90.9729 22.4261 89.7817 22.7437 88.2729 22.7437ZM85.2552 20.679C85.1758 20.8378 85.0964 21.0761 85.0964 21.2349C85.0964 21.4731 85.3347 21.632 85.8905 21.7908C86.5258 22.029 87.3199 22.1084 88.3523 22.1084C89.7023 22.1084 90.8141 21.7908 91.5288 21.2349C92.2435 20.679 92.6405 19.8055 92.6405 18.6937C92.6405 18.0584 92.4817 17.5025 92.2435 16.9467C91.9258 16.4702 91.5288 15.9143 90.8935 15.4378L87.8758 13.2937C87.2405 12.8967 86.8435 12.4996 86.6847 12.182C86.5258 11.8643 86.367 11.4673 86.367 11.1496C86.367 10.4349 86.6846 9.95844 87.3199 9.56138C87.8758 9.24373 88.6699 9.0849 89.5435 9.0849C90.1788 9.0849 90.7347 9.16431 91.2111 9.32313C91.6082 9.48195 92.0846 9.64079 92.4817 9.87902C92.5611 9.7202 92.6405 9.56137 92.6405 9.40255C92.6405 9.40255 92.6405 9.32314 92.4817 9.16432C92.4023 9.0055 92.2435 8.92609 92.0052 8.76726C91.767 8.60844 91.3699 8.52903 90.9729 8.44962C90.5758 8.37021 90.0199 8.29079 89.3847 8.29079C88.0347 8.29079 87.0023 8.52902 86.2082 9.0849C85.4935 9.56138 85.0964 10.2761 85.0964 11.1496C85.0964 11.6261 85.1758 12.0231 85.4141 12.4996C85.6523 12.8967 86.1288 13.3731 86.8435 13.8496L89.7817 15.9937C90.3376 16.4702 90.8141 16.8673 91.0523 17.3437C91.2905 17.8202 91.4494 18.2967 91.4494 18.932C91.4494 19.8055 91.1317 20.3614 90.4964 20.7584C89.9405 21.1555 89.1464 21.3143 88.1935 21.3143C87.5582 21.3143 86.9229 21.2349 86.4464 21.1555C85.9699 21.0761 85.5729 20.9173 85.2552 20.679ZM103.599 21.5526C102.964 21.8702 102.329 22.1084 101.535 22.2673C100.82 22.4261 100.026 22.5055 99.3905 22.5055C98.5964 22.5055 97.8817 22.4261 97.4052 22.2673C96.8494 22.1084 96.4523 21.7908 96.1347 21.3937C95.817 20.9967 95.5788 20.4408 95.4994 19.8849C95.3405 19.2496 95.3405 18.5349 95.3405 17.6614V8.76726C95.3405 8.68785 95.3405 8.60842 95.3405 8.52901C95.3405 8.4496 95.4199 8.44962 95.4994 8.3702C95.5788 8.3702 95.7376 8.29079 95.9758 8.29079C96.2141 8.29079 96.4523 8.29079 96.8494 8.29079V17.6614C96.8494 18.2967 96.8494 18.8525 96.9288 19.2496C97.0082 19.6467 97.167 20.0437 97.3258 20.282C97.4847 20.5202 97.8023 20.7584 98.1199 20.8378C98.4376 20.9172 98.9141 20.9967 99.4699 20.9967C99.7876 20.9967 100.185 20.9172 100.661 20.8378C101.138 20.7584 101.614 20.5996 102.011 20.3614V8.76726C102.011 8.68785 102.011 8.60842 102.011 8.52901C102.011 8.4496 102.091 8.44962 102.17 8.3702C102.249 8.3702 102.408 8.29079 102.646 8.29079C102.885 8.29079 103.123 8.29079 103.52 8.29079V21.5526H103.599ZM99.3111 22.7437C98.4376 22.7437 97.8023 22.6643 97.2464 22.4261C96.6905 22.1878 96.2141 21.8702 95.8964 21.4731C95.5788 20.9967 95.3405 20.5202 95.1817 19.8055C95.0229 19.1702 95.0229 18.3761 95.0229 17.5026V8.76726C95.0229 8.68785 95.0229 8.60842 95.0229 8.52901C95.0229 8.4496 95.1023 8.29078 95.4199 8.21137C95.5788 8.21137 95.7376 8.13195 95.9758 8.13195H97.167V17.7408C97.167 18.3761 97.167 18.932 97.2464 19.329C97.3258 19.7261 97.4052 20.0437 97.5641 20.282C97.7229 20.5202 97.9611 20.679 98.2788 20.7584C98.5964 20.8379 98.9935 20.9173 99.5494 20.9173C100.319 20.8712 101.073 20.6827 101.773 20.3614V8.76726C101.773 8.60844 101.773 8.52903 101.852 8.44962C101.852 8.37021 102.011 8.21137 102.249 8.13195C102.408 8.13195 102.567 8.05256 102.805 8.05256H103.917V21.632L103.758 21.7114C103.123 22.029 102.408 22.2672 101.614 22.4261C100.82 22.6643 100.026 22.7437 99.3111 22.7437ZM95.4994 8.60843V17.5026C95.4994 18.3761 95.5788 19.0908 95.6582 19.7261C95.7376 20.282 95.9758 20.7584 96.2141 21.1555C96.4523 21.5526 96.8494 21.7908 97.3258 21.9496C97.8023 22.1084 98.4376 22.1878 99.2317 22.1878C99.9464 22.1878 100.661 22.1084 101.376 21.9496C102.011 21.7908 102.646 21.5525 103.202 21.3143V8.60843H102.646C102.408 8.60843 102.329 8.60843 102.249 8.60843V20.5996L102.091 20.679C101.614 20.9173 101.138 21.1555 100.661 21.2349C100.185 21.3143 99.7876 21.3937 99.3905 21.3937C98.8347 21.3937 98.3582 21.3143 97.9611 21.2349C97.5641 21.0761 97.2464 20.9173 97.0082 20.5996C96.7699 20.282 96.6111 19.8849 96.5317 19.4084C96.4523 18.932 96.4523 18.3761 96.4523 17.7408V8.60843H95.817C95.7376 8.60843 95.5788 8.60843 95.4994 8.60843ZM106.458 3.68491C106.458 2.81139 106.776 2.41432 107.411 2.41432C107.729 2.41432 107.967 2.49373 108.046 2.73196C108.126 2.9702 108.205 3.28786 108.205 3.68491C108.205 4.55844 107.888 4.95548 107.252 4.95548C107.128 4.9625 107.004 4.9369 106.892 4.88118C106.781 4.82546 106.686 4.74157 106.617 4.63784C106.458 4.47902 106.458 4.08197 106.458 3.68491ZM108.046 21.8702C108.046 21.9496 108.046 22.029 108.046 22.1084C108.046 22.1878 107.967 22.1878 107.888 22.1878C107.808 22.1878 107.649 22.2673 107.411 22.2673C107.173 22.2673 106.935 22.2673 106.538 22.2673V9.0849C106.538 8.68785 106.617 8.52903 106.855 8.44962C107.093 8.37021 107.491 8.3702 108.126 8.3702L108.046 21.8702ZM107.411 22.5055H106.22V9.0849C106.22 8.44961 106.538 8.21137 106.776 8.21137C107.014 8.13196 107.491 8.13195 108.126 8.13195H108.364V21.9496C108.364 22.1084 108.364 22.1878 108.285 22.2673C108.205 22.4261 107.967 22.5055 107.888 22.5055C107.808 22.4261 107.649 22.5055 107.411 22.5055ZM106.776 21.9496H107.411C107.649 21.9496 107.729 21.9496 107.808 21.9496C107.808 21.9496 107.808 21.9496 107.808 21.8702V8.60843C107.252 8.60843 107.014 8.68785 106.935 8.68785C106.855 8.68785 106.776 8.92608 106.776 9.0849V21.9496ZM107.252 5.19373C106.855 5.19373 106.617 5.03491 106.379 4.79667C106.22 4.55844 106.141 4.16138 106.141 3.6055C106.141 2.2555 106.855 2.09668 107.332 2.09668C107.808 2.09668 108.126 2.33491 108.205 2.49374C108.364 2.73197 108.443 3.12903 108.443 3.6055C108.443 4.9555 107.808 5.19373 107.252 5.19373ZM107.332 2.65255C107.173 2.65255 106.696 2.65256 106.696 3.68491C106.696 4.16139 106.776 4.39962 106.855 4.47903C106.935 4.63786 107.093 4.63784 107.252 4.63784C107.411 4.63784 107.888 4.63785 107.888 3.6055C107.888 3.12903 107.808 2.89079 107.729 2.81138C107.729 2.73197 107.649 2.65255 107.332 2.65255ZM112.176 9.72019H110.111C110.111 9.0849 110.111 8.76725 110.191 8.60843C110.27 8.44961 110.349 8.3702 110.508 8.3702H112.176V3.92314C112.176 3.60549 112.255 3.44666 112.414 3.36725C112.573 3.28784 113.049 3.28786 113.685 3.28786V8.29079H117.02C117.02 8.92608 117.02 9.24372 116.941 9.40255C116.941 9.56137 116.782 9.6408 116.702 9.6408H113.685V18.1378C113.685 18.5349 113.685 18.932 113.685 19.2496C113.685 19.5672 113.764 19.8849 113.843 20.2026C113.923 20.5202 114.082 20.679 114.241 20.8378C114.399 20.9967 114.638 21.0761 114.955 21.0761C115.352 21.0761 115.67 21.0761 115.908 20.9967C116.146 20.9173 116.464 20.8378 116.782 20.679C116.782 20.7584 116.861 20.9173 116.861 21.0761C116.861 21.2349 116.861 21.3937 116.861 21.4731C116.861 21.632 116.782 21.7908 116.702 21.9496C116.543 22.1084 116.385 22.1878 116.226 22.2673C115.988 22.3467 115.749 22.4261 115.511 22.4261C115.273 22.4261 114.955 22.5055 114.717 22.5055C114.161 22.5055 113.685 22.4261 113.367 22.1878C113.049 21.9496 112.811 21.7114 112.652 21.3143C112.493 20.9173 112.414 20.5202 112.335 19.9643C112.335 19.4084 112.255 18.8526 112.255 18.2173V9.72019H112.176ZM114.638 22.7437C114.002 22.7437 113.526 22.5849 113.129 22.3467C112.732 22.1084 112.493 21.7908 112.255 21.3143C112.096 20.9173 111.938 20.4408 111.938 19.8849C111.938 19.329 111.858 18.7731 111.858 18.1378V9.95844H109.793V9.72019C109.793 8.84666 109.793 8.60842 109.873 8.52901C109.952 8.29078 110.111 8.13195 110.429 8.13195H111.858V3.92314C111.858 3.36726 112.176 3.12902 112.335 3.12902C112.493 3.12902 112.732 3.04961 113.685 3.04961H113.923V8.05256H117.258V8.29079C117.258 9.16432 117.258 9.40255 117.179 9.48196C117.099 9.7202 116.941 9.87902 116.623 9.87902H113.843V18.1378C113.843 18.5349 113.843 18.932 113.843 19.2496C113.843 19.5672 113.923 19.8849 114.002 20.1231C114.082 20.3614 114.161 20.5202 114.32 20.5996C114.399 20.679 114.638 20.7584 114.876 20.7584C115.273 20.7584 115.511 20.7584 115.749 20.679C115.988 20.5996 116.226 20.5202 116.543 20.3614L116.782 20.2026L116.861 20.5202C116.941 20.679 116.941 20.7584 116.941 20.9173C116.941 21.0761 116.941 21.2349 116.941 21.3937C116.941 21.632 116.861 21.8702 116.623 22.029C116.464 22.1878 116.305 22.2672 115.988 22.4261C115.749 22.5055 115.511 22.5849 115.193 22.5849C115.273 22.7437 114.955 22.7437 114.638 22.7437ZM110.429 9.40255H112.493V18.1378C112.493 18.7731 112.493 19.329 112.573 19.8849C112.573 20.3614 112.732 20.8379 112.891 21.1555C113.049 21.4731 113.288 21.7114 113.526 21.9496C113.843 22.1084 114.241 22.1878 114.717 22.1878C114.955 22.1878 115.273 22.1878 115.511 22.1084C115.749 22.1084 115.988 22.029 116.146 21.9496C116.305 21.8702 116.464 21.7908 116.543 21.7114C116.623 21.632 116.623 21.5526 116.623 21.4731C116.623 21.3143 116.623 21.2349 116.623 21.0761C116.385 21.1555 116.226 21.2349 116.067 21.3143C115.829 21.3937 115.432 21.4731 115.035 21.4731C114.638 21.4731 114.32 21.3937 114.161 21.1555C113.923 20.9967 113.843 20.7584 113.685 20.4408C113.605 20.1231 113.526 19.8055 113.526 19.4084C113.526 19.0908 113.526 18.6937 113.526 18.2173V9.40255H116.782C116.782 9.32313 116.861 9.16431 116.861 8.60843H113.526V3.6055C112.891 3.6055 112.652 3.6055 112.573 3.68491C112.493 3.68491 112.493 3.84373 112.493 4.00256V8.68785H110.508C110.508 8.68785 110.508 8.68785 110.429 8.68785C110.429 8.68785 110.429 8.84666 110.429 9.40255ZM122.896 8.05256C124.088 8.05256 125.041 8.44962 125.596 9.24374C126.152 10.0379 126.391 11.0702 126.391 12.4996C126.391 13.0555 126.391 13.6908 126.311 14.2467C126.232 14.8026 126.232 15.3584 126.073 15.8349C125.517 15.9143 124.882 16.0731 124.246 16.0731C123.611 16.1525 122.976 16.232 122.341 16.232C121.705 16.232 121.149 16.3114 120.673 16.3114C120.117 16.3114 119.72 16.3114 119.482 16.3114C119.482 17.3437 119.561 18.1379 119.72 18.7731C119.879 19.4084 120.117 19.8849 120.355 20.2026C120.673 20.5202 120.991 20.7584 121.388 20.8378C121.785 20.9172 122.261 20.9967 122.738 20.9967C123.373 20.9967 124.008 20.9173 124.564 20.7584C125.12 20.5996 125.676 20.3614 126.073 20.0437C126.152 20.2025 126.232 20.4408 126.232 20.5996C126.232 20.7584 126.311 20.9967 126.311 21.0761C126.311 21.2349 126.232 21.3937 125.993 21.5526C125.755 21.7114 125.517 21.8702 125.199 21.9496C124.882 22.1084 124.485 22.1878 124.008 22.2673C123.532 22.3467 123.055 22.4261 122.579 22.4261C121.943 22.4261 121.308 22.3467 120.752 22.1878C120.196 22.029 119.72 21.7114 119.323 21.2349C118.926 20.7584 118.608 20.1231 118.37 19.2496C118.132 18.3761 118.052 17.2643 118.052 15.9143C118.052 14.1673 118.211 12.7378 118.529 11.7055C118.846 10.6731 119.243 9.87901 119.72 9.32313C120.196 8.76725 120.752 8.44961 121.308 8.29079C121.785 8.13196 122.341 8.05256 122.896 8.05256ZM122.817 9.48196C122.499 9.48196 122.102 9.56138 121.705 9.6408C121.308 9.79962 120.991 10.0379 120.673 10.4349C120.355 10.832 120.117 11.3878 119.879 12.1025C119.641 12.8172 119.561 13.7702 119.482 15.0408C119.72 15.0408 120.117 15.0408 120.514 15.0408C120.911 15.0408 121.388 15.0408 121.943 14.9614C122.42 14.9614 122.976 14.882 123.452 14.8026C123.929 14.7231 124.405 14.6437 124.802 14.5643C124.802 14.2467 124.882 13.929 124.882 13.6114C124.882 13.2937 124.882 12.9761 124.882 12.7379C124.882 11.6261 124.723 10.832 124.405 10.2761C124.088 9.7202 123.611 9.48196 122.817 9.48196ZM122.499 22.7437C121.785 22.7437 121.149 22.6643 120.593 22.5055C119.958 22.3467 119.482 22.029 119.005 21.4731C118.608 20.9967 118.211 20.282 117.973 19.4084C117.735 18.5349 117.655 17.4231 117.655 15.9937C117.655 14.1673 117.814 12.7378 118.132 11.7055C118.449 10.5937 118.846 9.79962 119.323 9.16432C119.799 8.60844 120.435 8.21138 121.07 7.97315C121.705 7.81432 122.261 7.7349 122.896 7.7349C124.167 7.7349 125.199 8.13196 125.755 9.00549C126.311 9.79961 126.629 10.9908 126.629 12.4202C126.629 12.9761 126.629 13.6114 126.549 14.1673C126.47 14.7231 126.47 15.279 126.311 15.7555V15.9143H126.152C125.517 15.9937 124.882 16.1526 124.246 16.232C123.611 16.3114 122.976 16.3908 122.341 16.3908C121.705 16.3908 121.149 16.4702 120.673 16.4702C120.276 16.4702 119.958 16.4702 119.72 16.4702C119.72 17.3437 119.799 18.0584 119.958 18.6143C120.117 19.1702 120.276 19.6467 120.593 19.9643C120.832 20.282 121.149 20.4408 121.467 20.5202C122.464 20.743 123.501 20.7157 124.485 20.4408C125.041 20.282 125.517 20.0437 125.914 19.8055L126.232 19.5673L126.391 19.8849C126.47 20.1231 126.549 20.282 126.549 20.5202C126.549 20.7584 126.629 20.9173 126.629 21.0761C126.629 21.3143 126.47 21.5526 126.232 21.7908C125.993 21.9496 125.676 22.1084 125.358 22.2673C125.041 22.4261 124.564 22.5055 124.088 22.5849C123.532 22.7437 123.055 22.7437 122.499 22.7437ZM122.896 8.29079C122.341 8.29079 121.785 8.37019 121.229 8.52901C120.673 8.68784 120.196 9.00549 119.799 9.48196C119.323 10.0378 119.005 10.7525 118.688 11.7849C118.37 12.8173 118.211 14.2467 118.211 15.9937C118.211 17.3437 118.291 18.4555 118.529 19.2496C118.767 20.0437 119.085 20.679 119.402 21.0761C119.799 21.4731 120.196 21.7908 120.673 21.8702C121.229 22.029 121.785 22.1084 122.42 22.1084C122.896 22.1084 123.373 22.029 123.849 21.9496C124.326 21.8702 124.723 21.7908 125.041 21.632C125.358 21.5525 125.596 21.3937 125.755 21.2349C125.914 21.1555 125.993 20.9967 125.993 20.9173C125.993 20.7584 125.993 20.5996 125.993 20.4408C125.993 20.3614 125.993 20.282 125.993 20.282C125.596 20.5202 125.199 20.679 124.723 20.8378C123.633 21.128 122.49 21.1552 121.388 20.9173C120.911 20.7584 120.514 20.5202 120.276 20.2026C119.958 19.8055 119.72 19.329 119.561 18.6937C119.402 18.0584 119.323 17.1849 119.323 16.1525V15.9143H119.561C119.879 15.9143 120.276 15.9143 120.752 15.9143C121.229 15.9143 121.785 15.9143 122.42 15.8349C122.976 15.8349 123.611 15.7555 124.246 15.6761C124.802 15.5967 125.358 15.5173 125.914 15.4378C125.993 15.0408 126.073 14.5643 126.073 14.0878C126.152 13.532 126.152 12.8967 126.152 12.3408C126.152 10.9908 125.914 9.95844 125.358 9.24374C124.882 8.68786 124.088 8.29079 122.896 8.29079ZM120.593 15.279H119.243V14.9614C119.323 13.6908 119.402 12.7379 119.641 11.9437C119.879 11.1496 120.117 10.5937 120.435 10.1967C120.752 9.79961 121.149 9.48195 121.546 9.32313C121.943 9.16431 122.341 9.16432 122.738 9.16432C123.691 9.16432 124.326 9.48195 124.643 10.1172C124.961 10.6731 125.12 11.5467 125.12 12.7379C125.12 13.0555 125.12 13.3731 125.12 13.6908C125.12 14.0084 125.041 14.3261 125.041 14.6437V14.8026L124.882 14.882C124.485 14.9614 124.008 15.0408 123.532 15.1202C123.055 15.1996 122.499 15.1996 122.023 15.279C121.546 15.279 121.07 15.279 120.593 15.279ZM119.799 14.7231H120.593C120.991 14.7231 121.467 14.7231 121.943 14.6437C122.42 14.6437 122.896 14.5643 123.452 14.4849C123.849 14.4055 124.246 14.4055 124.564 14.3261C124.564 14.0879 124.643 13.8496 124.643 13.532C124.643 13.2143 124.643 12.8967 124.643 12.6584C124.643 11.6261 124.485 10.832 124.246 10.2761C124.008 9.79961 123.532 9.56138 122.817 9.56138C122.499 9.56138 122.182 9.64078 121.785 9.72019C121.467 9.7996 121.149 10.0379 120.911 10.3555C120.593 10.7526 120.355 11.229 120.196 11.9437C120.038 12.8173 119.879 13.6908 119.799 14.7231Z" fill="#33CC99"/>
<path d="M21.3288 2.89065C21.3288 2.89065 20.5347 3.68475 20.5347 4.16122C22.6788 5.43181 25.0612 7.89358 25.9347 9.87888C25.9347 9.87888 26.57 9.87889 27.0464 9.64065C28.4759 8.92594 28.9523 6.94064 28.7935 5.43181C28.6347 3.92299 27.2847 3.68477 26.8082 3.28771C26.3317 2.89065 26.4906 1.85829 24.7435 1.54064C22.9964 1.14358 21.3288 2.89065 21.3288 2.89065Z" fill="#393939"/>
<path d="M9.97277 3.44672C9.97277 3.44672 15.611 0.826129 21.4875 4.55848C27.364 8.29083 27.1257 14.2467 27.1257 14.2467C27.1257 14.2467 30.5404 20.5203 24.5845 24.8879C18.6287 29.2555 11.8787 27.7467 10.3698 27.1114C8.94042 26.5556 6.31983 5.11437 9.97277 3.44672Z" fill="#EFEFEF"/>
<path d="M16.3258 2.73191C12.6729 2.25544 9.97289 3.52603 9.97289 3.52603C6.31995 5.19367 4.57289 10.1966 4.41407 12.6584C4.33465 14.7231 2.98466 15.0407 2.98466 19.2495C2.90525 24.3319 8.94054 26.5554 10.3699 27.1907C11.1641 27.5084 13.467 28.1437 16.2464 27.9848V2.73191H16.3258Z" fill="#F8F8F8"/>
<path d="M13.546 10.1173C11.5607 9.08495 9.5754 10.5144 9.01952 11.785C8.06657 13.8497 6.95481 16.1526 6.71658 16.6291C5.92246 18.2967 7.74894 19.3291 9.17835 18.932C10.4489 18.535 12.2754 17.8997 14.3401 15.9144C16.4842 13.8497 15.6107 11.1497 13.546 10.1173ZM12.5137 14.9614C12.3548 14.6438 11.8784 14.4056 11.3225 14.4056C10.9254 14.4056 10.5283 14.5644 10.2901 14.8026C10.3695 14.3261 10.6872 13.532 11.4813 13.6114C12.2754 13.6909 12.5137 14.4055 12.5137 14.9614ZM17.9136 15.9144C19.9783 17.8997 21.8048 18.535 23.0754 18.932C24.5048 19.3291 26.3313 18.3761 25.5372 16.6291C25.2989 16.1526 24.1872 13.8497 23.2342 11.785C22.5989 10.435 20.6931 9.00554 18.7078 10.1173C16.8019 11.1497 15.8489 13.8497 17.9136 15.9144ZM19.8195 14.9614C19.8195 14.4055 20.0578 13.6908 20.8519 13.6908C21.646 13.6114 21.9637 14.4055 22.0431 14.882C21.8048 14.6438 21.4872 14.485 21.0107 14.485C20.5342 14.4055 20.0578 14.6438 19.8195 14.9614C19.8989 14.9614 19.8195 14.9614 19.8195 14.9614Z" fill="#393939"/>
<path d="M20.3758 25.6819C18.4699 26.4761 15.6111 26.8731 12.1964 25.9996C6.55814 24.4114 9.41697 17.1055 15.8493 17.1055C22.2023 17.0261 26.1729 23.2996 20.3758 25.6819Z" fill="#F8F8F8"/>
<path d="M16.3255 26.4761V17.0261C16.1667 17.0261 16.0079 17.0261 15.849 17.0261C9.41669 17.0261 6.63727 24.4114 12.1961 25.9203C13.7049 26.3173 15.0549 26.4761 16.3255 26.4761Z" fill="white"/>
<path d="M21.0902 21.7114C21.0108 22.2673 20.3755 22.8232 18.8667 22.5849C17.7549 22.4261 17.1196 21.7114 16.8814 21.3143C17.2784 21.2349 17.5166 20.8379 17.9137 20.5202C18.3902 20.1231 18.8666 19.8849 18.946 19.4879C19.0255 19.0908 18.946 18.6143 17.8343 18.3761C16.7225 18.2173 16.8813 18.932 15.4519 18.4555C14.0225 17.8996 13.7049 18.932 13.7049 19.5673C13.7049 20.2026 14.7372 20.5202 15.4519 20.9967C15.7696 21.1555 15.9284 21.3143 16.0872 21.3143C15.849 21.632 15.2137 22.4261 14.1019 22.5849C12.5931 22.8232 11.9578 22.2673 11.8784 21.7114C11.799 21.1555 11.3225 21.8702 11.799 22.5055C12.2755 23.1408 13.546 23.9349 14.9755 23.2202C15.9284 22.7437 16.3255 22.2673 16.4843 21.7908C16.6431 22.2673 17.0402 22.7437 17.9931 23.2202C19.4225 23.9349 20.6931 23.1408 21.1696 22.5055C21.6461 21.7908 21.1696 21.1555 21.0902 21.7114ZM4.89017 9.7202C5.7637 9.79961 6.47839 9.40257 6.63722 9.08492C6.71663 8.9261 6.71663 8.76727 6.63722 8.68786C6.79604 8.52904 6.87546 8.2908 6.71663 7.89374C6.71663 7.81433 6.63722 7.5761 6.63722 7.49668C6.63722 7.49668 6.71665 7.41727 6.95488 7.41727C7.0343 7.41727 7.1137 7.41727 7.19311 7.41727C7.35193 7.33786 7.51075 7.33786 7.51075 7.17904C7.51075 7.02022 7.43135 6.94081 7.35194 6.8614C7.27253 6.78199 7.11369 6.70256 7.03428 6.62315C6.95486 6.54374 6.79605 6.46434 6.79605 6.38492C6.79605 6.30551 6.87547 6.22609 6.95488 6.22609C7.0343 6.22609 7.1931 6.2261 7.43133 6.30551C7.51075 6.38492 7.66959 6.38492 7.749 6.38492C7.90782 6.46434 7.98723 6.38492 7.98723 6.30551C8.06664 6.2261 8.06664 6.06727 8.06664 5.90845C8.22547 5.90845 8.3843 5.98787 8.54312 6.06728C8.70194 6.14669 8.78135 6.14667 8.86076 6.14667C9.099 6.14667 9.1784 5.98786 9.1784 5.82903C9.1784 5.74962 9.1784 5.74962 9.1784 5.74962C9.33723 5.74962 9.65488 5.59081 9.65488 5.27316H9.7343C9.7343 5.27316 9.81369 5.27316 9.89311 5.27316C10.0519 5.27316 10.2902 5.27315 10.449 5.03491C10.5284 4.87609 10.6078 4.71726 10.6078 4.55844C10.6078 4.55844 10.6078 4.55846 10.6078 4.47905C10.5284 3.52611 10.1313 1.30258 7.43133 0.905518C7.35192 0.984929 7.19312 0.98491 6.95488 0.98491C4.96959 0.98491 3.46075 2.25551 2.4284 4.71727C1.79311 6.30551 1.7137 8.29081 3.30194 9.24375C3.54017 9.40258 3.69899 9.48198 3.93722 9.56139" fill="#393939"/>
</g>
<defs>
<clipPath id="clip0_75_1335">
<rect width="127.059" height="27" fill="white" transform="translate(0.840332 0.984863)"/>
</clipPath>
</defs>
</svg>
