<svg width="121" height="27" viewBox="0 0 121 27" fill="none" xmlns="http://www.w3.org/2000/svg">
<g style="mix-blend-mode:luminosity" clip-path="url(#clip0_5928_6308)">
<path d="M20.6773 4.63542C16.0752 4.30485 10.9489 4.30486 6.34672 4.63542C5.38333 4.70462 4.65339 5.4423 4.58096 6.34397C4.34865 9.23562 4.31774 13.5679 4.53075 16.4566C4.60112 17.4108 5.43884 18.2298 6.57218 18.2298H10.125V22.6125L6.57942 22.61C3.32683 22.61 0.407322 20.1992 0.155132 16.7792C-0.0744621 13.6658 -0.042751 9.10818 0.207536 5.99263C0.458371 2.87027 2.96914 0.479229 6.03239 0.259202C10.8439 -0.0863997 16.1802 -0.0864012 20.9917 0.259201C24.0549 0.479227 26.5658 2.87027 26.8166 5.99263C27.0669 9.10818 27.0559 13.6658 26.8263 16.7792C26.5741 20.1992 23.6614 22.6198 20.4088 22.6198L16.8998 22.6173L10.125 27V22.6125L16.8998 18.2298H20.4093C21.5426 18.2298 22.3803 17.4108 22.4507 16.4566C22.6637 13.5679 22.6754 9.23562 22.4431 6.34397C22.3707 5.4423 21.6408 4.70462 20.6773 4.63542Z" fill="white"/>
<path d="M33.7158 19.2639H44.3187V16.6017H36.9288V3.19897H33.7158V19.2639Z" fill="white"/>
<path d="M45.8555 19.2641H48.9767V7.33012H45.8555V19.2641ZM45.603 4.20892C45.603 5.24167 46.3604 6.02197 47.4161 6.02197C48.4718 6.02197 49.2291 5.24167 49.2291 4.20892C49.2291 3.17617 48.4718 2.39587 47.4161 2.39587C46.3604 2.39587 45.603 3.17617 45.603 4.20892Z" fill="white"/>
<path d="M61.2147 7.33008H58.0935L55.5231 16.074L52.9527 7.33008H49.8315L53.8937 19.2641H57.1526L61.2147 7.33008Z" fill="white"/>
<path d="M66.7844 19.5394C69.4236 19.5394 71.558 17.9558 71.9711 15.7756H69.24C68.9417 16.6018 68.1155 17.2903 66.7844 17.2903C64.9713 17.2903 64.2599 16.0739 64.2599 14.674V14.3756H72.0629V12.2872C72.0629 9.41843 70.2728 7.05457 66.7385 7.05457C63.1583 7.05457 61.2305 9.34958 61.2305 12.5855V14.215C61.2305 17.5657 63.4107 19.5394 66.7844 19.5394ZM64.2599 12.0577C64.2599 10.4512 64.9484 9.25778 66.7385 9.25778C68.4138 9.25778 69.1941 10.3823 69.1941 11.8741V12.1724H64.2599V12.0577Z" fill="white"/>
<path d="M80.3582 19.5853C84.4203 19.5853 86.9219 16.8313 87.0825 13.5495H84.099C83.8924 15.3625 82.745 16.9461 80.3582 16.9461C77.673 16.9461 76.5255 15.1101 76.5255 12.5397V9.92339C76.5255 7.353 77.673 5.517 80.3582 5.517C82.745 5.517 83.8924 7.10055 84.099 8.9136H87.0825C86.9219 5.63175 84.4203 2.87775 80.3582 2.87775C75.5157 2.87775 73.3354 5.976 73.3354 10.084V12.379C73.3354 16.4871 75.5157 19.5853 80.3582 19.5853Z" fill="white"/>
<path d="M88.7793 19.2642H91.9007V12.1956C91.9007 10.5891 92.7953 9.76287 94.1957 9.76287C95.7104 9.76287 96.3755 10.7497 96.3755 12.1267V19.2642H99.4967V11.6218C99.4967 8.79892 97.8677 7.05472 95.2739 7.05472C93.7367 7.05472 92.5199 7.72027 91.9007 8.75302V2.51062H88.7793V19.2642Z" fill="white"/>
<path d="M105.455 19.5394C106.832 19.5394 108.346 18.9656 108.897 18.1624V19.264H111.903V11.6446C111.903 8.86762 109.861 7.05457 106.878 7.05457C104.307 7.05457 102.448 8.29387 101.759 10.6118H104.651C104.972 9.96923 105.638 9.48728 106.717 9.48728C108.002 9.48728 108.782 10.3135 108.782 11.4151V13.0445C108.231 12.5855 107.176 12.0347 105.753 12.0347C102.884 12.0347 100.933 13.2281 100.933 15.8215C100.933 18.1394 102.769 19.5394 105.455 19.5394ZM106.258 17.4739C104.95 17.4739 103.963 16.8313 103.963 15.7297C103.963 14.6281 104.881 14.0314 106.349 14.0314C107.75 14.0314 108.782 14.651 108.782 15.7067C108.782 16.7165 107.635 17.4739 106.258 17.4739Z" fill="white"/>
<path d="M117.736 19.264H119.893V16.7395H118.631C117.804 16.7395 117.506 16.4182 117.506 15.6379V9.85447H120.053V7.33001H117.506V4.07111H114.362V7.33001H112.664V9.85447H114.362V15.8674C114.362 17.9788 115.441 19.264 117.736 19.264Z" fill="white"/>
</g>
<defs>
<clipPath id="clip0_5928_6308">
<rect width="120.6" height="27" fill="white"/>
</clipPath>
</defs>
</svg>
