<svg width="203" height="28" viewBox="0 0 203 28" fill="none" xmlns="http://www.w3.org/2000/svg">
<g clip-path="url(#clip0_75_1323)">
<path d="M140.105 11.5773C140.105 8.25418 138.028 5.86572 134.186 5.86572H121.517V23.1042H125.67V17.185H130.551L135.328 23.1042H140.001V22.6888L135.328 17.0811C138.34 16.458 140.105 14.2773 140.105 11.5773ZM133.667 13.6542H125.67V9.39649H133.667C135.12 9.39649 136.055 10.2273 136.055 11.5773C136.159 12.9273 135.224 13.6542 133.667 13.6542Z" fill="black"/>
<path d="M202.828 5.76172H198.986V12.304H188.497V5.76172H184.343V23.0002H188.497V16.2502H198.986V23.0002H202.828V5.76172Z" fill="black"/>
<path d="M110.405 5.76172L105.835 20.1963H105.628L100.955 5.76172H93.5815V23.0002H97.5277V8.8771H97.7354L102.305 23.0002H108.639L113.312 8.8771H113.52V23.0002H117.57V5.76172H110.405Z" fill="black"/>
<path d="M65.2317 12.8234C63.7779 12.7195 61.0779 12.408 59.5202 12.3041C58.0663 12.2003 57.2355 11.6811 57.2355 10.7464C57.2355 9.81182 58.1702 9.0849 61.7009 9.0849C64.8163 9.0849 67.724 9.81182 70.3202 10.9541V7.11182C67.8279 5.86567 65.024 5.34644 61.4932 5.34644C56.6125 5.34644 53.1855 7.42336 53.1855 10.8503C53.1855 13.758 55.1586 15.4195 59.2086 15.8349C60.6625 16.0426 63.1548 16.2503 64.8163 16.3541C66.6855 16.458 67.2048 17.0811 67.2048 17.9118C67.2048 19.0541 65.8548 19.7811 62.6355 19.7811C59.3125 19.7811 55.8855 18.6387 53.3932 17.1849V21.1311C55.3663 22.4811 58.6894 23.5195 62.5317 23.5195C67.8279 23.5195 71.2548 21.4426 71.2548 17.808C71.2548 15.0041 69.4894 13.2387 65.2317 12.8234Z" fill="black"/>
<path d="M74.0586 5.76172V23.0002H90.0509V19.4694H78.0048V15.9386H89.8432V12.4079H78.0048V9.29249H90.0509V5.76172H74.0586Z" fill="black"/>
<path d="M175.724 12.8234C174.27 12.7195 171.57 12.408 170.012 12.3041C168.559 12.2003 167.728 11.6811 167.728 10.7464C167.728 9.81182 168.662 9.0849 172.193 9.0849C175.309 9.0849 178.216 9.70798 180.812 10.9541V7.11182C178.32 5.86567 175.516 5.34644 171.985 5.34644C167.105 5.34644 163.678 7.42336 163.678 10.8503C163.678 13.758 165.651 15.4195 169.701 15.8349C171.155 16.0426 173.647 16.2503 175.309 16.3541C177.178 16.458 177.697 17.0811 177.697 17.9118C177.697 19.0541 176.347 19.7811 173.128 19.7811C169.805 19.7811 166.378 18.6387 163.885 17.1849V21.1311C165.859 22.4811 169.182 23.5195 173.024 23.5195C178.32 23.5195 181.747 21.4426 181.747 17.808C181.747 15.0041 179.878 13.2387 175.724 12.8234Z" fill="black"/>
<path d="M156.72 5.76172V14.5886C156.72 17.9117 154.644 19.7809 151.632 19.7809C148.517 19.7809 146.543 18.0156 146.543 14.5886V5.76172H142.39V14.1733C142.39 20.404 146.336 23.5194 151.632 23.5194C156.824 23.5194 160.77 20.5079 160.77 14.3809V5.76172H156.72Z" fill="black"/>
<path d="M39.0626 14.2772C39.0626 15.1079 38.6472 15.2118 37.6087 15.2118C36.4664 15.2118 36.2587 15.0041 36.1549 14.1733C35.9472 11.9926 34.4933 10.1233 32.001 10.0195C31.2741 9.91563 31.0664 9.70794 31.0664 8.66948C31.0664 7.73486 31.1703 7.31948 31.8972 7.31948C36.051 7.42333 39.0626 10.8502 39.0626 14.2772ZM45.1895 14.2772C45.1895 7.83871 40.828 0.984863 30.651 0.984863H10.6087C10.1933 0.984863 9.88181 1.19256 9.88181 1.60794C9.88181 1.81563 9.98566 2.02332 10.1933 2.12717C10.9203 2.75025 11.9587 3.37332 13.4126 4.10025C14.7626 4.82717 15.9049 5.24256 16.9433 5.65794C17.3587 5.86563 17.5664 6.07332 17.5664 6.28102C17.5664 6.59256 17.3587 6.90409 16.8395 6.90409H0.951044C0.431813 6.80025 0.224121 7.11179 0.224121 7.42332C0.224121 7.73486 0.327967 7.94256 0.535659 8.15025C1.78181 9.50025 3.85874 11.1618 6.87027 13.031C9.46643 14.6926 12.7895 16.4579 15.3857 17.7041C15.801 17.9118 16.0087 18.1195 16.0087 18.431C16.0087 18.7426 15.801 18.9502 15.2818 18.9502H7.90873C7.49335 18.9502 7.28566 19.1579 7.28566 19.4695C7.28566 19.6772 7.3895 19.8849 7.5972 20.0926C9.25873 21.6502 11.9587 23.2079 15.4895 24.7656C20.2664 26.7387 25.0433 27.9849 30.4433 27.9849C40.7241 27.9849 45.1895 20.3002 45.1895 14.2772ZM31.7933 23.5195C26.8087 23.5195 22.551 19.4695 22.551 14.2772C22.551 9.29256 26.7049 5.24256 31.7933 5.24256C36.9857 5.24256 41.0357 9.29256 41.0357 14.2772C41.0357 19.3656 36.9857 23.5195 31.7933 23.5195Z" fill="#FF642D"/>
</g>
<defs>
<clipPath id="clip0_75_1323">
<rect width="202.604" height="27" fill="white" transform="translate(0.224121 0.984863)"/>
</clipPath>
</defs>
</svg>
