<svg width="102" height="28" viewBox="0 0 102 28" fill="none" xmlns="http://www.w3.org/2000/svg">
<g clip-path="url(#clip0_75_1332)">
<path fill-rule="evenodd" clip-rule="evenodd" d="M1.32069 0.986108H8.22632C8.47911 0.986108 8.69481 1.13061 8.7917 1.364C8.88816 1.59739 8.8376 1.85184 8.659 2.03047L1.75334 8.93613C1.57472 9.11473 1.32026 9.16529 1.08645 9.06883C0.853063 8.97193 0.708984 8.75624 0.708984 8.50345V1.59781C0.708984 1.2612 0.98366 0.986108 1.32069 0.986108ZM12.2041 0.985541C13.5669 0.983014 14.7221 0.969533 16.0971 1.36132C20.2404 2.54218 23.2973 6.37204 23.2973 10.881C23.2973 16.3236 18.8443 20.7761 13.4022 20.7761H6.29812L10.604 22.1874V27.3119C10.604 27.6489 10.3289 27.9236 9.99236 27.9236H1.32069C0.98366 27.9236 0.708984 27.6489 0.708984 27.3119V12.4823C0.708984 12.3138 0.769228 12.1689 0.888029 12.0497L11.7731 1.16501C11.8915 1.04621 12.036 0.985963 12.2041 0.985541Z" fill="#D70432"/>
<path fill-rule="evenodd" clip-rule="evenodd" d="M32.1113 23.2586C32.1113 23.4465 32.2163 23.5531 32.4058 23.5531H33.7522C33.9418 23.5531 34.0467 23.4482 34.0467 23.2586V18.2833C34.5937 18.9986 35.7719 19.3142 36.4871 19.3142C38.9488 19.3142 40.8634 17.7782 40.8634 14.8541C40.8634 12.1402 38.9488 10.3939 36.4871 10.3939C34.0257 10.3939 32.1113 11.9304 32.1113 14.8541V23.2586ZM34.0467 14.854C34.0467 12.7501 35.4141 12.245 36.4871 12.245C37.5603 12.245 38.9278 12.7501 38.9278 14.854C38.9278 16.9579 37.5603 17.4626 36.4871 17.4626C35.4141 17.4626 34.0467 16.9579 34.0467 14.854ZM51.5925 14.9379C51.5925 11.9085 49.6782 10.3939 47.2168 10.3939C44.7342 10.3939 42.7568 12.077 42.7568 14.9172C42.7568 17.1892 44.1874 19.2931 46.796 19.2931C47.6168 19.2931 48.9421 19.0403 49.6573 17.9256V18.7669C49.6573 18.9565 49.7626 19.0618 49.9519 19.0618H51.2986C51.4879 19.0618 51.5925 18.9565 51.5925 18.7669V14.9379ZM49.6573 14.9172C49.6573 17 48.016 17.589 46.9644 17.5258C45.8915 17.4626 44.7133 16.7894 44.7133 14.854C44.7133 12.8765 46.1439 12.245 47.2168 12.245C48.2898 12.245 49.6573 12.7501 49.6573 14.9172ZM57.0519 23.5144C57.2214 23.5733 57.3638 23.5438 57.4515 23.3458L62.9538 10.9197C63.0186 10.7731 62.9322 10.6463 62.7854 10.6463H61.2707C61.0813 10.6463 60.9339 10.7306 60.8498 10.9197L58.2831 16.8315L55.7374 10.9197C55.6746 10.7306 55.5271 10.6463 55.3374 10.6463H53.7809C53.6334 10.6463 53.5497 10.7723 53.6128 10.9197L57.2311 19.0618L55.6422 22.6937C55.5625 22.8761 55.6203 23.013 55.7893 23.0724L57.0519 23.5144ZM69.3913 12.2451C70.3589 12.2451 71.4952 12.5817 71.4952 14.6013V18.7669C71.4952 18.9565 71.6002 19.0618 71.7895 19.0618H73.1362C73.3252 19.0618 73.4305 18.9565 73.4305 18.7669V14.6013C73.4305 11.7404 71.7264 10.394 69.3913 10.394C68.4027 10.394 67.6451 10.7516 67.1189 11.3195V5.5391C67.1189 5.34996 67.0136 5.24463 66.8246 5.24463H65.478C65.2893 5.24463 65.1837 5.35037 65.1837 5.5391V18.7669C65.1837 18.9561 65.289 19.0618 65.478 19.0618H66.8246C67.0139 19.0618 67.1189 18.9565 67.1189 18.7669V14.4543C67.182 12.6659 68.4446 12.2451 69.3913 12.2451ZM84.3921 14.8541C84.3921 11.9295 82.4772 10.3939 80.0158 10.3939C77.554 10.3939 75.6397 11.9295 75.6397 14.8541C75.6397 17.7782 77.554 19.3142 80.0158 19.3142C81.5305 19.3142 82.7718 18.7669 83.5504 17.6943C83.6557 17.5469 83.5923 17.3784 83.4448 17.3156L82.2038 16.7684C82.0354 16.6841 81.8673 16.7473 81.7198 16.8526C81.2362 17.3362 80.5834 17.4626 80.0158 17.4626C79.006 17.4626 77.7437 17.0211 77.5753 15.2117H84.0759C84.2446 15.2117 84.3921 15.0854 84.3921 14.9172V14.8541ZM77.7228 13.8021C78.1015 12.5816 79.1531 12.245 80.0158 12.245C80.8784 12.245 81.9301 12.5816 82.3091 13.8021H77.7228ZM91.9866 11.025C92.0497 10.8565 91.9238 10.7095 91.755 10.6463C91.2295 10.4989 90.7034 10.4361 90.1982 10.4361C88.2629 10.4361 86.706 11.3827 86.706 13.9913V18.7669C86.706 18.9565 86.811 19.0618 87.0007 19.0618H88.347C88.5363 19.0618 88.6416 18.9565 88.6416 18.7669V13.9913C88.6416 12.6449 89.4833 12.3083 90.4087 12.3083C90.7452 12.3083 91.0821 12.3504 91.4398 12.4136C91.6082 12.4768 91.755 12.3504 91.7763 12.1823L91.9866 11.025ZM101.959 14.8541C101.959 11.9295 100.044 10.3939 97.5826 10.3939C95.1216 10.3939 93.207 11.9295 93.207 14.8541C93.207 17.7782 95.1216 19.3142 97.5826 19.3142C99.0977 19.3142 100.339 18.7669 101.117 17.6943C101.223 17.5469 101.159 17.3784 101.012 17.3156L99.771 16.7684C99.6029 16.6841 99.4342 16.7473 99.2867 16.8526C98.803 17.3362 98.1507 17.4626 97.5826 17.4626C96.5728 17.4626 95.3109 17.0211 95.1422 15.2117H101.643C101.812 15.2117 101.959 15.0854 101.959 14.9172V14.8541ZM95.2897 13.8021C95.6684 12.5816 96.7203 12.245 97.5826 12.245C98.4456 12.245 99.4976 12.5816 99.8763 13.8021H95.2897Z" fill="#1C1A1A"/>
</g>
<defs>
<clipPath id="clip0_75_1332">
<rect width="101.25" height="27" fill="white" transform="translate(0.708984 0.984863)"/>
</clipPath>
</defs>
</svg>
