<svg width="121" height="27" viewBox="0 0 121 27" fill="none" xmlns="http://www.w3.org/2000/svg">
<g style="mix-blend-mode:luminosity" clip-path="url(#clip0_5928_6306)">
<path d="M32.2715 5.65717H34.3286V11.3786C35.1643 10.1571 36.3214 9.51428 37.6714 9.51428C39.5357 9.51428 40.6286 10.5428 40.6286 12.6V19.6071H38.5715V13.1786C38.5715 11.7643 38.0571 11.3786 37.0286 11.3786C36.3857 11.3786 35.8071 11.7643 35.2286 12.4714C34.65 13.2428 34.3929 14.2071 34.3929 15.4286V19.6071H32.3357L32.2715 5.65717Z" fill="white"/>
<path d="M50.9144 15.1714H43.9072C43.9072 16.7143 44.8072 17.9357 46.3501 17.9357C47.4429 17.9357 48.4715 17.2929 48.9215 16.2643L50.6572 16.9714C49.6287 18.9 48.4715 19.7357 46.2858 19.7357C43.0072 19.7357 41.6572 16.9714 41.6572 14.5929C41.6572 12.2143 43.0072 9.45001 46.2858 9.45001C49.4358 9.45001 50.8501 12.0214 50.8501 14.2714V15.1714H50.9144ZM43.9715 13.5H48.7929C48.6001 12.2786 47.7644 11.3143 46.4144 11.3143C45.0644 11.3143 44.2287 12.2143 43.9715 13.5Z" fill="white"/>
<path d="M66.9855 9.5143C67.4998 9.5143 67.9498 9.64287 68.5284 9.90001C69.0427 10.1572 69.4284 10.4143 69.6855 10.7357V5.59283H71.7427V19.5429H69.6855V18.3857C69.2998 19.0286 68.2069 19.6714 66.9855 19.6714C64.0927 19.6714 62.5498 17.8072 62.5498 14.5286C62.5498 11.4429 64.0927 9.5143 66.9855 9.5143ZM64.6712 14.5929C64.6712 15.6214 64.9284 16.3929 65.3784 17.0357C65.8284 17.6143 66.4712 17.9357 67.1784 17.9357C67.9498 17.9357 68.5284 17.6143 68.9784 17.0357C69.4284 16.4572 69.6855 15.6214 69.6855 14.5929C69.6855 13.5643 69.4284 12.7929 68.9784 12.2143C68.5284 11.6357 67.8855 11.3143 67.1784 11.3143C66.4069 11.3143 65.8284 11.6357 65.3784 12.2143C64.9284 12.7929 64.6712 13.6286 64.6712 14.5929Z" fill="white"/>
<path d="M79.5215 11.0571L78.2358 12.2143C77.7858 11.6357 77.2072 11.3143 76.5001 11.3143C75.9215 11.3143 75.5358 11.7 75.5358 12.2786C75.5358 12.4714 75.6001 12.7286 75.7929 12.8571C76.1143 13.1786 76.4358 13.3714 77.3358 13.6929C78.0429 13.95 78.3001 14.0786 78.8786 14.4C79.6501 14.85 80.0358 15.4929 80.1001 16.5214C80.1001 17.4214 79.7786 18.1286 79.1358 18.7714C78.4929 19.35 77.6572 19.6714 76.6286 19.6714C74.7643 19.6714 73.4143 18.45 72.7715 17.0357L74.5072 16.0714C75.0215 17.2929 75.7929 17.8714 76.6929 17.8714C77.5929 17.8714 78.0429 17.4214 78.0429 16.5857C78.0429 16.2643 77.9143 16.0071 77.5286 15.8143C77.3358 15.6857 77.2072 15.6214 77.0143 15.5571C76.6929 15.4286 75.9858 15.1714 75.6643 15.0429C74.2501 14.4643 73.5429 13.5643 73.5429 12.3429C73.5429 11.5714 73.8643 10.8643 74.3786 10.35C74.9572 9.77143 75.6643 9.51428 76.5643 9.51428C77.7858 9.51428 78.8786 10.0929 79.5215 11.0571Z" fill="white"/>
<path d="M86.0786 19.7357C84.9215 19.7357 83.8929 19.1571 83.4429 18.45V23.5929H81.3857V9.64285H83.4429V10.8C83.8286 10.1571 84.9215 9.51428 86.1429 9.51428C89.0357 9.51428 90.5786 11.3786 90.5786 14.6571C90.5143 17.7429 88.9715 19.7357 86.0786 19.7357ZM88.3929 14.5929C88.3929 13.5643 88.1357 12.7929 87.6857 12.2143C87.2357 11.6357 86.5929 11.3143 85.8857 11.3143C85.1143 11.3143 84.5357 11.6357 84.0857 12.2143C83.6357 12.7929 83.3786 13.6286 83.3786 14.5929C83.3786 15.6214 83.6357 16.3929 84.0857 17.0357C84.5357 17.6143 85.1786 17.9357 85.8857 17.9357C86.6572 17.9357 87.2357 17.6143 87.6857 17.0357C88.1357 16.4571 88.3929 15.6214 88.3929 14.5929Z" fill="white"/>
<path d="M110.764 16.9714C109.928 18.7714 108.514 19.7357 106.457 19.7357C104.978 19.7357 103.821 19.2214 102.986 18.2572C102.15 17.2929 101.764 16.0714 101.764 14.5929C101.764 13.1143 102.15 11.8929 102.986 10.9286C103.821 9.9643 104.978 9.45001 106.457 9.45001C108.514 9.45001 109.928 10.35 110.764 12.2143L108.964 12.9857C108.45 11.8286 107.614 11.25 106.521 11.25C104.85 11.25 104.014 12.6 104.014 14.5286C104.014 16.5214 104.85 17.8072 106.521 17.8072C107.614 17.8072 108.45 17.2286 108.964 16.0714L110.764 16.9714Z" fill="white"/>
<path d="M120.664 15.1714H113.657C113.657 16.7143 114.557 17.9357 116.1 17.9357C117.193 17.9357 118.222 17.2929 118.672 16.2643L120.407 16.9714C119.379 18.9 118.222 19.7357 116.036 19.7357C112.757 19.7357 111.407 16.9714 111.407 14.5929C111.407 12.2143 112.757 9.45001 116.036 9.45001C119.186 9.45001 120.6 12.0214 120.6 14.2714V15.1714H120.664ZM113.722 13.5H118.543C118.35 12.2786 117.514 11.3143 116.164 11.3143C114.814 11.3143 113.914 12.2143 113.722 13.5Z" fill="white"/>
<path d="M56.5714 9.51428C57.0857 9.51428 57.5358 9.64285 58.1144 9.9C58.6286 10.1571 59.0143 10.4143 59.2714 10.7357V9.64285H61.3286V19.6071H59.5929L59.2714 18.45C58.8857 19.0929 57.7929 19.7357 56.5714 19.7357C53.6786 19.7357 52.1357 17.8714 52.1357 14.5929C52.0714 11.5071 53.6143 9.51428 56.5714 9.51428ZM54.2572 14.6571C54.2572 15.6857 54.5143 16.4571 54.9643 17.1C55.4143 17.6786 56.0572 18 56.7644 18C57.5358 18 58.1143 17.6786 58.5643 17.1C59.0143 16.5214 59.2714 15.6857 59.2714 14.6571C59.2714 13.6286 59.0143 12.8571 58.5643 12.2786C58.1143 11.7 57.4715 11.3786 56.7644 11.3786C55.9929 11.3786 55.4143 11.7 54.9643 12.2786C54.5143 12.7929 54.2572 13.6286 54.2572 14.6571Z" fill="white"/>
<path d="M95.9787 9.51428C96.493 9.51428 96.9429 9.64285 97.5215 9.9C98.0358 10.1571 98.4215 10.4143 98.6787 10.7357V9.64285H100.736V19.6071H99.0001L98.6787 18.45C98.293 19.0929 97.2001 19.7357 95.9787 19.7357C93.0858 19.7357 91.5429 17.8714 91.5429 14.5929C91.4787 11.5071 93.0215 9.51428 95.9787 9.51428ZM93.6644 14.6571C93.6644 15.6857 93.9215 16.4571 94.3715 17.1C94.8215 17.6786 95.4644 18 96.1715 18C96.943 18 97.5215 17.6786 97.9715 17.1C98.4215 16.5214 98.6787 15.6857 98.6787 14.6571C98.6787 13.6286 98.4215 12.8571 97.9715 12.2786C97.5215 11.7 96.8787 11.3786 96.1715 11.3786C95.4001 11.3786 94.8215 11.7 94.3715 12.2786C93.8572 12.7929 93.6644 13.6286 93.6644 14.6571Z" fill="white"/>
<path d="M25.9071 13.3713C26.2286 17.6142 24.2357 19.9928 23.0786 21.6642C21.2786 23.5928 18.9 26.2285 13.05 26.3571C8.03571 26.5499 5.59286 24.3642 3.53571 22.4356C0.835714 19.4785 0.128571 17.6785 0 13.3713C0 10.6713 1.02857 8.03563 2.82857 5.65709C5.33571 2.12137 9.32143 0.899944 13.05 0.642804C16.9071 0.514232 19.9929 2.4428 22.1143 4.56423C24.8143 7.45706 25.65 9.89992 25.9071 13.3713Z" fill="white"/>
</g>
<defs>
<clipPath id="clip0_5928_6306">
<rect width="120.857" height="27" fill="white"/>
</clipPath>
</defs>
</svg>
