<svg width="203" height="27" viewBox="0 0 203 27" fill="none" xmlns="http://www.w3.org/2000/svg">
<g clip-path="url(#clip0_5928_6303)">
<path d="M139.881 10.5923C139.881 7.2692 137.804 4.88074 133.962 4.88074H121.292V22.1192H125.446V16.2H130.327L135.104 22.1192H139.777V21.7038L135.104 16.0961C138.116 15.473 139.881 13.2923 139.881 10.5923ZM133.442 12.6692H125.446V8.41151H133.442C134.896 8.41151 135.831 9.24228 135.831 10.5923C135.935 11.9423 135 12.6692 133.442 12.6692Z" fill="white"/>
<path d="M202.604 4.77692H198.761V11.3192H188.273V4.77692H184.119V22.0154H188.273V15.2654H198.761V22.0154H202.604V4.77692Z" fill="white"/>
<path d="M110.18 4.77692L105.611 19.2115H105.404L100.73 4.77692H93.3574V22.0154H97.3036V7.8923H97.5113L102.08 22.0154H108.415L113.088 7.8923H113.296V22.0154H117.346V4.77692H110.18Z" fill="white"/>
<path d="M65.0076 11.8384C63.5537 11.7346 60.8537 11.4231 59.296 11.3192C57.8422 11.2154 57.0114 10.6961 57.0114 9.76151C57.0114 8.8269 57.946 8.09997 61.4768 8.09997C64.5922 8.09997 67.4999 8.8269 70.096 9.9692V6.1269C67.6037 4.88074 64.7999 4.36151 61.2691 4.36151C56.3883 4.36151 52.9614 6.43843 52.9614 9.86536C52.9614 12.7731 54.9345 14.4346 58.9845 14.85C60.4383 15.0577 62.9307 15.2654 64.5922 15.3692C66.4614 15.4731 66.9807 16.0961 66.9807 16.9269C66.9807 18.0692 65.6307 18.7961 62.4114 18.7961C59.0883 18.7961 55.6614 17.6538 53.1691 16.2V20.1461C55.1422 21.4961 58.4653 22.5346 62.3076 22.5346C67.6037 22.5346 71.0307 20.4577 71.0307 16.8231C71.0307 14.0192 69.2653 12.2538 65.0076 11.8384Z" fill="white"/>
<path d="M73.8345 4.77692V22.0154H89.8268V18.4846H77.7806V14.9538H89.6191V11.4231H77.7806V8.30769H89.8268V4.77692H73.8345Z" fill="white"/>
<path d="M175.5 11.8384C174.046 11.7346 171.346 11.4231 169.788 11.3192C168.334 11.2154 167.504 10.6961 167.504 9.76151C167.504 8.8269 168.438 8.09997 171.969 8.09997C175.084 8.09997 177.992 8.72305 180.588 9.9692V6.1269C178.096 4.88074 175.292 4.36151 171.761 4.36151C166.881 4.36151 163.454 6.43843 163.454 9.86536C163.454 12.7731 165.427 14.4346 169.477 14.85C170.931 15.0577 173.423 15.2654 175.084 15.3692C176.954 15.4731 177.473 16.0961 177.473 16.9269C177.473 18.0692 176.123 18.7961 172.904 18.7961C169.581 18.7961 166.154 17.6538 163.661 16.2V20.1461C165.634 21.4961 168.957 22.5346 172.8 22.5346C178.096 22.5346 181.523 20.4577 181.523 16.8231C181.523 14.0192 179.654 12.2538 175.5 11.8384Z" fill="white"/>
<path d="M156.496 4.77692V13.6038C156.496 16.9269 154.419 18.7961 151.408 18.7961C148.292 18.7961 146.319 17.0308 146.319 13.6038V4.77692H142.166V13.1885C142.166 19.4192 146.112 22.5346 151.408 22.5346C156.6 22.5346 160.546 19.5231 160.546 13.3961V4.77692H156.496Z" fill="white"/>
<path d="M38.8385 13.2923C38.8385 14.1231 38.4231 14.2269 37.3846 14.2269C36.2423 14.2269 36.0346 14.0192 35.9308 13.1885C35.7231 11.0077 34.2692 9.13846 31.7769 9.03462C31.05 8.93077 30.8423 8.72308 30.8423 7.68462C30.8423 6.75 30.9461 6.33462 31.6731 6.33462C35.8269 6.43846 38.8385 9.86539 38.8385 13.2923ZM44.9654 13.2923C44.9654 6.85385 40.6038 0 30.4269 0H10.3846C9.96923 0 9.65769 0.207692 9.65769 0.623077C9.65769 0.830769 9.76154 1.03846 9.96923 1.14231C10.6962 1.76538 11.7346 2.38846 13.1885 3.11538C14.5385 3.84231 15.6808 4.25769 16.7192 4.67308C17.1346 4.88077 17.3423 5.08846 17.3423 5.29615C17.3423 5.60769 17.1346 5.91923 16.6154 5.91923H0.726923C0.207692 5.81538 0 6.12692 0 6.43846C0 6.75 0.103846 6.95769 0.311538 7.16538C1.55769 8.51538 3.63461 10.1769 6.64615 12.0462C9.24231 13.7077 12.5654 15.4731 15.1615 16.7192C15.5769 16.9269 15.7846 17.1346 15.7846 17.4462C15.7846 17.7577 15.5769 17.9654 15.0577 17.9654H7.68461C7.26923 17.9654 7.06154 18.1731 7.06154 18.4846C7.06154 18.6923 7.16538 18.9 7.37308 19.1077C9.03461 20.6654 11.7346 22.2231 15.2654 23.7808C20.0423 25.7538 24.8192 27 30.2192 27C40.5 27 44.9654 19.3154 44.9654 13.2923ZM31.5692 22.5346C26.5846 22.5346 22.3269 18.4846 22.3269 13.2923C22.3269 8.30769 26.4808 4.25769 31.5692 4.25769C36.7615 4.25769 40.8115 8.30769 40.8115 13.2923C40.8115 18.3808 36.7615 22.5346 31.5692 22.5346Z" fill="white"/>
</g>
<defs>
<clipPath id="clip0_5928_6303">
<rect width="202.604" height="27" fill="white"/>
</clipPath>
</defs>
</svg>
