<svg width="175" height="27" viewBox="0 0 175 27" fill="none" xmlns="http://www.w3.org/2000/svg">
<mask id="mask0_5928_6302" style="mask-type:alpha" maskUnits="userSpaceOnUse" x="26" y="9" width="15" height="18">
<path d="M35.3433 9.70917L40.2205 20.6744C41.2075 22.8933 40.2105 25.493 37.9938 26.481C35.777 27.4689 33.1799 26.471 32.1929 24.252L28.2503 15.388L26.5127 19.4854V9.70917H35.3433V9.70917Z" fill="white"/>
</mask>
<g mask="url(#mask0_5928_6302)">
<path d="M35.3433 9.70917L40.2205 20.6744C41.2075 22.8933 40.2105 25.493 37.9938 26.481C35.777 27.4689 33.1799 26.471 32.1929 24.252L28.2503 15.388L26.5127 19.4854V9.70917H35.3433V9.70917Z" fill="white"/>
</g>
<mask id="mask1_5928_6302" style="mask-type:alpha" maskUnits="userSpaceOnUse" x="27" y="10" width="10" height="8">
<path d="M35.8719 10.8976L36.881 13.1663C36.2715 12.9543 35.6167 12.8392 34.935 12.8392C32.1191 12.8392 29.7623 14.8043 29.1619 17.4375L28.2503 15.388L27.2842 17.6663L27.2842 10.8976H35.8719Z" fill="white"/>
</mask>
<g mask="url(#mask1_5928_6302)">
<path d="M35.8714 10.8975L36.8805 13.1662C36.271 12.9543 35.6162 12.8391 34.9345 12.8391C32.1186 12.8391 29.7618 14.8042 29.1614 17.4374L28.2498 15.3879L27.2837 17.6662L27.2837 10.8975H35.8714Z" fill="white" fill-opacity="0.2"/>
</g>
<mask id="mask2_5928_6302" style="mask-type:alpha" maskUnits="userSpaceOnUse" x="2" y="0" width="20" height="18">
<path d="M21.194 9.51664V17.2816H13.0688L12.2265 15.388L11.4235 17.2816H2.43604V15.9641L8.06894 2.68068C8.78136 1.00066 10.4148 -0.00595543 12.1305 2.65126e-05C13.8184 -0.00585654 15.4313 0.967642 16.1619 2.61025L20.2373 11.7726L21.194 9.51664Z" fill="white"/>
</mask>
<g mask="url(#mask2_5928_6302)">
<path d="M21.1935 9.51658V17.2816H13.0683L12.226 15.3879L11.423 17.2816H2.43555V15.964L8.06845 2.68062C8.78088 1.0006 10.4143 -0.00601647 12.13 -3.45225e-05C13.8179 -0.00591758 15.4308 0.967581 16.1615 2.61019L20.2368 11.7726L21.1935 9.51658Z" fill="white"/>
</g>
<mask id="mask3_5928_6302" style="mask-type:alpha" maskUnits="userSpaceOnUse" x="12" y="0" width="25" height="27">
<path d="M20.2313 11.7594L20.2372 11.7726L24.0928 2.68068C24.8052 1.00066 26.4386 -0.00595543 28.1543 2.65126e-05C29.8422 -0.00585654 31.4552 0.967642 32.1858 2.61025L36.8769 13.1571C35.9309 12.3393 34.6983 11.8448 33.3503 11.8448C31.0082 11.8448 29.0145 13.3378 28.2668 15.4251L28.2503 15.388L24.4629 24.3193C23.5148 26.5552 20.9354 27.5983 18.7018 26.6492C18.4833 26.5564 18.2761 26.4479 18.0812 26.3256C17.262 25.8798 16.5776 25.1705 16.1691 24.2521L12.2417 15.4223C12.8329 15.5918 13.4573 15.6825 14.1029 15.6825C16.8195 15.6825 19.1612 14.0756 20.2313 11.7594Z" fill="white"/>
</mask>
<g mask="url(#mask3_5928_6302)">
<path d="M20.2313 11.7594L20.2372 11.7726L24.0928 2.68068C24.8052 1.00066 26.4386 -0.00595543 28.1543 2.65126e-05C29.8422 -0.00585654 31.4552 0.967642 32.1858 2.61025L36.8769 13.1571C35.9309 12.3393 34.6983 11.8448 33.3503 11.8448C31.0082 11.8448 29.0145 13.3378 28.2668 15.4251L28.2503 15.388L24.4629 24.3193C23.5148 26.5552 20.9354 27.5983 18.7018 26.6492C18.4833 26.5564 18.2761 26.4479 18.0812 26.3256C17.262 25.8798 16.5776 25.1705 16.1691 24.2521L12.2417 15.4223C12.8329 15.5918 13.4573 15.6825 14.1029 15.6825C16.8195 15.6825 19.1612 14.0756 20.2313 11.7594Z" fill="white"/>
</g>
<mask id="mask4_5928_6302" style="mask-type:alpha" maskUnits="userSpaceOnUse" x="1" y="11" width="12" height="12">
<path d="M12.2018 15.4455L9.37354 22.115C8.68379 22.4319 7.9152 22.6084 7.10492 22.6084C4.2626 22.6084 1.93318 20.4365 1.7207 17.6502L3.66164 13.0731C4.59629 12.2985 5.79624 11.8328 7.10492 11.8328C9.46051 11.8328 11.4638 13.3415 12.2018 15.4455Z" fill="white"/>
</mask>
<g mask="url(#mask4_5928_6302)">
<path d="M12.2018 15.4454L9.37354 22.1149C8.68379 22.4319 7.9152 22.6084 7.10492 22.6084C4.2626 22.6084 1.93318 20.4364 1.7207 17.6502L3.66164 13.0731C4.59629 12.2984 5.79624 11.8328 7.10492 11.8328C9.46051 11.8328 11.4638 13.3414 12.2018 15.4454Z" fill="white"/>
</g>
<mask id="mask5_5928_6302" style="mask-type:alpha" maskUnits="userSpaceOnUse" x="0" y="12" width="12" height="15">
<path d="M11.3721 17.403L8.43914 24.3193C7.49102 26.5552 4.91168 27.5983 2.67804 26.6493C0.4444 25.7002 -0.597718 23.1183 0.350407 20.8825L3.60714 13.2025C4.29653 12.897 5.059 12.7274 5.86092 12.7274C8.62946 12.7274 10.9278 14.7493 11.3721 17.403Z" fill="white"/>
</mask>
<g mask="url(#mask5_5928_6302)">
<path d="M11.3721 17.403L8.43914 24.3193C7.49102 26.5552 4.91168 27.5983 2.67804 26.6493C0.4444 25.7002 -0.597718 23.1183 0.350407 20.8825L3.60714 13.2025C4.29653 12.897 5.059 12.7274 5.86092 12.7274C8.62946 12.7274 10.9278 14.7493 11.3721 17.403Z" fill="white"/>
</g>
<path d="M65.1211 6.7701V20.282C65.1211 20.4899 64.9527 20.6584 64.745 20.6584H62.1121C61.9044 20.6584 61.736 20.4899 61.736 20.282V12.4561C61.736 12.2482 61.5676 12.0797 61.3598 12.0797C61.2363 12.0797 61.1206 12.1404 61.0504 12.2422L58.6134 15.7724C58.5432 15.8741 58.4275 15.9349 58.304 15.9349H57.0078C56.8833 15.9349 56.7668 15.8732 56.6968 15.7702L54.3364 12.2975C54.2196 12.1257 53.9856 12.0811 53.8139 12.198C53.7109 12.2681 53.6493 12.3846 53.6493 12.5092V20.282C53.6493 20.4899 53.4809 20.6584 53.2732 20.6584H50.6403C50.4326 20.6584 50.2642 20.4899 50.2642 20.282V6.7701C50.2642 6.56224 50.4326 6.39373 50.6403 6.39373H53.9748C54.1004 6.39373 54.2178 6.45651 54.2875 6.56107L57.3798 11.1943C57.4952 11.3672 57.7288 11.4137 57.9015 11.2983C57.9426 11.2708 57.9779 11.2355 58.0054 11.1943L61.0977 6.56107C61.1675 6.45651 61.2848 6.39373 61.4105 6.39373H64.745C64.9527 6.39373 65.1211 6.56224 65.1211 6.7701ZM69.7363 16.3489C69.8743 16.9511 70.1595 17.4216 70.592 17.7603C71.0246 18.099 71.6608 18.2684 72.5009 18.2684C72.9898 18.2684 73.4568 18.2088 73.9019 18.0896C74.1445 18.0247 74.5302 17.8765 75.0591 17.6453C75.2495 17.562 75.4712 17.649 75.5544 17.8395C75.5588 17.8496 75.5628 17.8599 75.5663 17.8703L76.1741 19.6814C76.2353 19.8637 76.1493 20.0628 75.9747 20.1432C75.2618 20.4712 74.7182 20.6774 74.3439 20.7619C73.7045 20.9062 72.9397 20.9783 72.0495 20.9783C70.8083 20.9783 69.752 20.7431 68.8807 20.2726C68.0093 19.8021 67.3479 19.1403 66.8966 18.2872C66.4452 17.4341 66.2196 16.443 66.2196 15.3138C66.2196 14.1345 66.4515 13.1215 66.9154 12.2746C67.3793 11.4278 68.0062 10.7879 68.796 10.3551C69.5859 9.92225 70.4698 9.70584 71.4477 9.70584C73.0149 9.70584 74.2436 10.1606 75.1337 11.0702C76.0239 11.9798 76.469 13.3065 76.469 15.0504V15.9725C76.469 16.1804 76.3006 16.3489 76.0928 16.3489H69.7363ZM71.4477 12.4157C70.9964 12.4157 70.6296 12.5287 70.3475 12.7545C70.1431 12.9419 69.9902 13.157 69.8888 13.3999C69.8088 13.5917 69.8994 13.8121 70.091 13.8922C70.137 13.9114 70.1862 13.9213 70.2359 13.9213H72.5857C72.7935 13.9213 72.9619 13.7527 72.9619 13.5449C72.9619 13.5121 72.9576 13.4795 72.9491 13.4478C72.8713 13.1562 72.7439 12.9314 72.5667 12.7733C72.2812 12.5377 71.9367 12.4157 71.4477 12.4157ZM90.4811 9.78111C91.8351 9.78111 92.8475 10.1387 93.5183 10.8538C94.189 11.5689 94.5244 12.7043 94.5244 14.26V20.282C94.5244 20.4899 94.356 20.6584 94.1483 20.6584H91.6283C91.4205 20.6584 91.2521 20.4899 91.2521 20.282V14.26C91.2521 13.7456 91.1393 13.3536 90.9136 13.0838C90.6879 12.8141 90.2993 12.6792 89.7476 12.6792C89.0706 12.6792 88.3811 12.9803 87.6789 13.5825C87.6915 13.7205 87.6978 13.9463 87.6978 14.26V20.282C87.6978 20.4899 87.5294 20.6584 87.3216 20.6584H84.8016C84.5939 20.6584 84.4255 20.4899 84.4255 20.282V14.26C84.4255 13.7456 84.3126 13.3536 84.087 13.0838C83.8613 12.8141 83.4726 12.6792 82.921 12.6792C82.2565 12.6792 81.5732 12.9678 80.8711 13.5449V20.282C80.8711 20.4899 80.7027 20.6584 80.495 20.6584H77.9749C77.7672 20.6584 77.5988 20.4899 77.5988 20.282V10.3833C77.5988 10.1754 77.7672 10.0069 77.9749 10.0069H80.495C80.7027 10.0069 80.8711 10.1754 80.8711 10.3833V10.835C81.3099 10.4711 81.7518 10.2045 82.1969 10.0352C82.642 9.8658 83.1278 9.78111 83.6544 9.78111C85.3219 9.78111 86.4628 10.3143 87.0771 11.3807C87.6413 10.8287 88.1898 10.4241 88.7227 10.1669C89.2555 9.90971 89.8417 9.78111 90.4811 9.78111ZM101.955 9.70584C102.908 9.70584 103.751 9.91598 104.484 10.3363C105.218 10.7566 105.795 11.3901 106.215 12.237C106.635 13.0838 106.845 14.1157 106.845 15.3327C106.845 16.5622 106.635 17.6003 106.215 18.4472C105.795 19.294 105.218 19.9276 104.484 20.3479C103.751 20.7682 102.908 20.9783 101.955 20.9783C100.939 20.9783 99.9865 20.6396 99.0964 19.9621V20.282C99.0964 20.4899 98.928 20.6584 98.7202 20.6584H96.2002C95.9925 20.6584 95.8241 20.4899 95.8241 20.282V5.11405C95.8241 4.90618 95.9925 4.73767 96.2002 4.73767H98.7202C98.928 4.73767 99.0964 4.90618 99.0964 5.11405V10.7221C99.9865 10.0446 100.939 9.70584 101.955 9.70584ZM101.24 18.0802C101.967 18.0802 102.516 17.8481 102.886 17.3839C103.256 16.9197 103.441 16.236 103.441 15.3327C103.441 14.4419 103.256 13.7644 102.886 13.3002C102.516 12.836 101.967 12.6039 101.24 12.6039C100.526 12.6039 99.811 12.8611 99.0964 13.3755V17.3086C99.811 17.823 100.526 18.0802 101.24 18.0802ZM110.99 16.3489C111.128 16.9511 111.413 17.4216 111.845 17.7603C112.278 18.099 112.914 18.2684 113.754 18.2684C114.243 18.2684 114.71 18.2088 115.155 18.0896C115.398 18.0247 115.784 17.8765 116.312 17.6453C116.503 17.562 116.725 17.649 116.808 17.8395C116.812 17.8496 116.816 17.8599 116.82 17.8703L117.427 19.6814C117.489 19.8637 117.403 20.0628 117.228 20.1432C116.515 20.4712 115.972 20.6774 115.597 20.7619C114.958 20.9062 114.193 20.9783 113.303 20.9783C112.062 20.9783 111.005 20.7431 110.134 20.2726C109.263 19.8021 108.601 19.1403 108.15 18.2872C107.699 17.4341 107.473 16.443 107.473 15.3138C107.473 14.1345 107.705 13.1215 108.169 12.2746C108.633 11.4278 109.259 10.7879 110.049 10.3551C110.839 9.92225 111.723 9.70584 112.701 9.70584C114.268 9.70584 115.497 10.1606 116.387 11.0702C117.277 11.9798 117.722 13.3065 117.722 15.0504V15.9725C117.722 16.1804 117.554 16.3489 117.346 16.3489H110.99ZM112.701 12.4157C112.25 12.4157 111.883 12.5287 111.601 12.7545C111.396 12.9419 111.243 13.157 111.142 13.3999C111.062 13.5917 111.153 13.8121 111.344 13.8922C111.39 13.9114 111.439 13.9213 111.489 13.9213H113.839C114.047 13.9213 114.215 13.7527 114.215 13.5449C114.215 13.5121 114.211 13.4795 114.202 13.4478C114.125 13.1562 113.997 12.9314 113.82 12.7733C113.534 12.5377 113.19 12.4157 112.701 12.4157ZM125.483 10.1575V12.3028C125.483 12.5107 125.315 12.6792 125.107 12.6792H125.05C124.948 12.6792 124.847 12.6831 124.745 12.6908C123.881 12.7559 123.018 13.0971 122.154 13.7142V20.282C122.154 20.4899 121.986 20.6584 121.778 20.6584H119.258C119.05 20.6584 118.882 20.4899 118.882 20.282V10.3833C118.882 10.1754 119.05 10.0069 119.258 10.0069H121.778C121.986 10.0069 122.154 10.1754 122.154 10.3833V10.9479C122.618 10.559 123.085 10.2673 123.555 10.0728C123.99 9.89282 124.45 9.79613 124.933 9.78273C124.972 9.78165 125.011 9.78111 125.05 9.78111H125.107C125.315 9.78111 125.483 9.94962 125.483 10.1575ZM130.562 20.9783C129.672 20.9783 128.885 20.9062 128.202 20.7619C127.79 20.6749 127.368 20.5504 126.936 20.3883C126.784 20.3314 126.569 20.2416 126.291 20.1186C126.155 20.0584 126.067 19.9234 126.067 19.7744V17.755C126.067 17.5471 126.236 17.3786 126.443 17.3786C126.501 17.3786 126.558 17.3918 126.609 17.4172C126.75 17.4863 126.868 17.5412 126.963 17.582C127.383 17.7614 127.805 17.9024 128.23 18.0049C128.957 18.1806 129.734 18.2684 130.562 18.2684C131.377 18.2684 131.784 18.0238 131.784 17.5345C131.784 17.3337 131.728 17.1832 131.615 17.0828C131.502 16.9824 131.32 16.9009 131.07 16.8382L129.245 16.4618C128.18 16.2485 127.402 15.8847 126.913 15.3703C126.424 14.8559 126.18 14.1534 126.18 13.2626C126.18 12.0582 126.553 11.1643 127.299 10.5809C128.045 9.99753 129.176 9.70584 130.693 9.70584C131.32 9.70584 131.975 9.76857 132.659 9.89403C133.05 9.96585 133.43 10.05 133.798 10.1465C133.932 10.1816 134.112 10.2333 134.338 10.3014C134.497 10.3494 134.605 10.4958 134.605 10.6617V12.6091C134.605 12.817 134.437 12.9855 134.229 12.9855C134.184 12.9855 134.139 12.9773 134.096 12.9612C134.002 12.9256 133.918 12.8961 133.845 12.8728C133.546 12.7777 133.22 12.6943 132.866 12.6228C132.182 12.4848 131.515 12.4157 130.863 12.4157C130.349 12.4157 129.991 12.4659 129.791 12.5663C129.59 12.6667 129.49 12.8235 129.49 13.0368C129.49 13.1999 129.54 13.3159 129.64 13.3849C129.741 13.4539 129.91 13.5135 130.148 13.5637L131.972 13.9401C133.076 14.1659 133.872 14.536 134.361 15.0504C134.85 15.5648 135.094 16.3301 135.094 17.3463C135.094 18.5632 134.687 19.4728 133.872 20.075C133.057 20.6772 131.953 20.9783 130.562 20.9783ZM140.323 13.6578V16.8758C140.323 17.2898 140.392 17.5815 140.53 17.7509C140.668 17.9203 140.919 18.0049 141.283 18.0049C141.522 18.0049 141.746 17.9882 141.956 17.9546C141.956 17.9546 141.956 17.9546 141.957 17.9545C142.162 17.9217 142.355 18.0615 142.387 18.2667C142.391 18.2864 142.392 18.3063 142.392 18.3262V20.3312C142.392 20.5111 142.265 20.6658 142.089 20.7005C142.072 20.7038 142.057 20.7068 142.043 20.7094C141.765 20.7632 141.521 20.8058 141.311 20.8372C141.016 20.8811 140.7 20.903 140.361 20.903C139.245 20.903 138.415 20.6584 137.869 20.1691C137.324 19.6798 137.051 18.9772 137.051 18.0614V13.6578C137.051 13.4499 136.883 13.2814 136.675 13.2814H135.96C135.753 13.2814 135.584 13.1129 135.584 12.905V10.7597C135.584 10.5518 135.753 10.3833 135.96 10.3833H136.675C136.883 10.3833 137.051 10.2148 137.051 10.0069V7.18412C137.051 6.97625 137.22 6.80774 137.427 6.80774H139.947C140.155 6.80774 140.323 6.97625 140.323 7.18412V10.0069C140.323 10.2148 140.492 10.3833 140.7 10.3833H142.354C142.562 10.3833 142.731 10.5518 142.731 10.7597V12.905C142.731 13.1129 142.562 13.2814 142.354 13.2814H140.7C140.492 13.2814 140.323 13.4499 140.323 13.6578ZM148.085 10.0069C149.464 10.0069 150.514 10.192 151.235 10.5621C151.956 10.9322 152.435 11.4246 152.673 12.0394C152.912 12.6541 153.031 13.4382 153.031 14.3917V20.282C153.031 20.4899 152.862 20.6584 152.655 20.6584H150.135C149.927 20.6584 149.758 20.4899 149.758 20.282V19.7927C149.32 20.1942 148.887 20.4796 148.461 20.649C148.035 20.8184 147.564 20.903 147.05 20.903C145.847 20.903 144.903 20.5863 144.22 19.9527C143.537 19.3191 143.195 18.4378 143.195 17.3086C143.195 16.167 143.543 15.2888 144.239 14.674C144.935 14.0593 145.903 13.7519 147.144 13.7519C148.172 13.7519 149.044 13.9401 149.758 14.3164C149.746 13.9652 149.693 13.686 149.599 13.479C149.505 13.272 149.317 13.112 149.034 12.9991C148.752 12.8862 148.342 12.8298 147.803 12.8298H146.035C145.827 12.8298 145.659 12.6613 145.659 12.4534V10.3833C145.659 10.1754 145.827 10.0069 146.035 10.0069H148.085ZM147.259 18.3813C147.898 18.3813 148.569 18.0928 149.271 17.5156V16.5183C148.669 16.2297 148.061 16.0854 147.447 16.0854C146.996 16.0854 146.645 16.1826 146.394 16.3771C146.143 16.5716 146.018 16.8695 146.018 17.271C146.018 17.685 146.124 17.9736 146.337 18.1367C146.551 18.2998 146.858 18.3813 147.259 18.3813ZM159.339 20.9783C157.584 20.9658 156.242 20.4671 155.314 19.4822C154.387 18.4974 153.923 17.1079 153.923 15.3138C153.923 13.5323 154.387 12.1554 155.314 11.1831C156.242 10.2108 157.584 9.71839 159.339 9.70584C159.978 9.70584 160.524 9.74348 160.975 9.81875C161.256 9.86555 161.544 9.9366 161.839 10.0319C161.914 10.0564 162.015 10.0922 162.141 10.1393C162.288 10.1943 162.385 10.3348 162.385 10.4918V12.6299C162.385 12.8377 162.217 13.0062 162.009 13.0062C161.961 13.0062 161.914 12.997 161.869 12.9791C161.845 12.9693 161.822 12.9605 161.802 12.9527C161.551 12.858 161.31 12.7857 161.078 12.7357C160.671 12.6478 160.216 12.6039 159.715 12.6039C158.875 12.6165 158.267 12.8486 157.891 13.3002C157.515 13.7519 157.327 14.4168 157.327 15.295C157.327 16.1983 157.508 16.8884 157.872 17.3651C158.236 17.8418 158.819 18.0802 159.621 18.0802C160.072 18.0802 160.508 18.0112 160.928 17.8732C161.159 17.7972 161.395 17.6984 161.636 17.5768C161.692 17.5484 161.761 17.5111 161.842 17.465C162.023 17.3625 162.253 17.4261 162.355 17.607C162.367 17.6275 162.376 17.649 162.384 17.6712L163.055 19.6457C163.114 19.8192 163.04 20.01 162.879 20.0975C162.727 20.1805 162.603 20.2443 162.508 20.2888C161.531 20.7485 160.475 20.9783 159.339 20.9783ZM168.028 17.1016L167.163 18.0238V20.282C167.163 20.4899 166.995 20.6584 166.787 20.6584H164.267C164.06 20.6584 163.891 20.4899 163.891 20.282V5.11405C163.891 4.90618 164.06 4.73767 164.267 4.73767H166.66H166.787C166.995 4.73767 167.163 4.90618 167.163 5.11405V5.2322V13.9401L170.381 10.5024C170.452 10.4264 170.551 10.3833 170.655 10.3833H173.531C173.738 10.3833 173.907 10.5518 173.907 10.7597C173.907 10.8559 173.87 10.9484 173.804 11.0183L170.172 14.8622L174.262 20.0489C174.39 20.2121 174.363 20.4487 174.199 20.5775C174.133 20.6299 174.051 20.6584 173.966 20.6584H171.013C170.898 20.6584 170.789 20.6056 170.718 20.515L168.028 17.1016Z" fill="white"/>
</svg>
