<svg width="122" height="30" viewBox="0 0 122 30" fill="none" xmlns="http://www.w3.org/2000/svg">
<g style="mix-blend-mode:luminosity" clip-path="url(#clip0_679_67442)">
<path d="M8.00196 9.83955V8.66735C8.00196 8.35406 7.8775 8.05359 7.65597 7.83206C7.43444 7.61053 7.13398 7.48607 6.82068 7.48607H4.55984V6.39985C4.55621 5.12836 4.8432 4.37031 5.10114 4.09361L5.11325 4.07847C5.28925 3.90505 5.51033 3.78444 5.75141 3.73032C6.58583 3.59606 7.42988 3.53065 8.27503 3.53475H8.70915C8.86433 3.53483 9.018 3.50434 9.16139 3.44501C9.30478 3.38568 9.43508 3.29868 9.54483 3.18898C9.65459 3.07928 9.74166 2.94903 9.80106 2.80567C9.86046 2.66231 9.89104 2.50865 9.89104 2.35348V1.29511C9.89164 1.02078 9.79655 0.754828 9.62215 0.543072C9.44775 0.331315 9.20496 0.187011 8.9356 0.135021C8.79271 0.107169 8.63286 0.079317 8.45546 0.0520707C8.23264 0.0175587 7.06226 0 6.83218 0H6.81584C4.91404 0 3.2938 0.444417 2.20879 1.60814C1.14679 2.77791 0.765947 4.42904 0.760498 6.43618V28.5535C0.760498 28.8668 0.884954 29.1673 1.10649 29.3888C1.32802 29.6103 1.62848 29.7348 1.94178 29.7348H3.37857C3.53374 29.735 3.68742 29.7045 3.83081 29.6452C3.9742 29.5859 4.10449 29.4989 4.21421 29.3892C4.32393 29.2794 4.41094 29.1492 4.47025 29.0058C4.52956 28.8624 4.56 28.7087 4.55984 28.5535V11.0196H6.81947C6.97464 11.0199 7.12835 10.9896 7.27181 10.9305C7.41526 10.8713 7.54563 10.7845 7.65547 10.6748C7.76531 10.5652 7.85245 10.435 7.9119 10.2917C7.97136 10.1484 8.00196 9.99472 8.00196 9.83955Z" fill="white"/>
<path d="M109.427 29.2931C109.533 29.4074 109.66 29.499 109.802 29.5621C109.944 29.6252 110.098 29.6585 110.253 29.6601H111.714C111.959 29.6601 112.198 29.5839 112.398 29.442C112.598 29.3001 112.748 29.0995 112.829 28.8681L121.79 3.1591C121.852 2.98106 121.871 2.79071 121.845 2.60396C121.818 2.41721 121.747 2.23949 121.638 2.08566C121.529 1.93183 121.385 1.80638 121.217 1.71978C121.05 1.63318 120.864 1.58795 120.675 1.58789H119.239C118.994 1.58754 118.754 1.6637 118.554 1.80576C118.354 1.94781 118.204 2.1487 118.123 2.38046L109.162 28.0895C109.116 28.2114 109.093 28.3406 109.093 28.4709C109.096 28.7774 109.215 29.0712 109.427 29.2931" fill="white"/>
<path d="M80.7503 29.659H82.1489C82.3041 29.6591 82.4578 29.6287 82.6012 29.5694C82.7446 29.5101 82.8748 29.4231 82.9846 29.3133C83.0943 29.2036 83.1813 29.0733 83.2406 28.9299C83.2999 28.7865 83.3304 28.6329 83.3302 28.4777V16.4173C83.3361 15.7243 83.451 15.0365 83.6705 14.3792C83.8937 13.6872 84.2298 13.0368 84.6653 12.4544C85.0666 11.9073 85.5763 11.4487 86.1626 11.1073C86.7376 10.7855 87.3888 10.6248 88.0474 10.6423C88.7664 10.5968 89.4805 10.7869 90.0818 11.1835C90.6147 11.5937 91.0148 12.1518 91.2322 12.788C91.5371 13.6496 91.6846 14.559 91.6676 15.4727V28.4777C91.6676 28.791 91.792 29.0914 92.0136 29.313C92.2351 29.5345 92.5356 29.659 92.8489 29.659H94.2475C94.4026 29.659 94.5562 29.6285 94.6996 29.5692C94.8429 29.5098 94.9731 29.4228 95.0827 29.3131C95.1924 29.2034 95.2794 29.0731 95.3386 28.9298C95.3979 28.7864 95.4283 28.6328 95.4282 28.4777V16.4173C95.4342 15.7243 95.5489 15.0367 95.7678 14.3792C95.9905 13.6869 96.3265 13.0362 96.762 12.4538C97.1637 11.9068 97.6735 11.4482 98.26 11.1066C98.835 10.785 99.4861 10.6243 100.145 10.6416C100.864 10.5962 101.578 10.7862 102.179 11.1829C102.712 11.5925 103.112 12.1505 103.329 12.7868C103.634 13.6486 103.781 14.5582 103.764 15.4721V28.4777C103.764 28.791 103.889 29.0914 104.11 29.313C104.332 29.5345 104.632 29.659 104.946 29.659H106.344C106.499 29.6591 106.653 29.6287 106.796 29.5694C106.94 29.5101 107.07 29.4231 107.18 29.3133C107.29 29.2036 107.377 29.0733 107.436 28.9299C107.495 28.7865 107.526 28.6329 107.526 28.4777V15.1312C107.561 13.697 107.303 12.2706 106.767 10.9395C106.27 9.74685 105.418 8.73601 104.327 8.04416C103.159 7.3469 101.818 6.9958 100.458 7.03181H100.435C98.9855 7.01916 97.5631 7.42399 96.3376 8.19796C95.5305 8.71769 94.8264 9.38217 94.2608 10.1579C93.77 9.305 93.0824 8.58176 92.2555 8.0484C91.1067 7.34968 89.7809 6.99674 88.4368 7.03181H88.4095C86.9734 7.02355 85.5652 7.42857 84.3529 8.19856C83.9891 8.43478 83.6473 8.70306 83.3314 9.00021V8.57638C83.3275 8.26834 83.2038 7.97394 82.9864 7.75565C82.769 7.53737 82.4751 7.41238 82.1671 7.40721H80.7503C80.437 7.40721 80.1365 7.53166 79.915 7.75319C79.6935 7.97473 79.569 8.27519 79.569 8.58849V28.4777C79.569 28.791 79.6935 29.0914 79.915 29.313C80.1365 29.5345 80.437 29.659 80.7503 29.659Z" fill="white"/>
<path d="M62.1072 28.6093C63.6948 29.5653 65.5222 30.0484 67.3748 30.0019H67.3972C69.2144 30.042 71.007 29.5767 72.5752 28.6578C74.1018 27.7079 75.2993 26.3115 76.0052 24.658C76.8063 22.7296 77.198 20.6559 77.1556 18.5682C77.1963 16.4984 76.8137 14.4421 76.0313 12.5255C75.3387 10.8629 74.1646 9.44553 72.66 8.45554C71.0814 7.48339 69.2541 6.99134 67.4008 7.03934H67.3766C65.5505 7.00087 63.75 7.47334 62.178 8.40347C60.6498 9.35352 59.452 10.752 58.748 12.4081C57.9466 14.3617 57.563 16.4615 57.6218 18.5724C57.5774 20.6158 57.9511 22.6468 58.7202 24.5405C59.4022 26.2139 60.5853 27.6352 62.1072 28.6093ZM63.0154 12.5389C63.4914 11.9273 64.1101 11.4419 64.8173 11.1251C65.6298 10.789 66.5029 10.6241 67.3821 10.6407C68.2404 10.6245 69.0923 10.7917 69.8809 11.1311C70.5911 11.4634 71.2108 11.9618 71.6876 12.5843C72.7199 13.906 73.3066 15.8453 73.3078 18.5294V18.533C73.3078 21.2988 72.7218 23.263 71.7264 24.5309C71.2563 25.1408 70.6427 25.625 69.9402 25.9404C69.1302 26.2765 68.2595 26.4414 67.3827 26.4248C66.5573 26.4736 65.7323 26.3215 64.9786 25.9817C64.2248 25.6418 63.5647 25.1242 63.0548 24.4733C62.0097 23.148 61.42 21.2256 61.42 18.57V18.5663C61.42 15.7769 62.0121 13.8031 63.0172 12.5382" fill="white"/>
<path d="M37.5454 1.25745V28.4783C37.5452 28.6335 37.5757 28.7872 37.635 28.9306C37.6943 29.074 37.7813 29.2043 37.891 29.314C38.0007 29.4237 38.131 29.5107 38.2744 29.57C38.4178 29.6293 38.5715 29.6598 38.7267 29.6596H40.1435C40.4502 29.654 40.7427 29.5298 40.9597 29.313C41.1767 29.0962 41.3013 28.8038 41.3072 28.4971V16.4179C41.3142 15.733 41.4385 15.0543 41.6747 14.4114C41.9228 13.7151 42.2904 13.0674 42.7609 12.4975C43.223 11.9317 43.7976 11.4681 44.4484 11.1364C45.1373 10.7949 45.8988 10.6257 46.6674 10.6435C47.5313 10.596 48.3906 10.7989 49.142 11.2278C49.7353 11.6118 50.194 12.1715 50.4541 12.8287C50.7868 13.6701 50.9485 14.5693 50.93 15.474V28.4795C50.93 28.7928 51.0544 29.0933 51.276 29.3148C51.4975 29.5364 51.798 29.6608 52.1113 29.6608H53.5644C53.8714 29.6555 54.1644 29.5312 54.3816 29.3142C54.5988 29.0971 54.7233 28.8041 54.7287 28.4971V15.1325C54.7668 13.668 54.4663 12.2145 53.8508 10.8851C53.2708 9.68587 52.3439 8.68854 51.1903 8.02241C49.9221 7.33195 48.4935 6.99014 47.0501 7.03185H47.0325C45.5017 7.01701 43.9959 7.42088 42.678 8.19981C42.1869 8.49185 41.7275 8.83417 41.3072 9.22124V1.25745C41.3072 1.10227 41.2766 0.948614 41.2172 0.805255C41.1578 0.661896 41.0707 0.531646 40.961 0.421946C40.8512 0.312247 40.7209 0.225247 40.5775 0.165918C40.4342 0.106588 40.2805 0.0760925 40.1253 0.076172H38.7079C38.4004 0.0816098 38.107 0.206134 37.8895 0.42353C37.672 0.640927 37.5473 0.934235 37.5417 1.24171L37.5454 1.25745Z" fill="white"/>
<path d="M27.7917 3.97913V23.3718C27.7954 25.3578 28.1829 27.0047 29.2322 28.1726C30.322 29.3557 31.9568 29.8074 33.8834 29.8074C34.1099 29.8074 34.3319 29.8004 34.5494 29.7862C34.8331 29.7712 35.1127 29.7124 35.3783 29.6119C35.5983 29.5254 35.7873 29.375 35.9209 29.1801C36.0545 28.9852 36.1266 28.7547 36.1279 28.5184V27.4576C36.1274 27.1446 36.0028 26.8446 35.7813 26.6235C35.5598 26.4023 35.2596 26.2781 34.9466 26.2781H34.392C33.8503 26.2904 33.3096 26.2241 32.7869 26.0813C32.5454 26.0282 32.3236 25.9086 32.1463 25.7362L32.133 25.7199C31.8739 25.4426 31.5881 24.6821 31.5881 23.413V10.9445H34.0542C34.3611 10.9391 34.6539 10.8147 34.871 10.5976C35.0881 10.3806 35.2124 10.0877 35.2179 9.78078V8.59163C35.2179 8.27833 35.0934 7.97787 34.8719 7.75634C34.6504 7.5348 34.3499 7.41035 34.0366 7.41035H31.5911V3.97913C31.5911 3.66584 31.4666 3.36537 31.2451 3.14384C31.0236 2.92231 30.7231 2.79785 30.4098 2.79785H28.9567C28.6493 2.8033 28.3561 2.92786 28.1388 3.14529C27.9214 3.36272 27.797 3.65602 27.7917 3.96339V3.97913Z" fill="white"/>
<path d="M7.62305 23.2992V23.3131C7.59614 24.5916 7.94543 25.8498 8.62753 26.9314C9.31084 27.9688 10.2876 28.7793 11.4333 29.2595C12.7096 29.7799 14.0793 30.032 15.4573 30C16.5174 29.9875 17.5673 29.7913 18.5603 29.4199C19.6772 29.009 20.7104 28.3994 21.6101 27.6204C21.7875 27.4691 21.9546 27.3074 22.1175 27.1415C22.2227 27.8308 22.4565 28.4942 22.8065 29.0972C22.9117 29.2698 23.0596 29.4122 23.236 29.5108C23.4125 29.6093 23.6113 29.6606 23.8134 29.6597L24.5049 29.6518C24.8158 29.6483 25.1129 29.5223 25.3316 29.3011C25.5502 29.08 25.6728 28.7815 25.6728 28.4705V15.8161C25.7071 14.2642 25.4148 12.7225 24.8149 11.2908C24.2392 9.96508 23.2571 8.85659 22.0103 8.12541C20.6062 7.35692 19.0211 6.98047 17.4214 7.03556C15.8446 6.99595 14.2793 7.31391 12.8428 7.96557C11.5551 8.57324 10.4716 9.54188 9.72405 10.7538L9.7186 10.7622C9.61853 10.9237 9.56548 11.1099 9.56541 11.2999C9.56683 11.5232 9.63747 11.7405 9.7676 11.9219C9.89774 12.1034 10.081 12.2399 10.292 12.3129L11.4515 12.7252C11.628 12.7879 11.8139 12.8199 12.0012 12.8196C12.2478 12.8192 12.4912 12.7638 12.7137 12.6576C12.9363 12.5514 13.1324 12.3971 13.2879 12.2057C13.3974 12.0716 13.5142 11.9437 13.6378 11.8224C14.3965 11.0862 15.5221 10.6521 17.2707 10.6454C18.0244 10.6275 18.7753 10.7446 19.4879 10.9911C19.9984 11.175 20.4501 11.4926 20.7957 11.9108C21.4521 12.7161 21.865 13.961 21.9038 15.7447C20.2157 15.7713 18.7184 15.8416 17.4232 15.9627C15.797 16.1077 14.1933 16.4416 12.6442 16.9575H12.6388L12.6249 16.9617C11.208 17.3481 9.93349 18.137 8.9557 19.2328C8.04523 20.379 7.57297 21.8121 7.62366 23.275L7.62305 23.2992ZM21.0525 23.1024C20.4855 24.0913 19.6844 24.9258 18.7196 25.5328C17.7794 26.1307 16.6852 26.4414 15.5711 26.4271C14.4455 26.5069 13.3278 26.1881 12.4136 25.5267C12.0963 25.2696 11.8434 24.942 11.6749 24.5701C11.5002 24.1424 11.4143 23.6836 11.4224 23.2217C11.4139 22.6786 11.55 22.1431 11.8166 21.6699C12.1726 21.1457 12.6778 20.7405 13.2667 20.5067C14.4371 20.0152 15.6719 19.6937 16.9334 19.5519C18.5852 19.3344 20.2487 19.2176 21.9146 19.2019V19.9327C21.9185 21.0475 21.6208 22.1425 21.0531 23.1018" fill="white"/>
</g>
<defs>
<clipPath id="clip0_679_67442">
<rect width="121.095" height="30" fill="white" transform="translate(0.760498)"/>
</clipPath>
</defs>
</svg>
