<svg width="102" height="27" viewBox="0 0 102 27" fill="none" xmlns="http://www.w3.org/2000/svg">
<g clip-path="url(#clip0_5928_6304)">
<path fill-rule="evenodd" clip-rule="evenodd" d="M0.611702 0.00124476H7.51734C7.77013 0.00124476 7.98582 0.145744 8.08272 0.379134C8.17918 0.612525 8.12862 0.86698 7.95002 1.0456L1.04436 7.95126C0.865735 8.12987 0.61128 8.18043 0.377467 8.08397C0.144078 7.98707 0 7.77138 0 7.51859V0.612947C0 0.276342 0.274676 0.00124476 0.611702 0.00124476ZM11.4951 0.000677957C12.8579 -0.00184973 14.0131 -0.0153307 15.3881 0.376461C19.5315 1.55731 22.5883 5.38718 22.5883 9.89617C22.5883 15.3387 18.1353 19.7912 12.6932 19.7912H5.58914L9.89506 21.2025V26.327C9.89506 26.664 9.61997 26.9387 9.28338 26.9387H0.611702C0.274676 26.9387 0 26.664 0 26.327V11.4974C0 11.3289 0.0602434 11.184 0.179045 11.0648L11.0641 0.180144C11.1825 0.0613427 11.327 0.00109924 11.4951 0.000677957Z" fill="white"/>
<path fill-rule="evenodd" clip-rule="evenodd" d="M31.4023 22.2738C31.4023 22.4617 31.5073 22.5683 31.6968 22.5683H33.0432C33.2328 22.5683 33.3377 22.4634 33.3377 22.2738V17.2985C33.8847 18.0138 35.0629 18.3294 35.7781 18.3294C38.2398 18.3294 40.1544 16.7934 40.1544 13.8693C40.1544 11.1554 38.2398 9.40913 35.7781 9.40913C33.3167 9.40913 31.4023 10.9456 31.4023 13.8693V22.2738ZM33.3377 13.8692C33.3377 11.7653 34.7052 11.2602 35.7781 11.2602C36.8513 11.2602 38.2189 11.7653 38.2189 13.8692C38.2189 15.9731 36.8513 16.4778 35.7781 16.4778C34.7052 16.4778 33.3377 15.9731 33.3377 13.8692ZM50.8836 13.9531C50.8836 10.9237 48.9692 9.40913 46.5079 9.40913C44.0252 9.40913 42.0478 11.0922 42.0478 13.9324C42.0478 16.2044 43.4785 18.3083 46.087 18.3083C46.9078 18.3083 48.2332 18.0555 48.9483 16.9408V17.7821C48.9483 17.9717 49.0536 18.077 49.243 18.077H50.5896C50.7789 18.077 50.8836 17.9717 50.8836 17.7821V13.9531ZM48.9483 13.9324C48.9483 16.0152 47.3071 16.6042 46.2554 16.541C45.1825 16.4778 44.0043 15.8046 44.0043 13.8692C44.0043 11.8917 45.4349 11.2602 46.5079 11.2602C47.5808 11.2602 48.9483 11.7653 48.9483 13.9324ZM56.343 22.5295C56.5124 22.5885 56.6548 22.559 56.7426 22.361L62.2448 9.93492C62.3096 9.78831 62.2232 9.66148 62.0764 9.66148H60.5617C60.3724 9.66148 60.2249 9.74575 60.1408 9.93492L57.5742 15.8467L55.0284 9.93492C54.9656 9.74575 54.8181 9.66148 54.6285 9.66148H53.0719C52.9244 9.66148 52.8407 9.78747 52.9038 9.93492L56.5222 18.077L54.9332 21.7089C54.8536 21.8913 54.9113 22.0282 55.0804 22.0876L56.343 22.5295ZM68.6823 11.2603C69.6499 11.2603 70.7863 11.5969 70.7863 13.6165V17.7821C70.7863 17.9717 70.8912 18.077 71.0806 18.077H72.4272C72.6162 18.077 72.7215 17.9717 72.7215 17.7821V13.6165C72.7215 10.7556 71.0175 9.40917 68.6823 9.40917C67.6938 9.40917 66.9361 9.76681 66.4099 10.3347V4.5543C66.4099 4.36516 66.3046 4.25983 66.1156 4.25983H64.769C64.5803 4.25983 64.4747 4.36557 64.4747 4.5543V17.7821C64.4747 17.9713 64.58 18.077 64.769 18.077H66.1156C66.3049 18.077 66.4099 17.9717 66.4099 17.7821V13.4695C66.473 11.6811 67.7356 11.2603 68.6823 11.2603ZM83.6831 13.8693C83.6831 10.9447 81.7682 9.40913 79.3068 9.40913C76.8451 9.40913 74.9308 10.9447 74.9308 13.8693C74.9308 16.7934 76.8451 18.3294 79.3068 18.3294C80.8215 18.3294 82.0628 17.7821 82.8414 16.7095C82.9467 16.5621 82.8833 16.3936 82.7358 16.3308L81.4948 15.7836C81.3264 15.6993 81.1583 15.7625 81.0108 15.8678C80.5272 16.3514 79.8745 16.4778 79.3068 16.4778C78.297 16.4778 77.0347 16.0363 76.8663 14.2269H83.3669C83.5357 14.2269 83.6831 14.1006 83.6831 13.9324V13.8693ZM77.0138 12.8173C77.3925 11.5968 78.4441 11.2602 79.3068 11.2602C80.1694 11.2602 81.2211 11.5968 81.6001 12.8173H77.0138ZM91.2776 10.0402C91.3407 9.87171 91.2148 9.72469 91.046 9.66148C90.5206 9.51406 89.9944 9.45129 89.4892 9.45129C87.5539 9.45129 85.997 10.3979 85.997 13.0065V17.7821C85.997 17.9717 86.102 18.077 86.2917 18.077H87.638C87.8273 18.077 87.9326 17.9717 87.9326 17.7821V13.0065C87.9326 11.6601 88.7743 11.3235 89.6998 11.3235C90.0363 11.3235 90.3731 11.3656 90.7308 11.4288C90.8992 11.492 91.0461 11.3656 91.0673 11.1975L91.2776 10.0402ZM101.25 13.8693C101.25 10.9447 99.3354 9.40913 96.8737 9.40913C94.4126 9.40913 92.498 10.9447 92.498 13.8693C92.498 16.7934 94.4126 18.3294 96.8737 18.3294C98.3887 18.3294 99.6297 17.7821 100.408 16.7095C100.514 16.5621 100.45 16.3936 100.303 16.3308L99.062 15.7836C98.8939 15.6993 98.7252 15.7625 98.5777 15.8678C98.0941 16.3514 97.4417 16.4778 96.8737 16.4778C95.8639 16.4778 94.6019 16.0363 94.4332 14.2269H100.934C101.103 14.2269 101.25 14.1006 101.25 13.9324V13.8693ZM94.5807 12.8173C94.9594 11.5968 96.0113 11.2602 96.8737 11.2602C97.7366 11.2602 98.7886 11.5968 99.1673 12.8173H94.5807Z" fill="white"/>
</g>
<defs>
<clipPath id="clip0_5928_6304">
<rect width="101.25" height="27" fill="white"/>
</clipPath>
</defs>
</svg>
